<svg xmlns="http://www.w3.org/2000/svg" width="97.753" height="66.851"><g data-name="グループ 540"><g data-name="グループ 538"><path fill="#e2e2e2" d="m35.457 33.627 56.974-27.67 5.198 19.914Z" data-name="パス 8861"/></g><g data-name="グループ 537"><ellipse cx="8.368" cy="8.595" fill="#555454" data-name="楕円形 69" rx="8.368" ry="8.595" transform="translate(24.173 24.83)"/><g fill="#fff" stroke="#707070" data-name="楕円形 70" transform="translate(27.892)"><ellipse cx="4.649" cy="4.775" stroke="none" rx="4.649" ry="4.775"/><ellipse cx="4.649" cy="4.775" fill="none" rx="4.149" ry="4.275"/></g><g fill="#fff" stroke="#707070" data-name="楕円形 71" transform="translate(27.892 57.301)"><ellipse cx="4.649" cy="4.775" stroke="none" rx="4.649" ry="4.775"/><ellipse cx="4.649" cy="4.775" fill="none" rx="4.149" ry="4.275"/></g><g fill="#fff" stroke="#707070" data-name="楕円形 72" transform="translate(55.783 28.65)"><ellipse cx="4.649" cy="4.775" stroke="none" rx="4.649" ry="4.775"/><ellipse cx="4.649" cy="4.775" fill="none" rx="4.149" ry="4.275"/></g><g fill="#fff" stroke="#707070" data-name="楕円形 73" transform="translate(0 28.65)"><ellipse cx="4.649" cy="4.775" stroke="none" rx="4.649" ry="4.775"/><ellipse cx="4.649" cy="4.775" fill="none" rx="4.149" ry="4.275"/></g><g fill="#fff" stroke="#707070" data-name="楕円形 74" transform="translate(46.486 9.55)"><ellipse cx="4.649" cy="4.775" stroke="none" rx="4.649" ry="4.775"/><ellipse cx="4.649" cy="4.775" fill="none" rx="4.149" ry="4.275"/></g><g fill="#fff" stroke="#707070" data-name="楕円形 75" transform="translate(9.297 9.55)"><ellipse cx="4.649" cy="4.775" stroke="none" rx="4.649" ry="4.775"/><ellipse cx="4.649" cy="4.775" fill="none" rx="4.149" ry="4.275"/></g><g fill="#fff" stroke="#707070" data-name="楕円形 78" transform="translate(17.665 1.91)"><ellipse cx="4.649" cy="4.775" stroke="none" rx="4.649" ry="4.775"/><ellipse cx="4.649" cy="4.775" fill="none" rx="4.149" ry="4.275"/></g><g fill="#fff" stroke="#707070" data-name="楕円形 85" transform="translate(38.119 1.91)"><ellipse cx="4.649" cy="4.775" stroke="none" rx="4.649" ry="4.775"/><ellipse cx="4.649" cy="4.775" fill="none" rx="4.149" ry="4.275"/></g><g fill="#fff" stroke="#707070" data-name="楕円形 76" transform="translate(9.297 47.751)"><ellipse cx="4.649" cy="4.775" stroke="none" rx="4.649" ry="4.775"/><ellipse cx="4.649" cy="4.775" fill="none" rx="4.149" ry="4.275"/></g><g fill="#fff" stroke="#707070" data-name="楕円形 77" transform="translate(46.486 47.751)"><ellipse cx="4.649" cy="4.775" stroke="none" rx="4.649" ry="4.775"/><ellipse cx="4.649" cy="4.775" fill="none" rx="4.149" ry="4.275"/></g><g fill="#fff" stroke="#707070" data-name="楕円形 79" transform="translate(2.789 18.145)"><ellipse cx="4.649" cy="4.775" stroke="none" rx="4.649" ry="4.775"/><ellipse cx="4.649" cy="4.775" fill="none" rx="4.149" ry="4.275"/></g><g fill="#fff" stroke="#707070" data-name="楕円形 84" transform="translate(52.994 18.145)"><ellipse cx="4.649" cy="4.775" stroke="none" rx="4.649" ry="4.775"/><ellipse cx="4.649" cy="4.775" fill="none" rx="4.149" ry="4.275"/></g><g fill="#fff" stroke="#707070" data-name="楕円形 80" transform="translate(2.789 39.155)"><ellipse cx="4.649" cy="4.775" stroke="none" rx="4.649" ry="4.775"/><ellipse cx="4.649" cy="4.775" fill="none" rx="4.149" ry="4.275"/></g><g fill="#fff" stroke="#707070" data-name="楕円形 83" transform="translate(52.994 39.155)"><ellipse cx="4.649" cy="4.775" stroke="none" rx="4.649" ry="4.775"/><ellipse cx="4.649" cy="4.775" fill="none" rx="4.149" ry="4.275"/></g><g fill="#fff" stroke="#707070" data-name="楕円形 81" transform="translate(17.665 54.436)"><ellipse cx="4.649" cy="4.775" stroke="none" rx="4.649" ry="4.775"/><ellipse cx="4.649" cy="4.775" fill="none" rx="4.149" ry="4.275"/></g><g fill="#fff" stroke="#707070" data-name="楕円形 82" transform="translate(38.119 54.436)"><ellipse cx="4.649" cy="4.775" stroke="none" rx="4.649" ry="4.775"/><ellipse cx="4.649" cy="4.775" fill="none" rx="4.149" ry="4.275"/></g></g></g></svg>