<svg xmlns="http://www.w3.org/2000/svg" width="69.953" height="75.152"><defs><clipPath id="a"><path data-name="長方形 96" fill="none" d="M0 0h69.953v75.152H0z"/></clipPath><clipPath id="b"><path data-name="長方形 94" fill="none" d="M0 0h19.084v68.794H0z"/></clipPath></defs><g data-name="グループ 270"><g data-name="グループ 269" transform="translate(0 .001)" clip-path="url(#a)"><path data-name="パス 7891" d="m37.313 75.153 5.2-2.938-5.865-.951Z" fill="#474645"/><path data-name="パス 7892" d="m32.566 0-5.2 2.94 5.867.951Z" fill="#474645"/><g data-name="グループ 268"><g data-name="グループ 267" clip-path="url(#a)"><path data-name="パス 7893" d="M28.844 2.618c18.774-3.481 36.737 9.334 40.125 28.616 3.185 18.132-7.736 35.558-24.65 40.463" fill="none" stroke="#474645" stroke-width="1.275"/><path data-name="パス 7894" d="M41.114 72.453C22.341 75.933 4.375 63.119.987 43.836c-3.181-18.11 7.626-35.49 24.508-40.42l.391-.111" fill="none" stroke="#474645" stroke-width="1.275"/><g data-name="グループ 266" style="mix-blend-mode:multiply;isolation:isolate"><g data-name="グループ 265"><g data-name="グループ 264" clip-path="url(#b)" transform="translate(25.516 2.981)"><path data-name="線 172" fill="none" stroke="#474645" stroke-width=".425" d="M18.946 68.754.139.04"/></g></g></g><path data-name="パス 7895" d="M52.356 55.599a5.978 5.978 0 0 0-.206 1.536 6.458 6.458 0 0 0 .1 1.1l-.234.062a6.446 6.446 0 0 1-.1-1.1 8.3 8.3 0 0 1 .2-1.676Zm1.681-.153c-.014.235-.014.479-.014.639a4.174 4.174 0 0 0 .525-.129l.009.24a11.59 11.59 0 0 1-.534.111c0 .379.01.779.02 1.161a3.412 3.412 0 0 1 .666.386l-.162.2a2.942 2.942 0 0 0-.5-.358c-.007.306-.054.549-.551.549-.474 0-.694-.285-.694-.508a.4.4 0 0 1 .165-.285.855.855 0 0 1 .464-.1 2.353 2.353 0 0 1 .4.045c-.01-.159-.034-.848-.037-1.063a5.207 5.207 0 0 1-.548.028c-.165 0-.328-.007-.443-.015l-.007-.242a5.7 5.7 0 0 0 .585.031c.156 0 .3-.008.413-.018 0-.184-.01-.444-.017-.677Zm-.588 2.6c.348 0 .379-.146.379-.435a1.838 1.838 0 0 0-.42-.056c-.308 0-.393.084-.393.237s.176.254.433.254" fill="#1a1311"/><path data-name="パス 7896" d="m53.757 59.727-.216.087-.071-.188a6.126 6.126 0 0 0-.738.286c.125.41.226.685.646 1.782l-.237.094c-.149-.4-.379-1.035-.437-1.2s-.112-.324-.2-.591c-.264.1-.544.229-.642.274l-.092-.254a5.556 5.556 0 0 0 .656-.237c-.037-.1-.186-.549-.22-.639l.258-.076c.027.111.047.183.067.253.031.09.064.177.129.379.105-.036.622-.223.741-.261a5.026 5.026 0 0 0-.26-.549l.213-.087c.068.125.18.358.271.577a1.8 1.8 0 0 1 .264-.024.705.705 0 0 1 .785.68.636.636 0 0 1-.7.657 1.275 1.275 0 0 1-.832-.31c.043-.045.115-.125.152-.166a1.118 1.118 0 0 0 .67.267.418.418 0 0 0 .448-.451.459.459 0 0 0-.139-.334.584.584 0 0 0-.416-.132 1.528 1.528 0 0 0-.162.006Z" fill="#1a1311"/><path data-name="パス 7897" d="M52.432 62.225a3.625 3.625 0 0 0-.166 1.081 2.478 2.478 0 0 0 .1.779c.037.118.094.271.169.271s.17-.226.25-.545a1.134 1.134 0 0 0 .214.163c-.058.16-.251.71-.447.71-.247 0-.514-.591-.514-1.342a5.317 5.317 0 0 1 .128-1.185Zm1.512.1a3.808 3.808 0 0 1 .66 1.821l-.247.073a3.8 3.8 0 0 0-.615-1.79Z" fill="#1a1311"/><path data-name="パス 7898" d="M22.351 9.152a5.335 5.335 0 0 0-.047.678 3.553 3.553 0 0 0 .592-.146v.226a7.151 7.151 0 0 1-.605.132v.688a3.129 3.129 0 0 1 .944-.209.757.757 0 0 1 .818.776.728.728 0 0 1-.757.757.785.785 0 0 1-.66-.372.933.933 0 0 0 .179-.156.584.584 0 0 0 .5.309.491.491 0 0 0 .49-.508.546.546 0 0 0-.578-.6 2.727 2.727 0 0 0-.934.216c.007.3.014.684.014.85 0 .115-.02.32-.233.32a1.243 1.243 0 0 1-.643-.348.339.339 0 0 1-.125-.247c0-.31.578-.6.768-.7-.007-.188-.011-.5-.011-.758-.172.007-.264.007-.334.007a3.107 3.107 0 0 1-.319-.01l.011-.219c.125.01.2.014.311.014s.213 0 .342-.014v-.7Zm-.267 1.9c-.261.135-.555.323-.555.458 0 .118.348.348.443.348.014 0 .108-.013.108-.146v-.66m1.84-.813a2.2 2.2 0 0 0-.711-.465l.1-.174a2.026 2.026 0 0 1 .747.442Z" fill="#1a1311"/><path data-name="パス 7899" d="M23.44 12.847c-.291.233-.561.43-.758.573-.108.077-.24.164-.477.3.2-.01 1.6-.111 1.881-.142v.239c-.439.018-.646.025-.937.056-.426.159-.768.407-.768.792 0 .456.727.529 1.13.532v.264a1.624 1.624 0 0 1-1.191-.389.711.711 0 0 1-.159-.423.9.9 0 0 1 .511-.744c-.4.035-1.285.125-1.431.14l-.017-.227c.1 0 .318-.02.534-.048a8.328 8.328 0 0 0 1.306-.921 8.545 8.545 0 0 1-1.187.132l-.014-.236a6.246 6.246 0 0 0 1.384-.125Z" fill="#1a1311"/><path data-name="パス 7900" d="M21.857 16.015a3.626 3.626 0 0 0-.166 1.081 2.477 2.477 0 0 0 .1.779c.037.118.094.271.169.271s.17-.226.25-.545a1.134 1.134 0 0 0 .214.163c-.058.16-.251.71-.447.71-.247 0-.515-.591-.515-1.342a5.319 5.319 0 0 1 .129-1.185Zm1.512.1a3.808 3.808 0 0 1 .66 1.821l-.247.073a3.8 3.8 0 0 0-.615-1.79Z" fill="#1a1311"/><path data-name="線 173" fill="none" stroke="#474645" stroke-width=".25" d="m34.982 37.824-9.206-34.37"/><path data-name="パス 7901" d="M30.107 10.032c-.03-.038-.03-.038-.03-.054s.015-.015.022-.015c.142 0 .8.046.955.046s.171-.023.238-.107c.045-.054.179-.237.21-.237s.514.352.514.436c0 .054-.029.069-.261.231a.22.22 0 0 0-.126.237 11.474 11.474 0 0 0 .1 1.64c.343.774 1.32.843 2.454.843a8.942 8.942 0 0 0 2.543-.307c.016-.007.218-.068.218-.038s-.21.222-.24.276a2.109 2.109 0 0 0-.224.5c-.03.1-.082.1-.343.1-.037 0-1.029.015-1.222.015-2.38 0-2.88-.368-3.267-1.072-.06-.107-.1-.192-.15-.192-.015 0-.641.758-.738.873-.052.069-.261.4-.321.4-.1 0-.439-.6-.439-.643s.059-.07.081-.07a.616.616 0 0 0 .239-.054c.873-.406.873-.6.873-.857 0-.506-.015-1.02-.03-1.525-.007-.138-.007-.237-.193-.237-.089 0-.582.038-.65.038-.022 0-.037-.015-.06-.046Zm1.506-1.839a.261.261 0 0 1-.246.291c-.112 0-.134-.046-.4-.475a5.206 5.206 0 0 0-.635-.82c-.022-.016-.1-.092-.089-.123s1.371.42 1.371 1.127Zm3.924.421c.335 0 .372 0 .477-.13.209-.269.231-.3.306-.3.142 0 .582.483.582.522 0 .107-.142.107-.4.107h-3.433c-.657 0-.873.015-.94.023-.031 0-.142.015-.165.015s-.037-.015-.06-.046l-.151-.175c-.03-.038-.03-.038-.03-.054s.008-.015.022-.015c.052 0 .283.023.336.023.358.015.672.031 1.022.031h.567c.156 0 .223-.046.223-.26 0-.352 0-.437-.209-.437h-.191c-.656 0-.873.015-.946.023-.022 0-.135.015-.157.015a.09.09 0 0 1-.068-.045l-.142-.176c-.028-.039-.028-.039-.028-.054s.006-.016.021-.016c.052 0 .283.024.329.024.366.015.679.031 1.03.031h.156c.067 0 .2 0 .2-.223a3.192 3.192 0 0 0-.031-.383 1.205 1.205 0 0 1-.052-.146c0-.046.075-.054.1-.054s.492.061.544.077a.1.1 0 0 1 .082.092c0 .061-.03.084-.111.145s-.075.214-.075.261c0 .115 0 .23.2.23h.342c.374 0 .4 0 .485-.223.016-.038.089-.237.186-.237s.589.383.589.552c0 .108-.142.108-.4.108H34.56c-.134 0-.209.046-.209.214 0 .361 0 .483.209.483Zm-.978 1.885c-.149 0-.2.093-.2.146a.1.1 0 0 0 .03.076.411.411 0 0 1 .067.092c0 .015-.081.093-.089.115a1.6 1.6 0 0 0-.029.391c0 .169.022.988.022 1.173a.335.335 0 0 1-.365.336c-.157 0-.149-.045-.149-.421v-1.034c0-.024 0-.115-.068-.115-.037 0-.074.038-.1.061a3.715 3.715 0 0 1-.656.559 3.365 3.365 0 0 1-.963.5c-.015 0-.022-.008-.022-.015 0-.069.283-.237.336-.276a5.133 5.133 0 0 0 1.387-1.517c0-.069-.045-.069-.089-.069h-.426c-.135 0-.217 0-.262.093-.052.122-.089.214-.3.214-.165 0-.165-.038-.165-.429l-.016-.789c0-.038-.036-.253-.036-.306s.036-.054.074-.054a3.8 3.8 0 0 1 .373.138.9.9 0 0 0 .3.061h1.783c.126 0 .179-.023.216-.069.1-.138.111-.153.171-.153s.425.237.425.337c0 .046-.03.077-.075.107s-.074.054-.074.092.044.506.044.544a.338.338 0 0 1-.306.329.387.387 0 0 1-.239-.092c-.03-.023-.052-.023-.163-.023Zm.4-.2c.262 0 .262-.077.262-.445 0-.2-.12-.23-.254-.23H33.24c-.261 0-.261.077-.261.445 0 .2.127.23.261.23Zm.262 1.294c.037.008.119.031.142.039.358.115.909.329.909.788a.247.247 0 0 1-.231.276c-.1 0-.119-.023-.343-.269a3.722 3.722 0 0 0-.746-.658c-.067-.047-.462-.253-.462-.269s.06-.023.082-.023c.052 0 .313.039.344.039.193 0 .432-.5.529-.728.052-.139.075-.185.1-.185.06 0 .47.3.47.406 0 .046-.03.054-.283.162-.418.169-.567.345-.567.375s.022.04.052.048Z" fill="none" stroke="#fff"/><path data-name="パス 7902" d="M38.946 13.021c-.044 0-.2 0-.216.16-.015.2-.031.414-.359.414-.246 0-.261-.154-.261-.283 0-.031.045-1.563.045-1.854 0-.835 0-2.659-.06-3.433-.007-.07-.045-.391-.045-.46 0-.039.007-.061.045-.061s.067.015.351.16a.669.669 0 0 0 .373.108h2.283c.157 0 .216 0 .268-.077.112-.16.142-.2.216-.2.1 0 .649.361.649.476 0 .054-.037.084-.164.2-.1.076-.134.13-.134.5 0 .82.007.958.015 1.632.007.437.06 2.375.06 2.773a.381.381 0 0 1-.373.421c-.022 0-.216 0-.239-.291-.007-.13-.007-.184-.157-.184Zm2.238-2.782c.216 0 .216-.146.216-.245s-.022-1.877-.037-1.915a.182.182 0 0 0-.186-.1h-2.3a.166.166 0 0 0-.172.115c-.015.061-.015 1.724-.015 1.862s.007.283.209.283Zm-.007 2.575c.067 0 .2 0 .216-.161.007-.046.007-1.747.007-1.924 0-.161-.015-.291-.216-.291h-2.282c-.195 0-.217.115-.217.269 0 .252.022 1.485.022 1.762 0 .244.023.345.224.345Z" fill="none" stroke="#fff"/><path data-name="パス 7903" d="M44.353 12.492c0 .812-.4 1.272-.656 1.272a.366.366 0 0 1-.313-.391c0-.138.037-.176.418-.559a1.417 1.417 0 0 0 .425-.689.055.055 0 0 1 .052-.046c.066.007.074.344.074.413Zm3.692-3.18a.624.624 0 0 0 .268-.045c.06-.039.283-.276.343-.276s.462.322.462.46c0 .061-.194.284-.2.338-.015.115-.015.7-.015.774 0 .137.022.85.022.888 0 .253-.4.345-.462.345-.127 0-.119-.061-.127-.237 0-.153-.1-.153-.179-.153h-2.992c-.052 0-.157.008-.164.084-.007.1-.022.36-.41.36-.216 0-.216-.092-.216-.184 0-.636-.007-1.165-.03-1.8 0-.115-.037-.636-.037-.7 0-.031 0-.092.045-.092a4.478 4.478 0 0 1 .559.184 1.3 1.3 0 0 0 .373.054h.61c.216 0 .216-.084.216-.383s-.007-1.18-.022-1.44c0-.077-.03-.406-.03-.467 0-.031 0-.061.022-.061.053 0 .41.092.493.115.141.038.245.069.245.138 0 .038-.03.077-.1.138a.183.183 0 0 0-.081.176c0 .475 0 .529.239.529h.858c.306 0 .343 0 .4-.054s.306-.375.38-.375a2.154 2.154 0 0 1 .716.521c0 .108-.149.108-.4.108h-1.95c-.082 0-.239 0-.239.191 0 .858.015.866.239.866Zm-2.865.207c-.231 0-.231.07-.231.476a7.266 7.266 0 0 0 .045 1.088c0 .022.03.115.186.115h2.961a.18.18 0 0 0 .194-.115 6.476 6.476 0 0 0 .03-1.226c0-.214 0-.337-.231-.337Zm1.044 3.532c0 .444-.239.621-.44.621-.157 0-.224-.084-.224-.26 0-.107.075-.559.075-.651a1.937 1.937 0 0 0-.24-.867c-.015-.023-.022-.061-.007-.077a1.74 1.74 0 0 1 .836 1.234Zm.784-1.126c.06 0 .887.644.887 1.256 0 .4-.276.506-.374.506-.231 0-.239-.2-.254-.589a2.086 2.086 0 0 0-.239-.966c-.007-.023-.074-.176-.052-.192a.029.029 0 0 1 .032-.015Zm2.1.291c.343.245.746.628.746 1.011a.4.4 0 0 1-.351.444c-.186 0-.2-.061-.321-.613a3.208 3.208 0 0 0-.388-.9c-.015-.015-.06-.077-.03-.1.042-.049.295.127.34.158Z" fill="none" stroke="#fff"/><path data-name="パス 7904" d="M30.107 10.032c-.03-.038-.03-.038-.03-.054s.015-.015.022-.015c.142 0 .8.046.955.046s.171-.023.238-.107c.045-.054.179-.237.21-.237s.514.352.514.436c0 .054-.029.069-.261.231a.22.22 0 0 0-.126.237 11.474 11.474 0 0 0 .1 1.64c.343.774 1.32.843 2.454.843a8.942 8.942 0 0 0 2.543-.307c.016-.007.218-.068.218-.038s-.21.222-.24.276a2.109 2.109 0 0 0-.224.5c-.03.1-.082.1-.343.1-.037 0-1.029.015-1.222.015-2.38 0-2.88-.368-3.267-1.072-.06-.107-.1-.192-.15-.192-.015 0-.641.758-.738.873-.052.069-.261.4-.321.4-.1 0-.439-.6-.439-.643s.059-.07.081-.07a.616.616 0 0 0 .239-.054c.873-.406.873-.6.873-.857 0-.506-.015-1.02-.03-1.525-.007-.138-.007-.237-.193-.237-.089 0-.582.038-.65.038-.022 0-.037-.015-.06-.046Zm1.506-1.839a.261.261 0 0 1-.246.291c-.112 0-.134-.046-.4-.475a5.206 5.206 0 0 0-.635-.82c-.022-.016-.1-.092-.089-.123s1.372.422 1.372 1.127m3.924.421c.335 0 .372 0 .477-.13.209-.269.231-.3.306-.3.142 0 .582.483.582.522 0 .107-.142.107-.4.107h-3.435c-.657 0-.873.015-.94.023-.031 0-.142.015-.165.015s-.037-.015-.06-.046l-.151-.175c-.03-.038-.03-.038-.03-.054s.008-.015.022-.015c.052 0 .283.023.336.023.358.015.672.031 1.022.031h.567c.156 0 .223-.046.223-.26 0-.352 0-.437-.209-.437h-.191c-.656 0-.873.015-.946.023-.022 0-.135.015-.157.015a.09.09 0 0 1-.068-.045l-.142-.176c-.028-.039-.028-.039-.028-.054s.006-.016.021-.016c.052 0 .283.024.329.024.366.015.679.031 1.03.031h.156c.067 0 .2 0 .2-.223a3.192 3.192 0 0 0-.031-.383 1.205 1.205 0 0 1-.052-.146c0-.046.075-.054.1-.054s.492.061.544.077a.1.1 0 0 1 .082.092c0 .061-.03.084-.111.145s-.075.214-.075.261c0 .115 0 .23.2.23h.342c.374 0 .4 0 .485-.223.016-.038.089-.237.186-.237s.589.383.589.552c0 .108-.142.108-.4.108H34.56c-.134 0-.209.046-.209.214 0 .361 0 .483.209.483Zm-.978 1.885c-.149 0-.2.093-.2.146a.1.1 0 0 0 .03.076.411.411 0 0 1 .067.092c0 .015-.081.093-.089.115a1.6 1.6 0 0 0-.029.391c0 .169.022.988.022 1.173a.335.335 0 0 1-.365.336c-.157 0-.149-.045-.149-.421v-1.034c0-.024 0-.115-.068-.115-.037 0-.074.038-.1.061a3.715 3.715 0 0 1-.656.559 3.365 3.365 0 0 1-.963.5c-.015 0-.022-.008-.022-.015 0-.069.283-.237.336-.276a5.133 5.133 0 0 0 1.387-1.517c0-.069-.045-.069-.089-.069h-.426c-.135 0-.217 0-.262.093-.052.122-.089.214-.3.214-.165 0-.165-.038-.165-.429l-.016-.789c0-.038-.036-.253-.036-.306s.036-.054.074-.054a3.8 3.8 0 0 1 .373.138.9.9 0 0 0 .3.061h1.783c.126 0 .179-.023.216-.069.1-.138.111-.153.171-.153s.425.237.425.337c0 .046-.03.077-.075.107s-.074.054-.074.092.044.506.044.544a.338.338 0 0 1-.306.329.387.387 0 0 1-.239-.092c-.03-.023-.052-.023-.163-.023Zm.4-.2c.262 0 .262-.077.262-.445 0-.2-.12-.23-.254-.23H33.24c-.261 0-.261.077-.261.445 0 .2.127.23.261.23Zm.262 1.294c.037.008.119.031.142.039.358.115.909.329.909.788a.247.247 0 0 1-.231.276c-.1 0-.119-.023-.343-.269a3.722 3.722 0 0 0-.746-.658c-.067-.047-.462-.253-.462-.269s.06-.023.082-.023c.052 0 .313.039.344.039.193 0 .432-.5.529-.728.052-.139.075-.185.1-.185.06 0 .47.3.47.406 0 .046-.03.054-.283.162-.418.169-.567.345-.567.375s.022.038.053.045" fill="#1a1311"/><path data-name="パス 7905" d="M38.946 13.021c-.044 0-.2 0-.216.16-.015.2-.031.414-.359.414-.246 0-.261-.154-.261-.283 0-.031.045-1.563.045-1.854 0-.835 0-2.659-.06-3.433-.007-.07-.045-.391-.045-.46 0-.039.007-.061.045-.061s.067.015.351.16a.669.669 0 0 0 .373.108h2.283c.157 0 .216 0 .268-.077.112-.16.142-.2.216-.2.1 0 .649.361.649.476 0 .054-.037.084-.164.2-.1.076-.134.13-.134.5 0 .82.007.958.015 1.632.007.437.06 2.375.06 2.773a.381.381 0 0 1-.373.421c-.022 0-.216 0-.239-.291-.007-.13-.007-.184-.157-.184Zm2.238-2.782c.216 0 .216-.146.216-.245s-.022-1.877-.037-1.915a.182.182 0 0 0-.186-.1h-2.3a.166.166 0 0 0-.172.115c-.015.061-.015 1.724-.015 1.862s.007.283.209.283Zm-.007 2.575c.067 0 .2 0 .216-.161.007-.046.007-1.747.007-1.924 0-.161-.015-.291-.216-.291h-2.282c-.195 0-.217.115-.217.269 0 .252.022 1.485.022 1.762 0 .244.023.345.224.345Z" fill="#1a1311"/><path data-name="パス 7906" d="M44.353 12.492c0 .812-.4 1.272-.656 1.272a.366.366 0 0 1-.313-.391c0-.138.037-.176.418-.559a1.417 1.417 0 0 0 .425-.689.055.055 0 0 1 .052-.046c.067.008.075.345.075.414m3.692-3.18a.624.624 0 0 0 .268-.045c.06-.039.283-.276.343-.276s.462.322.462.46c0 .061-.194.284-.2.338-.015.115-.015.7-.015.774 0 .137.022.85.022.888 0 .253-.4.345-.462.345-.127 0-.119-.061-.127-.237 0-.153-.1-.153-.179-.153h-2.993c-.052 0-.157.008-.164.084-.007.1-.022.36-.41.36-.216 0-.216-.092-.216-.184 0-.636-.007-1.165-.03-1.8 0-.115-.037-.636-.037-.7 0-.031 0-.092.045-.092a4.478 4.478 0 0 1 .559.184 1.3 1.3 0 0 0 .373.054h.61c.216 0 .216-.084.216-.383s-.007-1.18-.022-1.44c0-.077-.03-.406-.03-.467 0-.031 0-.061.022-.061.053 0 .41.092.493.115.141.038.245.069.245.138 0 .038-.03.077-.1.138a.183.183 0 0 0-.081.176c0 .475 0 .529.239.529h.858c.306 0 .343 0 .4-.054s.306-.375.38-.375a2.154 2.154 0 0 1 .716.521c0 .108-.149.108-.4.108h-1.95c-.082 0-.239 0-.239.191 0 .858.015.866.239.866Zm-2.865.207c-.231 0-.231.07-.231.476a7.266 7.266 0 0 0 .045 1.088c0 .022.03.115.186.115h2.961a.18.18 0 0 0 .194-.115 6.476 6.476 0 0 0 .03-1.226c0-.214 0-.337-.231-.337Zm1.044 3.532c0 .444-.239.621-.44.621-.157 0-.224-.084-.224-.26 0-.107.075-.559.075-.651a1.937 1.937 0 0 0-.241-.868c-.015-.023-.022-.061-.007-.077a1.74 1.74 0 0 1 .835 1.233m.784-1.126c.06 0 .887.644.887 1.256 0 .4-.276.506-.374.506-.231 0-.239-.2-.254-.589a2.086 2.086 0 0 0-.239-.966c-.007-.023-.074-.176-.052-.192a.029.029 0 0 1 .03-.015m2.1.291c.343.245.746.628.746 1.011a.4.4 0 0 1-.351.444c-.186 0-.2-.061-.321-.613a3.208 3.208 0 0 0-.388-.9c-.015-.015-.06-.077-.03-.1.045-.046.3.13.343.161" fill="#1a1311"/><path data-name="パス 7907" d="M20.138 65.123c-.022-.031-.037-.046-.037-.061s.022-.016.03-.016c.149 0 .895.054 1.066.054s.216-.038.276-.107c.037-.046.194-.33.261-.33.03 0 .477.422.477.514 0 .046-.157.2-.186.237a4.611 4.611 0 0 0-.067 1c0 .605 0 .981.477 1.333.336.253.835.36 2.245.36a14.271 14.271 0 0 0 1.685-.084c.1-.008.582-.093.626-.093.015 0 .082 0 .082.046a.993.993 0 0 1-.09.13 1.451 1.451 0 0 0-.268.5c-.037.091-.075.091-.425.091a23.647 23.647 0 0 1-2.879-.138 1.561 1.561 0 0 1-1.268-.85c-.216-.391-.246-.437-.321-.437a.213.213 0 0 0-.149.068 8.034 8.034 0 0 0-.761.9c-.052.061-.246.444-.328.444s-.462-.566-.462-.582c0-.084.03-.092.313-.191a4.021 4.021 0 0 0 .917-.583c.082-.1.089-.1.089-1.786 0-.237-.082-.237-.41-.237-.112 0-.671.039-.686.039s-.037-.015-.067-.046Zm1.615-2.169a1.007 1.007 0 0 1 .209.559.326.326 0 0 1-.276.337c-.172 0-.276-.2-.365-.359a4.4 4.4 0 0 0-.917-1.15c0-.008-.089-.084-.089-.1 0-.031.045-.031.067-.031a.492.492 0 0 1 .1.015 2.485 2.485 0 0 1 1.271.729Zm3.763 1.635c-.224 0-.224.137-.224.3 0 .368.03 2.183.03 2.6 0 .176-.03.368-.343.368-.186 0-.231-.061-.231-.2 0-.069.06-1.547.06-1.839 0-.092-.03-1.058-.037-1.1-.037-.13-.127-.13-.209-.13h-.709c-.1 0-.239 0-.245.207-.015.268-.023.605-.053.857a2.534 2.534 0 0 1-1.059 1.954c-.03 0-.037-.031-.037-.045a2.177 2.177 0 0 1 .231-.4 5.947 5.947 0 0 0 .44-2.857 11.694 11.694 0 0 0-.044-1.257 2.893 2.893 0 0 1-.083-.368c0-.031 0-.107.089-.107s.12.031.3.13a.612.612 0 0 0 .314.107 9.04 9.04 0 0 0 2.051-.7c.03-.023.164-.138.2-.138a1.86 1.86 0 0 1 .641.567c0 .115-.179.115-.425.115a1.542 1.542 0 0 0-.38.031 14.306 14.306 0 0 1-1.753.253c-.306.031-.344.031-.38.077-.052.054-.052.161-.052 1.15 0 .146.037.23.239.23h1.551c.254 0 .358 0 .455-.077.06-.038.276-.368.358-.368a2.088 2.088 0 0 1 .656.544c0 .085-.067.1-.4.1Z" fill="none" stroke="#fff"/><path data-name="パス 7908" d="M29.05 68.058c-.044 0-.2 0-.216.16-.015.2-.031.414-.359.414-.246 0-.261-.154-.261-.283 0-.031.045-1.563.045-1.854 0-.835 0-2.659-.06-3.433-.007-.07-.045-.391-.045-.46 0-.039.007-.061.045-.061s.067.015.351.16a.669.669 0 0 0 .373.108h2.283c.157 0 .216 0 .268-.077.112-.16.142-.2.216-.2.1 0 .649.361.649.476 0 .054-.037.084-.164.2-.1.076-.134.13-.134.5 0 .82.007.958.015 1.632.007.437.06 2.375.06 2.773a.381.381 0 0 1-.373.421c-.022 0-.216 0-.239-.291-.007-.13-.007-.184-.157-.184Zm2.238-2.782c.216 0 .216-.146.216-.245s-.022-1.877-.037-1.915a.182.182 0 0 0-.186-.1h-2.3a.166.166 0 0 0-.172.115c-.015.061-.015 1.724-.015 1.862s.007.283.209.283Zm-.007 2.575c.067 0 .2 0 .216-.161.007-.046.007-1.747.007-1.924 0-.161-.015-.291-.216-.291h-2.282c-.195 0-.217.115-.217.269 0 .252.022 1.485.022 1.762 0 .244.023.345.224.345Z" fill="none" stroke="#fff"/><path data-name="パス 7909" d="M34.458 67.529c0 .812-.4 1.272-.656 1.272a.366.366 0 0 1-.313-.391c0-.138.037-.176.418-.559a1.417 1.417 0 0 0 .425-.689.055.055 0 0 1 .052-.046c.066.007.074.344.074.413Zm3.692-3.18a.624.624 0 0 0 .268-.045c.06-.039.283-.276.343-.276s.462.322.462.46c0 .061-.194.284-.2.338-.015.115-.015.7-.015.774 0 .137.022.85.022.888 0 .254-.4.345-.462.345-.127 0-.119-.061-.127-.237 0-.153-.1-.153-.179-.153H35.27c-.052 0-.157.008-.164.084-.007.1-.022.36-.41.36-.216 0-.216-.092-.216-.184 0-.636-.007-1.165-.03-1.8 0-.115-.037-.636-.037-.7 0-.031 0-.092.045-.092a4.48 4.48 0 0 1 .559.184 1.3 1.3 0 0 0 .373.054h.612c.216 0 .216-.084.216-.383s-.007-1.18-.022-1.44c0-.077-.03-.406-.03-.467 0-.031 0-.061.022-.061.053 0 .41.092.493.115.141.038.245.069.245.138 0 .038-.03.077-.1.138a.183.183 0 0 0-.081.176c0 .475 0 .529.239.529h.858c.306 0 .343 0 .4-.054s.306-.375.38-.375a2.154 2.154 0 0 1 .716.521c0 .108-.149.108-.4.108h-1.952c-.082 0-.239 0-.239.191 0 .858.015.866.239.866Zm-2.864.207c-.231 0-.231.07-.231.476a7.267 7.267 0 0 0 .04 1.087c0 .022.03.115.186.115h2.961a.18.18 0 0 0 .194-.115 6.476 6.476 0 0 0 .03-1.226c0-.214 0-.337-.231-.337Zm1.044 3.532c0 .444-.239.621-.44.621-.157 0-.224-.084-.224-.26 0-.107.075-.559.075-.651a1.937 1.937 0 0 0-.239-.866c-.015-.023-.022-.061-.007-.077a1.74 1.74 0 0 1 .834 1.233Zm.784-1.126c.06 0 .887.643.887 1.256 0 .4-.276.506-.374.506-.231 0-.239-.2-.254-.589a2.086 2.086 0 0 0-.239-.966c-.007-.023-.074-.176-.052-.192a.029.029 0 0 1 .031-.015Zm2.1.291c.343.245.746.628.746 1.011a.4.4 0 0 1-.351.444c-.186 0-.2-.061-.321-.613a3.209 3.209 0 0 0-.388-.9c-.015-.015-.06-.077-.03-.1.041-.049.294.127.339.158Z" fill="none" stroke="#fff"/><path data-name="パス 7910" d="M20.138 65.123c-.022-.031-.037-.046-.037-.061s.022-.016.03-.016c.149 0 .895.054 1.066.054s.216-.038.276-.107c.037-.046.194-.33.261-.33.03 0 .477.422.477.514 0 .046-.157.2-.186.237a4.611 4.611 0 0 0-.067 1c0 .605 0 .981.477 1.333.336.253.835.36 2.245.36a14.271 14.271 0 0 0 1.685-.084c.1-.008.582-.093.626-.093.015 0 .082 0 .082.046a.993.993 0 0 1-.09.13 1.451 1.451 0 0 0-.268.5c-.037.091-.075.091-.425.091a23.647 23.647 0 0 1-2.879-.138 1.561 1.561 0 0 1-1.268-.85c-.216-.391-.246-.437-.321-.437a.213.213 0 0 0-.149.068 8.034 8.034 0 0 0-.761.9c-.052.061-.246.444-.328.444s-.462-.566-.462-.582c0-.084.03-.092.313-.191a4.021 4.021 0 0 0 .917-.583c.082-.1.089-.1.089-1.786 0-.237-.082-.237-.41-.237-.112 0-.671.039-.686.039s-.037-.015-.067-.046Zm1.615-2.169a1.007 1.007 0 0 1 .209.559.326.326 0 0 1-.276.337c-.172 0-.276-.2-.365-.359a4.4 4.4 0 0 0-.917-1.15c0-.008-.089-.084-.089-.1 0-.031.045-.031.067-.031a.492.492 0 0 1 .1.015 2.485 2.485 0 0 1 1.268.728m3.766 1.636c-.224 0-.224.137-.224.3 0 .368.03 2.183.03 2.6 0 .176-.03.368-.343.368-.186 0-.231-.061-.231-.2 0-.069.06-1.547.06-1.839 0-.092-.03-1.058-.037-1.1-.037-.13-.127-.13-.209-.13h-.709c-.1 0-.239 0-.245.207-.015.268-.023.605-.053.857a2.534 2.534 0 0 1-1.059 1.954c-.03 0-.037-.031-.037-.045a2.177 2.177 0 0 1 .231-.4 5.947 5.947 0 0 0 .44-2.857 11.694 11.694 0 0 0-.044-1.257 2.893 2.893 0 0 1-.083-.368c0-.031 0-.107.089-.107s.12.031.3.13a.612.612 0 0 0 .314.107 9.04 9.04 0 0 0 2.051-.7c.03-.023.164-.138.2-.138a1.86 1.86 0 0 1 .641.567c0 .115-.179.115-.425.115a1.542 1.542 0 0 0-.38.031 14.306 14.306 0 0 1-1.753.253c-.306.031-.344.031-.38.077-.052.054-.052.161-.052 1.15 0 .146.037.23.239.23h1.551c.254 0 .358 0 .455-.077.06-.038.276-.368.358-.368a2.088 2.088 0 0 1 .656.544c0 .085-.067.1-.4.1Z" fill="#1a1311"/><path data-name="パス 7911" d="M29.05 68.058c-.044 0-.2 0-.216.16-.015.2-.031.414-.359.414-.246 0-.261-.154-.261-.283 0-.031.045-1.563.045-1.854 0-.835 0-2.659-.06-3.433-.007-.07-.045-.391-.045-.46 0-.039.007-.061.045-.061s.067.015.351.16a.669.669 0 0 0 .373.108h2.283c.157 0 .216 0 .268-.077.112-.16.142-.2.216-.2.1 0 .649.361.649.476 0 .054-.037.084-.164.2-.1.076-.134.13-.134.5 0 .82.007.958.015 1.632.007.437.06 2.375.06 2.773a.381.381 0 0 1-.373.421c-.022 0-.216 0-.239-.291-.007-.13-.007-.184-.157-.184Zm2.238-2.782c.216 0 .216-.146.216-.245s-.022-1.877-.037-1.915a.182.182 0 0 0-.186-.1h-2.3a.166.166 0 0 0-.172.115c-.015.061-.015 1.724-.015 1.862s.007.283.209.283Zm-.007 2.575c.067 0 .2 0 .216-.161.007-.046.007-1.747.007-1.924 0-.161-.015-.291-.216-.291h-2.282c-.195 0-.217.115-.217.269 0 .252.022 1.485.022 1.762 0 .244.023.345.224.345Z" fill="#1a1311"/><path data-name="パス 7912" d="M34.458 67.529c0 .812-.4 1.272-.656 1.272a.366.366 0 0 1-.313-.391c0-.138.037-.176.418-.559a1.417 1.417 0 0 0 .425-.689.055.055 0 0 1 .052-.046c.067.008.075.345.075.414m3.692-3.18a.624.624 0 0 0 .268-.045c.06-.039.283-.276.343-.276s.462.322.462.46c0 .061-.194.284-.2.338-.015.115-.015.7-.015.774 0 .137.022.85.022.888 0 .254-.4.345-.462.345-.127 0-.119-.061-.127-.237 0-.153-.1-.153-.179-.153H35.27c-.052 0-.157.008-.164.084-.007.1-.022.36-.41.36-.216 0-.216-.092-.216-.184 0-.636-.007-1.165-.03-1.8 0-.115-.037-.636-.037-.7 0-.031 0-.092.045-.092a4.48 4.48 0 0 1 .559.184 1.3 1.3 0 0 0 .373.054h.612c.216 0 .216-.084.216-.383s-.007-1.18-.022-1.44c0-.077-.03-.406-.03-.467 0-.031 0-.061.022-.061.053 0 .41.092.493.115.141.038.245.069.245.138 0 .038-.03.077-.1.138a.183.183 0 0 0-.081.176c0 .475 0 .529.239.529h.858c.306 0 .343 0 .4-.054s.306-.375.38-.375a2.154 2.154 0 0 1 .716.521c0 .108-.149.108-.4.108h-1.952c-.082 0-.239 0-.239.191 0 .858.015.866.239.866Zm-2.864.207c-.231 0-.231.07-.231.476a7.267 7.267 0 0 0 .039 1.086c0 .022.03.115.186.115h2.961a.18.18 0 0 0 .194-.115 6.476 6.476 0 0 0 .03-1.226c0-.214 0-.337-.231-.337Zm1.044 3.532c0 .444-.239.621-.44.621-.157 0-.224-.084-.224-.26 0-.107.075-.559.075-.651a1.937 1.937 0 0 0-.239-.866c-.015-.023-.022-.061-.007-.077a1.74 1.74 0 0 1 .835 1.233m.784-1.126c.06 0 .887.643.887 1.256 0 .4-.276.506-.374.506-.231 0-.239-.2-.254-.589a2.086 2.086 0 0 0-.239-.966c-.007-.023-.074-.176-.052-.192a.029.029 0 0 1 .03-.015m2.1.291c.343.245.746.628.746 1.011a.4.4 0 0 1-.351.444c-.186 0-.2-.061-.321-.613a3.209 3.209 0 0 0-.388-.9c-.015-.015-.06-.077-.03-.1.045-.046.3.13.343.161" fill="#1a1311"/><path data-name="パス 7913" d="M46.576 59.343c-.134 0-.177.07-.19.107a.28.28 0 0 1-.3.207c-.2 0-.2-.125-.2-.2 0-.025.018-.32.025-.382.012-.307.012-.878.012-1.1a6.037 6.037 0 0 0-.019-.67c-.005-.038-.043-.239-.043-.288s.062-.069.1-.069c.055 0 .085.018.391.156a.563.563 0 0 0 .287.069h2.222a.223.223 0 0 0 .183-.094c.085-.119.1-.131.14-.131s.537.25.537.388c0 .038-.012.05-.122.139-.085.063-.085.125-.085.639 0 .439.006.721.012.934 0 .044.012.27.012.32a.294.294 0 0 1-.287.314c-.177 0-.189-.132-.2-.2a.153.153 0 0 0-.171-.132h-.769c-.062 0-.183 0-.183.175v.684a.16.16 0 0 0 .188.175h1.294a.841.841 0 0 0 .3-.025c.055-.024.262-.313.336-.313s.452.307.452.42c0 .081-.031.081-.275.081h-2.097c-.14 0-.188.056-.188.169 0 .194.018 1.147.018 1.367 0 .275 0 .306-.06.357a.556.556 0 0 1-.306.113c-.1 0-.171-.038-.171-.226 0-.013.031-.458.037-.527.018-.307.043-.652.043-1.072 0-.182-.116-.182-.177-.182h-1.289c-.146 0-.556 0-.77.018-.018 0-.11.013-.128.013s-.031-.013-.055-.038l-.116-.144c-.031-.031-.031-.031-.031-.044s.018-.013.024-.013c.037 0 .226.019.268.019.177.013.495.025.836.025h1.258a.151.151 0 0 0 .177-.169v-.7c0-.169-.116-.169-.171-.169Zm-.006-2.013c-.177 0-.177.114-.177.295 0 .371 0 .414.043.464a.158.158 0 0 0 .134.051h2.313c.055 0 .177 0 .177-.182 0-.609 0-.628-.177-.628Zm0 .972c-.177 0-.177.043-.177.439s0 .439.177.439h2.313c.177 0 .177-.044.177-.439s0-.439-.177-.439Z" fill="#1a1311"/><path data-name="パス 7914" d="M13.443 14.128c-.03-.031-.03-.031-.03-.044s.018-.013.024-.013c.1 0 .58.038.69.038a.2.2 0 0 0 .159-.07c.122-.125.128-.132.165-.132a.778.778 0 0 1 .348.383.125.125 0 0 1-.055.088c-.018.019-.128.081-.153.1-.043.044-.043.113-.043.752 0 .144.006.583.018.7a1.171 1.171 0 0 0 .586.571 8.93 8.93 0 0 0 1.764.132c.323 0 1.294-.038 1.514-.081.037-.007.628-.12.628-.107s-.079.081-.085.088a1.2 1.2 0 0 0-.311.439c-.061.144-.079.144-.244.144a19.178 19.178 0 0 1-2.246-.1c-.971-.1-1.258-.338-1.435-.545-.043-.056-.214-.345-.256-.345a6.051 6.051 0 0 0-.635.746 2.542 2.542 0 0 1-.153.238c-.1 0-.391-.457-.391-.558 0-.038.018-.056.049-.056s.079.013.1.013c.128 0 .677-.257.72-.4.024-.069.024-1.116.024-1.267 0-.545 0-.552-.2-.552-.055 0-.342.024-.384.024-.024 0-.037-.012-.055-.037Zm1.339-1.129c0 .144-.061.283-.183.283-.085 0-.189-.038-.336-.37a5.64 5.64 0 0 0-.628-.978c-.018-.025-.165-.182-.165-.188s0-.013.007-.013a1.673 1.673 0 0 1 .58.27c.031.019.726.514.726 1m2.8-.031c-.012 0-.031.006-.031.025s.147.088.183.107c.067.031.159.094.159.156s-.019.063-.153.094a2.148 2.148 0 0 0-.379.452c0 .038.055.038.073.038h.33a.226.226 0 0 0 .238-.113c.172-.22.19-.244.245-.244s.531.345.531.432-.1.094-.287.094h-1.069c-.177 0-.177.088-.177.213 0 .295 0 .37.159.37h.171c.159 0 .2-.019.275-.119.085-.119.14-.169.2-.169s.433.282.433.364-.061.088-.22.088h-.842c-.067 0-.171 0-.171.182 0 .407 0 .451.189.451h.262c.275 0 .306 0 .391-.113.17-.226.189-.25.25-.25s.525.344.525.432-.1.093-.287.093h-1.13c-.171 0-.2.051-.2.251 0 .076.006.383 0 .446a.236.236 0 0 1-.262.2c-.1 0-.2-.031-.2-.2 0-.069.043-.54.043-.552 0-.144-.11-.144-.171-.144h-.159c-.354 0-.592.013-.672.019-.024 0-.11.012-.128.012s-.037-.012-.055-.037l-.122-.145c-.018-.031-.024-.031-.024-.044s.005-.013.024-.013c.043 0 .233.02.269.02.232.012.506.024.738.024h.15c.183 0 .183-.044.183-.445 0-.107 0-.188-.2-.188a7.79 7.79 0 0 0-.555.019.4.4 0 0 1-.085.013c-.024 0-.037-.013-.055-.038l-.116-.144c-.024-.031-.031-.031-.031-.044s.012-.013.025-.013.323.025.384.025c.092 0 .421.013.488.013s.146 0 .146-.182c0-.357 0-.395-.165-.395a5.676 5.676 0 0 0-.647.012c-.024 0-.116.019-.135.019s-.03-.019-.048-.043l-.123-.144c-.024-.025-.024-.031-.024-.038a.017.017 0 0 1 .019-.019c.043 0 .231.026.274.026.3.019.55.019.837.019h.2c.14 0 .153-.045.2-.157a2.507 2.507 0 0 0 .146-.609c0-.107-.061-.107-.128-.107h-1.545c-.135 0-.19.051-.19.207a4.766 4.766 0 0 1-.47 2.6c-.055.093-.189.307-.262.307-.006 0-.012-.013-.012-.019s.085-.2.1-.238a6.14 6.14 0 0 0 .3-2.4 6.734 6.734 0 0 0-.055-1.141c-.012-.056-.061-.308-.061-.357s.018-.056.061-.056a2.254 2.254 0 0 1 .336.132.431.431 0 0 0 .2.037h2.253a.148.148 0 0 0 .158-.075c.019-.025.055-.07.1-.07.074 0 .44.239.44.334 0 .036 0 .036-.085.118-.061.057-.073.093-.073.251 0 .044.012.232.012.27a.28.28 0 0 1-.268.288c-.1 0-.128-.063-.165-.132a.128.128 0 0 0-.128-.063Zm-1.9-.752c-.158 0-.158.069-.158.395 0 .093.018.194.158.194h2.216c.159 0 .159-.063.159-.394 0-.095-.018-.195-.159-.195Zm1.191 1.365a.214.214 0 0 1-.189.226c-.11 0-.146-.106-.189-.263a2.9 2.9 0 0 0-.2-.432c-.006-.013-.061-.088-.061-.094s.031-.025.043-.025a.71.71 0 0 1 .592.589" fill="#1a1311"/><path data-name="パス 7915" d="M32.857 40.917a3.209 3.209 0 1 1 3.206 3.3 3.252 3.252 0 0 1-3.206-3.3" fill="#474645"/><path data-name="パス 7916" d="M27.202 2.048a1.97 1.97 0 0 1-.262 2.713 1.848 1.848 0 0 1-2.648-.272 1.965 1.965 0 0 1 .271-2.718 1.841 1.841 0 0 1 2.637.276" fill="#474645"/><path data-name="パス 7917" d="M27.202 2.048a1.97 1.97 0 0 1-.262 2.713 1.848 1.848 0 0 1-2.648-.272 1.965 1.965 0 0 1 .271-2.718 1.841 1.841 0 0 1 2.639.277Z" fill="none" stroke="#474645" stroke-linejoin="round" stroke-width=".114"/><path data-name="パス 7918" d="M45.483 70.695a1.969 1.969 0 0 1-.262 2.713 1.846 1.846 0 0 1-2.648-.27 1.966 1.966 0 0 1 .272-2.719 1.841 1.841 0 0 1 2.638.276" fill="#474645"/><path data-name="パス 7919" d="M45.483 70.695a1.969 1.969 0 0 1-.262 2.713 1.846 1.846 0 0 1-2.648-.27 1.966 1.966 0 0 1 .272-2.719 1.841 1.841 0 0 1 2.638.276Z" fill="none" stroke="#474645" stroke-linejoin="round" stroke-width=".114"/><path data-name="パス 7920" d="M22.197 58.198a4.071 4.071 0 0 0 .172.559 4.3 4.3 0 0 0 .761-.184l.051.215a5.48 5.48 0 0 1-.741.164 2.166 2.166 0 0 0 .18.371 4 4 0 0 0 .862-.24l.051.219a5.692 5.692 0 0 1-.8.212 2.285 2.285 0 0 0 .436.542l-.135.219a2.039 2.039 0 0 0-.88-.2c-.538 0-.764.2-.764.442 0 .361.666.382.987.382a4.408 4.408 0 0 0 .778-.07l.014.236a4.7 4.7 0 0 1-.68.042 4.113 4.113 0 0 1-.74-.058c-.552-.109-.582-.459-.582-.539 0-.327.291-.618.93-.618a1.9 1.9 0 0 1 .778.146 3.608 3.608 0 0 1-.365-.491 9.443 9.443 0 0 1-1.194.091c-.088 0-.193 0-.328-.013v-.219a2.906 2.906 0 0 0 .406.028 8.408 8.408 0 0 0 1.011-.062c-.067-.125-.125-.258-.193-.4a5.068 5.068 0 0 1-.934.046l.007-.216a3.09 3.09 0 0 0 .345.014 4.062 4.062 0 0 0 .5-.031c-.074-.173-.135-.379-.2-.543Z" fill="#1a1311"/><path data-name="パス 7921" d="M25.36 58.364c-.473.931-.527 1.032-.7 1.446a1.042 1.042 0 0 1 .6-.253.4.4 0 0 1 .264.1.371.371 0 0 1 .085.295c0 .087-.014.469-.014.546 0 .2 0 .372.268.372a.548.548 0 0 0 .463-.316 2.37 2.37 0 0 0 .233-.876.9.9 0 0 0 .264.059c-.047.306-.21 1.352-.981 1.352-.443 0-.477-.278-.477-.559 0-.084.01-.462.01-.539 0-.142-.054-.212-.176-.212-.234 0-.612.352-.7.462a2.394 2.394 0 0 0-.173.32c-.064.139-.138.3-.237.5l-.237-.143a13.911 13.911 0 0 0 .673-1.373c.165-.364.433-.987.568-1.307Z" fill="#1a1311"/><path data-name="パス 7922" d="M27.795 58.352c-.044.393-.1 1.306-.1 1.8 0 .337 0 .5.2.622a.845.845 0 0 0 .372.08 1.425 1.425 0 0 0 1.255-1.029 1.951 1.951 0 0 0 .22.17 1.759 1.759 0 0 1-1.509 1.077.854.854 0 0 1-.626-.257 1.011 1.011 0 0 1-.142-.656c0-.14.007-.382.014-.57.01-.421.024-.841.037-1.261Zm.87.111a2.685 2.685 0 0 1 .352.327l-.142.143a3.71 3.71 0 0 0-.335-.334Zm.538.181a3.517 3.517 0 0 0-.342-.323l.145-.139a2.938 2.938 0 0 1 .346.323Z" fill="#1a1311"/><path data-name="パス 7923" d="M30.042 58.948c.21-.027 1.14-.191 1.33-.218a3.3 3.3 0 0 1 .453-.042.86.86 0 0 1 .812.4 1.123 1.123 0 0 1 .132.563 1.028 1.028 0 0 1-.517.941 3.22 3.22 0 0 1-1.489.359.953.953 0 0 0-.057-.261c.724 0 1.82-.139 1.82-1.053a.87.87 0 0 0-.165-.51.565.565 0 0 0-.524-.229 4.534 4.534 0 0 0-.775.1c-.153.031-.839.181-.978.205Z" fill="#1a1311"/><path data-name="パス 7924" d="M36.138 58.681c-.193.021-.48.038-.782.07a1.435 1.435 0 0 0-.839 1.174.845.845 0 0 0 .111.431c.193.33.552.421 1.022.452l-.023.274c-.3-.038-1.333-.171-1.333-1.109a1.493 1.493 0 0 1 .656-1.192c-.765.084-.941.1-1.675.2l-.017-.258c.538-.041 1.2-.1 1.309-.111.822-.08 1.235-.132 1.556-.174Z" fill="#1a1311"/><path data-name="パス 7925" d="M37.925 58.364c-.473.931-.527 1.032-.7 1.446a1.042 1.042 0 0 1 .6-.253.4.4 0 0 1 .264.1.371.371 0 0 1 .085.295c0 .087-.014.469-.014.546 0 .2 0 .372.268.372a.548.548 0 0 0 .463-.316 2.37 2.37 0 0 0 .233-.876.9.9 0 0 0 .264.059c-.047.306-.21 1.352-.981 1.352-.443 0-.477-.278-.477-.559 0-.084.01-.462.01-.539 0-.142-.054-.212-.176-.212-.234 0-.612.352-.7.462a2.4 2.4 0 0 0-.173.32c-.064.139-.138.3-.237.5l-.237-.143a13.915 13.915 0 0 0 .673-1.373c.165-.364.433-.987.568-1.307Z" fill="#1a1311"/><path data-name="パス 7926" d="M33.233 16.169a5.308 5.308 0 0 0-.416.368c-.1.1-.24.257-.5.51a1.443 1.443 0 0 1 .274-.041c.26 0 .274.2.291.522.024.382.027.44.471.44a2.917 2.917 0 0 0 .521-.038l.007.247c-.149.01-.254.014-.342.014-.8 0-.822-.173-.845-.414l-.024-.375c-.01-.143-.027-.2-.172-.2-.325 0-.528.229-.894.643l-.332.372-.186-.191a29.838 29.838 0 0 0 1.695-1.783 6.884 6.884 0 0 1-1.266.181v-.237a4.344 4.344 0 0 0 1.566-.233Zm-.294-.479a5.054 5.054 0 0 1-1.116-.132l.054-.227a3.5 3.5 0 0 0 1.09.153Z" fill="#1a1311"/><path data-name="パス 7927" d="M35.681 15.464c-.473.931-.527 1.031-.7 1.445a1.042 1.042 0 0 1 .6-.253.4.4 0 0 1 .264.1.372.372 0 0 1 .085.295c0 .087-.014.469-.014.547 0 .2 0 .371.268.371a.547.547 0 0 0 .463-.316 2.371 2.371 0 0 0 .233-.875.92.92 0 0 0 .264.059c-.047.305-.21 1.351-.981 1.351-.443 0-.477-.278-.477-.559 0-.084.01-.463.01-.539 0-.143-.054-.212-.176-.212-.234 0-.612.351-.7.462a2.311 2.311 0 0 0-.173.32c-.064.139-.138.3-.237.5l-.237-.142a13.991 13.991 0 0 0 .673-1.373c.165-.365.433-.987.568-1.307Z" fill="#1a1311"/><path data-name="パス 7928" d="M38.116 15.45c-.044.393-.1 1.306-.1 1.8 0 .337 0 .5.2.621a.846.846 0 0 0 .372.081 1.425 1.425 0 0 0 1.255-1.029 1.953 1.953 0 0 0 .22.17 1.759 1.759 0 0 1-1.509 1.077.854.854 0 0 1-.626-.257 1.012 1.012 0 0 1-.142-.657c0-.139.007-.382.014-.57.01-.42.024-.841.037-1.261Zm.87.111a2.592 2.592 0 0 1 .352.327l-.142.142a3.692 3.692 0 0 0-.335-.333Zm.538.18a3.7 3.7 0 0 0-.342-.323l.145-.139a2.824 2.824 0 0 1 .346.323Z" fill="#1a1311"/><path data-name="パス 7929" d="M40.363 16.047c.209-.028 1.14-.191 1.33-.219a3.281 3.281 0 0 1 .453-.042.861.861 0 0 1 .812.4 1.125 1.125 0 0 1 .132.563 1.031 1.031 0 0 1-.517.942 3.231 3.231 0 0 1-1.489.358.947.947 0 0 0-.057-.26c.724 0 1.82-.139 1.82-1.053a.869.869 0 0 0-.165-.51.565.565 0 0 0-.524-.23 4.586 4.586 0 0 0-.775.1c-.153.031-.839.18-.978.2Z" fill="#1a1311"/><path data-name="パス 7930" d="M46.46 15.78c-.193.02-.48.038-.782.07a1.434 1.434 0 0 0-.839 1.174.843.843 0 0 0 .111.43c.193.331.552.421 1.022.452l-.023.274c-.3-.038-1.333-.17-1.333-1.109a1.492 1.492 0 0 1 .656-1.191c-.765.083-.941.1-1.675.2l-.016-.254c.538-.041 1.2-.1 1.309-.111.822-.079 1.235-.132 1.556-.173Z" fill="#1a1311"/><path data-name="パス 7931" d="M48.246 15.464c-.473.931-.527 1.031-.7 1.445a1.042 1.042 0 0 1 .6-.253.4.4 0 0 1 .264.1.372.372 0 0 1 .085.295c0 .087-.014.469-.014.547 0 .2 0 .371.268.371a.547.547 0 0 0 .463-.316 2.371 2.371 0 0 0 .233-.875.92.92 0 0 0 .264.059c-.047.305-.21 1.351-.981 1.351-.443 0-.477-.278-.477-.559 0-.084.01-.463.01-.539 0-.143-.054-.212-.176-.212-.234 0-.612.351-.7.462a2.311 2.311 0 0 0-.173.32c-.064.139-.138.3-.237.5l-.237-.142a14 14 0 0 0 .673-1.373c.165-.365.433-.987.568-1.307Z" fill="#1a1311"/></g></g></g></g></svg>