<svg xmlns="http://www.w3.org/2000/svg" width="85.808" height="88.047"><g data-name="グループ 501"><g data-name="グループ 535" transform="translate(.128 .125)"><ellipse data-name="楕円形 21" cx="33.2" cy="34.103" rx="33.2" ry="34.103" transform="translate(17.692 1.953)" fill="none" stroke="#474645" stroke-linejoin="round" stroke-width=".25"/><path data-name="パス 8795" d="M73.931 12.842C57.737-4.298 30.7-4.278 13.48 12.887s-18.052 44.926-1.859 62.067 43.231 17.12 60.454-.046 18.049-44.926 1.856-62.066Z" fill="none" stroke="#474645" stroke-linejoin="round" stroke-width=".25"/><ellipse data-name="楕円形 22" cx="33.2" cy="34.103" rx="33.2" ry="34.103" transform="translate(17.692 1.953)" fill="none" stroke="#474645" stroke-linejoin="round" stroke-width=".25"/><ellipse data-name="楕円形 23" cx="9.055" cy="9.301" rx="9.055" ry="9.301" transform="translate(41.847 26.88)" fill="none" stroke="#474645" stroke-linejoin="round" stroke-width=".25"/><ellipse data-name="楕円形 24" cx="10.899" cy="11.196" rx="10.899" ry="11.196" transform="translate(40.003 24.985)" fill="none" stroke="#474645" stroke-linejoin="round" stroke-width=".25"/><ellipse data-name="楕円形 25" cx="12.911" cy="13.262" rx="12.911" ry="13.262" transform="translate(37.991 22.918)" fill="none" stroke="#474645" stroke-linejoin="round" stroke-width=".25"/><ellipse data-name="楕円形 26" cx="15.091" cy="15.502" rx="15.091" ry="15.502" transform="translate(35.811 20.679)" fill="none" stroke="#474645" stroke-linejoin="round" stroke-width=".25"/><ellipse data-name="楕円形 27" cx="22.637" cy="23.252" rx="22.637" ry="23.252" transform="translate(28.265 12.928)" fill="none" stroke="#474645" stroke-linejoin="round" stroke-width=".25"/><ellipse data-name="楕円形 28" cx="26.158" cy="26.869" rx="26.158" ry="26.869" transform="translate(24.744 9.311)" fill="none" stroke="#474645" stroke-linejoin="round" stroke-width=".25"/><ellipse data-name="楕円形 29" cx="29.847" cy="30.659" rx="29.847" ry="30.659" transform="translate(21.055 5.522)" fill="none" stroke="#474645" stroke-linejoin="round" stroke-width=".25"/><ellipse data-name="楕円形 30" cx="1.677" cy="1.722" rx="1.677" ry="1.722" transform="translate(62.134 34.201)" fill="none" stroke="#474645" stroke-linejoin="round" stroke-width=".25"/><path data-name="線 210" fill="none" stroke="#302d2c" stroke-linejoin="round" stroke-width=".25" d="m50.902 36.181-8.546 3.075"/><path data-name="線 211" fill="none" stroke="#302d2c" stroke-linejoin="round" stroke-width=".25" d="m50.901 36.181-.261 11.193"/><path data-name="線 212" fill="none" stroke="#302d2c" stroke-linejoin="round" stroke-width=".25" d="m50.902 36.18 12.909-.257"/><path data-name="線 213" fill="none" stroke="#302d2c" stroke-linejoin="round" stroke-width=".25" d="m50.902 36.181 8.796 12.596"/><path data-name="線 214" fill="none" stroke="#302d2c" stroke-linejoin="round" stroke-width=".25" d="m50.901 36.181-21.292 7.895"/><path data-name="線 215" fill="none" stroke="#302d2c" stroke-linejoin="round" stroke-width=".25" d="M50.902 36.181 28.527 22.262"/><path data-name="線 216" fill="none" stroke="#302d2c" stroke-linejoin="round" stroke-width=".25" d="M50.901 36.181 31.084 59.106"/><path data-name="線 217" fill="none" stroke="#302d2c" stroke-linejoin="round" stroke-width=".25" d="m50.902 36.18-33.083-2.872"/><path data-name="線 218" fill="none" stroke="#302d2c" stroke-linejoin="round" stroke-width=".25" d="M50.023 34.506 32.534 1.534"/><path data-name="パス 8796" d="M50.902 32.735a3.446 3.446 0 1 1-3.354 3.445 3.4 3.4 0 0 1 3.354-3.445" fill="#302d2c"/><ellipse data-name="楕円形 31" cx="3.354" cy="3.445" rx="3.354" ry="3.445" transform="translate(47.548 32.736)" fill="none" stroke="#302d2c" stroke-linejoin="round" stroke-width=".25"/><path data-name="パス 8797" d="M42.356 38.566a.689.689 0 1 1-.671.689.68.68 0 0 1 .671-.689" fill="#fff"/><ellipse data-name="楕円形 32" cx=".671" cy=".689" rx=".671" ry=".689" transform="translate(41.685 38.566)" fill="none" stroke="#302d2c" stroke-linejoin="round" stroke-width=".35"/><path data-name="パス 8798" d="M50.64 46.512a.862.862 0 1 1-.838.861.85.85 0 0 1 .838-.861" fill="#302d2c"/><ellipse data-name="楕円形 33" cx=".838" cy=".861" rx=".838" ry=".861" transform="translate(49.802 46.512)" fill="none" stroke="#302d2c" stroke-linejoin="round" stroke-width=".25"/><path data-name="パス 8799" d="M63.81 35.063a.862.862 0 1 1-.838.861.85.85 0 0 1 .838-.861" fill="#302d2c"/><ellipse data-name="楕円形 34" cx=".838" cy=".861" rx=".838" ry=".861" transform="translate(62.972 35.062)" fill="none" stroke="#302d2c" stroke-linejoin="round" stroke-width=".25"/><path data-name="パス 8800" d="M59.699 48.087a.689.689 0 1 1-.671.689.68.68 0 0 1 .671-.689" fill="#302d2c"/><ellipse data-name="楕円形 35" cx=".671" cy=".689" rx=".671" ry=".689" transform="translate(59.027 48.087)" fill="none" stroke="#302d2c" stroke-linejoin="round" stroke-width=".25"/><path data-name="パス 8801" d="M29.61 42.008a2.068 2.068 0 1 1-2.012 2.067 2.04 2.04 0 0 1 2.012-2.067" fill="#fff"/><ellipse data-name="楕円形 36" cx="2.012" cy="2.067" rx="2.012" ry="2.067" transform="translate(27.598 42.008)" fill="none" stroke="#302d2c" stroke-linejoin="round" stroke-width=".35"/><path data-name="パス 8802" d="M28.527 21.573c1.667 0 3.018.309 3.018.689s-1.352.689-3.018.689-3.018-.309-3.018-.689 1.352-.689 3.018-.689" fill="#302d2c"/><ellipse data-name="楕円形 37" cx="3.018" cy=".689" rx="3.018" ry=".689" transform="translate(25.509 21.573)" fill="none" stroke="#302d2c" stroke-linejoin="round" stroke-width=".25"/><path data-name="パス 8803" d="M28.527 21.917c1.389 0 2.515.154 2.515.344s-1.126.344-2.515.344-2.515-.154-2.515-.344 1.126-.344 2.515-.344" fill="#fff"/><path data-name="パス 8804" d="M28.527 21.917c1.389 0 2.515.154 2.515.344s-1.126.344-2.515.344-2.515-.154-2.515-.344 1.126-.344 2.515-.344Z" fill="none" stroke="#fff" stroke-linejoin="round" stroke-width=".15"/><path data-name="パス 8805" d="M28.528 20.539a1.723 1.723 0 1 1-1.677 1.722 1.7 1.7 0 0 1 1.677-1.722" fill="#302d2c"/><ellipse data-name="楕円形 38" cx="1.677" cy="1.722" rx="1.677" ry="1.722" transform="translate(26.85 20.539)" fill="none" stroke="#302d2c" stroke-linejoin="round" stroke-width=".25"/><path data-name="パス 8806" d="M31.085 56.522c.278 0 .5 1.156.5 2.584s-.225 2.584-.5 2.584-.5-1.156-.5-2.584.225-2.584.5-2.584" fill="#302d2c"/><ellipse data-name="楕円形 39" cx=".503" cy="2.584" rx=".503" ry="2.584" transform="translate(30.581 56.522)" fill="none" stroke="#302d2c" stroke-linejoin="round" stroke-width=".25"/><path data-name="パス 8807" d="M31.085 57.211a5.49 5.49 0 0 1 .168 1.895 5.49 5.49 0 0 1-.168 1.895 5.49 5.49 0 0 1-.168-1.895 5.49 5.49 0 0 1 .168-1.895" fill="#fff"/><path data-name="パス 8808" d="M31.085 57.211a5.49 5.49 0 0 1 .168 1.895 5.49 5.49 0 0 1-.168 1.895 5.49 5.49 0 0 1-.168-1.895 5.49 5.49 0 0 1 .168-1.895Z" fill="none" stroke="#fff" stroke-linejoin="round" stroke-width=".15"/><path data-name="パス 8809" d="M31.085 57.556a1.551 1.551 0 1 1-1.509 1.55 1.53 1.53 0 0 1 1.509-1.55" fill="#302d2c"/><ellipse data-name="楕円形 40" cx="1.509" cy="1.55" rx="1.509" ry="1.55" transform="translate(29.575 57.556)" fill="none" stroke="#302d2c" stroke-linejoin="round" stroke-width=".25"/><path data-name="パス 8810" d="M17.816 31.758a1.551 1.551 0 1 1-1.509 1.55 1.53 1.53 0 0 1 1.509-1.55" fill="#302d2c"/><ellipse data-name="楕円形 41" cx="1.509" cy="1.55" rx="1.509" ry="1.55" transform="translate(16.31 31.758)" fill="none" stroke="#302d2c" stroke-linejoin="round" stroke-width=".25"/><path data-name="パス 8811" d="M32.534 1.018a.517.517 0 1 1-.5.517.51.51 0 0 1 .5-.517" fill="#302d2c"/><ellipse data-name="楕円形 42" cx=".503" cy=".517" rx=".503" ry=".517" transform="translate(32.031 1.018)" fill="none" stroke="#302d2c" stroke-linejoin="round" stroke-width=".25"/><path data-name="パス 8812" d="M62.136 35.723a.345.345 0 1 1-.335.344.34.34 0 0 1 .335-.344" fill="#302d2c"/><path data-name="パス 8813" d="M62.136 35.723a.345.345 0 1 1-.335.344.34.34 0 0 1 .335-.344Z" fill="none" stroke="#302d2c" stroke-linejoin="round" stroke-width=".25"/></g></g></svg>