<svg xmlns="http://www.w3.org/2000/svg" width="108.469" height="68.454"><g data-name="グループ 539"><g data-name="楕円形 65" transform="translate(40.41 .001)" fill="none" stroke="#1d1d1d"><ellipse cx="13.824" cy="14.2" rx="13.824" ry="14.2" stroke="none"/><ellipse cx="13.824" cy="14.2" rx="13.324" ry="13.7"/></g><g data-name="楕円形 66" transform="translate(80.82 19.663)" fill="none" stroke="#707070"><ellipse cx="13.824" cy="14.2" rx="13.824" ry="14.2" stroke="none"/><ellipse cx="13.824" cy="14.2" rx="13.324" ry="13.7"/></g><g data-name="楕円形 68" transform="translate(0 19.663)" fill="none" stroke="#707070"><ellipse cx="13.824" cy="14.2" rx="13.824" ry="14.2" stroke="none"/><ellipse cx="13.824" cy="14.2" rx="13.324" ry="13.7"/></g><g data-name="楕円形 67" transform="translate(40.41 40.053)" fill="#aaa" stroke="#1d1d1d"><ellipse cx="13.824" cy="14.2" rx="13.824" ry="14.2" stroke="none"/><ellipse cx="13.824" cy="14.2" rx="13.324" ry="13.7" fill="none"/></g><g data-name="パス 8860" fill="#aaa"><path d="M16.048 47.565h-.089c-1.412-.03-3.441-.733-5.086-3.924-1.293-2.509-2.005-5.981-2.005-9.778 0-3.993.627-7.39 1.812-9.822 1.254-2.573 3.027-3.878 5.269-3.878 1.174 0 2.474.365 3.76 1.056 1.298.697 2.558 1.712 3.644 2.935a15.503 15.503 0 0 1 2.728 4.371 14.04 14.04 0 0 1 1.068 5.338c0 1.783-.378 3.568-1.123 5.308a16.104 16.104 0 0 1-2.818 4.378c-1.102 1.223-2.362 2.244-3.643 2.955-1.252.694-2.468 1.061-3.517 1.061Z"/><path d="M15.949 20.663c-2.035 0-3.656 1.21-4.82 3.597-1.152 2.364-1.761 5.685-1.761 9.603 0 3.719.692 7.11 1.95 9.549 1.532 2.972 3.375 3.626 4.651 3.652 2.026.041 4.731-1.48 6.868-3.85a15.598 15.598 0 0 0 2.73-4.24c.718-1.677 1.082-3.396 1.082-5.11 0-1.746-.347-3.478-1.03-5.15a14.997 14.997 0 0 0-2.64-4.228c-2.094-2.358-4.788-3.823-7.03-3.823m0-1c5.142 0 11.7 6.358 11.7 14.2 0 7.843-7.087 14.294-11.7 14.201-4.613-.093-7.581-6.358-7.581-14.2 0-7.843 2.44-14.201 7.581-14.201Z" fill="#707070"/></g><g data-name="パス 8859" fill="#aaa"><path d="M93.699 47.565c-1.181 0-2.547-.37-3.95-1.071-1.428-.713-2.83-1.738-4.057-2.963-1.304-1.303-2.386-2.817-3.129-4.378-.825-1.734-1.243-3.514-1.243-5.29 0-1.803.398-3.594 1.182-5.32a15.355 15.355 0 0 1 3.028-4.37c1.21-1.226 2.613-2.244 4.06-2.944 1.44-.697 2.9-1.066 4.22-1.066 2.52 0 4.509 1.311 5.908 3.897 1.313 2.427 2.007 5.817 2.007 9.803 0 3.79-.789 7.255-2.221 9.758-1.835 3.207-4.115 3.914-5.704 3.943l-.101.001Z"/><path d="M93.81 20.663c-1.245 0-2.629.351-4.003 1.016-1.396.675-2.751 1.66-3.92 2.845a14.85 14.85 0 0 0-2.93 4.226c-.754 1.66-1.137 3.381-1.137 5.113 0 1.701.402 3.408 1.195 5.075.719 1.51 1.767 2.976 3.03 4.239 2.364 2.362 5.368 3.888 7.654 3.888h.092c1.46-.027 3.56-.69 5.279-3.692 1.39-2.429 2.155-5.806 2.155-9.51 0-3.903-.673-7.21-1.947-9.565-1.305-2.412-3.145-3.635-5.469-3.635m0-1c5.708 0 8.416 6.358 8.416 14.2 0 7.843-3.295 14.108-8.416 14.201-5.121.093-12.989-6.358-12.989-14.2 0-7.843 7.281-14.201 12.99-14.201Z" fill="#707070"/></g></g></svg>