<svg xmlns="http://www.w3.org/2000/svg" xmlns:xlink="http://www.w3.org/1999/xlink" width="30.15" height="29.679" viewBox="0 0 30.15 29.679">
  <defs>
    <clipPath id="clip-path">
      <rect id="長方形_283" data-name="長方形 283" width="30.15" height="29.679" fill="none"/>
    </clipPath>
  </defs>
  <g id="グループ_511" data-name="グループ 511" transform="translate(0 0)">
    <g id="グループ_510" data-name="グループ 510" transform="translate(0 0)" clip-path="url(#clip-path)">
      <path id="パス_8855" data-name="パス 8855" d="M6.07,18.992A6.105,6.105,0,1,1,12.176,25.1,6.106,6.106,0,0,1,6.07,18.992Z" transform="translate(-1.333 -2.83)" fill="none" stroke="#fff" stroke-miterlimit="10" stroke-width="2"/>
      <line id="線_220" data-name="線 220" y2="5.406" transform="translate(10.842 22.945)" fill="none" stroke="#fff" stroke-miterlimit="10" stroke-width="2"/>
      <line id="線_221" data-name="線 221" x2="21.685" transform="translate(0 28.898)" fill="none" stroke="#fff" stroke-miterlimit="10" stroke-width="2"/>
      <path id="パス_8856" data-name="パス 8856" d="M35.4,4,33.17,4c.327-1.039.387-1.922.593-2.228C34.632.488,35.612,1.1,35.612,1.1s-.359.071-.186.453c.145.322.58.264.778.109a.657.657,0,0,0,.3-.571,1.012,1.012,0,0,0-.321-.761A1.07,1.07,0,0,0,35.4,0a2.948,2.948,0,0,0-1.789.5,4.367,4.367,0,0,0-1.559,2.223,2.255,2.255,0,0,1-.52,1.061.727.727,0,0,1-.626.25c-.362.013-.864-.006-.864-.006l-.005.645,1.764.024s-1.4,4.783-1.745,5.76c-.2.552-.673,1.071-1.132,1.1v.7l3.559-.013-.016-.7c-1.322.012-1.218-.838-1.218-.838l1.692-6.019,2.459-.012Z" transform="translate(-6.354 0)" fill="#fff"/>
    </g>
  </g>
</svg>
