<svg id="グループ_596" data-name="グループ 596" xmlns="http://www.w3.org/2000/svg" width="42" height="43" viewBox="0 0 42 43">
  <g id="楕円形_88" data-name="楕円形 88" fill="#fff" stroke="rgba(255,255,255,0.5)" stroke-width="1">
    <ellipse cx="21" cy="21.5" rx="21" ry="21.5" stroke="none"/>
    <ellipse cx="21" cy="21.5" rx="20.5" ry="21" fill="none"/>
  </g>
  <path id="Icon_awesome-instagram" data-name="Icon awesome-instagram" d="M7.754,5.145a3.976,3.976,0,1,0,3.976,3.976A3.969,3.969,0,0,0,7.754,5.145Zm0,6.561a2.585,2.585,0,1,1,2.585-2.585A2.589,2.589,0,0,1,7.754,11.706Zm5.066-6.723a.927.927,0,1,1-.927-.927A.925.925,0,0,1,12.819,4.983Zm2.633.941A4.589,4.589,0,0,0,14.2,2.675a4.619,4.619,0,0,0-3.249-1.253c-1.28-.073-5.118-.073-6.4,0A4.613,4.613,0,0,0,1.3,2.671,4.6,4.6,0,0,0,.051,5.92c-.073,1.28-.073,5.118,0,6.4A4.589,4.589,0,0,0,1.3,15.567,4.625,4.625,0,0,0,4.553,16.82c1.28.073,5.118.073,6.4,0A4.589,4.589,0,0,0,14.2,15.567a4.619,4.619,0,0,0,1.253-3.249c.073-1.28.073-5.114,0-6.394ZM13.8,13.692a2.617,2.617,0,0,1-1.474,1.474,17.09,17.09,0,0,1-4.571.311,17.223,17.223,0,0,1-4.571-.311,2.617,2.617,0,0,1-1.474-1.474A17.09,17.09,0,0,1,1.4,9.121,17.223,17.223,0,0,1,1.709,4.55,2.617,2.617,0,0,1,3.183,3.076a17.09,17.09,0,0,1,4.571-.311,17.223,17.223,0,0,1,4.571.311A2.617,2.617,0,0,1,13.8,4.55a17.09,17.09,0,0,1,.311,4.571A17.08,17.08,0,0,1,13.8,13.692Z" transform="translate(13.861 13.147)" fill="#275974"/>
</svg>
