<svg xmlns="http://www.w3.org/2000/svg" width="17.009" height="17.005" viewBox="0 0 17.009 17.005">
  <path id="Icon_awesome-instagram" data-name="Icon awesome-instagram" d="M8.5,5.51a4.36,4.36,0,1,0,4.36,4.36A4.353,4.353,0,0,0,8.5,5.51Zm0,7.194A2.834,2.834,0,1,1,11.338,9.87,2.84,2.84,0,0,1,8.5,12.7Zm5.555-7.373a1.017,1.017,0,1,1-1.017-1.017A1.015,1.015,0,0,1,14.058,5.332Zm2.888,1.032A5.032,5.032,0,0,0,15.572,2.8a5.066,5.066,0,0,0-3.563-1.374c-1.4-.08-5.612-.08-7.016,0A5.058,5.058,0,0,0,1.43,2.8,5.049,5.049,0,0,0,.057,6.36c-.08,1.4-.08,5.612,0,7.016A5.033,5.033,0,0,0,1.43,16.939a5.072,5.072,0,0,0,3.563,1.374c1.4.08,5.612.08,7.016,0a5.032,5.032,0,0,0,3.563-1.374,5.066,5.066,0,0,0,1.374-3.563c.08-1.4.08-5.608,0-7.012Zm-1.814,8.519A2.87,2.87,0,0,1,13.516,16.5c-1.119.444-3.776.342-5.013.342s-3.9.1-5.013-.342a2.87,2.87,0,0,1-1.616-1.616c-.444-1.119-.342-3.776-.342-5.013s-.1-3.9.342-5.013A2.87,2.87,0,0,1,3.491,3.241C4.61,2.8,7.266,2.9,8.5,2.9s3.9-.1,5.013.342a2.87,2.87,0,0,1,1.616,1.616c.444,1.119.342,3.776.342,5.013S15.576,13.767,15.132,14.883Z" transform="translate(0.003 -1.367)" fill="#393108"/>
</svg>
