<svg xmlns="http://www.w3.org/2000/svg" width="19.428" height="15.779" viewBox="0 0 19.428 15.779">
  <path id="Icon_awesome-twitter" data-name="Icon awesome-twitter" d="M17.431,6c.012.173.012.345.012.518A11.251,11.251,0,0,1,6.114,17.845,11.252,11.252,0,0,1,0,16.057a8.237,8.237,0,0,0,.962.049,7.974,7.974,0,0,0,4.943-1.7,3.989,3.989,0,0,1-3.723-2.761,5.021,5.021,0,0,0,.752.062,4.211,4.211,0,0,0,1.048-.136A3.982,3.982,0,0,1,.789,7.663V7.613a4.01,4.01,0,0,0,1.8.505A3.988,3.988,0,0,1,1.356,2.793,11.318,11.318,0,0,0,9.566,6.96a4.5,4.5,0,0,1-.1-.912,3.986,3.986,0,0,1,6.891-2.724,7.839,7.839,0,0,0,2.527-.962,3.971,3.971,0,0,1-1.75,2.194,7.982,7.982,0,0,0,2.293-.616A8.559,8.559,0,0,1,17.431,6Z" transform="translate(0 -2.066)" fill="#393108"/>
</svg>
