<svg id="グループ_594" data-name="グループ 594" xmlns="http://www.w3.org/2000/svg" width="43" height="43" viewBox="0 0 43 43">
  <circle id="楕円形_86" data-name="楕円形 86" cx="21.5" cy="21.5" r="21.5" fill="#fff"/>
  <path id="Icon_awesome-twitter" data-name="Icon awesome-twitter" d="M15.9,5.652c.011.157.011.315.011.472A10.26,10.26,0,0,1,5.576,16.455,10.261,10.261,0,0,1,0,14.825a7.511,7.511,0,0,0,.877.045,7.272,7.272,0,0,0,4.508-1.551A3.637,3.637,0,0,1,1.99,10.8a4.579,4.579,0,0,0,.686.056,3.84,3.84,0,0,0,.956-.124A3.631,3.631,0,0,1,.719,7.17V7.125a3.657,3.657,0,0,0,1.641.461A3.636,3.636,0,0,1,1.237,2.729a10.321,10.321,0,0,0,7.487,3.8,4.1,4.1,0,0,1-.09-.832,3.634,3.634,0,0,1,6.284-2.484,7.149,7.149,0,0,0,2.3-.877,3.621,3.621,0,0,1-1.6,2,7.279,7.279,0,0,0,2.091-.562A7.805,7.805,0,0,1,15.9,5.652Z" transform="translate(12.078 13.533)" fill="#275974"/>
</svg>
