<svg xmlns="http://www.w3.org/2000/svg" id="_レイヤー_2" viewBox="0 0 109.03 75.07"><defs><style>.cls-1,.cls-2{fill:#fff}.cls-3{fill:none}.cls-2,.cls-3{stroke:#fff;stroke-width:.5px}</style></defs><g id="text_solar"><path d="m1.74.36-.5 2.32c-.16.69-.42 1.88.67 1.88 1.01 0 1.2-.92 1.37-1.72L3.81.36h.97l-.65 2.96c-.28 1.25-.87 2.02-2.23 2.02-1.6 0-1.99-.93-1.71-2.32L.75.36h.98ZM5.53 2.13c.03-.15.06-.32.08-.48h.9l-.13.68h.01c.17-.39.63-.76 1.06-.76.12 0 .25 0 .36.04l-.2.92c-.11-.04-.24-.06-.36-.06-.67 0-.99.6-1.11 1.18L5.8 5.27h-.94l.64-3.12ZM11.14 4.73c-.04.22-.08.41-.09.52h-.92l.06-.35h-.01c-.26.24-.62.43-1.02.43-.71 0-1.18-.44-1.18-1.16 0-.27.07-.56.12-.78l.38-1.75h.94l-.35 1.7c-.05.25-.11.49-.11.76 0 .3.21.5.51.5.65 0 .89-.61 1.01-1.15l.38-1.81h.94l-.67 3.09ZM15.52 4.73c-.04.22-.08.41-.09.52h-.92l.06-.35h-.01c-.26.24-.62.43-1.02.43-.71 0-1.18-.44-1.18-1.16 0-.27.07-.56.12-.78l.38-1.75h.94l-.35 1.7c-.05.25-.11.49-.11.76 0 .3.21.5.51.5.65 0 .89-.61 1.01-1.15l.38-1.81h.94l-.67 3.09ZM20.46.36l-.41 1.92h.01L22 .36h1.37L20.9 2.59l1.58 2.66h-1.17l-1.36-2.49-.53 2.49h-.98L19.49.36h.98ZM23.94 1.65h.94l-.77 3.61h-.94l.77-3.61ZM24.28.1h.94l-.2.9h-.94l.2-.9ZM27.99 2.42c-.25-.09-.5-.17-.77-.17-.28 0-.63.08-.63.36 0 .46 1.22.62 1.22 1.51 0 .94-.82 1.22-1.62 1.22-.38 0-.76-.06-1.1-.22l.2-.75c.27.15.53.28.9.28.31 0 .64-.11.64-.4 0-.58-1.22-.64-1.22-1.54 0-.85.82-1.15 1.56-1.15.34 0 .69.06 1.02.15l-.2.71ZM30.75 4.7h-.01c-.32.41-.64.64-1.16.64-.65 0-1.11-.36-1.11-1.03 0-1.19 1.33-1.28 2.21-1.28h.33c.03-.1.03-.2.03-.31 0-.36-.39-.47-.72-.47-.41 0-.81.11-1.18.28l.13-.75c.4-.14.81-.22 1.23-.22.72 0 1.4.27 1.4 1.11 0 .48-.36 1.9-.44 2.58h-.79l.1-.55Zm-.92-.05c.7 0 .92-.48 1.06-1.06h-.33c-.46 0-1.21.08-1.21.69 0 .25.24.38.48.38ZM33.11 2.13c.03-.15.06-.32.08-.48h.9l-.13.68h.01c.17-.39.63-.76 1.06-.76.12 0 .25 0 .36.04l-.2.92c-.11-.04-.24-.06-.36-.06-.67 0-.99.6-1.11 1.18l-.34 1.62h-.94l.64-3.12ZM37.56 4.7h-.01c-.32.41-.64.64-1.16.64-.65 0-1.11-.36-1.11-1.03 0-1.19 1.33-1.28 2.21-1.28h.33c.03-.1.03-.2.03-.31 0-.36-.39-.47-.72-.47-.41 0-.81.11-1.18.28l.13-.75c.4-.14.81-.22 1.23-.22.72 0 1.4.27 1.4 1.11 0 .48-.36 1.9-.44 2.58h-.79l.1-.55Zm-.92-.05c.7 0 .92-.48 1.06-1.06h-.33c-.46 0-1.21.08-1.21.69 0 .25.24.38.48.38ZM39.38 5.8c.37.15.73.28 1.13.28.99 0 1.14-.69 1.37-1.51h-.01c-.24.43-.69.69-1.21.69-.88 0-1.25-.74-1.25-1.53 0-1.08.66-2.16 1.83-2.16.48 0 .88.23 1.1.61l.11-.53h.9c-.03.1-.07.27-.12.5l-.57 2.71c-.23 1.18-.74 1.95-2.06 1.95-.49 0-.98-.07-1.44-.25l.24-.76Zm1.97-3.51c-.68 0-.97.89-.97 1.43 0 .43.18.81.6.81.75 0 1.06-.79 1.06-1.48 0-.42-.25-.76-.68-.76ZM44.43 1.65h.94l-.77 3.61h-.94l.77-3.61ZM44.77.1h.94l-.2.9h-.94l.2-.9ZM51.33.36H52l1.36 4.24h.01L54.73.36h.67v4.89h-.41V.77h-.01l-1.44 4.48h-.33L51.76.77h-.01v4.48h-.41V.36ZM56.52.26h.49v.63h-.49V.26Zm.04 1.42h.41v3.57h-.41V1.68ZM60.38 4.07c0 .56.01.88.03 1.18h-.38v-.49h-.01c-.27.34-.49.54-.94.54-1.16 0-1.21-1.47-1.21-1.97 0-.68.29-1.7 1.18-1.7.46 0 .72.18.9.51h.01V0h.41v4.07Zm-1.26.85c.69 0 .88-.69.88-1.42 0-.48 0-1.5-.88-1.5-.61 0-.82.63-.82 1.46 0 .29 0 1.46.81 1.46ZM61.31 3.1h1.43v.41h-1.43V3.1ZM63.48 4.57c.34.3.74.33.86.33.79 0 .88-.7.88-.88 0-.57-.34-.8-.92-1.19-.68-.46-.88-.77-.88-1.32 0-1.09.99-1.18 1.27-1.18.39 0 .66.11.77.15l-.02.49c-.19-.11-.41-.24-.78-.24-.28 0-.78.15-.78.71 0 .48.25.67.67.98.87.64 1.13.86 1.13 1.53 0 .82-.56 1.35-1.31 1.35-.3 0-.67-.07-.92-.23l.03-.5ZM66.57 2.86c0-.56-.01-.88-.03-1.18h.38v.53h.01c.24-.37.53-.57.94-.57 1.16 0 1.21 1.47 1.21 1.72 0 1.02-.33 1.95-1.18 1.95-.43 0-.74-.18-.9-.5h-.01v1.96h-.41v-3.9Zm1.26-.85c-.69 0-.88.69-.88 1.42 0 .48 0 1.5.88 1.5.61 0 .82-.63.82-1.46 0-.29 0-1.46-.81-1.46ZM69.96 2.79c0-.37-.02-.74-.03-1.11h.38c0 .21.02.42.03.57h.01c.26-.51.56-.62.95-.62v.43c-.64 0-.94.28-.94.94v2.25h-.41V2.78ZM72.03.26h.49v.63h-.49V.26Zm.04 1.42h.41v3.57h-.41V1.68ZM73.54 2.79c0-.37-.02-.74-.03-1.11h.38c.01.16.02.27.03.53h.01c.08-.15.32-.57.91-.57.99 0 .99.99.99 1.23v2.4h-.41V2.86c0-.25 0-.83-.67-.83-.5 0-.81.47-.81 1.02v2.22h-.41V2.8ZM77.92 1.63c.45 0 .73.2.94.57h.01v-.53h.38c-.01.31-.03.62-.03 1.18v2.3c0 1.01-.39 1.64-1.34 1.64-.39 0-.57-.06-1.02-.2l.03-.46c.34.2.75.27.98.27.88 0 .94-.81.94-1.18v-.49h-.01c-.21.36-.48.54-.9.54-.9 0-1.18-1.02-1.18-1.7 0-.5.04-1.97 1.21-1.97Zm.05 3.29c.67 0 .88-.6.88-1.5 0-.73-.19-1.42-.88-1.42-.81 0-.81 1.16-.81 1.46 0 .83.21 1.46.82 1.46ZM76.78 27.28h.56l2.05 4.34h.01v-4.34h.41v4.89h-.56l-2.05-4.31h-.01v4.31h-.41v-4.89ZM81.23 30.52c0 1.32.85 1.32 1.01 1.32.23 0 .57-.11.77-.29l.02.47c-.17.09-.41.2-.83.2-1.4 0-1.4-1.48-1.4-1.83 0-1.34.67-1.83 1.27-1.83 1.04 0 1.14 1.1 1.14 1.97h-1.97Zm1.54-.38c0-.95-.4-1.21-.73-1.21-.55 0-.81.75-.81 1.21h1.54ZM83.68 28.6h.43l.75 3.14h.01l.72-3.14h.52l.78 3.14h.01l.74-3.14h.41l-.93 3.57h-.5l-.77-3.11h-.01l-.73 3.11h-.48l-.96-3.57ZM90.38 27.28h.67l1.36 4.24h.01l1.36-4.24h.67v4.89h-.41v-4.48h-.01l-1.44 4.48h-.33l-1.45-4.48h-.01v4.48h-.41v-4.89ZM95.43 30.39c0-.9.29-1.83 1.34-1.83s1.34.94 1.34 1.83-.29 1.83-1.34 1.83-1.34-.94-1.34-1.83Zm2.24 0c0-.29 0-1.46-.9-1.46s-.9 1.17-.9 1.46 0 1.46.9 1.46.9-1.17.9-1.46ZM98.83 30.39c0-.9.29-1.83 1.34-1.83s1.34.94 1.34 1.83-.29 1.83-1.34 1.83-1.34-.94-1.34-1.83Zm2.24 0c0-.29 0-1.46-.9-1.46s-.9 1.17-.9 1.46 0 1.46.9 1.46.9-1.17.9-1.46ZM102.39 29.71c0-.37-.02-.74-.03-1.11h.38c.01.16.02.27.03.53h.01c.08-.15.32-.57.91-.57.99 0 .99.99.99 1.23v2.4h-.41v-2.41c0-.25 0-.83-.67-.83-.5 0-.81.47-.81 1.02v2.22h-.41v-2.47ZM76.78 41.28h2v.41h-1.56v1.74h1.49v.41h-1.49v2.34h-.43v-4.89ZM79.64 41.18h.49v.63h-.49v-.63Zm.04 1.42h.41v3.57h-.41V42.6ZM81.15 43.71c0-.37-.02-.74-.03-1.11h.38c0 .21.02.42.03.57h.01c.26-.51.56-.62.95-.62v.43c-.64 0-.94.28-.94.94v2.25h-.41v-2.46ZM84.75 43.08c-.2-.08-.38-.15-.61-.15-.42 0-.61.32-.61.57 0 .33.13.4.61.67.49.27.87.45.87 1.02 0 .64-.46 1.04-1.06 1.04-.44 0-.69-.09-.9-.17l.06-.46c.12.08.48.25.81.25.38 0 .66-.29.66-.62 0-.34-.22-.48-.64-.69-.6-.3-.84-.49-.84-1 0-.67.57-.99 1.05-.99.24 0 .53.06.66.11l-.06.42ZM86.47 41.76v.84h.73v.38h-.73v2.33c0 .29.05.54.39.54.19 0 .26-.04.34-.08v.41c-.1.04-.28.05-.47.05-.52 0-.67-.41-.67-.81v-2.44h-.53v-.38h.53v-.71l.41-.13ZM92.16 47.07l-.79-.88s-.13.03-.26.03c-1.72 0-1.72-2.07-1.72-2.49s0-2.49 1.72-2.49 1.72 2.07 1.72 2.49c0 .36 0 1.89-1.04 2.35l.91.99h-.55Zm-1.04-1.25c1.26 0 1.26-1.7 1.26-2.09s0-2.09-1.26-2.09-1.26 1.7-1.26 2.09 0 2.09 1.26 2.09ZM96.11 45.07c0 .37.02.74.03 1.11h-.38c-.01-.16-.02-.27-.03-.53h-.01c-.04.15-.31.57-.91.57-.78 0-.99-.56-.99-1.13V42.6h.41v2.41c0 .25 0 .83.67.83.5 0 .81-.47.81-1.02V42.6h.41v2.47ZM99.31 45.37c0 .27.02.53.04.8h-.36l-.03-.51h-.01c-.25.39-.54.56-1 .56-.55 0-.99-.46-.99-1.04 0-1.14 1.21-1.16 1.72-1.16h.26c0-.45 0-1.09-.74-1.09-.48 0-.85.34-.9.37l-.06-.43c.34-.18.59-.32.98-.32 1.1 0 1.1.92 1.1 1.18v1.64Zm-.38-1c-.84 0-1.55 0-1.55.81 0 .3.22.66.66.66.19 0 .89-.08.89-1.05v-.42ZM100.34 43.71c0-.37-.02-.74-.03-1.11h.38c0 .21.02.42.03.57h.01c.26-.51.56-.62.95-.62v.43c-.64 0-.94.28-.94.94v2.25h-.41v-2.46ZM103.17 41.76v.84h.73v.38h-.73v2.33c0 .29.05.54.39.54.19 0 .26-.04.34-.08v.41c-.1.04-.28.05-.47.05-.52 0-.67-.41-.67-.81v-2.44h-.53v-.38h.53v-.71l.41-.13ZM104.85 44.52c0 1.32.85 1.32 1.01 1.32.23 0 .57-.11.77-.29l.02.47c-.17.09-.41.2-.83.2-1.4 0-1.4-1.48-1.4-1.83 0-1.34.67-1.83 1.27-1.83 1.04 0 1.14 1.1 1.14 1.97h-1.97Zm1.54-.38c0-.95-.4-1.21-.73-1.21-.55 0-.81.75-.81 1.21h1.54ZM107.69 43.71c0-.37-.02-.74-.03-1.11h.38c0 .21.02.42.03.57h.01c.26-.51.56-.62.95-.62v.43c-.64 0-.94.28-.94.94v2.25h-.41v-2.46ZM76.78 55.28h2v.41h-1.56v1.74h1.49v.41h-1.49v2.34h-.43v-4.89ZM81.9 59.07c0 .37.02.74.03 1.11h-.38c-.01-.16-.02-.27-.03-.53h-.01c-.04.15-.31.57-.91.57-.78 0-.99-.56-.99-1.13V56.6h.41v2.41c0 .25 0 .83.67.83.5 0 .81-.47.81-1.02V56.6h.41v2.47ZM82.97 54.92h.41v5.25h-.41v-5.25ZM84.45 54.92h.41v5.25h-.41v-5.25ZM87.61 55.28h.67l1.36 4.24h.01l1.36-4.24h.67v4.89h-.41v-4.48h-.01l-1.44 4.48h-.33l-1.45-4.48h-.01v4.48h-.41v-4.89ZM92.66 58.39c0-.9.29-1.83 1.34-1.83s1.34.94 1.34 1.83-.29 1.83-1.34 1.83-1.34-.94-1.34-1.83Zm2.24 0c0-.29 0-1.46-.9-1.46s-.9 1.17-.9 1.46 0 1.46.9 1.46.9-1.17.9-1.46ZM96.06 58.39c0-.9.29-1.83 1.34-1.83s1.34.94 1.34 1.83-.29 1.83-1.34 1.83-1.34-.94-1.34-1.83Zm2.24 0c0-.29 0-1.46-.9-1.46s-.9 1.17-.9 1.46 0 1.46.9 1.46.9-1.17.9-1.46ZM99.62 57.71c0-.37-.02-.74-.03-1.11h.38c.01.16.02.27.03.53h.01c.08-.15.32-.57.91-.57.99 0 .99.99.99 1.23v2.4h-.41v-2.41c0-.25 0-.83-.67-.83-.5 0-.81.47-.81 1.02v2.22h-.41v-2.46ZM76.78 69.28h.43v4.48h1.59v.41h-2.02v-4.89ZM81.79 73.37c0 .27.02.53.04.8h-.36l-.03-.51h-.01c-.25.39-.54.56-1 .56-.55 0-.99-.46-.99-1.04 0-1.14 1.21-1.16 1.72-1.16h.26c0-.45 0-1.09-.74-1.09-.48 0-.85.34-.9.37l-.06-.43c.34-.18.59-.32.98-.32 1.1 0 1.1.92 1.1 1.18v1.64Zm-.38-1c-.84 0-1.55 0-1.55.81 0 .3.22.66.66.66.19 0 .89-.08.89-1.05v-.42ZM84.31 71.08c-.2-.08-.38-.15-.61-.15-.42 0-.61.32-.61.57 0 .33.13.4.61.67.49.27.87.45.87 1.02 0 .64-.46 1.04-1.06 1.04-.44 0-.69-.09-.9-.17l.06-.46c.12.08.48.25.81.25.38 0 .66-.29.66-.62 0-.34-.22-.48-.64-.69-.6-.3-.84-.49-.84-1 0-.67.57-.99 1.05-.99.24 0 .53.06.66.11l-.06.42ZM86.03 69.76v.84h.73v.38h-.73v2.33c0 .29.05.54.39.54.19 0 .26-.04.34-.08v.41c-.1.04-.28.05-.47.05-.52 0-.67-.41-.67-.81v-2.44h-.53v-.38h.53v-.71l.41-.13ZM91.72 75.07l-.79-.88s-.13.03-.26.03c-1.72 0-1.72-2.07-1.72-2.49s0-2.49 1.72-2.49 1.72 2.07 1.72 2.49c0 .36 0 1.89-1.04 2.35l.91.99h-.55Zm-1.04-1.25c1.26 0 1.26-1.7 1.26-2.09s0-2.09-1.26-2.09-1.26 1.7-1.26 2.09 0 2.09 1.26 2.09ZM95.67 73.07c0 .37.02.74.03 1.11h-.38c-.01-.16-.02-.27-.03-.53h-.01c-.04.15-.31.57-.91.57-.78 0-.99-.56-.99-1.13V70.6h.41v2.41c0 .25 0 .83.67.83.5 0 .81-.47.81-1.02V70.6h.41v2.47ZM98.87 73.37c0 .27.02.53.04.8h-.36l-.03-.51h-.01c-.25.39-.54.56-1 .56-.55 0-.99-.46-.99-1.04 0-1.14 1.21-1.16 1.72-1.16h.26c0-.45 0-1.09-.74-1.09-.48 0-.85.34-.9.37l-.06-.43c.34-.18.59-.32.98-.32 1.1 0 1.1.92 1.1 1.18v1.64Zm-.38-1c-.84 0-1.55 0-1.55.81 0 .3.22.66.66.66.19 0 .89-.08.89-1.05v-.42ZM99.9 71.71c0-.37-.02-.74-.03-1.11h.38c0 .21.02.42.03.57h.01c.26-.51.56-.62.95-.62v.43c-.64 0-.94.28-.94.94v2.25h-.41v-2.46ZM102.73 69.76v.84h.73v.38h-.73v2.33c0 .29.05.54.39.54.19 0 .26-.04.34-.08v.41c-.1.04-.28.05-.47.05-.52 0-.67-.41-.67-.81v-2.44h-.53v-.38h.53v-.71l.41-.13ZM104.41 72.52c0 1.32.85 1.32 1.01 1.32.23 0 .57-.11.77-.29l.02.47c-.17.09-.41.2-.83.2-1.4 0-1.4-1.48-1.4-1.83 0-1.34.67-1.83 1.27-1.83 1.04 0 1.14 1.1 1.14 1.97h-1.97Zm1.54-.38c0-.95-.4-1.21-.73-1.21-.55 0-.81.75-.81 1.21h1.54ZM107.25 71.71c0-.37-.02-.74-.03-1.11h.38c0 .21.02.42.03.57h.01c.26-.51.56-.62.95-.62v.43c-.64 0-.94.28-.94.94v2.25h-.41v-2.46Z" class="cls-1"/><path d="M51.45 29.19c0 1.5-1.21 2.71-2.71 2.71s-2.71-1.21-2.71-2.71 1.21-2.71 2.71-2.71 2.71 1.21 2.71 2.71Z" class="cls-3"/><path d="M51.45 57.12c0 1.5-1.21 2.71-2.71 2.71s-2.71-1.21-2.71-2.71 1.21-2.71 2.71-2.71 2.71 1.21 2.71 2.71ZM48.73 40.44c1.5 0 2.71 1.21 2.71 2.71s-1.21 2.71-2.71 2.71" class="cls-2"/><path d="M48.73 40.44c-1.5 0-2.71 1.21-2.71 2.71s1.21 2.71 2.71 2.71" class="cls-3"/><path d="M48.73 73.79c-1.5 0-2.71-1.21-2.71-2.71s1.21-2.71 2.71-2.71" class="cls-2"/><path d="M48.73 73.79c1.5 0 2.71-1.21 2.71-2.71s-1.21-2.71-2.71-2.71" class="cls-3"/><path d="M.1 16.95h7.27v1.04H.1v-1.04Zm.68-4.64h5.91v1.04H.78v-1.04ZM14.76 11.57v6.04c0 1.09-.51 1.22-2.33 1.22-.06-.28-.25-.76-.41-1.02.38.02.81.02 1.11.02.53 0 .59 0 .59-.23v-1.26H10.3c-.23.94-.67 1.86-1.52 2.51-.15-.2-.53-.58-.74-.72 1.37-1.04 1.48-2.61 1.48-3.86v-2.69h5.23Zm-4.23 2.85c0 .31-.02.63-.06.97h3.26v-.97h-3.2Zm3.2-1.9h-3.2v.98h3.2v-.98ZM18.9 18.45h-.81l2.13-6.69h.81l-2.13 6.69ZM27.19 14.32h-2.2v4.51h-.95V11.5h3.15v2.82Zm-.92-2.13h-1.29v.4h1.29v-.4Zm-1.29 1.45h1.29v-.43h-1.29v.43Zm5.95-2.14v6.2c0 .93-.35 1.11-1.73 1.11-.02-.19-.1-.46-.18-.7h-3.57v-.76h1.49v-.55h-1.13v-.75h1.13v-.48h-1.32v-.75h3.64v.75h-1.39v.48h1.19v.75h-1.19v.55h1.54v.51c.54 0 .56 0 .56-.17v-3.35h-2.25V11.5h3.21Zm-.96.69h-1.33v.4h1.33v-.4Zm-1.33 1.47h1.33v-.45h-1.33v.45ZM35.29 12.79l.53.12c0 .07-.02.12-.05.17-.11 1.43-.35 2.57-.76 3.47.38.3.71.6.94.87-.17.26-.34.52-.56.83-.2-.26-.51-.55-.86-.85-.45.62-1 1.09-1.7 1.45-.12-.25-.37-.61-.57-.81.61-.26 1.11-.68 1.5-1.25-.18-.13-.36-.27-.55-.39l-.08.29-.82-.38c.2-.69.43-1.61.64-2.57h-.75v-.93h.94c.11-.56.22-1.11.31-1.61l1.13.12c-.02.07-.07.12-.22.13l-.28 1.36h1.04l.17-.02Zm-1.43.95c-.14.6-.28 1.2-.42 1.75.25.15.51.32.76.49.28-.62.46-1.37.58-2.24h-.92Zm2.35-1.66h3.28v6.42h-.97v-.49h-1.39v.62h-.92v-6.55Zm.92 5.01h1.39v-4.1h-1.39v4.1ZM47 11.57v6.04c0 1.09-.51 1.22-2.33 1.22-.06-.28-.25-.76-.41-1.02.38.02.81.02 1.11.02.53 0 .59 0 .59-.23v-1.26h-3.42c-.23.94-.67 1.86-1.52 2.51-.15-.2-.53-.58-.74-.72 1.37-1.04 1.48-2.61 1.48-3.86v-2.69h5.23Zm-4.23 2.85c0 .31-.02.63-.06.97h3.26v-.97h-3.2Zm3.2-1.9h-3.2v.98h3.2v-.98ZM54.11 13.01c-.65.55-1.19 1.59-1.19 2.8s.55 2.27 1.19 2.8v.03h-.56c-.62-.55-1.12-1.61-1.12-2.83s.5-2.29 1.12-2.83h.56v.03ZM55.45 15.57c-.16.24-.32.47-.5.67-.07-.17-.23-.56-.33-.73.5-.56 1.01-1.55 1.31-2.51l.79.27c-.02.06-.08.08-.17.07-.14.38-.31.77-.5 1.15l.23.06c-.01.05-.06.1-.16.11v3.99h-.69v-3.07Zm3.29-1.32h1.5v2.76h-.72v-.31h-.78v1.93h-.72V16.7h-.75v.35h-.68v-2.81h1.43v-1.2l.88.05c0 .06-.05.1-.16.11v1.04Zm-1.47 1.79h.75v-1.12h-.75v1.12Zm1.47 0h.78v-1.12h-.78v1.12ZM66.78 15.81h-1.07c.35.36.77.65 1.24.84-.16.14-.38.42-.49.6a4.25 4.25 0 0 1-.81-.51v1.88h-.74v-.16h-1.72v.19h-.71v-1.83c-.25.22-.54.41-.86.59-.08-.18-.3-.46-.46-.58.55-.28.98-.62 1.31-1.01h-1.16v-.59h1.58c.05-.1.11-.2.16-.3h-1.18v-.57h1.4c.03-.1.05-.2.08-.3h-1.73v-.57h1.84c.02-.17.04-.34.05-.5l.89.07c-.02.07-.07.11-.17.13-.01.1-.02.21-.04.31h2.32v.57h-2.42c-.02.1-.05.2-.08.3h2.23v.57h-1.17c.05.1.11.2.17.3h1.54v.59Zm-1.75.31c-.08-.1-.16-.2-.23-.31h-1.45l-.22.31h1.9Zm-.13.9v-.34h-1.72v.34h1.72Zm-1.72.88h1.72v-.37h-1.72v.37Zm1.13-2.97h-.51c-.04.1-.08.2-.13.3h.79l-.14-.3ZM67.5 18.61c.65-.55 1.19-1.59 1.19-2.8s-.55-2.27-1.19-2.8v-.03h.56c.62.55 1.12 1.61 1.12 2.83s-.5 2.28-1.12 2.83h-.56v-.03ZM0 29.07c0-2.12.83-3.15 1.96-3.15s1.86 1.09 1.86 3.07c0 2.11-.74 3.19-1.95 3.19-1.1 0-1.87-1.09-1.87-3.11Zm3.14-.05c0-1.52-.37-2.56-1.22-2.56-.72 0-1.23.96-1.23 2.56s.45 2.61 1.21 2.61c.9 0 1.24-1.17 1.24-2.61ZM7.09 28.81c.71.12 1.32.7 1.32 1.57 0 .96-.7 1.81-2.06 1.81-.61 0-1.16-.2-1.43-.39l.2-.52c.22.15.71.37 1.24.37 1.02 0 1.35-.71 1.35-1.27 0-.89-.75-1.3-1.55-1.3h-.4v-.5h.4c.58 0 1.34-.36 1.34-1.13 0-.53-.32-.98-1.04-.98-.45 0-.87.22-1.11.4l-.2-.5c.29-.23.86-.45 1.44-.45 1.11 0 1.6.71 1.6 1.43 0 .62-.4 1.18-1.1 1.43v.02ZM9.89 31.67c0-.31.2-.53.49-.53s.48.22.48.53-.19.51-.49.51-.48-.24-.48-.51ZM15.57 32.09h-3.59v-.41l.59-.62c1.44-1.46 2.17-2.34 2.17-3.33 0-.65-.28-1.25-1.16-1.25-.49 0-.92.27-1.21.5l-.23-.47c.37-.33.92-.59 1.57-.59 1.22 0 1.71.89 1.71 1.73 0 1.14-.8 2.11-2.06 3.38l-.48.5v.02h2.68v.55ZM20.44 32.09h-3.59v-.41l.59-.62c1.44-1.46 2.17-2.34 2.17-3.33 0-.65-.28-1.25-1.16-1.25-.49 0-.92.27-1.21.5l-.23-.47c.37-.33.92-.59 1.57-.59 1.22 0 1.71.89 1.71 1.73 0 1.14-.8 2.11-2.06 3.38l-.48.5v.02h2.68v.55ZM21.8 31.67c0-.31.2-.53.49-.53s.48.22.48.53-.19.51-.49.51-.48-.24-.48-.51ZM27.09 32.09h-2.66v-.31l.44-.46c1.07-1.08 1.61-1.73 1.61-2.46 0-.48-.21-.92-.86-.92-.36 0-.68.2-.9.37l-.17-.35c.28-.25.68-.44 1.16-.44.91 0 1.27.66 1.27 1.28 0 .85-.59 1.57-1.52 2.5l-.35.37 1.98.01v.41ZM27.98 29.86c0-1.57.61-2.33 1.45-2.33s1.37.8 1.37 2.27c0 1.56-.55 2.36-1.44 2.36-.82 0-1.38-.8-1.38-2.3Zm2.32-.04c0-1.12-.27-1.9-.9-1.9-.53 0-.91.71-.91 1.9s.33 1.93.89 1.93c.67 0 .92-.86.92-1.93ZM34.3 32.09h-2.66v-.31l.44-.46c1.07-1.08 1.61-1.73 1.61-2.46 0-.48-.21-.92-.86-.92-.36 0-.68.2-.9.37l-.17-.35c.28-.25.68-.44 1.16-.44.91 0 1.27.66 1.27 1.28 0 .85-.59 1.57-1.52 2.5l-.35.37 1.98.01v.41ZM36.84 29.66c.53.09.98.52.98 1.16 0 .71-.52 1.34-1.52 1.34-.45 0-.86-.14-1.06-.29l.15-.38c.16.11.52.27.92.27.75 0 1-.53 1-.94 0-.66-.56-.96-1.15-.96h-.29v-.37h.29c.43 0 .99-.27.99-.83 0-.39-.23-.73-.77-.73-.33 0-.64.16-.82.29l-.15-.37c.22-.17.64-.34 1.07-.34.82 0 1.19.52 1.19 1.06 0 .46-.29.88-.82 1.06v.02ZM57.26 30.3h-.92c-.07.97-.38 1.87-1.47 2.48a3.38 3.38 0 0 0-.41-.31c1-.55 1.3-1.34 1.37-2.17H55v.52h-.48v-2.88l.62.04c0 .06-.05.1-.15.11v1.73h.85v-2.54h-1.69v-.49h1c-.1-.39-.32-.96-.57-1.38l.44-.17c.26.43.5 1 .6 1.39l-.36.15h2.85v.49h-1.76v2.54h.9v-1.88l.62.04c0 .06-.05.1-.15.11v2.64h-.48v-.43Zm.53-4.85s-.08.07-.17.07c-.16.37-.44.92-.66 1.28-.1-.03-.32-.13-.41-.15.21-.38.47-.99.61-1.4l.63.2Zm3.53.27v6.36c0 .67-.32.71-1.59.71-.02-.15-.1-.39-.18-.54h.66c.51 0 .57 0 .57-.19v-2.1H58.9c-.15 1-.49 2.05-1.26 2.83-.09-.1-.31-.25-.44-.31 1.15-1.13 1.26-2.75 1.26-4.01V25.7h2.85Zm-2.33 2.78c0 .31 0 .64-.04.99h1.83V28.1h-1.79v.41Zm1.79-2.27h-1.79v1.36h1.79v-1.36ZM0 43.07c0-2.12.83-3.15 1.96-3.15s1.86 1.09 1.86 3.07c0 2.11-.74 3.19-1.95 3.19-1.1 0-1.87-1.09-1.87-3.11Zm3.14-.05c0-1.52-.37-2.56-1.22-2.56-.72 0-1.23.96-1.23 2.56s.45 2.61 1.21 2.61c.9 0 1.24-1.17 1.24-2.61ZM7.09 42.81c.71.12 1.32.7 1.32 1.57 0 .96-.7 1.81-2.06 1.81-.61 0-1.16-.2-1.43-.39l.2-.52c.22.15.71.37 1.24.37 1.02 0 1.35-.71 1.35-1.27 0-.89-.75-1.3-1.55-1.3h-.4v-.5h.4c.58 0 1.34-.36 1.34-1.13 0-.53-.32-.98-1.04-.98-.45 0-.87.22-1.11.4l-.2-.5c.29-.23.86-.45 1.44-.45 1.11 0 1.6.71 1.6 1.43 0 .62-.4 1.18-1.1 1.43v.02ZM9.89 45.67c0-.31.2-.53.49-.53s.48.22.48.53-.19.51-.49.51-.48-.24-.48-.51ZM15.57 46.09h-3.59v-.41l.59-.62c1.44-1.46 2.17-2.34 2.17-3.33 0-.65-.28-1.25-1.16-1.25-.49 0-.92.27-1.21.5l-.23-.47c.37-.33.92-.59 1.57-.59 1.22 0 1.71.89 1.71 1.73 0 1.14-.8 2.11-2.06 3.38l-.48.5v.02h2.68v.55ZM19.9 43.22c-.33.42-.8.67-1.39.67-1.04 0-1.68-.81-1.68-1.84 0-1.11.73-2.13 1.92-2.13s1.86.99 1.86 2.54c0 2.02-1.02 3.42-2.58 3.66-.28.05-.54.07-.72.06v-.56c.17.02.37 0 .62-.04 1.02-.15 1.79-.97 1.99-2.36h-.02Zm-2.39-1.21c0 .82.46 1.37 1.16 1.37.66 0 1.26-.5 1.26-.99 0-1.17-.43-1.95-1.23-1.95-.71 0-1.18.66-1.18 1.57ZM21.8 45.67c0-.31.2-.53.49-.53s.48.22.48.53-.19.51-.49.51-.48-.24-.48-.51ZM26.45 46.09h-2.66v-.31l.44-.46c1.07-1.08 1.61-1.73 1.61-2.46 0-.48-.21-.92-.86-.92-.36 0-.68.2-.9.37l-.17-.35c.28-.25.68-.44 1.16-.44.91 0 1.27.66 1.27 1.28 0 .85-.59 1.57-1.52 2.5l-.35.37 1.98.01v.41ZM27.34 43.86c0-1.57.61-2.33 1.45-2.33s1.37.8 1.37 2.27c0 1.56-.55 2.36-1.44 2.36-.82 0-1.38-.8-1.38-2.3Zm2.32-.04c0-1.12-.27-1.9-.9-1.9-.53 0-.91.71-.91 1.9s.33 1.93.89 1.93c.67 0 .92-.86.92-1.93ZM33.66 46.09H31v-.31l.44-.46c1.07-1.08 1.61-1.73 1.61-2.46 0-.48-.21-.92-.86-.92-.36 0-.68.2-.9.37l-.17-.35c.28-.25.68-.44 1.16-.44.91 0 1.27.66 1.27 1.28 0 .85-.59 1.57-1.52 2.5l-.35.37 1.98.01v.41ZM36.2 43.66c.53.09.98.52.98 1.16 0 .71-.52 1.34-1.52 1.34-.45 0-.86-.14-1.06-.29l.15-.38c.16.11.52.27.92.27.75 0 1-.53 1-.94 0-.66-.56-.96-1.15-.96h-.29v-.37h.29c.43 0 .99-.27.99-.83 0-.39-.23-.73-.77-.73-.33 0-.64.16-.82.29l-.15-.37c.22-.17.64-.34 1.07-.34.82 0 1.19.52 1.19 1.06 0 .46-.29.88-.82 1.06v.02ZM57.94 45.84h3.68v.55h-7.37v-.55h3.12v-6.46l.74.05c0 .06-.06.1-.17.11v2.4h3.11v.55h-3.11v3.35ZM64.75 43.16l.12-.02.3.04s0 .12-.02.18c-.11 2.14-.2 2.89-.44 3.16-.18.21-.36.24-.92.24-.19 0-.41 0-.64-.02-.02-.16-.08-.38-.17-.53.45.04.85.04 1.03.04.11 0 .19-.02.24-.09.16-.17.27-.83.36-2.52H63.3l-.05.34-.51-.08c.11-.63.24-1.66.29-2.43h1.56v-1.41h-1.88v-.51h2.41v2.67h-.53v-.25H63.5l-.13 1.18h1.38Zm4.12 1.15c.58.68 1.17 1.6 1.38 2.22l-.49.25c-.06-.2-.17-.42-.3-.67-1.38.11-2.82.2-3.75.26 0 .06-.06.11-.12.11l-.2-.64.77-.02c.39-.46.81-1.02 1.22-1.61-.44-.47-1.17-1.08-1.79-1.5l.32-.39c.14.09.28.19.42.29.32-.47.67-1.07.92-1.58h-1.86v-.52h2.01v-1.28l.69.05c0 .06-.06.1-.16.11v1.13h2.26v.52h-2.33l.13.06s-.1.07-.18.07c-.28.51-.73 1.21-1.12 1.73.37.29.73.59.99.85.43-.64.83-1.29 1.13-1.86l.62.32s-.1.08-.19.08c-.64 1.05-1.61 2.46-2.48 3.5.75-.03 1.6-.07 2.44-.11-.23-.4-.52-.8-.8-1.15l.45-.22ZM0 57.07c0-2.12.83-3.15 1.96-3.15s1.86 1.09 1.86 3.07c0 2.11-.74 3.19-1.95 3.19-1.1 0-1.87-1.09-1.87-3.11Zm3.14-.05c0-1.52-.37-2.56-1.22-2.56-.72 0-1.23.96-1.23 2.56s.45 2.61 1.21 2.61c.9 0 1.24-1.17 1.24-2.61ZM8 60.09h-.64v-1.7H4.71v-.43l2.59-3.94H8v3.85h.83v.52H8v1.7Zm-2.61-2.22h1.97v-2.16c0-.33.02-.66.03-.97h-.03c-.19.37-.33.63-.49.91l-1.48 2.2v.02ZM9.89 59.67c0-.31.2-.53.49-.53s.48.22.48.53-.19.51-.49.51-.48-.24-.48-.51ZM11.91 57.07c0-2.12.83-3.15 1.96-3.15s1.86 1.09 1.86 3.07c0 2.11-.74 3.19-1.95 3.19-1.1 0-1.87-1.09-1.87-3.11Zm3.14-.05c0-1.52-.37-2.56-1.22-2.56-.72 0-1.23.96-1.23 2.56s.45 2.61 1.21 2.61c.9 0 1.24-1.17 1.24-2.61ZM17.47 56.87a1.7 1.7 0 0 1 1.42-.75c1.03 0 1.72.77 1.72 1.94s-.68 2.12-1.86 2.12-1.98-.98-1.98-2.55.76-3.33 2.73-3.65c.23-.03.43-.06.57-.06v.56c-1.68 0-2.48 1.22-2.62 2.39h.02Zm2.46 1.24c0-.93-.5-1.47-1.23-1.47s-1.26.7-1.26 1.15c0 1.11.48 1.87 1.32 1.87.7 0 1.17-.63 1.17-1.55ZM21.8 59.67c0-.31.2-.53.49-.53s.48.22.48.53-.19.51-.49.51-.48-.24-.48-.51ZM26.44 60.09h-2.66v-.31l.44-.46c1.07-1.08 1.61-1.73 1.61-2.46 0-.48-.21-.92-.86-.92-.36 0-.68.2-.9.37l-.17-.35c.28-.25.68-.44 1.16-.44.91 0 1.27.66 1.27 1.28 0 .85-.59 1.57-1.52 2.5l-.35.37 1.98.01v.41ZM27.33 57.86c0-1.57.61-2.33 1.45-2.33s1.37.8 1.37 2.27c0 1.56-.55 2.36-1.44 2.36-.82 0-1.38-.8-1.38-2.3Zm2.32-.04c0-1.12-.27-1.9-.9-1.9-.53 0-.91.71-.91 1.9s.33 1.93.89 1.93c.67 0 .92-.86.92-1.93ZM33.65 60.09h-2.66v-.31l.44-.46c1.07-1.08 1.61-1.73 1.61-2.46 0-.48-.21-.92-.86-.92-.36 0-.68.2-.9.37l-.17-.35c.28-.25.68-.44 1.16-.44.91 0 1.27.66 1.27 1.28 0 .85-.59 1.57-1.52 2.5l-.35.37 1.98.01v.41ZM36.19 57.66c.53.09.98.52.98 1.16 0 .71-.52 1.34-1.52 1.34-.45 0-.86-.14-1.06-.29l.15-.38c.16.11.52.27.92.27.75 0 1-.53 1-.94 0-.66-.56-.96-1.15-.96h-.29v-.37h.29c.43 0 .99-.27.99-.83 0-.39-.23-.73-.77-.73-.33 0-.64.16-.82.29l-.15-.37c.22-.17.64-.34 1.07-.34.82 0 1.19.52 1.19 1.06 0 .46-.29.88-.82 1.06v.02ZM55.6 56.82c-.63 0-.8-.21-.8-.82v-1.4h-.59v-.48h1.72v-.88l.67.05c0 .06-.05.09-.15.11v.72h1.64v.48h-2.78v1.41c0 .25.06.33.28.33h1.45c.18 0 .47 0 .62-.04.02.14.04.37.06.48-.12.03-.4.04-.66.04H55.6Zm2.6 3.28h3.45v.47h-7.43v-.47h3.43v-.77h-2.38v-.46h2.38v-.76H54.9v-.47h6.13v.47H58.2v.76h2.43v.46H58.2v.77Zm3.19-6.54v.17c-.09 2.25-.17 3.01-.37 3.27-.17.2-.39.23-.74.23-.18 0-.38 0-.6-.02 0-.13-.06-.32-.13-.45.36.03.68.03.83.03.19 0 .29-.08.37-.79h-1.98c-.19.61-.5 1.09-.96 1.4-.08-.09-.24-.25-.37-.32.9-.61 1.13-1.86 1.14-3.53h2.54l.28.02Zm-2.4 1.41c-.03.22-.07.43-.11.62h1.9l.05-.62H59Zm1.87-1h-1.79c0 .21-.02.41-.04.61h1.81l.02-.61ZM0 71.07c0-2.12.83-3.15 1.96-3.15s1.86 1.09 1.86 3.07c0 2.11-.74 3.19-1.95 3.19-1.1 0-1.87-1.09-1.87-3.11Zm3.14-.05c0-1.52-.37-2.56-1.22-2.56-.72 0-1.23.96-1.23 2.56s.45 2.61 1.21 2.61c.9 0 1.24-1.17 1.24-2.61ZM8 74.09h-.64v-1.7H4.71v-.43l2.59-3.94H8v3.85h.83v.52H8v1.7Zm-2.61-2.22h1.97v-2.16c0-.33.02-.66.03-.97h-.03c-.19.37-.33.63-.49.91l-1.48 2.2v.02ZM9.89 73.67c0-.31.2-.53.49-.53s.48.22.48.53-.19.51-.49.51-.48-.24-.48-.51ZM13.69 74.09v-5.44h-.02l-1 .58-.16-.5 1.26-.7h.58v6.07h-.66ZM18.99 70.81c.71.12 1.32.7 1.32 1.57 0 .96-.7 1.81-2.06 1.81-.61 0-1.16-.2-1.43-.39l.2-.52c.22.15.71.37 1.24.37 1.02 0 1.35-.71 1.35-1.27 0-.89-.75-1.3-1.55-1.3h-.4v-.5h.4c.58 0 1.34-.36 1.34-1.13 0-.53-.32-.98-1.04-.98-.45 0-.87.22-1.11.4l-.2-.5c.29-.23.86-.45 1.44-.45 1.11 0 1.6.71 1.6 1.43 0 .62-.4 1.18-1.1 1.43v.02ZM21.8 73.67c0-.31.2-.53.49-.53s.48.22.48.53-.19.51-.49.51-.48-.24-.48-.51ZM26.44 74.09h-2.66v-.31l.44-.46c1.07-1.08 1.61-1.73 1.61-2.46 0-.48-.21-.92-.86-.92-.36 0-.68.2-.9.37l-.17-.35c.28-.25.68-.44 1.16-.44.91 0 1.27.66 1.27 1.28 0 .85-.59 1.57-1.52 2.5l-.35.37 1.98.01v.41ZM27.33 71.86c0-1.57.61-2.33 1.45-2.33s1.37.8 1.37 2.27c0 1.56-.55 2.36-1.44 2.36-.82 0-1.38-.8-1.38-2.3Zm2.32-.04c0-1.12-.27-1.9-.9-1.9-.53 0-.91.71-.91 1.9s.33 1.93.89 1.93c.67 0 .92-.86.92-1.93ZM33.65 74.09h-2.66v-.31l.44-.46c1.07-1.08 1.61-1.73 1.61-2.46 0-.48-.21-.92-.86-.92-.36 0-.68.2-.9.37l-.17-.35c.28-.25.68-.44 1.16-.44.91 0 1.27.66 1.27 1.28 0 .85-.59 1.57-1.52 2.5l-.35.37 1.98.01v.41ZM36.19 71.66c.53.09.98.52.98 1.16 0 .71-.52 1.34-1.52 1.34-.45 0-.86-.14-1.06-.29l.15-.38c.16.11.52.27.92.27.75 0 1-.53 1-.94 0-.66-.56-.96-1.15-.96h-.29v-.37h.29c.43 0 .99-.27.99-.83 0-.39-.23-.73-.77-.73-.33 0-.64.16-.82.29l-.15-.37c.22-.17.64-.34 1.07-.34.82 0 1.19.52 1.19 1.06 0 .46-.29.88-.82 1.06v.02ZM61.59 68.4h-3.44l-.09.02v1.41l.04-.05c1.03.5 2.36 1.26 3.03 1.77l-.38.49c-.58-.47-1.72-1.16-2.69-1.68v4.4h-.58v-6.37h-3.2v-.54h7.3v.54ZM64.75 71.16l.12-.02.3.04s0 .12-.02.18c-.11 2.14-.2 2.89-.44 3.16-.18.21-.36.24-.92.24-.19 0-.41 0-.64-.02-.02-.16-.08-.38-.17-.53.45.04.85.04 1.03.04.11 0 .19-.02.24-.09.16-.17.27-.83.36-2.52H63.3l-.05.34-.51-.08c.11-.63.24-1.66.29-2.43h1.56v-1.41h-1.88v-.51h2.41v2.67h-.53v-.25H63.5l-.13 1.18h1.38Zm4.12 1.15c.58.68 1.17 1.6 1.38 2.22l-.49.25c-.06-.2-.17-.42-.3-.67-1.38.11-2.82.2-3.75.26 0 .06-.06.11-.12.11l-.2-.64.77-.02c.39-.46.81-1.02 1.22-1.61-.44-.47-1.17-1.08-1.79-1.5l.32-.39c.14.09.28.19.42.29.32-.47.67-1.07.92-1.58h-1.86v-.52h2.01v-1.28l.69.05c0 .06-.06.1-.16.11v1.13h2.26v.52h-2.33l.13.06s-.1.07-.18.07c-.28.51-.73 1.21-1.12 1.73.37.29.73.59.99.85.43-.64.83-1.29 1.13-1.86l.62.32s-.1.08-.19.08c-.64 1.05-1.61 2.46-2.48 3.5.75-.03 1.6-.07 2.44-.11-.23-.4-.52-.8-.8-1.15l.45-.22Z" class="cls-1"/></g></svg>