<svg xmlns="http://www.w3.org/2000/svg" id="_レイヤー_2" viewBox="0 0 109.84 76.03"><defs><style>.cls-1,.cls-2{fill:#fff}.cls-3{fill:none}.cls-2,.cls-3{stroke:#fff;stroke-width:.5px}</style></defs><g id="text_solar"><path d="M1.15 3.14 0 .27h1.04l.73 2.05L3.35.27h1.14L2.12 3.14l-.43 2.02H.71l.43-2.02ZM6.13 4.61h-.01c-.32.41-.64.64-1.16.64-.65 0-1.11-.36-1.11-1.03 0-1.19 1.33-1.28 2.21-1.28h.33c.03-.1.03-.2.03-.31 0-.36-.39-.47-.72-.47-.41 0-.81.1-1.18.28l.13-.75c.4-.14.81-.22 1.23-.22.72 0 1.4.27 1.4 1.11 0 .48-.36 1.9-.44 2.58h-.79l.1-.55Zm-.92-.05c.7 0 .92-.48 1.06-1.06h-.33c-.46 0-1.21.08-1.21.69 0 .25.24.38.48.38ZM8.99 1.55l.34 2.68h.01l1.44-2.68h1.03L9.37 5.7c-.29.49-.64 1.01-1.44 1.01-.24 0-.47-.04-.7-.1l.21-.71c.11.04.22.08.41.08.28 0 .49-.14.82-.65l-.64-3.78h.96ZM15.58 3.05c0 1.27-.88 2.19-2.15 2.19-1.02 0-1.64-.63-1.64-1.65 0-1.21.92-2.13 2.14-2.13.97 0 1.65.59 1.65 1.58Zm-.98 0c0-.47-.16-.86-.71-.86-.74 0-1.11.82-1.11 1.47 0 .48.2.85.74.85.73 0 1.09-.84 1.09-1.46ZM16.82 1.55h.94l-.77 3.61h-.94l.77-3.61ZM17.16 0h.94l-.2.9h-.94l.2-.9ZM23.71.27h.43v4.48h1.59v.41h-2.02V.27ZM28.72 4.36c0 .27.02.53.04.8h-.36l-.03-.51h-.01c-.25.39-.54.56-1 .56-.55 0-.99-.46-.99-1.04 0-1.14 1.21-1.16 1.72-1.16h.26c0-.45 0-1.09-.74-1.09-.48 0-.85.34-.9.37l-.06-.43c.34-.18.59-.32.98-.32 1.1 0 1.1.92 1.1 1.18v1.64Zm-.38-1c-.84 0-1.55 0-1.55.81 0 .3.22.66.66.66.19 0 .89-.08.89-1.05v-.42ZM30.35.75v.84h.73v.38h-.73V4.3c0 .29.05.54.39.54.19 0 .26-.04.34-.08v.41c-.1.04-.28.05-.47.05-.52 0-.67-.41-.67-.8V1.97h-.53v-.38h.53V.88l.41-.13ZM32.02 3.51c0 1.32.85 1.32 1.01 1.32.23 0 .57-.11.77-.29l.02.47c-.17.09-.41.2-.83.2-1.4 0-1.4-1.48-1.4-1.83 0-1.34.67-1.83 1.27-1.83 1.04 0 1.14 1.1 1.14 1.97h-1.97Zm1.54-.38c0-.95-.4-1.21-.73-1.21-.55 0-.81.75-.81 1.21h1.54ZM36.38 4.47c.34.3.74.33.86.33.79 0 .88-.7.88-.88 0-.57-.34-.8-.92-1.19-.68-.46-.88-.77-.88-1.32 0-1.09.99-1.18 1.27-1.18.39 0 .66.11.77.15l-.02.49c-.19-.11-.41-.24-.78-.24-.28 0-.78.15-.78.71 0 .48.25.67.67.98.87.64 1.13.86 1.13 1.53 0 .82-.56 1.35-1.31 1.35-.3 0-.67-.07-.92-.23l.03-.5ZM39.48 2.77c0-.56-.01-.88-.03-1.18h.38v.52h.01c.24-.37.53-.57.94-.57 1.16 0 1.21 1.47 1.21 1.72 0 1.01-.33 1.95-1.18 1.95-.43 0-.74-.18-.9-.5h-.01v1.96h-.41v-3.9Zm1.26-.85c-.69 0-.88.69-.88 1.41 0 .48 0 1.5.88 1.5.61 0 .82-.63.82-1.46 0-.29 0-1.46-.81-1.46ZM42.87 2.7c0-.37-.02-.74-.03-1.11h.38c0 .21.02.42.03.57h.01c.26-.51.56-.62.95-.62v.43c-.64 0-.94.28-.94.94v2.25h-.41V2.7ZM44.93.17h.49V.8h-.49V.17Zm.04 1.42h.41v3.57h-.41V1.59ZM46.45 2.7c0-.37-.02-.74-.03-1.11h.38c.01.16.02.27.03.52h.01c.08-.15.32-.57.91-.57.99 0 .99.99.99 1.23v2.4h-.41V2.76c0-.25 0-.83-.67-.83-.5 0-.81.47-.81 1.02v2.22h-.41V2.71ZM50.82 1.54c.45 0 .73.2.94.57h.01v-.52h.38c-.01.31-.03.62-.03 1.18v2.3c0 1.01-.39 1.64-1.34 1.64-.39 0-.57-.06-1.02-.2l.03-.46c.34.2.75.27.98.27.88 0 .94-.81.94-1.18v-.49h-.01c-.21.36-.48.54-.9.54-.9 0-1.18-1.02-1.18-1.7 0-.5.04-1.97 1.21-1.97Zm.05 3.29c.67 0 .88-.59.88-1.5 0-.73-.19-1.41-.88-1.41-.81 0-.81 1.16-.81 1.46 0 .83.21 1.46.82 1.46ZM77.59 28h.56l2.05 4.34h.01V28h.41v4.89h-.56l-2.05-4.31H78v4.31h-.41V28ZM82.04 31.23c0 1.32.85 1.32 1.01 1.32.23 0 .57-.11.77-.29l.02.47c-.17.09-.41.2-.83.2-1.4 0-1.4-1.48-1.4-1.83 0-1.34.67-1.83 1.27-1.83 1.04 0 1.14 1.1 1.14 1.97h-1.97Zm1.54-.38c0-.95-.4-1.21-.73-1.21-.55 0-.81.75-.81 1.21h1.54ZM84.5 29.31h.43l.75 3.14h.01l.72-3.14h.52l.78 3.14h.01l.74-3.14h.41l-.93 3.57h-.5l-.77-3.11h-.01l-.73 3.11h-.48l-.96-3.57ZM91.2 28h.67l1.36 4.24h.01L94.6 28h.67v4.89h-.41v-4.48h-.01l-1.44 4.48h-.33l-1.45-4.48h-.01v4.48h-.41V28ZM96.25 31.1c0-.9.29-1.83 1.34-1.83s1.34.94 1.34 1.83-.29 1.83-1.34 1.83-1.34-.94-1.34-1.83Zm2.24 0c0-.29 0-1.46-.9-1.46s-.9 1.17-.9 1.46 0 1.46.9 1.46.9-1.17.9-1.46ZM99.65 31.1c0-.9.29-1.83 1.34-1.83s1.34.94 1.34 1.83-.29 1.83-1.34 1.83-1.34-.94-1.34-1.83Zm2.24 0c0-.29 0-1.46-.9-1.46s-.9 1.17-.9 1.46 0 1.46.9 1.46.9-1.17.9-1.46ZM103.21 30.42c0-.37-.02-.74-.03-1.11h.38c.01.16.02.27.03.53h.01c.08-.15.32-.57.91-.57.99 0 .99.99.99 1.23v2.4h-.41v-2.41c0-.25 0-.83-.67-.83-.5 0-.81.47-.81 1.02v2.22h-.41v-2.47ZM77.59 42h2v.41h-1.56v1.74h1.49v.41h-1.49v2.34h-.43v-4.89ZM80.45 41.89h.49v.63h-.49v-.63Zm.04 1.42h.41v3.57h-.41v-3.57ZM81.96 44.42c0-.37-.02-.74-.03-1.11h.38c0 .21.02.42.03.57h.01c.26-.51.56-.62.95-.62v.43c-.64 0-.94.28-.94.94v2.25h-.41v-2.46ZM85.56 43.79c-.2-.08-.38-.15-.61-.15-.42 0-.61.32-.61.57 0 .33.13.4.61.67.49.27.87.45.87 1.02 0 .64-.46 1.04-1.06 1.04-.44 0-.69-.09-.9-.17l.06-.46c.12.08.48.25.81.25.38 0 .66-.29.66-.62 0-.34-.22-.48-.64-.69-.6-.3-.84-.49-.84-1 0-.67.57-.99 1.05-.99.24 0 .53.06.66.11l-.06.42ZM87.29 42.47v.84h.73v.38h-.73v2.33c0 .29.05.54.39.54.19 0 .26-.04.34-.08v.41c-.1.04-.28.05-.47.05-.52 0-.67-.41-.67-.81v-2.44h-.53v-.38h.53v-.71l.41-.13ZM92.97 47.78l-.79-.88s-.13.03-.26.03c-1.72 0-1.72-2.07-1.72-2.49s0-2.49 1.72-2.49 1.72 2.07 1.72 2.49c0 .36 0 1.89-1.04 2.35l.91.99h-.55Zm-1.04-1.25c1.26 0 1.26-1.7 1.26-2.09s0-2.09-1.26-2.09-1.26 1.7-1.26 2.09 0 2.09 1.26 2.09ZM96.93 45.78c0 .37.02.74.03 1.11h-.38c-.01-.16-.02-.27-.03-.53h-.01c-.04.15-.31.57-.91.57-.78 0-.99-.56-.99-1.13v-2.49h.41v2.41c0 .25 0 .83.67.83.5 0 .81-.47.81-1.02v-2.22h.41v2.47ZM100.12 46.08c0 .27.02.53.04.8h-.36l-.03-.51h-.01c-.25.39-.54.56-1 .56-.55 0-.99-.46-.99-1.04 0-1.14 1.21-1.16 1.72-1.16h.26c0-.45 0-1.09-.74-1.09-.48 0-.85.34-.9.37l-.06-.43c.34-.18.59-.32.98-.32 1.1 0 1.1.92 1.1 1.18v1.64Zm-.38-1c-.84 0-1.55 0-1.55.81 0 .3.22.66.66.66.19 0 .89-.08.89-1.05v-.42ZM101.15 44.42c0-.37-.02-.74-.03-1.11h.38c0 .21.02.42.03.57h.01c.26-.51.56-.62.95-.62v.43c-.64 0-.94.28-.94.94v2.25h-.41v-2.46ZM103.98 42.47v.84h.73v.38h-.73v2.33c0 .29.05.54.39.54.19 0 .26-.04.34-.08v.41c-.1.04-.28.05-.47.05-.52 0-.67-.41-.67-.81v-2.44h-.53v-.38h.53v-.71l.41-.13ZM105.66 45.23c0 1.32.85 1.32 1.01 1.32.23 0 .57-.11.77-.29l.02.47c-.17.09-.41.2-.83.2-1.4 0-1.4-1.48-1.4-1.83 0-1.34.67-1.83 1.27-1.83 1.04 0 1.14 1.1 1.14 1.97h-1.97Zm1.54-.38c0-.95-.4-1.21-.73-1.21-.55 0-.81.75-.81 1.21h1.54ZM108.5 44.42c0-.37-.02-.74-.03-1.11h.38c0 .21.02.42.03.57h.01c.26-.51.56-.62.95-.62v.43c-.64 0-.94.28-.94.94v2.25h-.41v-2.46ZM77.59 56h2v.41h-1.56v1.74h1.49v.41h-1.49v2.34h-.43v-4.89ZM82.71 59.78c0 .37.02.74.03 1.11h-.38c-.01-.16-.02-.27-.03-.53h-.01c-.04.15-.31.57-.91.57-.78 0-.99-.56-.99-1.13v-2.49h.41v2.41c0 .25 0 .83.67.83.5 0 .81-.47.81-1.02v-2.22h.41v2.47ZM83.78 55.63h.41v5.25h-.41v-5.25ZM85.26 55.63h.41v5.25h-.41v-5.25ZM88.42 56h.67l1.36 4.24h.01L91.82 56h.67v4.89h-.41v-4.48h-.01l-1.44 4.48h-.33l-1.45-4.48h-.01v4.48h-.41V56ZM93.47 59.1c0-.9.29-1.83 1.34-1.83s1.34.94 1.34 1.83-.29 1.83-1.34 1.83-1.34-.94-1.34-1.83Zm2.24 0c0-.29 0-1.46-.9-1.46s-.9 1.17-.9 1.46 0 1.46.9 1.46.9-1.17.9-1.46ZM96.87 59.1c0-.9.29-1.83 1.34-1.83s1.34.94 1.34 1.83-.29 1.83-1.34 1.83-1.34-.94-1.34-1.83Zm2.24 0c0-.29 0-1.46-.9-1.46s-.9 1.17-.9 1.46 0 1.46.9 1.46.9-1.17.9-1.46ZM100.43 58.42c0-.37-.02-.74-.03-1.11h.38c.01.16.02.27.03.53h.01c.08-.15.32-.57.91-.57.99 0 .99.99.99 1.23v2.4h-.41v-2.41c0-.25 0-.83-.67-.83-.5 0-.81.47-.81 1.02v2.22h-.41v-2.46ZM77.59 70h.43v4.48h1.59v.41h-2.02V70ZM82.6 74.08c0 .27.02.53.04.8h-.36l-.03-.51h-.01c-.25.39-.54.56-1 .56-.55 0-.99-.46-.99-1.04 0-1.14 1.21-1.16 1.72-1.16h.26c0-.45 0-1.09-.74-1.09-.48 0-.85.34-.9.37l-.06-.43c.34-.18.59-.32.98-.32 1.1 0 1.1.92 1.1 1.18v1.64Zm-.38-1c-.84 0-1.55 0-1.55.81 0 .3.22.66.66.66.19 0 .89-.08.89-1.05v-.42ZM85.12 71.79c-.2-.08-.38-.15-.61-.15-.42 0-.61.32-.61.57 0 .33.13.4.61.67.49.27.87.45.87 1.02 0 .64-.46 1.04-1.06 1.04-.44 0-.69-.09-.9-.17l.06-.46c.12.08.48.25.81.25.38 0 .66-.29.66-.62 0-.34-.22-.48-.64-.69-.6-.3-.84-.49-.84-1 0-.67.57-.99 1.05-.99.24 0 .53.06.66.11l-.06.42ZM86.85 70.47v.84h.73v.38h-.73v2.33c0 .29.05.54.39.54.19 0 .26-.04.34-.08v.41c-.1.04-.28.05-.47.05-.52 0-.67-.41-.67-.81v-2.44h-.53v-.38h.53v-.71l.41-.13ZM92.53 75.78l-.79-.88s-.13.03-.26.03c-1.72 0-1.72-2.07-1.72-2.49s0-2.49 1.72-2.49 1.72 2.07 1.72 2.49c0 .36 0 1.89-1.04 2.35l.91.99h-.55Zm-1.04-1.25c1.26 0 1.26-1.7 1.26-2.09s0-2.09-1.26-2.09-1.26 1.7-1.26 2.09 0 2.09 1.26 2.09ZM96.49 73.78c0 .37.02.74.03 1.11h-.38c-.01-.16-.02-.27-.03-.53h-.01c-.04.15-.31.57-.91.57-.78 0-.99-.56-.99-1.13v-2.49h.41v2.41c0 .25 0 .83.67.83.5 0 .81-.47.81-1.02v-2.22h.41v2.47ZM99.68 74.08c0 .27.02.53.04.8h-.36l-.03-.51h-.01c-.25.39-.54.56-1 .56-.55 0-.99-.46-.99-1.04 0-1.14 1.21-1.16 1.72-1.16h.26c0-.45 0-1.09-.74-1.09-.48 0-.85.34-.9.37l-.06-.43c.34-.18.59-.32.98-.32 1.1 0 1.1.92 1.1 1.18v1.64Zm-.38-1c-.84 0-1.55 0-1.55.81 0 .3.22.66.66.66.19 0 .89-.08.89-1.05v-.42ZM100.71 72.42c0-.37-.02-.74-.03-1.11h.38c0 .21.02.42.03.57h.01c.26-.51.56-.62.95-.62v.43c-.64 0-.94.28-.94.94v2.25h-.41v-2.46ZM103.54 70.47v.84h.73v.38h-.73v2.33c0 .29.05.54.39.54.19 0 .26-.04.34-.08v.41c-.1.04-.28.05-.47.05-.52 0-.67-.41-.67-.81v-2.44h-.53v-.38h.53v-.71l.41-.13ZM105.22 73.23c0 1.32.85 1.32 1.01 1.32.23 0 .57-.11.77-.29l.02.47c-.17.09-.41.2-.83.2-1.4 0-1.4-1.48-1.4-1.83 0-1.34.67-1.83 1.27-1.83 1.04 0 1.14 1.1 1.14 1.97h-1.97Zm1.54-.38c0-.95-.4-1.21-.73-1.21-.55 0-.81.75-.81 1.21h1.54ZM108.06 72.42c0-.37-.02-.74-.03-1.11h.38c0 .21.02.42.03.57h.01c.26-.51.56-.62.95-.62v.43c-.64 0-.94.28-.94.94v2.25h-.41v-2.46ZM.88 18.59h7.09v1H.88v-1Zm.45-5.37h6.2v.99h-6.2v-.99Zm.57 2.62h4.99v.99H1.9v-.99ZM15.47 12.82v6.04c0 1.09-.51 1.22-2.33 1.22-.06-.28-.25-.76-.41-1.02.38.02.81.02 1.11.02.53 0 .59 0 .59-.23v-1.26h-3.42c-.23.94-.67 1.86-1.52 2.51-.15-.2-.53-.58-.74-.72 1.37-1.04 1.48-2.61 1.48-3.86v-2.69h5.23Zm-4.23 2.85c0 .31-.02.63-.06.97h3.26v-.97h-3.2Zm3.2-1.9h-3.2v.98h3.2v-.98ZM19.6 19.7h-.81l2.13-6.69h.81L19.6 19.7ZM32 14.79h-1.81v4.22c0 .9-.36 1.07-1.68 1.07-.04-.27-.19-.69-.32-.95.23 0 .45.02.62.02.4 0 .43 0 .43-.15v-4.21h-.73c-.2.45-.43.88-.67 1.21-.17-.15-.49-.39-.73-.54v.24h-.92v-.24h-.66c-.02.28-.06.55-.09.82h.98l.21-.02.53.06c0 .08 0 .19-.02.29-.15 3.49-.23 3.49-2.12 3.45-.02-.29-.13-.69-.29-.94.36.03.71.04.88.04.14 0 .22-.02.29-.1.14-.15.23-.67.28-1.93h-.84l-.05.33-.89-.14c.13-.72.27-1.85.32-2.73h1.47v-1h-1.74v-.9h2.66v2.61c.49-.7.9-1.83 1.13-2.89l1.17.32c-.02.06-.1.11-.21.1-.09.32-.19.66-.31.99H32v.95Zm-2.93 1.25c-.02.07-.09.11-.19.11-.19.97-.55 2.03-1 2.7a5.7 5.7 0 0 0-.75-.49c.41-.58.71-1.6.88-2.57l1.06.25Zm2.12 2.79c-.13-.75-.5-1.92-.81-2.8l.84-.25c.35.89.7 2.01.86 2.77l-.89.28ZM37.2 18.89h3.18v.96h-7.36v-.96h3.16v-1.63h-2.22v-.93h2.22v-1.44h-1.7c-.25.51-.54.98-.83 1.34-.19-.18-.58-.46-.83-.61.62-.69 1.14-1.94 1.43-3.11l1.2.32c-.03.07-.11.11-.23.11-.1.33-.21.66-.33 1h1.29v-1.51l1.23.06c0 .08-.07.13-.22.16v1.28h2.79v.95h-2.79v1.44h2.46v.93h-2.46v1.63ZM46.96 14.26c-.65.55-1.19 1.59-1.19 2.8s.55 2.27 1.19 2.8v.03h-.56c-.62-.55-1.12-1.61-1.12-2.83s.5-2.29 1.12-2.83h.56v.03ZM52.1 18.99c0 .18.02.2.13.2h.32c.13 0 .15-.09.17-.72.13.11.42.22.6.27-.07.86-.23 1.09-.69 1.09h-.5c-.57 0-.7-.2-.7-.83v-1.29h-1.48V16.5l-.03.03c-.07-.1-.19-.23-.31-.34v2.54h-1.16v.47h-.63v-4.53h1.79v1.21c.52-.5.85-1.12 1.02-1.66l.81.12c-.02.05-.06.1-.15.1-.04.1-.08.2-.13.3h.82l.1-.03.5.3s-.07.06-.12.07c-.1.18-.25.41-.4.63h.95v1.99h-.91v1.28Zm-3.14-3.68h-.52v1.07h.52v-1.07Zm-.52 2.8h.52V17h-.52v1.11Zm2.74-.23c-.01.05-.06.09-.15.1-.14.83-.39 1.51-1.72 1.9-.06-.17-.24-.44-.37-.57 1.16-.28 1.34-.79 1.43-1.51l.81.08Zm-.61-1.57v.8h.57v-.8h-.57Zm.79-.59c.08-.11.16-.25.22-.38h-.72c-.07.13-.16.25-.24.38h.74Zm.98 1.4v-.8h-.56v.8h.56ZM59.53 17.06h-1.07c.35.36.77.65 1.24.84-.16.14-.38.42-.49.6a4.25 4.25 0 0 1-.81-.51v1.88h-.74v-.16h-1.72v.19h-.71v-1.83c-.25.22-.54.41-.86.59-.08-.18-.3-.46-.46-.58.55-.28.98-.62 1.31-1.01h-1.16v-.59h1.58c.05-.1.11-.2.16-.3h-1.18v-.57h1.4c.03-.1.05-.2.08-.3h-1.73v-.57h1.84c.02-.17.04-.34.05-.5l.89.07c-.02.07-.07.11-.17.13-.01.1-.02.21-.04.31h2.32v.57h-2.42c-.02.1-.05.2-.08.3h2.23v.57h-1.17c.05.1.11.2.17.3h1.54v.59Zm-1.75.31c-.08-.1-.16-.2-.23-.31H56.1l-.22.31h1.9Zm-.13.9v-.34h-1.72v.34h1.72Zm-1.72.88h1.72v-.37h-1.72v.37Zm1.13-2.97h-.51c-.04.1-.08.2-.13.3h.79l-.14-.3ZM60.25 19.86c.65-.55 1.19-1.59 1.19-2.8s-.55-2.27-1.19-2.8v-.03h.56c.62.55 1.12 1.61 1.12 2.83s-.5 2.28-1.12 2.83h-.56v-.03ZM.71 30.32c0-2.12.83-3.15 1.96-3.15s1.86 1.09 1.86 3.07c0 2.11-.74 3.19-1.95 3.19-1.1 0-1.87-1.09-1.87-3.11Zm3.14-.05c0-1.52-.37-2.56-1.22-2.56-.72 0-1.23.96-1.23 2.56s.45 2.61 1.21 2.61c.9 0 1.24-1.17 1.24-2.61ZM8.7 33.33h-.64v-1.7H5.41v-.43L8 27.26h.7v3.85h.83v.52H8.7v1.7Zm-2.61-2.22h1.97v-2.16c0-.33.02-.66.03-.97h-.03c-.19.37-.33.63-.49.91l-1.48 2.2v.02ZM10.6 32.92c0-.31.2-.53.49-.53s.48.22.48.53-.19.51-.49.51-.48-.24-.48-.51ZM16.28 33.33h-3.59v-.41l.59-.62c1.44-1.46 2.17-2.34 2.17-3.33 0-.65-.28-1.25-1.16-1.25-.49 0-.92.27-1.21.5l-.23-.47c.37-.33.92-.59 1.57-.59 1.22 0 1.71.89 1.71 1.73 0 1.14-.8 2.11-2.06 3.38l-.48.5v.02h2.68v.55ZM17.48 30.32c0-2.12.83-3.15 1.96-3.15s1.86 1.09 1.86 3.07c0 2.11-.74 3.19-1.95 3.19-1.1 0-1.87-1.09-1.87-3.11Zm3.14-.05c0-1.52-.37-2.56-1.22-2.56-.72 0-1.23.96-1.23 2.56s.45 2.61 1.21 2.61c.9 0 1.24-1.17 1.24-2.61ZM22.5 32.92c0-.31.2-.53.49-.53s.48.22.48.53-.19.51-.49.51-.48-.24-.48-.51ZM27.15 33.33h-2.66v-.31l.44-.46c1.07-1.08 1.61-1.73 1.61-2.46 0-.48-.21-.92-.86-.92-.36 0-.68.2-.9.37l-.17-.35c.28-.25.68-.44 1.16-.44.91 0 1.27.66 1.27 1.28 0 .85-.59 1.57-1.52 2.5l-.35.37 1.98.01v.41ZM28.04 31.1c0-1.57.61-2.33 1.45-2.33s1.37.8 1.37 2.27c0 1.56-.55 2.36-1.44 2.36-.82 0-1.38-.8-1.38-2.3Zm2.32-.04c0-1.12-.27-1.9-.9-1.9-.53 0-.91.71-.91 1.9s.33 1.93.89 1.93c.67 0 .92-.86.92-1.93ZM34.36 33.33H31.7v-.31l.44-.46c1.07-1.08 1.61-1.73 1.61-2.46 0-.48-.21-.92-.86-.92-.36 0-.68.2-.9.37l-.17-.35c.28-.25.68-.44 1.16-.44.91 0 1.27.66 1.27 1.28 0 .85-.59 1.57-1.52 2.5l-.35.37 1.98.01v.41ZM36.9 30.91c.53.09.98.52.98 1.16 0 .71-.52 1.34-1.52 1.34-.45 0-.86-.14-1.06-.29l.15-.38c.16.11.52.27.92.27.75 0 1-.53 1-.94 0-.66-.56-.96-1.15-.96h-.29v-.37h.29c.43 0 .99-.27.99-.83 0-.39-.23-.73-.77-.73-.33 0-.64.16-.82.29l-.15-.37c.22-.17.64-.34 1.07-.34.82 0 1.19.52 1.19 1.06 0 .46-.29.88-.82 1.06v.02ZM57.97 31.54h-.92c-.07.97-.38 1.87-1.47 2.48a3.38 3.38 0 0 0-.41-.31c1-.55 1.3-1.34 1.37-2.17h-.83v.52h-.48v-2.88l.62.04c0 .06-.05.1-.15.11v1.73h.85v-2.54h-1.69v-.49h1c-.1-.39-.32-.96-.57-1.38l.44-.17c.26.43.5 1 .6 1.39l-.36.15h2.85v.49h-1.76v2.54h.9v-1.88l.62.04c0 .06-.05.1-.15.11v2.64h-.48v-.43Zm.53-4.85s-.08.07-.17.07c-.16.37-.44.92-.66 1.28-.1-.03-.32-.13-.41-.15.21-.38.47-.99.61-1.4l.63.2Zm3.53.27v6.36c0 .67-.32.71-1.59.71-.02-.15-.1-.39-.18-.54h.66c.51 0 .57 0 .57-.19v-2.1h-1.88c-.15 1-.49 2.05-1.26 2.83-.09-.1-.31-.25-.44-.31 1.15-1.13 1.26-2.75 1.26-4.01v-2.77h2.85Zm-2.33 2.78c0 .31 0 .64-.04.99h1.83v-1.39H59.7v.41Zm1.79-2.27H59.7v1.36h1.79v-1.36ZM.71 44.32c0-2.12.83-3.15 1.96-3.15s1.86 1.09 1.86 3.07c0 2.11-.74 3.19-1.95 3.19-1.1 0-1.87-1.09-1.87-3.11Zm3.14-.05c0-1.52-.37-2.56-1.22-2.56-.72 0-1.23.96-1.23 2.56s.45 2.61 1.21 2.61c.9 0 1.24-1.17 1.24-2.61ZM8.7 47.33h-.64v-1.7H5.41v-.43L8 41.26h.7v3.85h.83v.52H8.7v1.7Zm-2.61-2.22h1.97v-2.16c0-.33.02-.66.03-.97h-.03c-.19.37-.33.63-.49.91l-1.48 2.2v.02ZM10.6 46.92c0-.31.2-.53.49-.53s.48.22.48.53-.19.51-.49.51-.48-.24-.48-.51ZM16.28 47.33h-3.59v-.41l.59-.62c1.44-1.46 2.17-2.34 2.17-3.33 0-.65-.28-1.25-1.16-1.25-.49 0-.92.27-1.21.5l-.23-.47c.37-.33.92-.59 1.57-.59 1.22 0 1.71.89 1.71 1.73 0 1.14-.8 2.11-2.06 3.38l-.48.5v.02h2.68v.55ZM18.68 44.12c-.66-.32-.95-.85-.95-1.37 0-.94.74-1.58 1.72-1.58 1.1 0 1.63.75 1.63 1.47 0 .52-.28 1.09-1 1.43v.03c.75.32 1.21.86 1.21 1.59 0 1.03-.84 1.73-1.91 1.73-1.16 0-1.87-.74-1.87-1.61 0-.79.47-1.35 1.17-1.67v-.03Zm1.92 1.65c0-.76-.51-1.15-1.31-1.41-.71.24-1.09.75-1.09 1.35 0 .69.46 1.21 1.19 1.21.78 0 1.21-.53 1.21-1.16Zm-2.23-3.09c0 .65.45 1 1.13 1.21.53-.2.92-.62.92-1.19 0-.51-.28-1.04-1-1.04s-1.05.49-1.05 1.02ZM22.5 46.92c0-.31.2-.53.49-.53s.48.22.48.53-.19.51-.49.51-.48-.24-.48-.51ZM27.15 47.33h-2.66v-.31l.44-.46c1.07-1.08 1.61-1.73 1.61-2.46 0-.48-.21-.92-.86-.92-.36 0-.68.2-.9.37l-.17-.35c.28-.25.68-.44 1.16-.44.91 0 1.27.66 1.27 1.28 0 .85-.59 1.57-1.52 2.5l-.35.37 1.98.01v.41ZM28.04 45.1c0-1.57.61-2.33 1.45-2.33s1.37.8 1.37 2.27c0 1.56-.55 2.36-1.44 2.36-.82 0-1.38-.8-1.38-2.3Zm2.32-.04c0-1.12-.27-1.9-.9-1.9-.53 0-.91.71-.91 1.9s.33 1.93.89 1.93c.67 0 .92-.86.92-1.93ZM34.36 47.33H31.7v-.31l.44-.46c1.07-1.08 1.61-1.73 1.61-2.46 0-.48-.21-.92-.86-.92-.36 0-.68.2-.9.37l-.17-.35c.28-.25.68-.44 1.16-.44.91 0 1.27.66 1.27 1.28 0 .85-.59 1.57-1.52 2.5l-.35.37 1.98.01v.41ZM36.9 44.91c.53.09.98.52.98 1.16 0 .71-.52 1.34-1.52 1.34-.45 0-.86-.14-1.06-.29l.15-.38c.16.11.52.27.92.27.75 0 1-.53 1-.94 0-.66-.56-.96-1.15-.96h-.29v-.37h.29c.43 0 .99-.27.99-.83 0-.39-.23-.73-.77-.73-.33 0-.64.16-.82.29l-.15-.37c.22-.17.64-.34 1.07-.34.82 0 1.19.52 1.19 1.06 0 .46-.29.88-.82 1.06v.02ZM58.65 47.08h3.68v.55h-7.37v-.55h3.12v-6.46l.74.05c0 .06-.06.1-.17.11v2.4h3.11v.55h-3.11v3.35ZM65.46 44.41l.12-.02.3.04s0 .12-.02.18c-.11 2.14-.2 2.89-.44 3.16-.18.21-.36.24-.92.24-.19 0-.41 0-.64-.02-.02-.16-.08-.38-.17-.53.45.04.85.04 1.03.04.11 0 .19-.02.24-.09.16-.17.27-.83.36-2.52h-1.31l-.05.34-.51-.08c.11-.63.24-1.66.29-2.43h1.56v-1.41h-1.88v-.51h2.41v2.67h-.53v-.25h-1.09l-.13 1.18h1.38Zm4.12 1.15c.58.68 1.17 1.6 1.38 2.22l-.49.25c-.06-.2-.17-.42-.3-.67-1.38.11-2.82.2-3.75.26 0 .06-.06.11-.12.11l-.2-.64.77-.02c.39-.46.81-1.02 1.22-1.61-.44-.47-1.17-1.08-1.79-1.5l.32-.39c.14.09.28.19.42.29.32-.47.67-1.07.92-1.58H66.1v-.52h2.01v-1.28l.69.05c0 .06-.06.1-.16.11v1.13h2.26v.52h-2.33l.13.06s-.1.07-.18.07c-.28.51-.73 1.21-1.12 1.73.37.29.73.59.99.85.43-.64.83-1.29 1.13-1.86l.62.32s-.1.08-.19.08c-.64 1.05-1.61 2.46-2.48 3.5.75-.03 1.6-.07 2.44-.11-.23-.4-.52-.8-.8-1.15l.45-.22ZM.71 58.32c0-2.12.83-3.15 1.96-3.15s1.86 1.09 1.86 3.07c0 2.11-.74 3.19-1.95 3.19-1.1 0-1.87-1.09-1.87-3.11Zm3.14-.05c0-1.52-.37-2.56-1.22-2.56-.72 0-1.23.96-1.23 2.56s.45 2.61 1.21 2.61c.9 0 1.24-1.17 1.24-2.61ZM9.02 55.27v.56H6.84l-.25 1.72c.13-.02.26-.03.47-.03 1.08 0 2.04.64 2.04 1.86s-.89 2.06-2.09 2.06c-.61 0-1.12-.18-1.39-.36l.19-.53c.23.15.67.34 1.2.34.76 0 1.42-.56 1.41-1.43 0-.83-.54-1.42-1.67-1.42-.32 0-.58.02-.78.06l.38-2.83h2.67ZM10.6 60.92c0-.31.2-.53.49-.53s.48.22.48.53-.19.51-.49.51-.48-.24-.48-.51ZM12.61 58.32c0-2.12.83-3.15 1.96-3.15s1.86 1.09 1.86 3.07c0 2.11-.74 3.19-1.95 3.19-1.1 0-1.87-1.09-1.87-3.11Zm3.14-.05c0-1.52-.37-2.56-1.22-2.56-.72 0-1.23.96-1.23 2.56s.45 2.61 1.21 2.61c.9 0 1.24-1.17 1.24-2.61ZM18.18 58.12a1.7 1.7 0 0 1 1.42-.75c1.03 0 1.72.77 1.72 1.94s-.68 2.12-1.86 2.12-1.98-.98-1.98-2.55.76-3.33 2.73-3.65c.23-.03.43-.06.57-.06v.56c-1.68 0-2.48 1.22-2.62 2.39h.02Zm2.46 1.24c0-.93-.5-1.47-1.23-1.47s-1.26.7-1.26 1.15c0 1.11.48 1.87 1.32 1.87.7 0 1.17-.63 1.17-1.55ZM22.5 60.92c0-.31.2-.53.49-.53s.48.22.48.53-.19.51-.49.51-.48-.24-.48-.51ZM27.15 61.33h-2.66v-.31l.44-.46c1.07-1.08 1.61-1.73 1.61-2.46 0-.48-.21-.92-.86-.92-.36 0-.68.2-.9.37l-.17-.35c.28-.25.68-.44 1.16-.44.91 0 1.27.66 1.27 1.28 0 .85-.59 1.57-1.52 2.5l-.35.37 1.98.01v.41ZM28.04 59.1c0-1.57.61-2.33 1.45-2.33s1.37.8 1.37 2.27c0 1.56-.55 2.36-1.44 2.36-.82 0-1.38-.8-1.38-2.3Zm2.32-.04c0-1.12-.27-1.9-.9-1.9-.53 0-.91.71-.91 1.9s.33 1.93.89 1.93c.67 0 .92-.86.92-1.93ZM34.36 61.33H31.7v-.31l.44-.46c1.07-1.08 1.61-1.73 1.61-2.46 0-.48-.21-.92-.86-.92-.36 0-.68.2-.9.37l-.17-.35c.28-.25.68-.44 1.16-.44.91 0 1.27.66 1.27 1.28 0 .85-.59 1.57-1.52 2.5l-.35.37 1.98.01v.41ZM36.9 58.91c.53.09.98.52.98 1.16 0 .71-.52 1.34-1.52 1.34-.45 0-.86-.14-1.06-.29l.15-.38c.16.11.52.27.92.27.75 0 1-.53 1-.94 0-.66-.56-.96-1.15-.96h-.29v-.37h.29c.43 0 .99-.27.99-.83 0-.39-.23-.73-.77-.73-.33 0-.64.16-.82.29l-.15-.37c.22-.17.64-.34 1.07-.34.82 0 1.19.52 1.19 1.06 0 .46-.29.88-.82 1.06v.02ZM56.31 58.07c-.63 0-.8-.21-.8-.82v-1.4h-.59v-.48h1.72v-.88l.67.05c0 .06-.05.09-.15.11v.72h1.64v.48h-2.78v1.41c0 .25.06.33.28.33h1.45c.18 0 .47 0 .62-.04.02.14.04.37.06.48-.12.03-.4.04-.66.04h-1.46Zm2.6 3.28h3.45v.47h-7.43v-.47h3.43v-.77h-2.38v-.46h2.38v-.76h-2.75v-.47h6.13v.47h-2.83v.76h2.43v.46h-2.43v.77Zm3.19-6.54v.17c-.09 2.25-.17 3.01-.37 3.27-.17.2-.39.23-.74.23-.18 0-.38 0-.6-.02 0-.13-.06-.32-.13-.45.36.03.68.03.83.03.19 0 .29-.08.37-.79h-1.98c-.19.61-.5 1.09-.96 1.4-.08-.09-.24-.25-.37-.32.9-.61 1.13-1.86 1.14-3.53h2.54l.28.02Zm-2.4 1.41c-.03.22-.07.43-.11.62h1.9l.05-.62h-1.83Zm1.87-1h-1.79c0 .21-.02.41-.04.61h1.81l.02-.61ZM.71 72.32c0-2.12.83-3.15 1.96-3.15s1.86 1.09 1.86 3.07c0 2.11-.74 3.19-1.95 3.19-1.1 0-1.87-1.09-1.87-3.11Zm3.14-.05c0-1.52-.37-2.56-1.22-2.56-.72 0-1.23.96-1.23 2.56s.45 2.61 1.21 2.61c.9 0 1.24-1.17 1.24-2.61ZM9.02 69.27v.56H6.84l-.25 1.72c.13-.02.26-.03.47-.03 1.08 0 2.04.64 2.04 1.86s-.89 2.06-2.09 2.06c-.61 0-1.12-.18-1.39-.36l.19-.53c.23.15.67.34 1.2.34.76 0 1.42-.56 1.41-1.43 0-.83-.54-1.42-1.67-1.42-.32 0-.58.02-.78.06l.38-2.83h2.67ZM10.6 74.92c0-.31.2-.53.49-.53s.48.22.48.53-.19.51-.49.51-.48-.24-.48-.51ZM14.4 75.33v-5.44h-.02l-1 .58-.16-.5 1.26-.7h.58v6.07h-.66ZM21.14 75.33h-3.59v-.41l.59-.62c1.44-1.46 2.17-2.34 2.17-3.33 0-.65-.28-1.25-1.16-1.25-.49 0-.92.27-1.21.5l-.23-.47c.37-.33.92-.59 1.57-.59 1.22 0 1.71.89 1.71 1.73 0 1.14-.8 2.11-2.06 3.38l-.48.5v.02h2.68v.55ZM22.5 74.92c0-.31.2-.53.49-.53s.48.22.48.53-.19.51-.49.51-.48-.24-.48-.51ZM27.15 75.33h-2.66v-.31l.44-.46c1.07-1.08 1.61-1.73 1.61-2.46 0-.48-.21-.92-.86-.92-.36 0-.68.2-.9.37l-.17-.35c.28-.25.68-.44 1.16-.44.91 0 1.27.66 1.27 1.28 0 .85-.59 1.57-1.52 2.5l-.35.37 1.98.01v.41ZM28.04 73.1c0-1.57.61-2.33 1.45-2.33s1.37.8 1.37 2.27c0 1.56-.55 2.36-1.44 2.36-.82 0-1.38-.8-1.38-2.3Zm2.32-.04c0-1.12-.27-1.9-.9-1.9-.53 0-.91.71-.91 1.9s.33 1.93.89 1.93c.67 0 .92-.86.92-1.93ZM34.36 75.33H31.7v-.31l.44-.46c1.07-1.08 1.61-1.73 1.61-2.46 0-.48-.21-.92-.86-.92-.36 0-.68.2-.9.37l-.17-.35c.28-.25.68-.44 1.16-.44.91 0 1.27.66 1.27 1.28 0 .85-.59 1.57-1.52 2.5l-.35.37 1.98.01v.41ZM36.9 72.91c.53.09.98.52.98 1.16 0 .71-.52 1.34-1.52 1.34-.45 0-.86-.14-1.06-.29l.15-.38c.16.11.52.27.92.27.75 0 1-.53 1-.94 0-.66-.56-.96-1.15-.96h-.29v-.37h.29c.43 0 .99-.27.99-.83 0-.39-.23-.73-.77-.73-.33 0-.64.16-.82.29l-.15-.37c.22-.17.64-.34 1.07-.34.82 0 1.19.52 1.19 1.06 0 .46-.29.88-.82 1.06v.02ZM62.3 69.65h-3.44l-.09.02v1.41l.04-.05c1.03.5 2.36 1.26 3.03 1.77l-.38.49c-.58-.47-1.72-1.16-2.69-1.68v4.4h-.58v-6.37h-3.2v-.54h7.3v.54ZM65.46 72.41l.12-.02.3.04s0 .12-.02.18c-.11 2.14-.2 2.89-.44 3.16-.18.21-.36.24-.92.24-.19 0-.41 0-.64-.02-.02-.16-.08-.38-.17-.53.45.04.85.04 1.03.04.11 0 .19-.02.24-.09.16-.17.27-.83.36-2.52h-1.31l-.05.34-.51-.08c.11-.63.24-1.66.29-2.43h1.56v-1.41h-1.88v-.51h2.41v2.67h-.53v-.25h-1.09l-.13 1.18h1.38Zm4.12 1.15c.58.68 1.17 1.6 1.38 2.22l-.49.25c-.06-.2-.17-.42-.3-.67-1.38.11-2.82.2-3.75.26 0 .06-.06.11-.12.11l-.2-.64.77-.02c.39-.46.81-1.02 1.22-1.61-.44-.47-1.17-1.08-1.79-1.5l.32-.39c.14.09.28.19.42.29.32-.47.67-1.07.92-1.58H66.1v-.52h2.01v-1.28l.69.05c0 .06-.06.1-.16.11v1.13h2.26v.52h-2.33l.13.06s-.1.07-.18.07c-.28.51-.73 1.21-1.12 1.73.37.29.73.59.99.85.43-.64.83-1.29 1.13-1.86l.62.32s-.1.08-.19.08c-.64 1.05-1.61 2.46-2.48 3.5.75-.03 1.6-.07 2.44-.11-.23-.4-.52-.8-.8-1.15l.45-.22Z" class="cls-1"/><path d="M52.26 30.89c0 1.5-1.21 2.71-2.71 2.71s-2.71-1.21-2.71-2.71 1.21-2.71 2.71-2.71 2.71 1.21 2.71 2.71Z" class="cls-3"/><path d="M52.26 58.82c0 1.5-1.21 2.71-2.71 2.71s-2.71-1.21-2.71-2.71 1.21-2.71 2.71-2.71 2.71 1.21 2.71 2.71ZM49.55 42.14c1.5 0 2.71 1.21 2.71 2.71s-1.21 2.71-2.71 2.71" class="cls-2"/><path d="M49.55 42.14c-1.5 0-2.71 1.21-2.71 2.71s1.21 2.71 2.71 2.71" class="cls-3"/><path d="M49.55 75.49c-1.5 0-2.71-1.21-2.71-2.71s1.21-2.71 2.71-2.71" class="cls-2"/><path d="M49.55 75.49c1.5 0 2.71-1.21 2.71-2.71s-1.21-2.71-2.71-2.71" class="cls-3"/></g></svg>