<svg xmlns="http://www.w3.org/2000/svg" id="_レイヤー_2" viewBox="0 0 109.96 74.33"><defs><style>.cls-1,.cls-2{fill:#fff}.cls-3{fill:none}.cls-2,.cls-3{stroke:#fff;stroke-width:.5px}</style></defs><g id="text_solar"><path d="M3.57 1.3c-.29-.15-.66-.25-1.02-.25s-.82.14-.82.56c0 .78 1.67.74 1.67 2.09 0 1.2-.94 1.63-2.01 1.63-.47 0-.95-.11-1.39-.27l.25-.83c.38.17.78.34 1.2.34.47 0 .93-.24.93-.76 0-.88-1.67-.74-1.67-2.05C.71.73 1.6.28 2.54.28c.43 0 .87.06 1.27.22l-.23.8ZM5.22 0h.94l-.45 2h.01c.26-.24.62-.43 1.02-.43.71 0 1.18.44 1.18 1.16 0 .27-.07.56-.12.78l-.38 1.75h-.94l.35-1.7c.05-.25.1-.49.1-.76 0-.3-.21-.5-.51-.5-.65 0-.89.61-1.01 1.15l-.38 1.81h-.94L5.22 0ZM9.25 1.65h.94l-.77 3.61h-.94l.77-3.61ZM9.59.1h.94l-.2.9h-.94l.2-.9ZM10.85 1.65h.94l.26 2.71h.01l1.32-2.71h1.04l.2 2.71h.01l1.39-2.71h.96l-2 3.61h-1.06l-.2-2.76h-.01l-1.32 2.76h-1.06l-.48-3.61ZM19.16 4.7h-.01c-.32.41-.64.64-1.16.64-.65 0-1.11-.36-1.11-1.03 0-1.19 1.33-1.28 2.21-1.28h.33c.03-.1.03-.2.03-.31 0-.36-.39-.47-.72-.47-.41 0-.81.1-1.18.28l.13-.75c.4-.14.81-.22 1.23-.22.72 0 1.4.27 1.4 1.11 0 .48-.36 1.9-.44 2.58h-.79l.1-.55Zm-.92-.05c.7 0 .92-.48 1.06-1.06h-.33c-.46 0-1.21.08-1.21.69 0 .25.24.38.48.38ZM23.62 2.42c-.25-.09-.5-.17-.77-.17-.28 0-.63.08-.63.36 0 .46 1.22.62 1.22 1.51 0 .94-.82 1.22-1.62 1.22-.38 0-.76-.06-1.1-.22l.2-.75c.27.15.53.28.9.28.31 0 .64-.1.64-.4 0-.58-1.22-.64-1.22-1.54 0-.85.82-1.15 1.56-1.15.34 0 .69.06 1.02.15l-.2.71ZM27.46 4.74c-.04.22-.08.41-.09.52h-.92l.06-.35h-.01c-.26.24-.62.43-1.02.43-.71 0-1.18-.44-1.18-1.16 0-.27.07-.56.12-.78l.38-1.75h.94l-.35 1.7c-.05.25-.11.49-.11.76 0 .3.21.5.51.5.65 0 .89-.61 1.01-1.15l.38-1.81h.94l-.67 3.09ZM32.65.36h.43v4.48h1.59v.41h-2.02V.36ZM37.66 4.46c0 .27.02.53.04.8h-.36l-.03-.51h-.01c-.25.39-.54.56-1 .56-.55 0-.99-.46-.99-1.04 0-1.14 1.21-1.16 1.72-1.16h.26c0-.45 0-1.09-.74-1.09-.48 0-.85.34-.9.37l-.06-.43c.34-.18.59-.32.98-.32 1.1 0 1.1.92 1.1 1.18v1.64Zm-.38-1c-.84 0-1.55 0-1.55.81 0 .3.22.66.66.66.19 0 .89-.08.89-1.05v-.42ZM39.28.84v.84h.73v.38h-.73v2.33c0 .29.05.54.39.54.19 0 .26-.04.34-.08v.41c-.1.04-.28.05-.47.05-.52 0-.67-.41-.67-.8V2.07h-.53v-.38h.53V.98l.41-.13ZM40.96 3.6c0 1.32.85 1.32 1.01 1.32.23 0 .57-.11.77-.29l.02.47c-.17.09-.41.2-.83.2-1.4 0-1.4-1.48-1.4-1.83 0-1.34.67-1.83 1.27-1.83 1.04 0 1.14 1.1 1.14 1.97h-1.97Zm1.54-.38c0-.95-.4-1.21-.73-1.21-.55 0-.81.75-.81 1.21h1.54ZM44.98.36h.46l.88 4.37h.01L47.35.36h.6l.92 4.37h.01l.95-4.37h.43l-1.13 4.89h-.55l-.96-4.4h-.01l-1.04 4.4h-.51L44.97.36ZM51.02.26h.49v.63h-.49V.26Zm.04 1.42h.41v3.57h-.41V1.68ZM52.54 2.79c0-.37-.02-.74-.03-1.11h.38c.01.16.02.27.03.52h.01c.08-.15.32-.57.91-.57.99 0 .99.99.99 1.23v2.4h-.41V2.85c0-.25 0-.83-.67-.83-.5 0-.81.47-.81 1.02v2.22h-.41V2.8ZM56.46.84v.84h.73v.38h-.73v2.33c0 .29.05.54.39.54.19 0 .26-.04.34-.08v.41c-.1.04-.28.05-.47.05-.52 0-.67-.41-.67-.8V2.07h-.53v-.38h.53V.98l.41-.13ZM58.13 3.6c0 1.32.85 1.32 1.01 1.32.23 0 .57-.11.77-.29l.02.47c-.17.09-.41.2-.83.2-1.4 0-1.4-1.48-1.4-1.83 0-1.34.67-1.83 1.27-1.83 1.04 0 1.14 1.1 1.14 1.97h-1.97Zm1.54-.38c0-.95-.4-1.21-.73-1.21-.55 0-.81.75-.81 1.21h1.54ZM60.97 2.79c0-.37-.02-.74-.03-1.11h.38c0 .21.02.42.03.57h.01c.26-.51.56-.62.95-.62v.43c-.64 0-.94.28-.94.94v2.25h-.41V2.79ZM77.7 26.54h.56l2.05 4.34h.01v-4.34h.41v4.89h-.56l-2.05-4.31h-.01v4.31h-.41v-4.89ZM82.15 29.78c0 1.32.85 1.32 1.01 1.32.23 0 .57-.11.77-.29l.02.47c-.17.09-.41.2-.83.2-1.4 0-1.4-1.48-1.4-1.83 0-1.35.67-1.84 1.27-1.84 1.04 0 1.14 1.1 1.14 1.97h-1.97Zm1.54-.38c0-.95-.4-1.21-.73-1.21-.55 0-.81.75-.81 1.21h1.54ZM84.61 27.86h.43l.75 3.14h.01l.72-3.14h.52l.78 3.14h.01l.74-3.14h.41l-.93 3.57h-.5l-.77-3.11h-.01l-.73 3.11h-.48l-.96-3.57ZM91.31 26.54h.67l1.36 4.24h.01l1.36-4.24h.67v4.89h-.41v-4.48h-.01l-1.44 4.48h-.33l-1.45-4.48h-.01v4.48h-.41v-4.89ZM96.36 29.64c0-.9.29-1.84 1.34-1.84s1.34.94 1.34 1.84-.29 1.83-1.34 1.83-1.34-.94-1.34-1.83Zm2.24 0c0-.29 0-1.46-.9-1.46s-.9 1.17-.9 1.46 0 1.46.9 1.46.9-1.17.9-1.46ZM99.76 29.64c0-.9.29-1.84 1.34-1.84s1.34.94 1.34 1.84-.29 1.83-1.34 1.83-1.34-.94-1.34-1.83Zm2.24 0c0-.29 0-1.46-.9-1.46s-.9 1.17-.9 1.46 0 1.46.9 1.46.9-1.17.9-1.46ZM103.32 28.96c0-.37-.02-.74-.03-1.11h.38c.01.16.02.27.03.52h.01c.08-.15.32-.57.91-.57.99 0 .99.99.99 1.23v2.39h-.41v-2.41c0-.25 0-.83-.67-.83-.5 0-.81.47-.81 1.02v2.22h-.41v-2.46ZM77.7 40.54h2v.41h-1.56v1.74h1.49v.41h-1.49v2.34h-.43v-4.89ZM80.56 40.44h.49v.63h-.49v-.63Zm.04 1.42h.41v3.57h-.41v-3.57ZM82.08 42.96c0-.37-.02-.74-.03-1.11h.38c0 .21.02.42.03.57h.01c.26-.51.56-.62.95-.62v.43c-.64 0-.94.28-.94.94v2.25h-.41v-2.46ZM85.67 42.33c-.2-.08-.38-.15-.61-.15-.42 0-.61.32-.61.57 0 .33.13.4.61.67.49.27.87.45.87 1.02 0 .64-.46 1.04-1.06 1.04-.44 0-.69-.09-.9-.17l.06-.46c.12.08.48.25.81.25.38 0 .66-.29.66-.62 0-.34-.22-.48-.64-.69-.6-.3-.84-.49-.84-1 0-.67.57-.99 1.05-.99.24 0 .53.06.66.11l-.06.42ZM87.4 41.02v.84h.73v.38h-.73v2.33c0 .29.05.54.39.54.19 0 .26-.04.34-.08v.41c-.1.04-.28.05-.47.05-.52 0-.67-.41-.67-.81v-2.44h-.53v-.38h.53v-.71l.41-.13ZM93.08 46.33l-.79-.88s-.13.03-.26.03c-1.72 0-1.72-2.07-1.72-2.49s0-2.49 1.72-2.49 1.72 2.07 1.72 2.49c0 .36 0 1.89-1.04 2.35l.91.99h-.55Zm-1.04-1.25c1.26 0 1.26-1.7 1.26-2.09s0-2.09-1.26-2.09-1.26 1.7-1.26 2.09 0 2.09 1.26 2.09ZM97.04 44.32c0 .37.02.74.03 1.11h-.38c-.01-.16-.02-.27-.03-.53h-.01c-.04.15-.31.57-.91.57-.78 0-.99-.56-.99-1.13v-2.49h.41v2.41c0 .25 0 .83.67.83.5 0 .81-.47.81-1.02v-2.22h.41v2.47ZM100.23 44.63c0 .27.02.53.04.8h-.36l-.03-.51h-.01c-.25.39-.54.56-1 .56-.55 0-.99-.46-.99-1.04 0-1.14 1.21-1.16 1.72-1.16h.26c0-.45 0-1.09-.74-1.09-.48 0-.85.34-.9.37l-.06-.43c.34-.18.59-.32.98-.32 1.1 0 1.1.92 1.1 1.18v1.64Zm-.38-1c-.84 0-1.55 0-1.55.81 0 .3.22.66.66.66.19 0 .89-.08.89-1.05v-.42ZM101.26 42.96c0-.37-.02-.74-.03-1.11h.38c0 .21.02.42.03.57h.01c.26-.51.56-.62.95-.62v.43c-.64 0-.94.28-.94.94v2.25h-.41v-2.46ZM104.09 41.02v.84h.73v.38h-.73v2.33c0 .29.05.54.39.54.19 0 .26-.04.34-.08v.41c-.1.04-.28.05-.47.05-.52 0-.67-.41-.67-.81v-2.44h-.53v-.38h.53v-.71l.41-.13ZM105.77 43.78c0 1.32.85 1.32 1.01 1.32.23 0 .57-.11.77-.29l.02.47c-.17.09-.41.2-.83.2-1.4 0-1.4-1.48-1.4-1.83 0-1.34.67-1.83 1.27-1.83 1.04 0 1.14 1.1 1.14 1.97h-1.97Zm1.54-.38c0-.95-.4-1.21-.73-1.21-.55 0-.81.75-.81 1.21h1.54ZM108.61 42.96c0-.37-.02-.74-.03-1.11h.38c0 .21.02.42.03.57h.01c.26-.51.56-.62.95-.62v.43c-.64 0-.94.28-.94.94v2.25h-.41v-2.46ZM77.7 54.54h2v.41h-1.56v1.74h1.49v.41h-1.49v2.34h-.43v-4.89ZM82.82 58.32c0 .37.02.74.03 1.11h-.38c-.01-.16-.02-.27-.03-.53h-.01c-.04.15-.31.57-.91.57-.78 0-.99-.56-.99-1.13v-2.49h.41v2.41c0 .25 0 .83.67.83.5 0 .81-.47.81-1.02v-2.22h.41v2.47ZM83.89 54.18h.41v5.25h-.41v-5.25ZM85.37 54.18h.41v5.25h-.41v-5.25ZM88.53 54.54h.67l1.36 4.24h.01l1.36-4.24h.67v4.89h-.41v-4.48h-.01l-1.44 4.48h-.33l-1.45-4.48h-.01v4.48h-.41v-4.89ZM93.58 57.64c0-.9.29-1.83 1.34-1.83s1.34.94 1.34 1.83-.29 1.83-1.34 1.83-1.34-.94-1.34-1.83Zm2.24 0c0-.29 0-1.46-.9-1.46s-.9 1.17-.9 1.46 0 1.46.9 1.46.9-1.17.9-1.46ZM96.98 57.64c0-.9.29-1.83 1.34-1.83s1.34.94 1.34 1.83-.29 1.83-1.34 1.83-1.34-.94-1.34-1.83Zm2.24 0c0-.29 0-1.46-.9-1.46s-.9 1.17-.9 1.46 0 1.46.9 1.46.9-1.17.9-1.46ZM100.54 56.96c0-.37-.02-.74-.03-1.11h.38c.01.16.02.27.03.53h.01c.08-.15.32-.57.91-.57.99 0 .99.99.99 1.23v2.4h-.41v-2.41c0-.25 0-.83-.67-.83-.5 0-.81.47-.81 1.02v2.22h-.41v-2.46ZM77.7 68.54h.43v4.48h1.59v.41H77.7v-4.89ZM82.71 72.63c0 .27.02.53.04.8h-.36l-.03-.51h-.01c-.25.39-.54.56-1 .56-.55 0-.99-.46-.99-1.04 0-1.14 1.21-1.16 1.72-1.16h.26c0-.45 0-1.09-.74-1.09-.48 0-.85.34-.9.37l-.06-.43c.34-.18.59-.32.98-.32 1.1 0 1.1.92 1.1 1.18v1.64Zm-.38-1c-.84 0-1.55 0-1.55.81 0 .3.22.66.66.66.19 0 .89-.08.89-1.05v-.42ZM85.24 70.33c-.2-.08-.38-.15-.61-.15-.42 0-.61.32-.61.57 0 .33.13.4.61.67.49.27.87.45.87 1.02 0 .64-.46 1.04-1.06 1.04-.44 0-.69-.09-.9-.17l.06-.46c.12.08.48.25.81.25.38 0 .66-.29.66-.62 0-.34-.22-.48-.64-.69-.6-.3-.84-.49-.84-1 0-.67.57-.99 1.05-.99.24 0 .53.06.66.11l-.06.42ZM86.96 69.02v.84h.73v.38h-.73v2.33c0 .29.05.54.39.54.19 0 .26-.04.34-.08v.41c-.1.04-.28.05-.47.05-.52 0-.67-.41-.67-.81v-2.44h-.53v-.38h.53v-.71l.41-.13ZM92.64 74.33l-.79-.88s-.13.03-.26.03c-1.72 0-1.72-2.07-1.72-2.49s0-2.49 1.72-2.49 1.72 2.07 1.72 2.49c0 .36 0 1.89-1.04 2.35l.91.99h-.55Zm-1.04-1.25c1.26 0 1.26-1.7 1.26-2.09s0-2.09-1.26-2.09-1.26 1.7-1.26 2.09 0 2.09 1.26 2.09ZM96.6 72.32c0 .37.02.74.03 1.11h-.38c-.01-.16-.02-.27-.03-.53h-.01c-.04.15-.31.57-.91.57-.78 0-.99-.56-.99-1.13v-2.49h.41v2.41c0 .25 0 .83.67.83.5 0 .81-.47.81-1.02v-2.22h.41v2.47ZM99.79 72.63c0 .27.02.53.04.8h-.36l-.03-.51h-.01c-.25.39-.54.56-1 .56-.55 0-.99-.46-.99-1.04 0-1.14 1.21-1.16 1.72-1.16h.26c0-.45 0-1.09-.74-1.09-.48 0-.85.34-.9.37l-.06-.43c.34-.18.59-.32.98-.32 1.1 0 1.1.92 1.1 1.18v1.64Zm-.38-1c-.84 0-1.55 0-1.55.81 0 .3.22.66.66.66.19 0 .89-.08.89-1.05v-.42ZM100.82 70.96c0-.37-.02-.74-.03-1.11h.38c0 .21.02.42.03.57h.01c.26-.51.56-.62.95-.62v.43c-.64 0-.94.28-.94.94v2.25h-.41v-2.46ZM103.66 69.02v.84h.73v.38h-.73v2.33c0 .29.05.54.39.54.19 0 .26-.04.34-.08v.41c-.1.04-.28.05-.47.05-.52 0-.67-.41-.67-.81v-2.44h-.53v-.38h.53v-.71l.41-.13ZM105.33 71.78c0 1.32.85 1.32 1.01 1.32.23 0 .57-.11.77-.29l.02.47c-.17.09-.41.2-.83.2-1.4 0-1.4-1.48-1.4-1.83 0-1.34.67-1.83 1.27-1.83 1.04 0 1.14 1.1 1.14 1.97h-1.97Zm1.54-.38c0-.95-.4-1.21-.73-1.21-.55 0-.81.75-.81 1.21h1.54ZM108.17 70.96c0-.37-.02-.74-.03-1.11h.38c0 .21.02.42.03.57h.01c.26-.51.56-.62.95-.62v.43c-.64 0-.94.28-.94.94v2.25h-.41v-2.46ZM8.14 13.4v1.01H4.92v3.96H3.86v-3.96H.74V13.4h3.13v-2.67l1.3.07c0 .09-.07.14-.24.17v2.43h3.22ZM9.28 16.5h7.27v1.04H9.28V16.5Zm.68-4.64h5.91v1.04H9.96v-1.04ZM23.94 11.12v6.04c0 1.09-.51 1.22-2.33 1.22-.06-.28-.25-.76-.41-1.02.38.02.81.02 1.11.02.53 0 .59 0 .59-.23v-1.26h-3.42c-.23.94-.67 1.86-1.52 2.51-.15-.2-.53-.58-.74-.72 1.37-1.04 1.48-2.61 1.48-3.86v-2.69h5.23Zm-4.23 2.85c0 .31-.02.63-.06.97h3.26v-.97h-3.2Zm3.2-1.9h-3.2v.98h3.2v-.98ZM28.08 18h-.81l2.13-6.69h.81L28.08 18ZM34.02 14.41v.54h1.81v2.63h-1.81v.51h-.86v-6.15h.64c.11-.38.22-.86.27-1.22l1.16.19c-.02.08-.09.11-.2.12-.09.27-.22.62-.36.92h1.09v2.46h-1.74Zm.88-.82v-.83h-.88v.83h.88Zm.07 2.18h-.96v1h.96v-1Zm5.5-3.78h-1.82v.97h1.53v3.31c0 .75-.27.91-1.21.91-.03-.24-.14-.6-.25-.83.57.02.57 0 .57-.1v-2.43h-.63v4.54h-.92v-4.54h-.6v3.39h-.88v-4.25h1.48v-.97h-1.77v-.88h4.5v.88ZM45.62 15.92v1.32c.49.09.94.1 1.82.1H49c-.14.22-.29.66-.34.94h-1.77c-1.62 0-2.9-.28-3.77-1.5-.26.62-.62 1.21-1.1 1.61-.16-.19-.53-.5-.74-.63.9-.72 1.26-2.11 1.38-3.25l1.19.18c-.02.07-.09.12-.2.13-.05.28-.11.59-.19.91.28.58.68.96 1.16 1.21v-2.77h-3.1v-.9h3.1v-.79h-2.37v-.9h2.37v-.83l1.22.07c0 .07-.07.13-.22.15v.62h2.5v.9h-2.5v.79h3.17v.9h-3.17v.9h2.61v.87h-2.61ZM55.44 12.55c-.65.55-1.19 1.59-1.19 2.8s.55 2.27 1.19 2.8v.03h-.56c-.62-.55-1.12-1.61-1.12-2.83s.5-2.29 1.12-2.83h.56v.03ZM60.57 17.29c0 .18.02.2.13.2h.32c.13 0 .15-.09.17-.72.13.11.42.22.6.27-.07.86-.23 1.09-.69 1.09h-.5c-.57 0-.7-.2-.7-.83v-1.29h-1.48V14.8l-.03.03c-.07-.1-.19-.23-.31-.34v2.54h-1.16v.47h-.63v-4.53h1.79v1.21c.52-.5.85-1.12 1.02-1.66l.81.12c-.02.05-.06.1-.15.1-.04.1-.08.2-.13.3h.82l.1-.03.5.3s-.07.06-.12.07c-.1.18-.25.41-.4.63h.95V16h-.91v1.28Zm-3.14-3.68h-.52v1.07h.52v-1.07Zm-.52 2.8h.52V15.3h-.52v1.11Zm2.74-.23c-.01.05-.06.09-.15.1-.14.83-.39 1.51-1.72 1.9-.06-.17-.24-.44-.37-.57 1.16-.28 1.34-.79 1.43-1.51l.81.08Zm-.61-1.57v.8h.57v-.8h-.57Zm.79-.59c.08-.11.16-.25.22-.38h-.72c-.07.13-.16.25-.24.38h.74Zm.98 1.4v-.8h-.56v.8h.56ZM66.83 13.08l.55.29s-.06.07-.11.08c-.29.59-.73 1.1-1.24 1.52.65.34 1.41.59 2.22.74-.16.16-.37.47-.47.66-.88-.19-1.69-.51-2.39-.94-.77.47-1.66.82-2.57 1.04-.07-.2-.23-.5-.37-.66.81-.16 1.61-.44 2.31-.83a5.39 5.39 0 0 1-.77-.74c-.28.26-.58.49-.88.67-.12-.14-.37-.37-.53-.49.76-.43 1.55-1.18 1.98-1.94.76.31.78.32.79.32-.02.04-.09.07-.17.05-.05.08-.11.17-.17.25h1.7l.12-.04Zm-.07 5.15c-.83-.29-2.23-.61-3.36-.77l.42-.62c1.12.13 2.47.43 3.35.7l-.41.68Zm-.77-1.26c-.38-.2-1.05-.51-1.58-.69l.4-.51c.53.17 1.19.45 1.58.64l-.41.56Zm-1.51-3.21h-.01c.24.31.55.58.91.83.32-.25.61-.52.84-.83h-1.73ZM68.8 18.15c.65-.55 1.19-1.59 1.19-2.8s-.55-2.27-1.19-2.8v-.03h.56c.62.55 1.12 1.61 1.12 2.83s-.5 2.28-1.12 2.83h-.56v-.03ZM.68 28.62c0-2.12.83-3.15 1.96-3.15s1.86 1.09 1.86 3.07c0 2.11-.74 3.19-1.95 3.19-1.1 0-1.87-1.09-1.87-3.11Zm3.14-.05c0-1.52-.37-2.56-1.22-2.56-.72 0-1.23.96-1.23 2.56s.45 2.61 1.21 2.61c.9 0 1.24-1.17 1.24-2.61ZM7.33 31.63v-5.44h-.02l-1 .58-.16-.5 1.26-.7h.58v6.07h-.66ZM10.57 31.22c0-.31.2-.53.49-.53s.48.22.48.53-.19.51-.49.51-.48-.24-.48-.51ZM14.37 31.63v-5.44h-.02l-1 .58-.16-.5 1.26-.7h.58v6.07h-.66ZM19.24 31.63v-5.44h-.02l-1 .58-.16-.5 1.26-.7h.58v6.07h-.66ZM22.48 31.22c0-.31.2-.53.49-.53s.48.22.48.53-.19.51-.49.51-.48-.24-.48-.51ZM27.12 31.63h-2.66v-.31l.44-.46c1.07-1.08 1.61-1.73 1.61-2.46 0-.48-.21-.92-.86-.92-.36 0-.68.2-.9.37l-.17-.35c.28-.25.68-.44 1.16-.44.91 0 1.27.66 1.27 1.28 0 .85-.59 1.57-1.52 2.5l-.35.37 1.98.01v.41ZM28.01 29.4c0-1.57.61-2.33 1.45-2.33s1.37.8 1.37 2.27c0 1.56-.55 2.36-1.44 2.36-.82 0-1.38-.8-1.38-2.3Zm2.32-.04c0-1.12-.27-1.9-.9-1.9-.53 0-.91.71-.91 1.9s.33 1.93.89 1.93c.67 0 .92-.86.92-1.93ZM34.33 31.63h-2.66v-.31l.44-.46c1.07-1.08 1.61-1.73 1.61-2.46 0-.48-.21-.92-.86-.92-.36 0-.68.2-.9.37l-.17-.35c.28-.25.68-.44 1.16-.44.91 0 1.27.66 1.27 1.28 0 .85-.59 1.57-1.52 2.5l-.35.37 1.98.01v.41ZM37.54 31.63h-.47v-1.26h-1.96v-.32l1.92-2.91h.52v2.85h.61v.38h-.61v1.26Zm-1.93-1.64h1.46V28.4c0-.25.01-.49.02-.72h-.02c-.14.28-.25.47-.36.67l-1.1 1.63ZM57.94 29.84h-.92c-.07.97-.38 1.87-1.47 2.48a3.38 3.38 0 0 0-.41-.31c1-.55 1.3-1.34 1.37-2.17h-.83v.52h-.48v-2.88l.62.04c0 .06-.05.1-.15.11v1.73h.85v-2.54h-1.69v-.49h1c-.1-.39-.32-.96-.57-1.38l.44-.17c.26.43.5 1 .6 1.39l-.36.15h2.85v.49h-1.76v2.54h.9v-1.88l.62.04c0 .06-.05.1-.15.11v2.64h-.48v-.43Zm.53-4.85s-.08.07-.17.07c-.16.37-.44.92-.66 1.28-.1-.03-.32-.13-.41-.15.21-.38.47-.99.61-1.4l.63.2Zm3.53.27v6.36c0 .67-.32.71-1.59.71-.02-.15-.1-.39-.18-.54h.66c.51 0 .57 0 .57-.19v-2.1h-1.88c-.15 1-.49 2.05-1.26 2.83-.09-.1-.31-.25-.44-.31 1.15-1.13 1.26-2.75 1.26-4.01v-2.77h2.85Zm-2.33 2.78c0 .31 0 .64-.04.99h1.83v-1.39h-1.79v.41Zm1.79-2.27h-1.79v1.36h1.79v-1.36ZM.68 42.62c0-2.12.83-3.15 1.96-3.15s1.86 1.09 1.86 3.07c0 2.11-.74 3.19-1.95 3.19-1.1 0-1.87-1.09-1.87-3.11Zm3.14-.05c0-1.52-.37-2.56-1.22-2.56-.72 0-1.23.96-1.23 2.56s.45 2.61 1.21 2.61c.9 0 1.24-1.17 1.24-2.61ZM7.33 45.63v-5.44h-.02l-1 .58-.16-.5 1.26-.7h.58v6.07h-.66ZM10.57 45.22c0-.31.2-.53.49-.53s.48.22.48.53-.19.51-.49.51-.48-.24-.48-.51ZM14.37 45.63v-5.44h-.02l-1 .58-.16-.5 1.26-.7h.58v6.07h-.66ZM18.65 42.41c-.66-.32-.95-.85-.95-1.37 0-.94.74-1.58 1.72-1.58 1.1 0 1.63.75 1.63 1.47 0 .52-.28 1.09-1 1.43v.03c.75.32 1.21.86 1.21 1.59 0 1.03-.84 1.73-1.91 1.73-1.16 0-1.87-.74-1.87-1.61 0-.79.47-1.35 1.17-1.67v-.03Zm1.92 1.65c0-.76-.51-1.15-1.31-1.41-.71.24-1.09.75-1.09 1.35 0 .69.46 1.21 1.19 1.21.78 0 1.21-.53 1.21-1.16Zm-2.23-3.09c0 .65.45 1 1.13 1.21.53-.2.92-.62.92-1.19 0-.51-.28-1.04-1-1.04s-1.05.49-1.05 1.02ZM22.48 45.22c0-.31.2-.53.49-.53s.48.22.48.53-.19.51-.49.51-.48-.24-.48-.51ZM27.12 45.63h-2.66v-.31l.44-.46c1.07-1.08 1.61-1.73 1.61-2.46 0-.48-.21-.92-.86-.92-.36 0-.68.2-.9.37l-.17-.35c.28-.25.68-.44 1.16-.44.91 0 1.27.66 1.27 1.28 0 .85-.59 1.57-1.52 2.5l-.35.37 1.98.01v.41ZM28.01 43.4c0-1.57.61-2.33 1.45-2.33s1.37.8 1.37 2.27c0 1.56-.55 2.36-1.44 2.36-.82 0-1.38-.8-1.38-2.3Zm2.32-.04c0-1.12-.27-1.9-.9-1.9-.53 0-.91.71-.91 1.9s.33 1.93.89 1.93c.67 0 .92-.86.92-1.93ZM34.33 45.63h-2.66v-.31l.44-.46c1.07-1.08 1.61-1.73 1.61-2.46 0-.48-.21-.92-.86-.92-.36 0-.68.2-.9.37l-.17-.35c.28-.25.68-.44 1.16-.44.91 0 1.27.66 1.27 1.28 0 .85-.59 1.57-1.52 2.5l-.35.37 1.98.01v.41ZM37.54 45.63h-.47v-1.26h-1.96v-.32l1.92-2.91h.52v2.85h.61v.38h-.61v1.26Zm-1.93-1.64h1.46V42.4c0-.25.01-.49.02-.72h-.02c-.14.28-.25.47-.36.67l-1.1 1.63ZM58.62 45.38h3.68v.55h-7.37v-.55h3.12v-6.46l.74.05c0 .06-.06.1-.17.11v2.4h3.11v.55h-3.11v3.35ZM65.43 42.71l.12-.02.3.04s0 .12-.02.18c-.11 2.14-.2 2.89-.44 3.16-.18.21-.36.24-.92.24-.19 0-.41 0-.64-.02-.02-.16-.08-.38-.17-.53.45.04.85.04 1.03.04.11 0 .19-.02.24-.09.16-.17.27-.83.36-2.52h-1.31l-.05.34-.51-.08c.11-.63.24-1.66.29-2.43h1.56v-1.41h-1.88v-.51h2.41v2.67h-.53v-.25h-1.09l-.13 1.18h1.38Zm4.12 1.15c.58.68 1.17 1.6 1.38 2.22l-.49.25c-.06-.2-.17-.42-.3-.67-1.38.11-2.82.2-3.75.26 0 .06-.06.11-.12.11l-.2-.64.77-.02c.39-.46.81-1.02 1.22-1.61-.44-.47-1.17-1.08-1.79-1.5l.32-.39c.14.09.28.19.42.29.32-.47.67-1.07.92-1.58h-1.86v-.52h2.01v-1.28l.69.05c0 .06-.06.1-.16.11v1.13h2.26v.52h-2.33l.13.06s-.1.07-.18.07c-.28.51-.73 1.21-1.12 1.73.37.29.73.59.99.85.43-.64.83-1.29 1.13-1.86l.62.32s-.1.08-.19.08c-.64 1.05-1.61 2.46-2.48 3.5.75-.03 1.6-.07 2.44-.11-.23-.4-.52-.8-.8-1.15l.45-.22ZM.68 56.62c0-2.12.83-3.15 1.96-3.15s1.86 1.09 1.86 3.07c0 2.11-.74 3.19-1.95 3.19-1.1 0-1.87-1.09-1.87-3.11Zm3.14-.05c0-1.52-.37-2.56-1.22-2.56-.72 0-1.23.96-1.23 2.56s.45 2.61 1.21 2.61c.9 0 1.24-1.17 1.24-2.61ZM7.33 59.63v-5.44h-.02l-1 .58-.16-.5 1.26-.7h.58v6.07h-.66ZM10.57 59.22c0-.31.2-.53.49-.53s.48.22.48.53-.19.51-.49.51-.48-.24-.48-.51ZM16.25 59.63h-3.59v-.41l.59-.62c1.44-1.46 2.17-2.34 2.17-3.33 0-.65-.28-1.25-1.16-1.25-.49 0-.92.27-1.21.5l-.23-.47c.37-.33.92-.59 1.57-.59 1.22 0 1.71.89 1.71 1.73 0 1.14-.8 2.11-2.06 3.38l-.48.5v.02h2.68v.55ZM18.15 56.41a1.7 1.7 0 0 1 1.42-.75c1.03 0 1.72.77 1.72 1.94s-.68 2.12-1.86 2.12-1.98-.98-1.98-2.55.76-3.33 2.73-3.65c.23-.03.43-.06.57-.06v.56c-1.68 0-2.48 1.22-2.62 2.39h.02Zm2.46 1.24c0-.93-.5-1.47-1.23-1.47s-1.26.7-1.26 1.15c0 1.11.48 1.87 1.32 1.87.7 0 1.17-.63 1.17-1.55ZM22.48 59.22c0-.31.2-.53.49-.53s.48.22.48.53-.19.51-.49.51-.48-.24-.48-.51ZM27.12 59.63h-2.66v-.31l.44-.46c1.07-1.08 1.61-1.73 1.61-2.46 0-.48-.21-.92-.86-.92-.36 0-.68.2-.9.37l-.17-.35c.28-.25.68-.44 1.16-.44.91 0 1.27.66 1.27 1.28 0 .85-.59 1.57-1.52 2.5l-.35.37 1.98.01v.41ZM28.01 57.4c0-1.57.61-2.33 1.45-2.33s1.37.8 1.37 2.27c0 1.56-.55 2.36-1.44 2.36-.82 0-1.38-.8-1.38-2.3Zm2.32-.04c0-1.12-.27-1.9-.9-1.9-.53 0-.91.71-.91 1.9s.33 1.93.89 1.93c.67 0 .92-.86.92-1.93ZM34.33 59.63h-2.66v-.31l.44-.46c1.07-1.08 1.61-1.73 1.61-2.46 0-.48-.21-.92-.86-.92-.36 0-.68.2-.9.37l-.17-.35c.28-.25.68-.44 1.16-.44.91 0 1.27.66 1.27 1.28 0 .85-.59 1.57-1.52 2.5l-.35.37 1.98.01v.41ZM37.54 59.63h-.47v-1.26h-1.96v-.32l1.92-2.91h.52v2.85h.61v.38h-.61v1.26Zm-1.93-1.64h1.46V56.4c0-.25.01-.49.02-.72h-.02c-.14.28-.25.47-.36.67l-1.1 1.63ZM56.28 56.37c-.63 0-.8-.21-.8-.82v-1.4h-.59v-.48h1.72v-.88l.67.05c0 .06-.05.09-.15.11v.72h1.64v.48h-2.78v1.41c0 .25.06.33.28.33h1.45c.18 0 .47 0 .62-.04.02.14.04.37.06.48-.12.03-.4.04-.66.04h-1.46Zm2.6 3.28h3.45v.47H54.9v-.47h3.43v-.77h-2.38v-.46h2.38v-.76h-2.75v-.47h6.13v.47h-2.83v.76h2.43v.46h-2.43v.77Zm3.19-6.54v.17c-.09 2.25-.17 3.01-.37 3.27-.17.2-.39.23-.74.23-.18 0-.38 0-.6-.02 0-.13-.06-.32-.13-.45.36.03.68.03.83.03.19 0 .29-.08.37-.79h-1.98c-.19.61-.5 1.09-.96 1.4-.08-.09-.24-.25-.37-.32.9-.61 1.13-1.86 1.14-3.53h2.54l.28.02Zm-2.4 1.41c-.03.22-.07.43-.11.62h1.9l.05-.62h-1.83Zm1.87-1h-1.79c0 .21-.02.41-.04.61h1.81l.02-.61ZM.68 70.62c0-2.12.83-3.15 1.96-3.15s1.86 1.09 1.86 3.07c0 2.11-.74 3.19-1.95 3.19-1.1 0-1.87-1.09-1.87-3.11Zm3.14-.05c0-1.52-.37-2.56-1.22-2.56-.72 0-1.23.96-1.23 2.56s.45 2.61 1.21 2.61c.9 0 1.24-1.17 1.24-2.61ZM9.21 73.63H5.62v-.41l.59-.62c1.44-1.46 2.17-2.34 2.17-3.33 0-.65-.28-1.25-1.16-1.25-.49 0-.92.27-1.21.5l-.23-.47c.37-.33.92-.59 1.57-.59 1.22 0 1.71.89 1.71 1.73 0 1.14-.8 2.11-2.06 3.38l-.48.5v.02H9.2v.55ZM10.57 73.22c0-.31.2-.53.49-.53s.48.22.48.53-.19.51-.49.51-.48-.24-.48-.51ZM12.58 70.62c0-2.12.83-3.15 1.96-3.15s1.86 1.09 1.86 3.07c0 2.11-.74 3.19-1.95 3.19-1.1 0-1.87-1.09-1.87-3.11Zm3.14-.05c0-1.52-.37-2.56-1.22-2.56-.72 0-1.23.96-1.23 2.56s.45 2.61 1.21 2.61c.9 0 1.24-1.17 1.24-2.61ZM19.67 70.35c.71.12 1.32.7 1.32 1.57 0 .96-.7 1.81-2.06 1.81-.61 0-1.16-.2-1.43-.39l.2-.52c.22.15.71.37 1.24.37 1.02 0 1.35-.71 1.35-1.27 0-.89-.75-1.3-1.55-1.3h-.4v-.5h.4c.58 0 1.34-.36 1.34-1.13 0-.53-.32-.98-1.04-.98-.45 0-.87.22-1.11.4l-.2-.5c.29-.23.86-.45 1.44-.45 1.11 0 1.6.71 1.6 1.43 0 .62-.4 1.18-1.1 1.43v.02ZM22.48 73.22c0-.31.2-.53.49-.53s.48.22.48.53-.19.51-.49.51-.48-.24-.48-.51ZM27.12 73.63h-2.66v-.31l.44-.46c1.07-1.08 1.61-1.73 1.61-2.46 0-.48-.21-.92-.86-.92-.36 0-.68.2-.9.37l-.17-.35c.28-.25.68-.44 1.16-.44.91 0 1.27.66 1.27 1.28 0 .85-.59 1.57-1.52 2.5l-.35.37 1.98.01v.41ZM28.01 71.4c0-1.57.61-2.33 1.45-2.33s1.37.8 1.37 2.27c0 1.56-.55 2.36-1.44 2.36-.82 0-1.38-.8-1.38-2.3Zm2.32-.04c0-1.12-.27-1.9-.9-1.9-.53 0-.91.71-.91 1.9s.33 1.93.89 1.93c.67 0 .92-.86.92-1.93ZM34.33 73.63h-2.66v-.31l.44-.46c1.07-1.08 1.61-1.73 1.61-2.46 0-.48-.21-.92-.86-.92-.36 0-.68.2-.9.37l-.17-.35c.28-.25.68-.44 1.16-.44.91 0 1.27.66 1.27 1.28 0 .85-.59 1.57-1.52 2.5l-.35.37 1.98.01v.41ZM37.54 73.63h-.47v-1.26h-1.96v-.32l1.92-2.91h.52v2.85h.61v.38h-.61v1.26Zm-1.93-1.64h1.46V70.4c0-.25.01-.49.02-.72h-.02c-.14.28-.25.47-.36.67l-1.1 1.63ZM62.27 67.94h-3.44l-.09.02v1.41l.04-.05c1.03.5 2.36 1.26 3.03 1.77l-.38.49c-.58-.47-1.72-1.16-2.69-1.68v4.4h-.58v-6.37h-3.2v-.54h7.3v.54ZM65.43 70.71l.12-.02.3.04s0 .12-.02.18c-.11 2.14-.2 2.89-.44 3.16-.18.21-.36.24-.92.24-.19 0-.41 0-.64-.02-.02-.16-.08-.38-.17-.53.45.04.85.04 1.03.04.11 0 .19-.02.24-.09.16-.17.27-.83.36-2.52h-1.31l-.05.34-.51-.08c.11-.63.24-1.66.29-2.43h1.56v-1.41h-1.88v-.51h2.41v2.67h-.53v-.25h-1.09l-.13 1.18h1.38Zm4.12 1.15c.58.68 1.17 1.6 1.38 2.22l-.49.25c-.06-.2-.17-.42-.3-.67-1.38.11-2.82.2-3.75.26 0 .06-.06.11-.12.11l-.2-.64.77-.02c.39-.46.81-1.02 1.22-1.61-.44-.47-1.17-1.08-1.79-1.5l.32-.39c.14.09.28.19.42.29.32-.47.67-1.07.92-1.58h-1.86v-.52h2.01v-1.28l.69.05c0 .06-.06.1-.16.11v1.13h2.26v.52h-2.33l.13.06s-.1.07-.18.07c-.28.51-.73 1.21-1.12 1.73.37.29.73.59.99.85.43-.64.83-1.29 1.13-1.86l.62.32s-.1.08-.19.08c-.64 1.05-1.61 2.46-2.48 3.5.75-.03 1.6-.07 2.44-.11-.23-.4-.52-.8-.8-1.15l.45-.22Z" class="cls-1"/><path d="M52.36 28.53c0 1.5-1.21 2.71-2.71 2.71s-2.71-1.21-2.71-2.71 1.21-2.71 2.71-2.71 2.71 1.21 2.71 2.71Z" class="cls-3"/><path d="M52.36 56.45c0 1.5-1.21 2.71-2.71 2.71s-2.71-1.21-2.71-2.71 1.21-2.71 2.71-2.71 2.71 1.21 2.71 2.71ZM49.65 39.77c1.5 0 2.71 1.21 2.71 2.71s-1.21 2.71-2.71 2.71" class="cls-2"/><path d="M49.65 39.77c-1.5 0-2.71 1.21-2.71 2.71s1.21 2.71 2.71 2.71" class="cls-3"/><path d="M49.65 73.12c-1.5 0-2.71-1.21-2.71-2.71s1.21-2.71 2.71-2.71" class="cls-2"/><path d="M49.65 73.12c1.5 0 2.71-1.21 2.71-2.71s-1.21-2.71-2.71-2.71" class="cls-3"/></g></svg>