<svg xmlns="http://www.w3.org/2000/svg" id="_レイヤー_2" viewBox="0 0 110.32 76.82"><defs><style>.cls-1,.cls-2{fill:#fff}.cls-3{fill:none}.cls-2,.cls-3{stroke:#fff;stroke-width:.5px}</style></defs><g id="text_solar"><path d="M1.04.36h1.62l.33 3.52H3L4.92.36h1.63L5.51 5.25H4.47l.92-4.05h-.01L3.17 5.25h-.94L1.84 1.2h-.01l-.9 4.05H0L1.04.36ZM10.11 4.73c-.04.22-.08.41-.09.52H9.1l.06-.35h-.01c-.26.24-.62.43-1.02.43-.71 0-1.18-.44-1.18-1.16 0-.27.07-.56.12-.78l.38-1.75h.94l-.35 1.7c-.05.25-.11.49-.11.76 0 .3.21.5.51.5.65 0 .89-.61 1.01-1.15l.38-1.81h.94l-.67 3.09ZM11.48 1.65h.68l.16-.74 1.01-.33-.23 1.07h.84l-.15.69h-.84l-.34 1.58c-.02.08-.04.21-.04.35 0 .22.15.35.36.35.17 0 .34-.03.46-.08l-.16.73c-.16.04-.34.08-.5.08-.64 0-1.09-.25-1.09-.95 0-.28.06-.55.12-.84l.27-1.22h-.68l.15-.69ZM16.76 2.42c-.25-.09-.5-.17-.77-.17-.28 0-.63.08-.63.36 0 .46 1.22.62 1.22 1.51 0 .94-.82 1.22-1.62 1.22-.38 0-.76-.06-1.1-.22l.2-.75c.27.15.53.28.9.28.31 0 .64-.11.64-.4 0-.58-1.22-.64-1.22-1.54 0-.85.82-1.15 1.56-1.15.34 0 .69.06 1.02.15l-.2.71ZM20.59 4.73c-.04.22-.08.41-.09.52h-.92l.06-.35h-.01c-.26.24-.62.43-1.02.43-.71 0-1.18-.44-1.18-1.16 0-.27.07-.56.12-.78l.38-1.75h.94l-.35 1.7c-.05.25-.11.49-.11.76 0 .3.21.5.51.5.65 0 .89-.61 1.01-1.15l.38-1.81h.94l-.67 3.09ZM22.73 0h.94l-.62 2.96h.01l1.31-1.31h1.22L23.86 3.3l1.08 1.96h-1.06l-.93-1.91h-.01l-.41 1.91h-.92L22.72.01ZM26.38 1.65h.94l-.77 3.61h-.94l.77-3.61ZM26.72.1h.94l-.2.9h-.94l.2-.9ZM33.27.36h2.07v.41H33.7v1.74h1.56v.41H33.7v1.93h1.72v.41h-2.15V.36ZM38.55 4.45c0 .27.02.53.04.8h-.36l-.03-.51h-.01c-.25.39-.54.56-1 .56-.55 0-.99-.46-.99-1.04 0-1.14 1.21-1.16 1.72-1.16h.26c0-.45 0-1.09-.74-1.09-.48 0-.85.34-.9.37l-.06-.43c.34-.18.59-.32.98-.32 1.1 0 1.1.93 1.1 1.18v1.64Zm-.38-1c-.84 0-1.55 0-1.55.81 0 .3.22.66.66.66.19 0 .89-.08.89-1.05v-.42ZM39.58 2.79c0-.37-.02-.74-.03-1.11h.38c0 .21.02.42.03.57h.01c.26-.51.56-.62.95-.62v.44c-.64 0-.94.28-.94.94v2.25h-.41V2.8ZM41.69 0h.41v5.25h-.41V0ZM44.05 4.65h.01l.8-2.97h.41L44.1 5.92c-.13.48-.25.89-.81.89-.11 0-.17-.01-.27-.04l.02-.41c.07.05.2.08.29.08.2 0 .3-.19.36-.41l.18-.68-1.05-3.66h.43l.8 2.97ZM47.44 4.57c.34.3.74.33.86.33.79 0 .88-.7.88-.88 0-.57-.34-.8-.92-1.19-.68-.46-.88-.77-.88-1.32 0-1.09.99-1.18 1.27-1.18.39 0 .66.11.77.15l-.02.49c-.19-.11-.41-.24-.78-.24-.28 0-.78.15-.78.71 0 .48.25.67.67.98.87.64 1.13.86 1.13 1.53 0 .82-.56 1.35-1.31 1.35-.3 0-.67-.07-.92-.23l.03-.5ZM50.53 2.86c0-.56-.01-.88-.03-1.18h.38v.52h.01c.24-.37.53-.57.94-.57 1.16 0 1.21 1.47 1.21 1.72 0 1.02-.33 1.95-1.18 1.95-.43 0-.74-.18-.9-.5h-.01v1.96h-.41v-3.9Zm1.26-.85c-.69 0-.88.69-.88 1.41 0 .48 0 1.5.88 1.5.61 0 .82-.63.82-1.46 0-.29 0-1.46-.81-1.46ZM53.92 2.79c0-.37-.02-.74-.03-1.11h.38c0 .21.02.42.03.57h.01c.26-.51.56-.62.95-.62v.44c-.64 0-.94.28-.94.94v2.25h-.41V2.8ZM55.99.26h.49v.63h-.49V.26Zm.04 1.42h.41v3.57h-.41V1.68ZM57.5 2.79c0-.37-.02-.74-.03-1.11h.38c.01.16.02.27.03.52h.01c.08-.15.32-.57.91-.57.99 0 .99.99.99 1.23v2.39h-.41V2.84c0-.25 0-.83-.67-.83-.5 0-.81.47-.81 1.02v2.22h-.41V2.79ZM61.88 1.63c.45 0 .73.2.94.57h.01v-.52h.38c-.01.31-.03.62-.03 1.18v2.3c0 1.01-.39 1.64-1.34 1.64-.39 0-.57-.06-1.02-.2l.03-.46c.34.2.75.27.98.27.88 0 .94-.81.94-1.18v-.49h-.01c-.21.36-.48.54-.9.54-.9 0-1.18-1.02-1.18-1.7 0-.5.04-1.97 1.21-1.97Zm.05 3.29c.67 0 .88-.6.88-1.5 0-.73-.19-1.41-.88-1.41-.81 0-.81 1.16-.81 1.46 0 .83.21 1.46.82 1.46ZM65.51 28.36v-3.73l.37.02s-.03.05-.08.06v3.64h-.29Zm1.03-3.59h2.38v3.55h-.29v-.28h-1.81v.28h-.28v-3.55Zm2.09.28h-1.81v1.22h1.81v-1.22Zm-1.81 2.71h1.81v-1.22h-1.81v1.22ZM67.36 32.62h1.74v.28h-3.87v-.28h.6v-2.06l.38.03s-.03.05-.08.06v1.98h.93v-2.88H65.4v-.28h3.55v.28h-1.59v1.2h1.39v.28h-1.39v1.4ZM68.53 34.05v3.3c0 .22-.06.32-.22.37-.16.05-.44.06-.91.05-.02-.08-.08-.22-.12-.3.2 0 .4.01.55.01.37 0 .4 0 .4-.13v-.95h-2.11c-.11.5-.33 1-.78 1.38-.04-.06-.15-.17-.21-.21.73-.62.8-1.5.8-2.21v-1.31h2.6Zm-2.31 1.31c0 .22 0 .49-.05.77h2.06v-.77h-2.01Zm2.01-1.03h-2.01v.76h2.01v-.76ZM69.1 56.54h-2.11v2.04h-.28v-.5c-.51.08-1.01.14-1.34.19 0 .03-.03.05-.06.05l-.1-.3.41-.04v-1.45h-.39v-.24h3.87v.24Zm-.56-1.73v1.21h-2.75v-1.21h2.75Zm-1.83 2.03v-.3h-.82v.3h.82Zm0 .53v-.31h-.82v.31h.82Zm-.82.22v.36c.26-.03.54-.06.82-.09v-.27h-.82Zm2.37-2.29v-.29h-2.19v.29h2.19Zm0 .5v-.3h-2.19v.3h2.19Zm.47 1.01.18.07s-.03.03-.04.05c-.13.39-.35.72-.61.99.25.19.54.33.88.42-.06.06-.14.16-.17.23-.34-.1-.64-.26-.9-.47-.25.21-.54.37-.83.48-.03-.07-.11-.17-.16-.23.28-.09.56-.24.8-.43-.22-.23-.4-.5-.52-.81l.17-.05h-.4v-.24h1.61Zm-1.13.25c.11.26.26.5.47.69.2-.2.36-.43.47-.69h-.94ZM66.05 61.01v1.4c.33.51.95.51 1.75.51.47 0 1.01 0 1.35-.03-.03.06-.08.2-.09.28-.29 0-.76.02-1.18.02-.94 0-1.52 0-1.95-.53-.2.19-.4.38-.56.52 0 .03 0 .05-.03.07l-.17-.3c.18-.14.4-.32.6-.51v-1.16h-.56v-.27h.84Zm-.57-1.6c.27.2.57.5.7.71l-.23.18c-.12-.22-.42-.52-.69-.73l.22-.16Zm2.01 3.31v-.85c-.3.26-.7.48-1.08.62-.03-.05-.11-.16-.16-.21.42-.14.87-.39 1.16-.69h-.77v-.89h2.02v.89h-.85.01s-.03.03-.06.04c.1.14.22.27.37.39.21-.13.48-.32.63-.46l.26.17s-.05.03-.08.03c-.16.12-.41.27-.62.39.22.14.47.25.74.31-.06.05-.14.15-.17.22-.43-.13-.83-.38-1.12-.7v.75h-.27Zm1.56-2.5v.23h-2.78v-.23h1.23v-.33h-.99v-.23h.99v-.37l.36.02s-.03.05-.08.06v.29h1.01v.23h-1.01v.33h1.28Zm-2.14.67v.48h1.47v-.48h-1.47ZM73.96 28.83h-2.11v2.04h-.28v-.5c-.51.08-1.01.14-1.34.19 0 .03-.03.05-.06.05l-.1-.3.41-.04v-1.45h-.39v-.24h3.87v.24Zm-.56-1.73v1.21h-2.75V27.1h2.75Zm-1.83 2.03v-.3h-.82v.3h.82Zm0 .53v-.31h-.82v.31h.82Zm-.82.22v.36c.26-.03.54-.06.82-.09v-.27h-.82Zm2.37-2.29v-.29h-2.19v.29h2.19Zm0 .5v-.3h-2.19v.3h2.19Zm.47 1.01.18.07s-.03.03-.04.05c-.13.39-.35.72-.61.99.25.19.54.33.88.42-.06.06-.14.16-.17.23-.34-.1-.64-.26-.9-.47-.25.21-.54.37-.83.48-.03-.07-.11-.17-.16-.23.28-.09.56-.24.8-.43-.22-.23-.4-.5-.52-.81l.17-.05h-.4v-.24h1.61Zm-1.13.25c.11.26.26.5.47.69.2-.2.36-.43.47-.69h-.94ZM70.98 33.3v1.39c.33.51.94.51 1.71.51.46 0 1-.01 1.33-.03-.03.07-.08.2-.09.29-.29.01-.76.02-1.18.02-.88 0-1.46 0-1.89-.53-.21.19-.43.38-.62.52 0 .04 0 .06-.04.07l-.17-.31c.2-.14.46-.33.67-.52v-1.13h-.63v-.27h.9Zm-.63-1.6c.29.18.61.46.76.67l-.23.19c-.14-.21-.46-.5-.75-.69l.21-.17Zm2.52 1.48h-.88c-.02.55-.14 1.23-.6 1.73a.948.948 0 0 0-.2-.2c.48-.52.54-1.21.54-1.75v-1l.23.05c.55-.11 1.16-.25 1.5-.41l.28.23s-.02.01-.08.01c-.41.15-1.06.3-1.65.41v.65h1.97v.27h-.81v1.81h-.29v-1.81ZM78.07 29.03h.56l2.05 4.34h.01v-4.34h.41v4.89h-.56l-2.05-4.31h-.01v4.31h-.41v-4.89ZM82.52 32.27c0 1.32.85 1.32 1.01 1.32.23 0 .57-.11.77-.29l.02.47c-.17.09-.41.2-.83.2-1.4 0-1.4-1.48-1.4-1.83 0-1.34.67-1.83 1.27-1.83 1.04 0 1.14 1.1 1.14 1.97h-1.97Zm1.54-.38c0-.95-.4-1.21-.73-1.21-.55 0-.81.75-.81 1.21h1.54ZM84.97 30.35h.43l.75 3.14h.01l.72-3.14h.52l.78 3.14h.01l.74-3.14h.41l-.93 3.57h-.5l-.77-3.11h-.01l-.73 3.11h-.48l-.96-3.57ZM91.67 29.03h.67l1.36 4.24h.01l1.36-4.24h.67v4.89h-.41v-4.48h-.01l-1.44 4.48h-.33l-1.45-4.48h-.01v4.48h-.41v-4.89ZM96.72 32.13c0-.9.29-1.83 1.34-1.83s1.34.94 1.34 1.83-.29 1.83-1.34 1.83-1.34-.94-1.34-1.83Zm2.24 0c0-.29 0-1.46-.9-1.46s-.9 1.17-.9 1.46 0 1.46.9 1.46.9-1.17.9-1.46ZM100.12 32.13c0-.9.29-1.83 1.34-1.83s1.34.94 1.34 1.83-.29 1.83-1.34 1.83-1.34-.94-1.34-1.83Zm2.24 0c0-.29 0-1.46-.9-1.46s-.9 1.17-.9 1.46 0 1.46.9 1.46.9-1.17.9-1.46ZM103.68 31.45c0-.37-.02-.74-.03-1.11h.38c.01.16.02.27.03.52h.01c.08-.15.32-.57.91-.57.99 0 .99.99.99 1.23v2.4h-.41v-2.41c0-.25 0-.83-.67-.83-.5 0-.81.47-.81 1.02v2.22h-.41v-2.46ZM78.07 43.03h2v.41h-1.56v1.74H80v.41h-1.49v2.34h-.43v-4.89ZM80.93 42.92h.49v.63h-.49v-.63Zm.04 1.42h.41v3.57h-.41v-3.57ZM82.44 45.45c0-.37-.02-.74-.03-1.11h.38c0 .21.02.42.03.57h.01c.26-.51.56-.62.95-.62v.43c-.64 0-.94.28-.94.94v2.25h-.41v-2.46ZM86.04 44.82c-.2-.08-.38-.15-.61-.15-.42 0-.61.32-.61.57 0 .33.13.4.61.67.49.27.87.45.87 1.02 0 .64-.46 1.04-1.06 1.04-.44 0-.69-.09-.9-.17l.06-.46c.12.08.48.25.81.25.38 0 .66-.29.66-.62 0-.34-.22-.48-.64-.69-.6-.3-.84-.49-.84-1 0-.67.57-.99 1.05-.99.24 0 .53.06.66.11l-.06.42ZM87.76 43.51v.84h.73v.38h-.73v2.33c0 .29.05.54.39.54.19 0 .26-.04.34-.08v.41c-.1.04-.28.05-.47.05-.52 0-.67-.41-.67-.81v-2.44h-.53v-.38h.53v-.71l.41-.13ZM93.45 48.82l-.79-.88s-.13.03-.26.03c-1.72 0-1.72-2.07-1.72-2.49s0-2.49 1.72-2.49 1.72 2.07 1.72 2.49c0 .36 0 1.89-1.04 2.35l.91.99h-.55Zm-1.04-1.25c1.26 0 1.26-1.7 1.26-2.09s0-2.09-1.26-2.09-1.26 1.7-1.26 2.09 0 2.09 1.26 2.09ZM97.4 46.81c0 .37.02.74.03 1.11h-.38c-.01-.16-.02-.27-.03-.53h-.01c-.04.15-.31.57-.91.57-.78 0-.99-.56-.99-1.13v-2.49h.41v2.41c0 .25 0 .83.67.83.5 0 .81-.47.81-1.02v-2.22h.41v2.47ZM100.6 47.12c0 .27.02.53.04.8h-.36l-.03-.51h-.01c-.25.39-.54.56-1 .56-.55 0-.99-.46-.99-1.04 0-1.14 1.21-1.16 1.72-1.16h.26c0-.45 0-1.09-.74-1.09-.48 0-.85.34-.9.37l-.06-.43c.34-.18.59-.32.98-.32 1.1 0 1.1.92 1.1 1.18v1.64Zm-.38-1c-.84 0-1.55 0-1.55.81 0 .3.22.66.66.66.19 0 .89-.08.89-1.05v-.42ZM101.63 45.45c0-.37-.02-.74-.03-1.11h.38c0 .21.02.42.03.57h.01c.26-.51.56-.62.95-.62v.43c-.64 0-.94.28-.94.94v2.25h-.41v-2.46ZM104.46 43.51v.84h.73v.38h-.73v2.33c0 .29.05.54.39.54.19 0 .26-.04.34-.08v.41c-.1.04-.28.05-.47.05-.52 0-.67-.41-.67-.81v-2.44h-.53v-.38h.53v-.71l.41-.13ZM106.14 46.27c0 1.32.85 1.32 1.01 1.32.23 0 .57-.11.77-.29l.02.47c-.17.09-.41.2-.83.2-1.4 0-1.4-1.48-1.4-1.83 0-1.34.67-1.83 1.27-1.83 1.04 0 1.14 1.1 1.14 1.97h-1.97Zm1.54-.38c0-.95-.4-1.21-.73-1.21-.55 0-.81.75-.81 1.21h1.54ZM108.98 45.45c0-.37-.02-.74-.03-1.11h.38c0 .21.02.42.03.57h.01c.26-.51.56-.62.95-.62v.43c-.64 0-.94.28-.94.94v2.25h-.41v-2.46ZM78.07 57.03h2v.41h-1.56v1.74H80v.41h-1.49v2.34h-.43v-4.89ZM83.18 60.81c0 .37.02.74.03 1.11h-.38c-.01-.16-.02-.27-.03-.53h-.01c-.04.15-.31.57-.91.57-.78 0-.99-.56-.99-1.13v-2.49h.41v2.41c0 .25 0 .83.67.83.5 0 .81-.47.81-1.02v-2.22h.41v2.47ZM84.25 56.67h.41v5.25h-.41v-5.25ZM85.74 56.67h.41v5.25h-.41v-5.25ZM88.89 57.03h.67l1.36 4.24h.01l1.36-4.24h.67v4.89h-.41v-4.48h-.01l-1.44 4.48h-.33l-1.45-4.48h-.01v4.48h-.41v-4.89ZM93.94 60.13c0-.9.29-1.83 1.34-1.83s1.34.94 1.34 1.83-.29 1.83-1.34 1.83-1.34-.94-1.34-1.83Zm2.24 0c0-.29 0-1.46-.9-1.46s-.9 1.17-.9 1.46 0 1.46.9 1.46.9-1.17.9-1.46ZM97.35 60.13c0-.9.29-1.83 1.34-1.83s1.34.94 1.34 1.83-.29 1.83-1.34 1.83-1.34-.94-1.34-1.83Zm2.24 0c0-.29 0-1.46-.9-1.46s-.9 1.17-.9 1.46 0 1.46.9 1.46.9-1.17.9-1.46ZM100.91 59.45c0-.37-.02-.74-.03-1.11h.38c.01.16.02.27.03.53h.01c.08-.15.32-.57.91-.57.99 0 .99.99.99 1.23v2.4h-.41v-2.41c0-.25 0-.83-.67-.83-.5 0-.81.47-.81 1.02v2.22h-.41v-2.46ZM78.07 71.03h.43v4.48h1.59v.41h-2.02v-4.89ZM83.08 75.12c0 .27.02.53.04.8h-.36l-.03-.51h-.01c-.25.39-.54.56-1 .56-.55 0-.99-.46-.99-1.04 0-1.14 1.21-1.16 1.72-1.16h.26c0-.45 0-1.09-.74-1.09-.48 0-.85.34-.9.37l-.06-.43c.34-.18.59-.32.98-.32 1.1 0 1.1.92 1.1 1.18v1.64Zm-.38-1c-.84 0-1.55 0-1.55.81 0 .3.22.66.66.66.19 0 .89-.08.89-1.05v-.42ZM85.6 72.82c-.2-.08-.38-.15-.61-.15-.42 0-.61.32-.61.57 0 .33.13.4.61.67.49.27.87.45.87 1.02 0 .64-.46 1.04-1.06 1.04-.44 0-.69-.09-.9-.17l.06-.46c.12.08.48.25.81.25.38 0 .66-.29.66-.62 0-.34-.22-.48-.64-.69-.6-.3-.84-.49-.84-1 0-.67.57-.99 1.05-.99.24 0 .53.06.66.11l-.06.42ZM87.32 71.51v.84h.73v.38h-.73v2.33c0 .29.05.54.39.54.19 0 .26-.04.34-.08v.41c-.1.04-.28.05-.47.05-.52 0-.67-.41-.67-.81v-2.44h-.53v-.38h.53v-.71l.41-.13ZM93.01 76.82l-.79-.88s-.13.03-.26.03c-1.72 0-1.72-2.07-1.72-2.49s0-2.49 1.72-2.49 1.72 2.07 1.72 2.49c0 .36 0 1.89-1.04 2.35l.91.99H93Zm-1.04-1.25c1.26 0 1.26-1.7 1.26-2.09s0-2.09-1.26-2.09-1.26 1.7-1.26 2.09 0 2.09 1.26 2.09ZM96.96 74.81c0 .37.02.74.03 1.11h-.38c-.01-.16-.02-.27-.03-.53h-.01c-.04.15-.31.57-.91.57-.78 0-.99-.56-.99-1.13v-2.49h.41v2.41c0 .25 0 .83.67.83.5 0 .81-.47.81-1.02v-2.22h.41v2.47ZM100.16 75.12c0 .27.02.53.04.8h-.36l-.03-.51h-.01c-.25.39-.54.56-1 .56-.55 0-.99-.46-.99-1.04 0-1.14 1.21-1.16 1.72-1.16h.26c0-.45 0-1.09-.74-1.09-.48 0-.85.34-.9.37l-.06-.43c.34-.18.59-.32.98-.32 1.1 0 1.1.92 1.1 1.18v1.64Zm-.38-1c-.84 0-1.55 0-1.55.81 0 .3.22.66.66.66.19 0 .89-.08.89-1.05v-.42ZM101.19 73.45c0-.37-.02-.74-.03-1.11h.38c0 .21.02.42.03.57h.01c.26-.51.56-.62.95-.62v.43c-.64 0-.94.28-.94.94v2.25h-.41v-2.46ZM104.02 71.51v.84h.73v.38h-.73v2.33c0 .29.05.54.39.54.19 0 .26-.04.34-.08v.41c-.1.04-.28.05-.47.05-.52 0-.67-.41-.67-.81v-2.44h-.53v-.38h.53v-.71l.41-.13ZM105.7 74.27c0 1.32.85 1.32 1.01 1.32.23 0 .57-.11.77-.29l.02.47c-.17.09-.41.2-.83.2-1.4 0-1.4-1.48-1.4-1.83 0-1.34.67-1.83 1.27-1.83 1.04 0 1.14 1.1 1.14 1.97h-1.97Zm1.54-.38c0-.95-.4-1.21-.73-1.21-.55 0-.81.75-.81 1.21h1.54ZM108.54 73.45c0-.37-.02-.74-.03-1.11h.38c0 .21.02.42.03.57h.01c.26-.51.56-.62.95-.62v.43c-.64 0-.94.28-.94.94v2.25h-.41v-2.46ZM1.01 16.02h7.54v1.06H1.01v-1.06ZM15.8 13.2v6.04c0 1.09-.51 1.22-2.33 1.22-.06-.28-.25-.76-.41-1.02.38.02.81.02 1.11.02.53 0 .59 0 .59-.23v-1.26h-3.42c-.23.94-.67 1.86-1.52 2.51-.15-.2-.53-.58-.74-.72 1.37-1.04 1.48-2.61 1.48-3.86v-2.69h5.23Zm-4.23 2.85c0 .31-.02.63-.06.97h3.26v-.97h-3.2Zm3.2-1.9h-3.2v.98h3.2v-.98ZM19.94 20.07h-.81l2.13-6.69h.81l-2.13 6.69ZM27.45 19.09h-1.63v.66h-.88V13.2h2.5v5.89Zm-.9-5.04h-.73v.83h.73v-.83Zm-.73 1.65v.85h.73v-.85h-.73Zm0 2.54h.73v-.87h-.73v.87Zm4.52.53v.71h1.99v.86h-5.16v-.86h2.2v-.71h-1.5v-.83h1.5v-.89l.86.05c-.08-.15-.11-.37-.11-.67v-.6h-.75c-.11.77-.36 1.43-1.41 1.8a2.43 2.43 0 0 0-.5-.7c.71-.23.95-.58 1.04-1.1h-.94V15h1.81v-.53h-1.41v-.82h1.41v-.81l1.18.06c0 .08-.07.13-.22.16v.58h1.46v.82h-1.46v.53h1.9v.83h-1.25v.59c0 .19.02.2.14.2h.32c.12 0 .15-.06.17-.47.15.11.51.25.75.3-.09.74-.32.93-.8.93h-.58c-.28 0-.46-.03-.59-.12h-.05v.68h1.55v.83h-1.55ZM39.54 13.2v6.04c0 1.09-.51 1.22-2.33 1.22-.06-.28-.25-.76-.41-1.02.38.02.81.02 1.11.02.53 0 .59 0 .59-.23v-1.26h-3.42c-.23.94-.67 1.86-1.52 2.51-.15-.2-.53-.58-.74-.72 1.37-1.04 1.48-2.61 1.48-3.86v-2.69h5.23Zm-4.23 2.85c0 .31-.02.63-.06.97h3.26v-.97h-3.2Zm3.2-1.9h-3.2v.98h3.2v-.98ZM46.65 14.63c-.65.55-1.19 1.59-1.19 2.8s.55 2.27 1.19 2.8v.03h-.56c-.62-.55-1.12-1.61-1.12-2.83s.5-2.29 1.12-2.83h.56v.03ZM50.03 17.26s-.1.04-.16.03c-.11.14-.3.35-.46.51.18.17.34.32.41.4l-.43.54c-.12-.17-.32-.43-.52-.66v2.18h-.71v-1.98c-.19.2-.39.39-.58.54-.07-.18-.26-.53-.37-.66.59-.41 1.18-1.12 1.55-1.84h-1.39v-.65h.79V14.6l.87.05c0 .06-.05.1-.16.11v.91h.27l.11-.03.48.28s-.06.07-.11.08c-.18.45-.43.91-.72 1.34.05.04.1.08.16.14.15-.2.34-.47.44-.67l.52.44Zm2.41-2.2.4.02c0 .05 0 .16-.01.25-.06 3.12-.11 4.18-.35 4.5-.25.38-.5.41-1.42.4-.01-.21-.1-.53-.23-.74.32.02.6.02.74.02.1 0 .16-.02.23-.12.17-.2.23-1.18.28-3.65h-.89c-.05 1.64-.17 3.47-1.56 4.52a2.17 2.17 0 0 0-.53-.56c1.25-.88 1.34-2.41 1.37-3.96h-.88v-.68h2.84ZM59.3 17.43h-1.07c.35.36.77.65 1.24.84-.16.14-.38.42-.49.6a4.25 4.25 0 0 1-.81-.51v1.88h-.74v-.16h-1.72v.19H55v-1.83c-.25.22-.54.41-.86.59-.08-.18-.3-.46-.46-.58.55-.28.98-.62 1.31-1.01h-1.16v-.59h1.58c.05-.1.11-.2.16-.3h-1.18v-.57h1.4c.03-.1.05-.2.08-.3h-1.73v-.57h1.84c.02-.17.04-.34.05-.5l.89.07c-.02.07-.07.11-.17.13-.01.1-.02.21-.04.31h2.32v.57h-2.42c-.02.1-.05.2-.08.3h2.23v.57h-1.17c.05.1.11.2.17.3h1.54v.59Zm-1.75.31c-.08-.1-.16-.2-.23-.31h-1.45l-.22.31h1.9Zm-.13.9v-.34H55.7v.34h1.72Zm-1.72.88h1.72v-.37H55.7v.37Zm1.13-2.97h-.51c-.04.1-.08.2-.13.3h.79l-.14-.3ZM60.03 20.23c.65-.55 1.19-1.59 1.19-2.8s-.55-2.27-1.19-2.8v-.03h.56c.62.55 1.12 1.61 1.12 2.83s-.5 2.28-1.12 2.83h-.56v-.03ZM1.04 30.7c0-2.12.83-3.15 1.96-3.15s1.86 1.09 1.86 3.07c0 2.11-.74 3.19-1.95 3.19-1.1 0-1.87-1.09-1.87-3.11Zm3.14-.05c0-1.52-.37-2.56-1.22-2.56-.72 0-1.23.96-1.23 2.56s.45 2.61 1.21 2.61c.9 0 1.24-1.17 1.24-2.61ZM9.57 33.71H5.98v-.41l.59-.62c1.44-1.46 2.17-2.34 2.17-3.33 0-.65-.28-1.25-1.16-1.25-.49 0-.92.27-1.21.5l-.23-.47c.37-.33.92-.59 1.57-.59 1.22 0 1.71.89 1.71 1.73 0 1.14-.8 2.11-2.06 3.38l-.48.5v.02h2.68v.55ZM10.93 33.3c0-.31.2-.53.49-.53s.48.22.48.53-.19.51-.49.51-.48-.24-.48-.51ZM14.73 33.71v-5.44h-.02l-1 .58-.16-.5 1.26-.7h.58v6.07h-.66ZM17.82 30.7c0-2.12.83-3.15 1.96-3.15s1.86 1.09 1.86 3.07c0 2.11-.74 3.19-1.95 3.19-1.1 0-1.87-1.09-1.87-3.11Zm3.14-.05c0-1.52-.37-2.56-1.22-2.56-.72 0-1.23.96-1.23 2.56s.45 2.61 1.21 2.61c.9 0 1.24-1.17 1.24-2.61ZM22.84 33.3c0-.31.2-.53.49-.53s.48.22.48.53-.19.51-.49.51-.48-.24-.48-.51ZM27.48 33.71h-2.66v-.31l.44-.46c1.07-1.08 1.61-1.73 1.61-2.46 0-.48-.21-.92-.86-.92-.36 0-.68.2-.9.37l-.17-.35c.28-.25.68-.44 1.16-.44.91 0 1.27.66 1.27 1.28 0 .85-.59 1.57-1.52 2.5l-.35.37 1.98.01v.41ZM28.38 31.48c0-1.57.61-2.33 1.45-2.33s1.37.8 1.37 2.27c0 1.56-.55 2.36-1.44 2.36-.82 0-1.38-.8-1.38-2.3Zm2.32-.04c0-1.12-.27-1.9-.9-1.9-.53 0-.91.71-.91 1.9s.33 1.93.89 1.93c.67 0 .92-.86.92-1.93ZM34.69 33.71h-2.66v-.31l.44-.46c1.07-1.08 1.61-1.73 1.61-2.46 0-.48-.21-.92-.86-.92-.36 0-.68.2-.9.37l-.17-.35c.28-.25.68-.44 1.16-.44.91 0 1.27.66 1.27 1.28 0 .85-.59 1.57-1.52 2.5l-.35.37 1.98.01v.41ZM37.9 33.71h-.47v-1.26h-1.96v-.32l1.92-2.91h.52v2.85h.61v.38h-.61v1.26Zm-1.93-1.64h1.46v-1.59c0-.25.01-.49.02-.72h-.02c-.14.28-.25.47-.36.67l-1.1 1.63ZM58.31 31.92h-.92c-.07.97-.38 1.87-1.47 2.48a3.38 3.38 0 0 0-.41-.31c1-.55 1.3-1.34 1.37-2.17h-.83v.52h-.48v-2.88l.62.04c0 .06-.05.1-.15.11v1.73h.85V28.9H55.2v-.49h1c-.1-.39-.32-.96-.57-1.38l.44-.17c.26.43.5 1 .6 1.39l-.36.15h2.85v.49H57.4v2.54h.9v-1.88l.62.04c0 .06-.05.1-.15.11v2.64h-.48v-.43Zm.53-4.85s-.08.07-.17.07c-.16.37-.44.92-.66 1.28-.1-.03-.32-.13-.41-.15.21-.38.47-.99.61-1.4l.63.2Zm3.53.27v6.36c0 .67-.32.71-1.59.71-.02-.15-.1-.39-.18-.54h.66c.51 0 .57 0 .57-.19v-2.1h-1.88c-.15 1-.49 2.05-1.26 2.83-.09-.1-.31-.25-.44-.31 1.15-1.13 1.26-2.75 1.26-4.01v-2.77h2.85Zm-2.33 2.78c0 .31 0 .64-.04.99h1.83v-1.39h-1.79v.41Zm1.79-2.27h-1.79v1.36h1.79v-1.36ZM1.04 44.7c0-2.12.83-3.15 1.96-3.15s1.86 1.09 1.86 3.07c0 2.11-.74 3.19-1.95 3.19-1.1 0-1.87-1.09-1.87-3.11Zm3.14-.05c0-1.52-.37-2.56-1.22-2.56-.72 0-1.23.96-1.23 2.56s.45 2.61 1.21 2.61c.9 0 1.24-1.17 1.24-2.61ZM9.57 47.71H5.98v-.41l.59-.62c1.44-1.46 2.17-2.34 2.17-3.33 0-.65-.28-1.25-1.16-1.25-.49 0-.92.27-1.21.5l-.23-.47c.37-.33.92-.59 1.57-.59 1.22 0 1.71.89 1.71 1.73 0 1.14-.8 2.11-2.06 3.38l-.48.5v.02h2.68v.55ZM10.93 47.3c0-.31.2-.53.49-.53s.48.22.48.53-.19.51-.49.51-.48-.24-.48-.51ZM14.73 47.71v-5.44h-.02l-1 .58-.16-.5 1.26-.7h.58v6.07h-.66ZM18 41.64h3.56v.43l-2.54 5.64h-.69l2.54-5.49v-.02H18v-.56ZM22.84 47.3c0-.31.2-.53.49-.53s.48.22.48.53-.19.51-.49.51-.48-.24-.48-.51ZM27.48 47.71h-2.66v-.31l.44-.46c1.07-1.08 1.61-1.73 1.61-2.46 0-.48-.21-.92-.86-.92-.36 0-.68.2-.9.37l-.17-.35c.28-.25.68-.44 1.16-.44.91 0 1.27.66 1.27 1.28 0 .85-.59 1.57-1.52 2.5l-.35.37 1.98.01v.41ZM28.38 45.48c0-1.57.61-2.33 1.45-2.33s1.37.8 1.37 2.27c0 1.56-.55 2.36-1.44 2.36-.82 0-1.38-.8-1.38-2.3Zm2.32-.04c0-1.12-.27-1.9-.9-1.9-.53 0-.91.71-.91 1.9s.33 1.93.89 1.93c.67 0 .92-.86.92-1.93ZM34.69 47.71h-2.66v-.31l.44-.46c1.07-1.08 1.61-1.73 1.61-2.46 0-.48-.21-.92-.86-.92-.36 0-.68.2-.9.37l-.17-.35c.28-.25.68-.44 1.16-.44.91 0 1.27.66 1.27 1.28 0 .85-.59 1.57-1.52 2.5l-.35.37 1.98.01v.41ZM37.9 47.71h-.47v-1.26h-1.96v-.32l1.92-2.91h.52v2.85h.61v.38h-.61v1.26Zm-1.93-1.64h1.46v-1.59c0-.25.01-.49.02-.72h-.02c-.14.28-.25.47-.36.67l-1.1 1.63ZM58.99 47.46h3.68v.55H55.3v-.55h3.12V41l.74.05c0 .06-.06.1-.17.11v2.4h3.11v.55h-3.11v3.35ZM65.8 44.79l.12-.02.3.04s0 .12-.02.18c-.11 2.14-.2 2.89-.44 3.16-.18.21-.36.24-.92.24-.19 0-.41 0-.64-.02-.02-.16-.08-.38-.17-.53.45.04.85.04 1.03.04.11 0 .19-.02.24-.09.16-.17.27-.83.36-2.52h-1.31l-.05.34-.51-.08c.11-.63.24-1.66.29-2.43h1.56v-1.41h-1.88v-.51h2.41v2.67h-.53v-.25h-1.09l-.13 1.18h1.38Zm4.12 1.15c.58.68 1.17 1.6 1.38 2.22l-.49.25c-.06-.2-.17-.42-.3-.67-1.38.11-2.82.2-3.75.26 0 .06-.06.11-.12.11l-.2-.64.77-.02c.39-.46.81-1.02 1.22-1.61-.44-.47-1.17-1.08-1.79-1.5l.32-.39c.14.09.28.19.42.29.32-.47.67-1.07.92-1.58h-1.86v-.52h2.01v-1.28l.69.05c0 .06-.06.1-.16.11v1.13h2.26v.52h-2.33l.13.06s-.1.07-.18.07c-.28.51-.73 1.21-1.12 1.73.37.29.73.59.99.85.43-.64.83-1.29 1.13-1.86l.62.32s-.1.08-.19.08c-.64 1.05-1.61 2.46-2.48 3.5.75-.03 1.6-.07 2.44-.11-.23-.4-.52-.8-.8-1.15l.45-.22ZM1.04 58.7c0-2.12.83-3.15 1.96-3.15s1.86 1.09 1.86 3.07c0 2.11-.74 3.19-1.95 3.19-1.1 0-1.87-1.09-1.87-3.11Zm3.14-.05c0-1.52-.37-2.56-1.22-2.56-.72 0-1.23.96-1.23 2.56s.45 2.61 1.21 2.61c.9 0 1.24-1.17 1.24-2.61ZM9.57 61.71H5.98v-.41l.59-.62c1.44-1.46 2.17-2.34 2.17-3.33 0-.65-.28-1.25-1.16-1.25-.49 0-.92.27-1.21.5l-.23-.47c.37-.33.92-.59 1.57-.59 1.22 0 1.71.89 1.71 1.73 0 1.14-.8 2.11-2.06 3.38l-.48.5v.02h2.68v.55ZM10.93 61.3c0-.31.2-.53.49-.53s.48.22.48.53-.19.51-.49.51-.48-.24-.48-.51ZM16.61 61.71h-3.59v-.41l.59-.62c1.44-1.46 2.17-2.34 2.17-3.33 0-.65-.28-1.25-1.16-1.25-.49 0-.92.27-1.21.5l-.23-.47c.37-.33.92-.59 1.57-.59 1.22 0 1.71.89 1.71 1.73 0 1.14-.8 2.11-2.06 3.38l-.48.5v.02h2.68v.55ZM20.94 61.71h-.64v-1.7h-2.65v-.43l2.59-3.94h.7v3.85h.83v.52h-.83v1.7Zm-2.61-2.22h1.97v-2.16c0-.33.02-.66.03-.97h-.03c-.19.37-.33.63-.49.91l-1.48 2.2v.02ZM22.84 61.3c0-.31.2-.53.49-.53s.48.22.48.53-.19.51-.49.51-.48-.24-.48-.51ZM27.48 61.71h-2.66v-.31l.44-.46c1.07-1.08 1.61-1.73 1.61-2.46 0-.48-.21-.92-.86-.92-.36 0-.68.2-.9.37l-.17-.35c.28-.25.68-.44 1.16-.44.91 0 1.27.66 1.27 1.28 0 .85-.59 1.57-1.52 2.5l-.35.37 1.98.01v.41ZM28.38 59.48c0-1.57.61-2.33 1.45-2.33s1.37.8 1.37 2.27c0 1.56-.55 2.36-1.44 2.36-.82 0-1.38-.8-1.38-2.3Zm2.32-.04c0-1.12-.27-1.9-.9-1.9-.53 0-.91.71-.91 1.9s.33 1.93.89 1.93c.67 0 .92-.86.92-1.93ZM34.69 61.71h-2.66v-.31l.44-.46c1.07-1.08 1.61-1.73 1.61-2.46 0-.48-.21-.92-.86-.92-.36 0-.68.2-.9.37l-.17-.35c.28-.25.68-.44 1.16-.44.91 0 1.27.66 1.27 1.28 0 .85-.59 1.57-1.52 2.5l-.35.37 1.98.01v.41ZM37.9 61.71h-.47v-1.26h-1.96v-.32l1.92-2.91h.52v2.85h.61v.38h-.61v1.26Zm-1.93-1.64h1.46v-1.59c0-.25.01-.49.02-.72h-.02c-.14.28-.25.47-.36.67l-1.1 1.63ZM56.64 58.44c-.63 0-.8-.21-.8-.82v-1.4h-.59v-.48h1.72v-.88l.67.05c0 .06-.05.09-.15.11v.72h1.64v.48h-2.78v1.41c0 .25.06.33.28.33h1.45c.18 0 .47 0 .62-.04.02.14.04.37.06.48-.12.03-.4.04-.66.04h-1.46Zm2.6 3.28h3.45v.47h-7.43v-.47h3.43v-.77h-2.38v-.46h2.38v-.76h-2.75v-.47h6.13v.47h-2.83v.76h2.43v.46h-2.43v.77Zm3.19-6.54v.17c-.09 2.25-.17 3.01-.37 3.27-.17.2-.39.23-.74.23-.18 0-.38 0-.6-.02 0-.13-.06-.32-.13-.45.36.03.68.03.83.03.19 0 .29-.08.37-.79h-1.98c-.19.61-.5 1.09-.96 1.4-.08-.09-.24-.25-.37-.32.9-.61 1.13-1.86 1.14-3.53h2.54l.28.02Zm-2.4 1.41c-.03.22-.07.43-.11.62h1.9l.05-.62h-1.83Zm1.87-1h-1.79c0 .21-.02.41-.04.61h1.81l.02-.61ZM1.04 72.7c0-2.12.83-3.15 1.96-3.15s1.86 1.09 1.86 3.07c0 2.11-.74 3.19-1.95 3.19-1.1 0-1.87-1.09-1.87-3.11Zm3.14-.05c0-1.52-.37-2.56-1.22-2.56-.72 0-1.23.96-1.23 2.56s.45 2.61 1.21 2.61c.9 0 1.24-1.17 1.24-2.61ZM8.13 72.43c.71.12 1.32.7 1.32 1.57 0 .96-.7 1.81-2.06 1.81-.61 0-1.16-.2-1.43-.39l.2-.52c.22.15.71.37 1.24.37 1.02 0 1.35-.71 1.35-1.27 0-.89-.75-1.3-1.55-1.3h-.4v-.5h.4c.58 0 1.34-.36 1.34-1.13 0-.53-.32-.98-1.04-.98-.45 0-.87.22-1.11.4l-.2-.5c.29-.23.86-.45 1.44-.45 1.11 0 1.6.71 1.6 1.43 0 .62-.4 1.18-1.1 1.43v.02ZM10.93 75.3c0-.31.2-.53.49-.53s.48.22.48.53-.19.51-.49.51-.48-.24-.48-.51ZM12.95 72.7c0-2.12.83-3.15 1.96-3.15s1.86 1.09 1.86 3.07c0 2.11-.74 3.19-1.95 3.19-1.1 0-1.87-1.09-1.87-3.11Zm3.14-.05c0-1.52-.37-2.56-1.22-2.56-.72 0-1.23.96-1.23 2.56s.45 2.61 1.21 2.61c.9 0 1.24-1.17 1.24-2.61ZM20.94 75.71h-.64v-1.7h-2.65v-.43l2.59-3.94h.7v3.85h.83v.52h-.83v1.7Zm-2.61-2.22h1.97v-2.16c0-.33.02-.66.03-.97h-.03c-.19.37-.33.63-.49.91l-1.48 2.2v.02ZM22.84 75.3c0-.31.2-.53.49-.53s.48.22.48.53-.19.51-.49.51-.48-.24-.48-.51ZM27.48 75.71h-2.66v-.31l.44-.46c1.07-1.08 1.61-1.73 1.61-2.46 0-.48-.21-.92-.86-.92-.36 0-.68.2-.9.37l-.17-.35c.28-.25.68-.44 1.16-.44.91 0 1.27.66 1.27 1.28 0 .85-.59 1.57-1.52 2.5l-.35.37 1.98.01v.41ZM28.38 73.48c0-1.57.61-2.33 1.45-2.33s1.37.8 1.37 2.27c0 1.56-.55 2.36-1.44 2.36-.82 0-1.38-.8-1.38-2.3Zm2.32-.04c0-1.12-.27-1.9-.9-1.9-.53 0-.91.71-.91 1.9s.33 1.93.89 1.93c.67 0 .92-.86.92-1.93ZM34.69 75.71h-2.66v-.31l.44-.46c1.07-1.08 1.61-1.73 1.61-2.46 0-.48-.21-.92-.86-.92-.36 0-.68.2-.9.37l-.17-.35c.28-.25.68-.44 1.16-.44.91 0 1.27.66 1.27 1.28 0 .85-.59 1.57-1.52 2.5l-.35.37 1.98.01v.41ZM37.9 75.71h-.47v-1.26h-1.96v-.32l1.92-2.91h.52v2.85h.61v.38h-.61v1.26Zm-1.93-1.64h1.46v-1.59c0-.25.01-.49.02-.72h-.02c-.14.28-.25.47-.36.67l-1.1 1.63ZM62.63 70.02h-3.44l-.09.02v1.41l.04-.05c1.03.5 2.36 1.26 3.03 1.77l-.38.49c-.58-.47-1.72-1.16-2.69-1.68v4.4h-.58v-6.37h-3.2v-.54h7.3v.54ZM65.8 72.79l.12-.02.3.04s0 .12-.02.18c-.11 2.14-.2 2.89-.44 3.16-.18.21-.36.24-.92.24-.19 0-.41 0-.64-.02-.02-.16-.08-.38-.17-.53.45.04.85.04 1.03.04.11 0 .19-.02.24-.09.16-.17.27-.83.36-2.52h-1.31l-.05.34-.51-.08c.11-.63.24-1.66.29-2.43h1.56v-1.41h-1.88v-.51h2.41v2.67h-.53v-.25h-1.09l-.13 1.18h1.38Zm4.12 1.15c.58.68 1.17 1.6 1.38 2.22l-.49.25c-.06-.2-.17-.42-.3-.67-1.38.11-2.82.2-3.75.26 0 .06-.06.11-.12.11l-.2-.64.77-.02c.39-.46.81-1.02 1.22-1.61-.44-.47-1.17-1.08-1.79-1.5l.32-.39c.14.09.28.19.42.29.32-.47.67-1.07.92-1.58h-1.86v-.52h2.01v-1.28l.69.05c0 .06-.06.1-.16.11v1.13h2.26v.52h-2.33l.13.06s-.1.07-.18.07c-.28.51-.73 1.21-1.12 1.73.37.29.73.59.99.85.43-.64.83-1.29 1.13-1.86l.62.32s-.1.08-.19.08c-.64 1.05-1.61 2.46-2.48 3.5.75-.03 1.6-.07 2.44-.11-.23-.4-.52-.8-.8-1.15l.45-.22Z" class="cls-1"/><path d="M52.72 31.18c0 1.5-1.21 2.71-2.71 2.71s-2.71-1.21-2.71-2.71 1.21-2.71 2.71-2.71 2.71 1.21 2.71 2.71Z" class="cls-3"/><path d="M52.72 59.1c0 1.5-1.21 2.71-2.71 2.71S47.3 60.6 47.3 59.1s1.21-2.71 2.71-2.71 2.71 1.21 2.71 2.71ZM50.01 42.43c1.5 0 2.71 1.21 2.71 2.71s-1.21 2.71-2.71 2.71" class="cls-2"/><path d="M50.01 42.43c-1.5 0-2.71 1.21-2.71 2.71s1.21 2.71 2.71 2.71" class="cls-3"/><path d="M50.01 75.77c-1.5 0-2.71-1.21-2.71-2.71s1.21-2.71 2.71-2.71" class="cls-2"/><path d="M50.01 75.77c1.5 0 2.71-1.21 2.71-2.71s-1.21-2.71-2.71-2.71" class="cls-3"/></g></svg>