<svg xmlns="http://www.w3.org/2000/svg" id="_レイヤー_2" viewBox="0 0 107.75 45.79"><defs><style>.cls-1{fill:#fff}.cls-3{fill:none;stroke:#fff;stroke-width:.5px}</style></defs><g id="text_solar"><path d="m2.06.36-.41 1.92h.01L3.6.36h1.37L2.5 2.59l1.58 2.66H2.91L1.55 2.76l-.53 2.49h-1L1.08.36h.98ZM5.54 1.65h.94l-.77 3.61h-.94l.77-3.61ZM5.88.1h.94l-.2.9h-.94l.2-.9ZM9.58 2.42c-.25-.09-.5-.17-.77-.17-.28 0-.63.08-.63.36 0 .46 1.22.62 1.22 1.51 0 .94-.82 1.22-1.62 1.22-.38 0-.76-.06-1.1-.22l.2-.75c.27.15.53.28.9.28.31 0 .64-.11.64-.4 0-.58-1.22-.64-1.22-1.54 0-.85.82-1.15 1.56-1.15.34 0 .69.06 1.02.15l-.2.71ZM12.35 4.7h-.01c-.32.41-.64.64-1.16.64-.65 0-1.11-.36-1.11-1.03 0-1.19 1.33-1.28 2.21-1.28h.33c.03-.1.03-.2.03-.31 0-.36-.39-.47-.72-.47-.41 0-.81.11-1.18.28l.13-.75c.4-.14.81-.22 1.23-.22.72 0 1.4.27 1.4 1.11 0 .48-.36 1.9-.44 2.58h-.79l.1-.55Zm-.92-.05c.7 0 .92-.48 1.06-1.06h-.33c-.46 0-1.21.08-1.21.69 0 .25.24.38.48.38ZM14.71 2.13c.03-.15.06-.32.08-.48h.9l-.13.68h.01c.17-.39.63-.76 1.06-.76.12 0 .25 0 .36.04l-.2.92c-.11-.04-.24-.06-.36-.06-.67 0-.99.6-1.11 1.18l-.34 1.62h-.94l.64-3.12ZM19.16 4.7h-.01c-.32.41-.64.64-1.16.64-.65 0-1.11-.36-1.11-1.03 0-1.19 1.33-1.28 2.21-1.28h.33c.03-.1.03-.2.03-.31 0-.36-.39-.47-.72-.47-.41 0-.81.11-1.18.28l.13-.75c.4-.14.81-.22 1.23-.22.72 0 1.4.27 1.4 1.11 0 .48-.36 1.9-.44 2.58h-.79l.1-.55Zm-.92-.05c.7 0 .92-.48 1.06-1.06h-.33c-.46 0-1.21.08-1.21.69 0 .25.24.38.48.38ZM20.98 5.8c.37.15.73.28 1.13.28.99 0 1.14-.69 1.37-1.51h-.01c-.24.43-.69.69-1.21.69-.88 0-1.25-.74-1.25-1.53 0-1.08.66-2.16 1.83-2.16.48 0 .88.23 1.1.61l.11-.53h.9c-.03.1-.07.27-.12.5l-.57 2.71c-.23 1.18-.74 1.95-2.06 1.95-.49 0-.98-.07-1.44-.25L21 5.8Zm1.97-3.51c-.68 0-.97.89-.97 1.43 0 .43.18.81.6.81.75 0 1.06-.79 1.06-1.48 0-.42-.25-.76-.68-.76ZM26.03 1.65h.94l-.77 3.61h-.94l.77-3.61ZM26.37.1h.94l-.2.9h-.94l.2-.9ZM32.66.36h.67l1.36 4.24h.01L36.06.36h.67v4.89h-.41V.77h-.01l-1.44 4.48h-.33L33.09.77h-.01v4.48h-.41V.36ZM37.86.26h.49v.63h-.49V.26Zm.04 1.42h.41v3.57h-.41V1.68ZM41.71 4.07c0 .56.01.88.03 1.18h-.38v-.49h-.01c-.27.34-.49.54-.94.54-1.16 0-1.21-1.47-1.21-1.97 0-.68.29-1.7 1.18-1.7.46 0 .72.18.9.51h.01V0h.41v4.07Zm-1.26.85c.69 0 .88-.69.88-1.42 0-.48 0-1.5-.88-1.5-.61 0-.82.63-.82 1.46 0 .29 0 1.46.81 1.46ZM42.65 3.1h1.43v.41h-1.43V3.1ZM44.81 4.57c.34.3.74.33.86.33.79 0 .88-.7.88-.88 0-.57-.34-.8-.92-1.19-.68-.46-.88-.77-.88-1.32 0-1.09.99-1.18 1.27-1.18.39 0 .66.11.77.15l-.02.49c-.19-.11-.41-.24-.78-.24-.28 0-.78.15-.78.71 0 .48.25.67.67.98.87.64 1.13.86 1.13 1.53 0 .82-.56 1.35-1.31 1.35-.3 0-.67-.07-.92-.23l.03-.5ZM47.9 2.86c0-.56-.01-.88-.03-1.18h.38v.53h.01c.24-.37.53-.57.94-.57 1.16 0 1.21 1.47 1.21 1.72 0 1.02-.33 1.95-1.18 1.95-.43 0-.74-.18-.9-.5h-.01v1.96h-.41v-3.9Zm1.26-.85c-.69 0-.88.69-.88 1.42 0 .48 0 1.5.88 1.5.61 0 .82-.63.82-1.46 0-.29 0-1.46-.81-1.46ZM51.3 2.79c0-.37-.02-.74-.03-1.11h.38c0 .21.02.42.03.57h.01c.26-.51.56-.62.95-.62v.43c-.64 0-.94.28-.94.94v2.25h-.41V2.78ZM53.36.26h.49v.63h-.49V.26Zm.04 1.42h.41v3.57h-.41V1.68ZM54.87 2.79c0-.37-.02-.74-.03-1.11h.38c.01.16.02.27.03.53h.01c.08-.15.32-.57.91-.57.99 0 .99.99.99 1.23v2.4h-.41V2.86c0-.25 0-.83-.67-.83-.5 0-.81.47-.81 1.02v2.22h-.41V2.8ZM59.25 1.63c.45 0 .73.2.94.57h.01v-.53h.38c-.01.31-.03.62-.03 1.18v2.3c0 1.01-.39 1.64-1.34 1.64-.39 0-.57-.06-1.02-.2l.03-.46c.34.2.75.27.98.27.88 0 .94-.81.94-1.18v-.49h-.01c-.21.36-.48.54-.9.54-.9 0-1.18-1.02-1.18-1.7 0-.5.04-1.97 1.21-1.97Zm.05 3.29c.67 0 .88-.6.88-1.5 0-.73-.19-1.42-.88-1.42-.81 0-.81 1.16-.81 1.46 0 .83.21 1.46.82 1.46ZM75.5 25.88h.56l2.05 4.34h.01v-4.34h.41v4.89h-.56l-2.05-4.31h-.01v4.31h-.41v-4.89ZM79.95 29.11c0 1.32.85 1.32 1.01 1.32.23 0 .57-.11.77-.29l.02.47c-.17.09-.41.2-.83.2-1.4 0-1.4-1.48-1.4-1.83 0-1.35.67-1.84 1.27-1.84 1.04 0 1.14 1.1 1.14 1.97h-1.97Zm1.54-.38c0-.95-.4-1.21-.73-1.21-.55 0-.81.75-.81 1.21h1.54ZM82.41 27.19h.43l.75 3.14h.01l.72-3.14h.52l.78 3.14h.01l.74-3.14h.41l-.93 3.57h-.5l-.77-3.11h-.01l-.73 3.11h-.48l-.96-3.57ZM89.11 25.88h.67l1.36 4.24h.01l1.36-4.24h.67v4.89h-.41v-4.48h-.01l-1.44 4.48h-.33l-1.45-4.48h-.01v4.48h-.41v-4.89ZM94.15 28.98c0-.9.29-1.84 1.34-1.84s1.34.94 1.34 1.84-.29 1.83-1.34 1.83-1.34-.94-1.34-1.83Zm2.24 0c0-.29 0-1.46-.9-1.46s-.9 1.17-.9 1.46 0 1.46.9 1.46.9-1.17.9-1.46ZM97.56 28.98c0-.9.29-1.84 1.34-1.84s1.34.94 1.34 1.84-.29 1.83-1.34 1.83-1.34-.94-1.34-1.83Zm2.24 0c0-.29 0-1.46-.9-1.46s-.9 1.17-.9 1.46 0 1.46.9 1.46.9-1.17.9-1.46ZM101.12 28.3c0-.37-.02-.74-.03-1.11h.38c.01.16.02.27.03.52h.01c.08-.15.32-.57.91-.57.99 0 .99.99.99 1.23v2.39H103v-2.41c0-.25 0-.83-.67-.83-.5 0-.81.47-.81 1.02v2.22h-.41V28.3ZM75.5 39.88h2v.41h-1.56v1.74h1.49v.41h-1.49v2.34h-.43v-4.89ZM78.36 39.77h.49v.63h-.49v-.63Zm.04 1.42h.41v3.57h-.41v-3.57ZM79.87 42.3c0-.37-.02-.74-.03-1.11h.38c0 .21.02.42.03.57h.01c.26-.51.56-.62.95-.62v.43c-.64 0-.94.28-.94.94v2.25h-.41V42.3ZM83.47 41.67c-.2-.08-.38-.15-.61-.15-.42 0-.61.32-.61.57 0 .33.13.4.61.67.49.27.87.45.87 1.02 0 .64-.46 1.04-1.06 1.04-.44 0-.69-.09-.9-.17l.06-.46c.12.08.48.25.81.25.38 0 .66-.29.66-.62 0-.34-.22-.48-.64-.69-.6-.3-.84-.49-.84-1 0-.67.57-.99 1.05-.99.24 0 .53.06.66.11l-.06.42ZM85.2 40.35v.84h.73v.38h-.73v2.33c0 .29.05.54.39.54.19 0 .26-.04.34-.08v.41c-.1.04-.28.05-.47.05-.52 0-.67-.41-.67-.81v-2.44h-.53v-.38h.53v-.71l.41-.13ZM90.88 45.66l-.79-.88s-.13.03-.26.03c-1.72 0-1.72-2.07-1.72-2.49s0-2.49 1.72-2.49 1.72 2.07 1.72 2.49c0 .36 0 1.89-1.04 2.35l.91.99h-.55Zm-1.04-1.25c1.26 0 1.26-1.7 1.26-2.09s0-2.09-1.26-2.09-1.26 1.7-1.26 2.09 0 2.09 1.26 2.09ZM94.84 43.66c0 .37.02.74.03 1.11h-.38c-.01-.16-.02-.27-.03-.53h-.01c-.04.15-.31.57-.91.57-.78 0-.99-.56-.99-1.13v-2.49h.41v2.41c0 .25 0 .83.67.83.5 0 .81-.47.81-1.02v-2.22h.41v2.47ZM98.03 43.97c0 .27.02.53.04.8h-.36l-.03-.51h-.01c-.25.39-.54.56-1 .56-.55 0-.99-.46-.99-1.04 0-1.14 1.21-1.16 1.72-1.16h.26c0-.45 0-1.09-.74-1.09-.48 0-.85.34-.9.37l-.06-.43c.34-.18.59-.32.98-.32 1.1 0 1.1.92 1.1 1.18v1.64Zm-.38-1c-.84 0-1.55 0-1.55.81 0 .3.22.66.66.66.19 0 .89-.08.89-1.05v-.42ZM99.06 42.3c0-.37-.02-.74-.03-1.11h.38c0 .21.02.42.03.57h.01c.26-.51.56-.62.95-.62v.43c-.64 0-.94.28-.94.94v2.25h-.41V42.3ZM101.89 40.35v.84h.73v.38h-.73v2.33c0 .29.05.54.39.54.19 0 .26-.04.34-.08v.41c-.1.04-.28.05-.47.05-.52 0-.67-.41-.67-.81v-2.44h-.53v-.38h.53v-.71l.41-.13ZM103.57 43.11c0 1.32.85 1.32 1.01 1.32.23 0 .57-.11.77-.29l.02.47c-.17.09-.41.2-.83.2-1.4 0-1.4-1.48-1.4-1.83 0-1.34.67-1.83 1.27-1.83 1.04 0 1.14 1.1 1.14 1.97h-1.97Zm1.54-.38c0-.95-.4-1.21-.73-1.21-.55 0-.81.75-.81 1.21h1.54ZM106.41 42.3c0-.37-.02-.74-.03-1.11h.38c0 .21.02.42.03.57h.01c.26-.51.56-.62.95-.62v.43c-.64 0-.94.28-.94.94v2.25h-.41V42.3ZM.1 15.95h7.27v1.04H.1v-1.04Zm.68-4.64h5.91v1.04H.78v-1.04ZM14.76 10.57v6.04c0 1.09-.51 1.22-2.33 1.22-.06-.28-.25-.76-.41-1.02.38.02.81.02 1.11.02.53 0 .59 0 .59-.23v-1.26H10.3c-.23.94-.67 1.86-1.52 2.51-.15-.2-.53-.57-.74-.72 1.37-1.04 1.48-2.61 1.48-3.87v-2.69h5.23Zm-4.23 2.85c0 .31-.02.63-.06.97h3.26v-.97h-3.2Zm3.2-1.9h-3.2v.98h3.2v-.98ZM18.9 17.45h-.81l2.13-6.69h.81l-2.13 6.69ZM26.79 11.79l.53.12c0 .07-.02.12-.05.17-.11 1.43-.35 2.57-.76 3.47.38.3.71.6.94.87-.17.26-.34.52-.56.83-.2-.26-.51-.55-.86-.85-.45.62-1 1.1-1.7 1.45-.12-.25-.37-.61-.57-.81.61-.26 1.11-.68 1.5-1.25-.18-.13-.36-.27-.55-.39l-.08.29-.82-.38c.2-.69.43-1.61.64-2.57h-.75v-.93h.94c.11-.56.22-1.11.31-1.61l1.13.12c-.02.07-.07.12-.22.13l-.28 1.36h1.04l.17-.02Zm-1.43.95c-.14.6-.28 1.2-.42 1.75.25.15.51.31.76.49.28-.62.46-1.37.58-2.24h-.92Zm2.35-1.66h3.28v6.43h-.97v-.49h-1.39v.62h-.92v-6.55Zm.92 5.02h1.39V12h-1.39v4.1ZM38.5 10.57v6.04c0 1.09-.51 1.22-2.33 1.22-.06-.28-.25-.76-.41-1.02.38.02.81.02 1.11.02.53 0 .59 0 .59-.23v-1.26h-3.42c-.23.94-.67 1.86-1.52 2.51-.15-.2-.53-.57-.74-.72 1.37-1.04 1.48-2.61 1.48-3.87v-2.69h5.23Zm-4.23 2.85c0 .31-.02.63-.06.97h3.26v-.97h-3.2Zm3.2-1.9h-3.2v.98h3.2v-.98ZM45.61 12.01c-.65.54-1.19 1.59-1.19 2.8s.55 2.27 1.19 2.8v.03h-.56c-.62-.55-1.12-1.61-1.12-2.83s.5-2.29 1.12-2.83h.56v.03ZM46.94 14.58c-.16.24-.32.47-.5.67-.07-.17-.23-.56-.33-.73.5-.56 1.01-1.55 1.31-2.51l.79.27c-.02.06-.08.08-.17.07-.14.38-.31.77-.5 1.15l.23.06c-.01.05-.06.1-.16.11v3.99h-.69v-3.07Zm3.29-1.32h1.5v2.76h-.72v-.31h-.78v1.93h-.72v-1.93h-.75v.35h-.68v-2.81h1.43v-1.2l.88.05c0 .06-.05.1-.16.11v1.04Zm-1.47 1.79h.75v-1.12h-.75v1.12Zm1.47 0h.78v-1.12h-.78v1.12ZM58.27 14.81H57.2c.35.36.77.65 1.24.84-.16.14-.38.42-.49.6-.29-.14-.56-.3-.81-.51v1.88h-.74v-.16h-1.72v.19h-.71v-1.84c-.25.22-.54.41-.86.59-.08-.18-.3-.46-.46-.58.55-.28.98-.62 1.31-1.01H52.8v-.59h1.58c.05-.1.11-.2.16-.3h-1.18v-.57h1.4c.03-.1.05-.2.08-.3h-1.73v-.57h1.84c.02-.17.04-.34.05-.5l.89.07c-.02.07-.07.11-.17.13-.01.1-.02.21-.04.31H58v.57h-2.42c-.02.1-.05.2-.08.3h2.23v.57h-1.17c.05.1.11.21.17.3h1.54v.59Zm-1.75.3c-.08-.1-.16-.2-.23-.3h-1.45l-.22.3h1.9Zm-.13.9v-.34h-1.72v.34h1.72Zm-1.72.88h1.72v-.37h-1.72v.37Zm1.13-2.97h-.51c-.04.1-.08.21-.13.3h.79l-.14-.3ZM59 17.61c.65-.54 1.19-1.59 1.19-2.8s-.55-2.27-1.19-2.8v-.03h.56c.62.55 1.12 1.61 1.12 2.83s-.5 2.28-1.12 2.83H59v-.03ZM0 28.07c0-2.12.83-3.15 1.96-3.15s1.86 1.09 1.86 3.07c0 2.11-.74 3.19-1.95 3.19-1.1 0-1.87-1.09-1.87-3.11Zm3.14-.05c0-1.52-.37-2.56-1.22-2.56-.72 0-1.23.96-1.23 2.56s.45 2.61 1.21 2.61c.9 0 1.24-1.17 1.24-2.61ZM7.09 27.81c.71.12 1.32.7 1.32 1.57 0 .96-.7 1.81-2.06 1.81-.61 0-1.16-.2-1.43-.39l.2-.52c.22.15.71.37 1.24.37 1.02 0 1.35-.71 1.35-1.27 0-.89-.75-1.3-1.55-1.3h-.4v-.5h.4c.58 0 1.34-.37 1.34-1.13 0-.53-.32-.98-1.04-.98-.45 0-.87.22-1.11.4l-.2-.5c.29-.23.86-.45 1.44-.45 1.11 0 1.6.71 1.6 1.43 0 .62-.4 1.18-1.1 1.44v.02ZM9.89 30.68c0-.31.2-.53.49-.53s.48.22.48.53c0 .29-.19.51-.49.51s-.48-.24-.48-.51ZM13.69 31.09v-5.44h-.02l-1 .57-.16-.5 1.26-.71h.58v6.07h-.66ZM16.77 28.07c0-2.12.83-3.15 1.96-3.15s1.86 1.09 1.86 3.07c0 2.11-.74 3.19-1.95 3.19-1.1 0-1.87-1.09-1.87-3.11Zm3.14-.05c0-1.52-.37-2.56-1.22-2.56-.72 0-1.23.96-1.23 2.56s.45 2.61 1.21 2.61c.9 0 1.24-1.17 1.24-2.61ZM21.8 30.68c0-.31.2-.53.49-.53s.48.22.48.53c0 .29-.19.51-.49.51s-.48-.24-.48-.51ZM26.44 31.09h-2.66v-.3l.44-.46c1.07-1.08 1.61-1.73 1.61-2.46 0-.48-.21-.92-.86-.92-.36 0-.68.2-.9.37l-.17-.35c.28-.25.68-.44 1.16-.44.91 0 1.27.66 1.27 1.28 0 .85-.59 1.56-1.52 2.5l-.35.37 1.98.01v.41ZM27.33 28.86c0-1.57.61-2.33 1.45-2.33s1.37.8 1.37 2.27c0 1.56-.55 2.36-1.44 2.36-.82 0-1.38-.8-1.38-2.3Zm2.32-.04c0-1.12-.27-1.9-.9-1.9-.53 0-.91.71-.91 1.9s.33 1.93.89 1.93c.67 0 .92-.86.92-1.93ZM33.65 31.09h-2.66v-.3l.44-.46c1.07-1.08 1.61-1.73 1.61-2.46 0-.48-.21-.92-.86-.92-.36 0-.68.2-.9.37l-.17-.35c.28-.25.68-.44 1.16-.44.91 0 1.27.66 1.27 1.28 0 .85-.59 1.56-1.52 2.5l-.35.37 1.98.01v.41ZM36.86 31.09h-.47v-1.26h-1.96v-.32l1.92-2.91h.52v2.85h.61v.38h-.61v1.26Zm-1.93-1.64h1.46v-1.6c0-.25.01-.48.02-.72h-.02c-.14.28-.25.47-.36.67l-1.1 1.63ZM57.26 29.3h-.92c-.07.97-.38 1.87-1.47 2.48a3.38 3.38 0 0 0-.41-.31c1-.55 1.3-1.34 1.37-2.17H55v.52h-.48v-2.88l.62.04c0 .06-.05.1-.15.11v1.73h.85v-2.54h-1.69v-.49h1c-.1-.39-.32-.96-.57-1.38l.44-.17c.26.43.5 1 .6 1.39l-.36.15h2.85v.49h-1.76v2.54h.9v-1.88l.62.04c0 .06-.05.1-.15.11v2.64h-.48v-.43Zm.53-4.85s-.08.07-.17.07c-.16.37-.44.92-.66 1.28-.1-.03-.32-.13-.41-.15.21-.38.47-.99.61-1.4l.63.2Zm3.53.27v6.36c0 .67-.32.71-1.59.71-.02-.15-.1-.39-.18-.54h.66c.51 0 .57 0 .57-.19v-2.1H58.9c-.15 1-.49 2.05-1.26 2.83-.09-.1-.31-.25-.44-.31 1.15-1.13 1.26-2.75 1.26-4.01V24.7h2.85Zm-2.33 2.78c0 .31 0 .64-.04.99h1.83V27.1h-1.79v.4Zm1.79-2.27h-1.79v1.36h1.79v-1.36ZM0 42.07c0-2.12.83-3.15 1.96-3.15s1.86 1.09 1.86 3.07c0 2.11-.74 3.19-1.95 3.19-1.1 0-1.87-1.09-1.87-3.11Zm3.14-.05c0-1.52-.37-2.56-1.22-2.56-.72 0-1.23.96-1.23 2.56s.45 2.61 1.21 2.61c.9 0 1.24-1.17 1.24-2.61ZM7.09 41.81c.71.12 1.32.7 1.32 1.57 0 .96-.7 1.81-2.06 1.81-.61 0-1.16-.2-1.43-.39l.2-.52c.22.15.71.37 1.24.37 1.02 0 1.35-.71 1.35-1.27 0-.89-.75-1.3-1.55-1.3h-.4v-.5h.4c.58 0 1.34-.37 1.34-1.13 0-.53-.32-.98-1.04-.98-.45 0-.87.22-1.11.4l-.2-.5c.29-.23.86-.45 1.44-.45 1.11 0 1.6.71 1.6 1.43 0 .62-.4 1.18-1.1 1.44v.02ZM9.89 44.68c0-.31.2-.53.49-.53s.48.22.48.53c0 .29-.19.51-.49.51s-.48-.24-.48-.51ZM13.69 45.09v-5.44h-.02l-1 .57-.16-.5 1.26-.71h.58v6.07h-.66ZM16.96 39.02h3.56v.43l-2.54 5.64h-.69l2.54-5.49v-.02h-2.87v-.56ZM21.8 44.68c0-.31.2-.53.49-.53s.48.22.48.53c0 .29-.19.51-.49.51s-.48-.24-.48-.51ZM26.44 45.09h-2.66v-.3l.44-.46c1.07-1.08 1.61-1.73 1.61-2.46 0-.48-.21-.92-.86-.92-.36 0-.68.2-.9.37l-.17-.35c.28-.25.68-.44 1.16-.44.91 0 1.27.66 1.27 1.28 0 .85-.59 1.56-1.52 2.5l-.35.37 1.98.01v.41ZM27.33 42.86c0-1.57.61-2.33 1.45-2.33s1.37.8 1.37 2.27c0 1.56-.55 2.36-1.44 2.36-.82 0-1.38-.8-1.38-2.3Zm2.32-.04c0-1.12-.27-1.9-.9-1.9-.53 0-.91.71-.91 1.9s.33 1.93.89 1.93c.67 0 .92-.86.92-1.93ZM33.65 45.09h-2.66v-.3l.44-.46c1.07-1.08 1.61-1.73 1.61-2.46 0-.48-.21-.92-.86-.92-.36 0-.68.2-.9.37l-.17-.35c.28-.25.68-.44 1.16-.44.91 0 1.27.66 1.27 1.28 0 .85-.59 1.56-1.52 2.5l-.35.37 1.98.01v.41ZM36.86 45.09h-.47v-1.26h-1.96v-.32l1.92-2.91h.52v2.85h.61v.38h-.61v1.26Zm-1.93-1.64h1.46v-1.6c0-.25.01-.48.02-.72h-.02c-.14.28-.25.47-.36.67l-1.1 1.63ZM57.94 44.84h3.68v.55h-7.37v-.55h3.12v-6.46l.74.05c0 .06-.06.1-.17.11v2.4h3.11v.55h-3.11v3.35ZM64.75 42.16l.12-.02.3.04s0 .12-.02.18c-.11 2.14-.2 2.89-.44 3.16-.18.21-.36.24-.92.24-.19 0-.41 0-.64-.02-.02-.16-.08-.38-.17-.53.45.04.85.04 1.03.04.11 0 .19-.03.24-.09.16-.17.27-.83.36-2.52H63.3l-.05.34-.51-.08c.11-.63.24-1.66.29-2.43h1.56v-1.41h-1.88v-.51h2.41v2.67h-.53v-.25H63.5l-.13 1.18h1.38Zm4.12 1.15c.58.68 1.17 1.6 1.38 2.22l-.49.25c-.06-.2-.17-.42-.3-.66-1.38.11-2.82.2-3.75.26 0 .06-.06.11-.12.11l-.2-.64.77-.03c.39-.46.81-1.02 1.22-1.61-.44-.47-1.17-1.08-1.79-1.5l.32-.39c.14.09.28.19.42.29.32-.47.67-1.07.92-1.58h-1.86v-.52h2.01v-1.28l.69.05c0 .06-.06.1-.16.11v1.12h2.26v.52h-2.33l.13.06s-.1.07-.18.06c-.28.51-.73 1.21-1.12 1.73.37.29.73.59.99.85.43-.64.83-1.29 1.13-1.86l.62.32s-.1.08-.19.08c-.64 1.05-1.61 2.46-2.48 3.5.75-.03 1.6-.07 2.44-.11-.23-.4-.52-.8-.8-1.15l.45-.22Z" class="cls-1"/><path d="M51.56 28.46c0 1.5-1.21 2.71-2.71 2.71s-2.71-1.21-2.71-2.71 1.21-2.71 2.71-2.71 2.71 1.21 2.71 2.71Z" class="cls-3"/><path d="M48.85 39.71c1.5 0 2.71 1.21 2.71 2.71s-1.21 2.71-2.71 2.71" style="stroke:#fff;stroke-width:.5px;fill:#fff"/><path d="M48.85 39.71c-1.5 0-2.71 1.21-2.71 2.71s1.21 2.71 2.71 2.71" class="cls-3"/><path d="M68.27 25.87h-2.11v2.04h-.28v-.5c-.51.08-1.01.14-1.34.19 0 .03-.03.05-.06.05l-.1-.3.41-.04v-1.45h-.39v-.24h3.87v.24Zm-.56-1.73v1.21h-2.75v-1.21h2.75Zm-1.83 2.03v-.3h-.82v.3h.82Zm0 .53v-.31h-.82v.31h.82Zm-.82.22v.36c.26-.03.54-.06.82-.09v-.27h-.82Zm2.37-2.29v-.29h-2.19v.29h2.19Zm0 .5v-.3h-2.19v.3h2.19Zm.47 1.01.18.07s-.03.03-.04.05c-.13.39-.35.72-.61.99.25.19.54.33.88.42-.06.06-.14.16-.17.23-.34-.1-.64-.26-.9-.47-.25.21-.54.37-.83.48-.03-.07-.11-.17-.16-.23.28-.09.56-.24.8-.43-.22-.23-.4-.5-.52-.81l.17-.05h-.4v-.24h1.61Zm-1.13.25c.11.26.26.5.47.69.2-.2.36-.43.47-.69h-.94ZM65.29 30.34v1.39c.33.51.94.51 1.71.51.46 0 1-.01 1.33-.03-.03.07-.08.2-.09.29-.29.01-.76.02-1.18.02-.88 0-1.46 0-1.89-.53-.21.19-.43.38-.62.52 0 .04 0 .06-.04.07l-.17-.31c.2-.14.46-.33.67-.52v-1.13h-.63v-.27h.9Zm-.63-1.6c.29.18.61.46.76.67l-.23.19c-.14-.21-.46-.5-.75-.69l.21-.17Zm2.52 1.48h-.88c-.02.55-.14 1.23-.6 1.73a.948.948 0 0 0-.2-.2c.48-.52.54-1.21.54-1.75v-1l.23.05c.55-.11 1.16-.25 1.5-.41l.28.23s-.02.01-.08.01c-.41.15-1.06.3-1.65.41v.65h1.97v.27h-.81v1.81h-.29v-1.81Z" class="cls-1"/></g></svg>