<svg xmlns="http://www.w3.org/2000/svg" id="_レイヤー_2" viewBox="0 0 109.41 76.41"><defs><style>.cls-1,.cls-2{fill:#fff}.cls-3{fill:none}.cls-2,.cls-3{stroke:#fff;stroke-width:.5px}</style></defs><g id="text_solar"><path d="m1.63.36-.5 2.32c-.16.69-.42 1.88.67 1.88 1.01 0 1.2-.92 1.37-1.72L3.7.36h.97l-.65 2.96c-.28 1.25-.87 2.02-2.23 2.02-1.6 0-1.99-.93-1.7-2.32L.65.36h.98ZM8 2.37 5.79 4.52H7.6l-.13.73H4.45l.15-.73 2.22-2.15H5.16l.16-.73h2.84l-.15.73ZM11.68 4.73c-.04.22-.08.41-.09.52h-.92l.06-.35h-.01c-.26.24-.62.43-1.02.43-.71 0-1.18-.44-1.18-1.16 0-.27.07-.56.12-.78l.38-1.75h.94l-.35 1.7c-.05.25-.11.49-.11.76 0 .3.21.5.51.5.65 0 .89-.61 1.01-1.15l.38-1.81h.94l-.67 3.09ZM13.82 0h.94l-.62 2.96h.01l1.31-1.31h1.22L14.95 3.3l1.08 1.96h-1.06l-.93-1.91h-.01l-.41 1.91h-.92L13.81.01ZM17.47 1.65h.94l-.77 3.61h-.94l.77-3.61ZM17.81.1h.94l-.2.9h-.94l.2-.9ZM24.1.36h2.07v.41h-1.64v1.74h1.56v.41h-1.56v1.93h1.72v.41H24.1V.36ZM29.38 4.45c0 .27.02.53.04.8h-.36l-.03-.51h-.01c-.25.39-.54.56-1 .56-.55 0-.99-.46-.99-1.04 0-1.14 1.21-1.16 1.72-1.16h.26c0-.45 0-1.09-.74-1.09-.48 0-.85.34-.9.37l-.06-.43c.34-.18.59-.32.98-.32 1.1 0 1.1.92 1.1 1.18v1.64Zm-.38-1c-.84 0-1.55 0-1.55.81 0 .3.22.66.66.66.19 0 .89-.08.89-1.05v-.42ZM30.41 2.79c0-.37-.02-.74-.03-1.11h.38c0 .21.02.42.03.57h.01c.26-.51.56-.62.95-.62v.43c-.64 0-.94.28-.94.94v2.25h-.41V2.78ZM32.51 0h.41v5.25h-.41V0ZM34.88 4.65h.01l.8-2.97h.41l-1.17 4.24c-.13.48-.25.89-.81.89-.11 0-.17-.01-.27-.04l.02-.41c.07.05.2.08.29.08.2 0 .3-.19.36-.41l.18-.68-1.05-3.66h.43l.8 2.97ZM38.26 4.57c.34.3.74.33.86.33.79 0 .88-.7.88-.88 0-.57-.34-.8-.92-1.19-.68-.46-.88-.77-.88-1.32 0-1.09.99-1.18 1.27-1.18.39 0 .66.11.77.15l-.02.49c-.19-.11-.41-.24-.78-.24-.28 0-.78.15-.78.71 0 .48.25.67.67.98.87.64 1.13.86 1.13 1.53 0 .82-.56 1.35-1.31 1.35-.3 0-.67-.07-.92-.23l.03-.5ZM43.66 4.15c0 .37.02.74.03 1.11h-.38c-.01-.16-.02-.27-.03-.53h-.01c-.04.15-.31.57-.91.57-.78 0-.99-.56-.99-1.13V1.68h.41v2.41c0 .25 0 .83.67.83.5 0 .81-.47.81-1.02V1.68h.41v2.47ZM44.71 2.79c0-.37-.02-.74-.03-1.11h.38c.01.16.02.27.03.53h.01c.11-.26.37-.57.83-.57.59 0 .74.37.82.57.1-.17.37-.57.89-.57.72 0 .92.6.92 1.16v2.46h-.41V2.85c0-.25 0-.83-.58-.83-.5 0-.74.45-.74.95v2.29h-.41V2.77c0-.46-.2-.76-.54-.76-.46 0-.78.47-.78 1.02v2.22h-.41V2.78ZM49.61 2.79c0-.37-.02-.74-.03-1.11h.38c.01.16.02.27.03.53H50c.11-.26.37-.57.83-.57.59 0 .74.37.82.57.1-.17.37-.57.89-.57.72 0 .92.6.92 1.16v2.46h-.41V2.85c0-.25 0-.83-.58-.83-.5 0-.74.45-.74.95v2.29h-.41V2.77c0-.46-.2-.76-.54-.76-.46 0-.78.47-.78 1.02v2.22h-.41V2.78ZM54.77 3.6c0 1.32.85 1.32 1.01 1.32.23 0 .57-.11.77-.29l.02.47c-.17.09-.41.2-.83.2-1.4 0-1.4-1.48-1.4-1.83 0-1.34.67-1.83 1.27-1.83 1.04 0 1.14 1.1 1.14 1.97h-1.97Zm1.54-.38c0-.95-.4-1.21-.73-1.21-.55 0-.81.75-.81 1.21h1.54ZM57.61 2.79c0-.37-.02-.74-.03-1.11h.38c0 .21.02.42.03.57H58c.26-.51.56-.62.95-.62v.43c-.64 0-.94.28-.94.94v2.25h-.41V2.78ZM80.66 65.3v.29h-1.79v1.2h-.3v-1.2h-1.76v-.29h1.76v-.79h-1.48v-.29h1.48v-1.39l.38.03s-.03.05-.08.06v1.3h1.54v.29h-1.54v.79h1.79Zm-3.18-2.34c.21.31.44.71.53.97l-.27.12c-.08-.26-.3-.68-.51-.99l.26-.11Zm2.83.14s-.04.04-.09.04c-.14.28-.38.69-.57.94l-.24-.11c.19-.27.43-.7.55-1.01l.36.15ZM81.79 66s-.04.04-.08.04c-.12.22-.32.47-.5.63-.05-.04-.14-.11-.2-.14.18-.14.37-.39.48-.63l.31.1Zm1.69-1.57v.23h-2.46v-.23h1.09v-.29h-.8V63h1.9v1.14h-.76s-.03.05-.08.05v.23h1.1Zm-.29 1.35h-.8v.74c0 .25-.09.29-.67.29a.973.973 0 0 0-.11-.23c.51 0 .51 0 .51-.05v-.74h-.77v-.85h1.83v.85Zm-1.61-2.58v.29h1.38v-.29h-1.38Zm0 .47v.29h1.38v-.29h-1.38Zm.03 1.48v.43h1.31v-.43h-1.31Zm1.53 1.47c-.09-.16-.29-.41-.46-.6l.22-.11c.17.17.37.42.46.58l-.23.12Zm1.91-1.13s-.04.04-.08.03c-.32.49-.89.98-1.49 1.28-.05-.06-.14-.17-.21-.23.58-.26 1.15-.72 1.45-1.21l.33.12Zm-.23-2.44s-.04.04-.08.04c-.26.33-.7.71-1.09.95-.05-.06-.14-.15-.21-.2.38-.21.81-.58 1.06-.91l.33.12Zm.12 1.19s-.04.04-.08.04c-.29.35-.77.75-1.2 1-.05-.06-.14-.15-.21-.21.41-.22.9-.6 1.17-.96l.32.12ZM88.49 63.07v3.3c0 .22-.06.32-.22.37-.16.05-.44.06-.91.05-.02-.08-.08-.22-.12-.3.2 0 .4.01.55.01.37 0 .4 0 .4-.13v-.95h-2.11c-.11.5-.33 1-.78 1.38-.04-.06-.15-.17-.21-.21.73-.62.8-1.5.8-2.21v-1.31h2.6Zm-2.31 1.31c0 .22 0 .49-.05.77h2.06v-.77h-2.01Zm2.01-1.03h-2.01v.76h2.01v-.76ZM91.49 62.84s-.04.05-.08.06c.42.49 1.19 1.01 1.84 1.27-.06.07-.13.17-.18.25-.66-.3-1.43-.83-1.85-1.32-.37.46-1.08 1-1.81 1.35-.04-.06-.11-.17-.17-.23.74-.33 1.48-.9 1.83-1.4l.42.02Zm-.17 2.7c.11.17.24.31.41.44.33-.18.75-.44 1-.64l.26.2s-.06.03-.09.02c-.25.17-.63.4-.95.56.34.21.77.34 1.26.42-.06.06-.14.17-.18.25-.92-.17-1.62-.57-1.99-1.25h-.68v.88c.35-.03.74-.07 1.12-.1v.24c-.65.07-1.35.14-1.77.18 0 .03-.03.06-.06.06l-.11-.32.54-.05v-2.35h1.01v-.52l.38.02s-.03.05-.08.06v.44h1.05v1.46h-1.1Zm.81-1.22h-1.78v.38h1.78v-.38Zm-1.78.6v.39h1.78v-.39h-1.78ZM77.16 28.56h.56l2.05 4.34h.01v-4.34h.41v4.89h-.56l-2.05-4.31h-.01v4.31h-.41v-4.89ZM81.61 31.8c0 1.32.85 1.32 1.01 1.32.23 0 .57-.11.77-.29l.02.47c-.17.09-.41.2-.83.2-1.4 0-1.4-1.48-1.4-1.83 0-1.34.67-1.83 1.27-1.83 1.04 0 1.14 1.1 1.14 1.97h-1.97Zm1.54-.38c0-.95-.4-1.21-.73-1.21-.55 0-.81.75-.81 1.21h1.54ZM84.07 29.88h.43l.75 3.14h.01l.72-3.14h.52l.78 3.14h.01l.74-3.14h.41l-.93 3.57h-.5l-.77-3.11h-.01l-.73 3.11h-.48l-.96-3.57ZM90.77 28.56h.67l1.36 4.24h.01l1.36-4.24h.67v4.89h-.41v-4.48h-.01l-1.44 4.48h-.33l-1.45-4.48h-.01v4.48h-.41v-4.89ZM95.82 31.67c0-.9.29-1.83 1.34-1.83s1.34.94 1.34 1.83-.29 1.83-1.34 1.83-1.34-.94-1.34-1.83Zm2.24 0c0-.29 0-1.46-.9-1.46s-.9 1.17-.9 1.46 0 1.46.9 1.46.9-1.17.9-1.46ZM99.22 31.67c0-.9.29-1.83 1.34-1.83s1.34.94 1.34 1.83-.29 1.83-1.34 1.83-1.34-.94-1.34-1.83Zm2.24 0c0-.29 0-1.46-.9-1.46s-.9 1.17-.9 1.46 0 1.46.9 1.46.9-1.17.9-1.46ZM102.78 30.99c0-.37-.02-.74-.03-1.11h.38c.01.16.02.27.03.53h.01c.08-.15.32-.57.91-.57.99 0 .99.99.99 1.23v2.4h-.41v-2.41c0-.25 0-.83-.67-.83-.5 0-.81.47-.81 1.02v2.22h-.41V31ZM77.16 42.56h2v.41H77.6v1.74h1.49v.41H77.6v2.34h-.43v-4.89ZM80.02 42.46h.49v.63h-.49v-.63Zm.04 1.42h.41v3.57h-.41v-3.57ZM81.53 44.99c0-.37-.02-.74-.03-1.11h.38c0 .21.02.42.03.57h.01c.26-.51.56-.62.95-.62v.43c-.64 0-.94.28-.94.94v2.25h-.41v-2.46ZM85.13 44.36c-.2-.08-.38-.15-.61-.15-.42 0-.61.32-.61.57 0 .33.13.4.61.67.49.27.87.45.87 1.02 0 .64-.46 1.04-1.06 1.04-.44 0-.69-.09-.9-.17l.06-.46c.12.08.48.25.81.25.38 0 .66-.29.66-.62 0-.34-.22-.48-.64-.69-.6-.3-.84-.49-.84-1 0-.67.57-.99 1.05-.99.24 0 .53.06.66.11l-.06.42ZM86.86 43.04v.84h.73v.38h-.73v2.33c0 .29.05.54.39.54.19 0 .26-.04.34-.08v.41c-.1.04-.28.05-.47.05-.52 0-.67-.41-.67-.81v-2.44h-.53v-.38h.53v-.71l.41-.13ZM92.54 48.35l-.79-.88s-.13.03-.26.03c-1.72 0-1.72-2.07-1.72-2.49s0-2.49 1.72-2.49 1.72 2.07 1.72 2.49c0 .36 0 1.89-1.04 2.35l.91.99h-.55ZM91.5 47.1c1.26 0 1.26-1.7 1.26-2.09s0-2.09-1.26-2.09-1.26 1.7-1.26 2.09 0 2.09 1.26 2.09ZM96.5 46.35c0 .37.02.74.03 1.11h-.38c-.01-.16-.02-.27-.03-.53h-.01c-.04.15-.31.57-.91.57-.78 0-.99-.56-.99-1.13v-2.49h.41v2.41c0 .25 0 .83.67.83.5 0 .81-.47.81-1.02v-2.22h.41v2.47ZM99.69 46.65c0 .27.02.53.04.8h-.36l-.03-.51h-.01c-.25.39-.54.56-1 .56-.55 0-.99-.46-.99-1.04 0-1.14 1.21-1.16 1.72-1.16h.26c0-.45 0-1.09-.74-1.09-.48 0-.85.34-.9.37l-.06-.43c.34-.18.59-.32.98-.32 1.1 0 1.1.92 1.1 1.18v1.64Zm-.38-1c-.84 0-1.55 0-1.55.81 0 .3.22.66.66.66.19 0 .89-.08.89-1.05v-.42ZM100.72 44.99c0-.37-.02-.74-.03-1.11h.38c0 .21.02.42.03.57h.01c.26-.51.56-.62.95-.62v.43c-.64 0-.94.28-.94.94v2.25h-.41v-2.46ZM103.55 43.04v.84h.73v.38h-.73v2.33c0 .29.05.54.39.54.19 0 .26-.04.34-.08v.41c-.1.04-.28.05-.47.05-.52 0-.67-.41-.67-.81v-2.44h-.53v-.38h.53v-.71l.41-.13ZM105.23 45.8c0 1.32.85 1.32 1.01 1.32.23 0 .57-.11.77-.29l.02.47c-.17.09-.41.2-.83.2-1.4 0-1.4-1.48-1.4-1.83 0-1.34.67-1.83 1.27-1.83 1.04 0 1.14 1.1 1.14 1.97h-1.97Zm1.54-.38c0-.95-.4-1.21-.73-1.21-.55 0-.81.75-.81 1.21h1.54ZM108.07 44.99c0-.37-.02-.74-.03-1.11h.38c0 .21.02.42.03.57h.01c.26-.51.56-.62.95-.62v.43c-.64 0-.94.28-.94.94v2.25h-.41v-2.46ZM77.16 56.56h2v.41H77.6v1.74h1.49v.41H77.6v2.34h-.43v-4.89ZM82.28 60.35c0 .37.02.74.03 1.11h-.38c-.01-.16-.02-.27-.03-.53h-.01c-.04.15-.31.57-.91.57-.78 0-.99-.56-.99-1.13v-2.49h.41v2.41c0 .25 0 .83.67.83.5 0 .81-.47.81-1.02v-2.22h.41v2.47ZM83.35 56.2h.41v5.25h-.41V56.2ZM84.83 56.2h.41v5.25h-.41V56.2ZM87.99 56.56h.67l1.36 4.24h.01l1.36-4.24h.67v4.89h-.41v-4.48h-.01l-1.44 4.48h-.33l-1.45-4.48h-.01v4.48H88v-4.89ZM93.04 59.67c0-.9.29-1.83 1.34-1.83s1.34.94 1.34 1.83-.29 1.83-1.34 1.83-1.34-.94-1.34-1.83Zm2.24 0c0-.29 0-1.46-.9-1.46s-.9 1.17-.9 1.46 0 1.46.9 1.46.9-1.17.9-1.46ZM96.44 59.67c0-.9.29-1.83 1.34-1.83s1.34.94 1.34 1.83-.29 1.83-1.34 1.83-1.34-.94-1.34-1.83Zm2.24 0c0-.29 0-1.46-.9-1.46s-.9 1.17-.9 1.46 0 1.46.9 1.46.9-1.17.9-1.46ZM100 58.99c0-.37-.02-.74-.03-1.11h.38c.01.16.02.27.03.53h.01c.08-.15.32-.57.91-.57.99 0 .99.99.99 1.23v2.4h-.41v-2.41c0-.25 0-.83-.67-.83-.5 0-.81.47-.81 1.02v2.22h-.41v-2.46ZM77.16 70.56h.43v4.48h1.59v.41h-2.02v-4.89ZM82.17 74.65c0 .27.02.53.04.8h-.36l-.03-.51h-.01c-.25.39-.54.56-1 .56-.55 0-.99-.46-.99-1.04 0-1.14 1.21-1.16 1.72-1.16h.26c0-.45 0-1.09-.74-1.09-.48 0-.85.34-.9.37l-.06-.43c.34-.18.59-.32.98-.32 1.1 0 1.1.92 1.1 1.18v1.64Zm-.38-1c-.84 0-1.55 0-1.55.81 0 .3.22.66.66.66.19 0 .89-.08.89-1.05v-.42ZM84.69 72.36c-.2-.08-.38-.15-.61-.15-.42 0-.61.32-.61.57 0 .33.13.4.61.67.49.27.87.45.87 1.02 0 .64-.46 1.04-1.06 1.04-.44 0-.69-.09-.9-.17l.06-.46c.12.08.48.25.81.25.38 0 .66-.29.66-.62 0-.34-.22-.48-.64-.69-.6-.3-.84-.49-.84-1 0-.67.57-.99 1.05-.99.24 0 .53.06.66.11l-.06.42ZM86.42 71.04v.84h.73v.38h-.73v2.33c0 .29.05.54.39.54.19 0 .26-.04.34-.08v.41c-.1.04-.28.05-.47.05-.52 0-.67-.41-.67-.81v-2.44h-.53v-.38h.53v-.71l.41-.13ZM92.1 76.35l-.79-.88s-.13.03-.26.03c-1.72 0-1.72-2.07-1.72-2.49s0-2.49 1.72-2.49 1.72 2.07 1.72 2.49c0 .36 0 1.89-1.04 2.35l.91.99h-.55Zm-1.04-1.25c1.26 0 1.26-1.7 1.26-2.09s0-2.09-1.26-2.09-1.26 1.7-1.26 2.09 0 2.09 1.26 2.09ZM96.06 74.35c0 .37.02.74.03 1.11h-.38c-.01-.16-.02-.27-.03-.53h-.01c-.04.15-.31.57-.91.57-.78 0-.99-.56-.99-1.13v-2.49h.41v2.41c0 .25 0 .83.67.83.5 0 .81-.47.81-1.02v-2.22h.41v2.47ZM99.25 74.65c0 .27.02.53.04.8h-.36l-.03-.51h-.01c-.25.39-.54.56-1 .56-.55 0-.99-.46-.99-1.04 0-1.14 1.21-1.16 1.72-1.16h.26c0-.45 0-1.09-.74-1.09-.48 0-.85.34-.9.37l-.06-.43c.34-.18.59-.32.98-.32 1.1 0 1.1.92 1.1 1.18v1.64Zm-.38-1c-.84 0-1.55 0-1.55.81 0 .3.22.66.66.66.19 0 .89-.08.89-1.05v-.42ZM100.28 72.99c0-.37-.02-.74-.03-1.11h.38c0 .21.02.42.03.57h.01c.26-.51.56-.62.95-.62v.43c-.64 0-.94.28-.94.94v2.25h-.41v-2.46ZM103.11 71.04v.84h.73v.38h-.73v2.33c0 .29.05.54.39.54.19 0 .26-.04.34-.08v.41c-.1.04-.28.05-.47.05-.52 0-.67-.41-.67-.81v-2.44h-.53v-.38h.53v-.71l.41-.13ZM104.79 73.8c0 1.32.85 1.32 1.01 1.32.23 0 .57-.11.77-.29l.02.47c-.17.09-.41.2-.83.2-1.4 0-1.4-1.48-1.4-1.83 0-1.34.67-1.83 1.27-1.83 1.04 0 1.14 1.1 1.14 1.97h-1.97Zm1.54-.38c0-.95-.4-1.21-.73-1.21-.55 0-.81.75-.81 1.21h1.54ZM107.63 72.99c0-.37-.02-.74-.03-1.11h.38c0 .21.02.42.03.57h.01c.26-.51.56-.62.95-.62v.43c-.64 0-.94.28-.94.94v2.25h-.41v-2.46ZM.58 13.53h6.88v6.63H6.44v-.47H1.56v.54H.58v-6.69Zm.98 5.22h4.88v-1.52c-.15.23-.45.31-.77.31h-.53c-.22 0-.47-.07-.62-.21s-.23-.32-.23-.87v-1.99h-.72c-.06 1.43-.25 2.74-1.41 3.54-.12-.23-.38-.56-.6-.72.89-.6 1.02-1.58 1.07-2.82H1.56v4.28Zm3.67-2.27c0 .19 0 .25.16.25.28 0 .32 0 .37-.02.07-.04.11-.07.13-.84.12.12.35.24.55.33v-1.73H5.23v2.01ZM15.04 13.2v6.04c0 1.09-.51 1.22-2.33 1.22-.06-.28-.25-.76-.41-1.02.38.02.81.02 1.11.02.53 0 .59 0 .59-.23v-1.26h-3.42c-.23.94-.67 1.86-1.52 2.51-.15-.2-.53-.58-.74-.72 1.37-1.04 1.48-2.61 1.48-3.86v-2.69h5.23Zm-4.23 2.85c0 .31-.02.63-.06.97h3.26v-.97h-3.2Zm3.2-1.9h-3.2v.98h3.2v-.98ZM19.17 20.07h-.81l2.13-6.69h.81l-2.13 6.69ZM24.55 13.75l.58.24c.61-.35 1.29-.79 1.73-1.17l.98.54c-.04.06-.12.07-.24.07-.56.39-1.47.89-2.15 1.2v3.03l.96-.11c.05-.28.06-.58.06-.87v-2.17l1.11.07c0 .07-.07.13-.21.15v1.98c0 1.45-.28 2.91-2.41 3.77-.11-.22-.4-.57-.58-.73.92-.36 1.44-.81 1.73-1.33-.66.11-1.28.21-1.73.28-.02.07-.07.12-.14.13l-.33-.99.63-.07v-4.01Zm6.61-.15v4.42c0 .88-.37 1.07-1.54 1.07-.03-.27-.19-.71-.33-.97.2.02.41.02.56.02.33 0 .37 0 .37-.14v-3.51h-1.2v5.98h-.92v-6.86h3.05ZM38.78 13.2v6.04c0 1.09-.51 1.22-2.33 1.22-.06-.28-.25-.76-.41-1.02.38.02.81.02 1.11.02.53 0 .59 0 .59-.23v-1.26h-3.42c-.23.94-.67 1.86-1.52 2.51-.15-.2-.53-.58-.74-.72 1.37-1.04 1.48-2.61 1.48-3.86v-2.69h5.23Zm-4.23 2.85c0 .31-.02.63-.06.97h3.26v-.97h-3.2Zm3.2-1.9h-3.2v.98h3.2v-.98ZM45.88 14.63c-.65.55-1.19 1.59-1.19 2.8s.55 2.27 1.19 2.8v.03h-.56c-.62-.55-1.12-1.61-1.12-2.83s.5-2.29 1.12-2.83h.56v.03ZM49.26 17.26s-.1.04-.16.03c-.11.14-.3.35-.46.51.18.17.34.32.41.4l-.43.54c-.12-.17-.32-.43-.52-.66v2.18h-.71v-1.98c-.19.2-.39.39-.58.54-.07-.18-.26-.53-.37-.66.59-.41 1.18-1.12 1.55-1.84H46.6v-.65h.79V14.6l.87.05c0 .06-.05.1-.16.11v.91h.27l.11-.03.48.28s-.06.07-.11.08c-.18.45-.43.91-.72 1.34.05.04.1.08.16.14.15-.2.34-.47.44-.67l.52.44Zm2.41-2.2.4.02c0 .05 0 .16-.01.25-.06 3.12-.11 4.18-.35 4.5-.25.38-.5.41-1.42.4-.01-.21-.1-.53-.23-.74.32.02.6.02.74.02.1 0 .16-.02.23-.12.17-.2.23-1.18.28-3.65h-.89c-.05 1.64-.17 3.47-1.56 4.52a2.17 2.17 0 0 0-.53-.56c1.25-.88 1.34-2.41 1.37-3.96h-.88v-.68h2.84ZM57.16 18.18l.5.26-.08.08c-.25.35-.59.63-.98.86.59.14 1.27.21 2.03.24-.14.16-.32.45-.4.64-.96-.07-1.79-.22-2.49-.5-.77.27-1.66.42-2.57.5-.05-.17-.16-.43-.26-.58.73-.04 1.46-.13 2.09-.3a3.75 3.75 0 0 1-.61-.51c-.29.15-.62.29-1.01.42-.08-.16-.28-.4-.41-.5.77-.2 1.34-.49 1.7-.81h-.79v-2.33h1.36l.05-.23h-2.12v-.58h5.17v.58h-2.29c-.02.08-.05.16-.08.23h1.78v2.33h-2.12s-.07.03-.11.03c-.06.07-.12.13-.19.19h1.73l.11-.02Zm-2.6-2.12v.23H57v-.23h-2.44Zm0 .64v.24H57v-.24h-2.44Zm0 .64v.24H57v-.24h-2.44Zm.47 1.36c.2.17.46.31.74.43.28-.12.53-.26.74-.43h-1.48ZM59.21 20.23c.65-.55 1.19-1.59 1.19-2.8s-.55-2.27-1.19-2.8v-.03h.56c.62.55 1.12 1.61 1.12 2.83s-.5 2.28-1.12 2.83h-.56v-.03ZM.28 30.7c0-2.12.83-3.15 1.96-3.15s1.86 1.09 1.86 3.07c0 2.11-.74 3.19-1.95 3.19-1.1 0-1.87-1.09-1.87-3.11Zm3.14-.05c0-1.52-.37-2.56-1.22-2.56-.72 0-1.23.96-1.23 2.56s.45 2.61 1.21 2.61c.9 0 1.24-1.17 1.24-2.61ZM8.27 33.71h-.64v-1.7H4.98v-.43l2.59-3.94h.7v3.85h.83v.52h-.83v1.7Zm-2.61-2.22h1.97v-2.16c0-.33.02-.66.03-.97h-.03c-.19.37-.33.63-.49.91l-1.48 2.2v.02ZM10.17 33.3c0-.31.2-.53.49-.53s.48.22.48.53-.19.51-.49.51-.48-.24-.48-.51ZM15.85 33.71h-3.59v-.41l.59-.62c1.44-1.46 2.17-2.34 2.17-3.33 0-.65-.28-1.25-1.16-1.25-.49 0-.92.27-1.21.5l-.23-.47c.37-.33.92-.59 1.57-.59 1.22 0 1.71.89 1.71 1.73 0 1.14-.8 2.11-2.06 3.38l-.48.5v.02h2.68v.55ZM17.05 30.7c0-2.12.83-3.15 1.96-3.15s1.86 1.09 1.86 3.07c0 2.11-.74 3.19-1.95 3.19-1.1 0-1.87-1.09-1.87-3.11Zm3.14-.05c0-1.52-.37-2.56-1.22-2.56-.72 0-1.23.96-1.23 2.56s.45 2.61 1.21 2.61c.9 0 1.24-1.17 1.24-2.61ZM22.07 33.3c0-.31.2-.53.49-.53s.48.22.48.53-.19.51-.49.51-.48-.24-.48-.51ZM26.72 33.71h-2.66v-.31l.44-.46c1.07-1.08 1.61-1.73 1.61-2.46 0-.48-.21-.92-.86-.92-.36 0-.68.2-.9.37l-.17-.35c.28-.25.68-.44 1.16-.44.91 0 1.27.66 1.27 1.28 0 .85-.59 1.57-1.52 2.5l-.35.37 1.98.01v.41ZM27.61 31.48c0-1.57.61-2.33 1.45-2.33s1.37.8 1.37 2.27c0 1.56-.55 2.36-1.44 2.36-.82 0-1.38-.8-1.38-2.3Zm2.32-.04c0-1.12-.27-1.9-.9-1.9-.53 0-.91.71-.91 1.9s.33 1.93.89 1.93c.67 0 .92-.86.92-1.93ZM33.93 33.71h-2.66v-.31l.44-.46c1.07-1.08 1.61-1.73 1.61-2.46 0-.48-.21-.92-.86-.92-.36 0-.68.2-.9.37l-.17-.35c.28-.25.68-.44 1.16-.44.91 0 1.27.66 1.27 1.28 0 .85-.59 1.57-1.52 2.5l-.35.37 1.98.01v.41ZM36.47 31.28c.53.09.98.52.98 1.16 0 .71-.52 1.34-1.52 1.34-.45 0-.86-.14-1.06-.29l.15-.38c.16.11.52.27.92.27.75 0 1-.53 1-.94 0-.66-.56-.96-1.15-.96h-.29v-.37h.29c.43 0 .99-.27.99-.83 0-.39-.23-.73-.77-.73-.33 0-.64.16-.82.29l-.15-.37c.22-.17.64-.34 1.07-.34.82 0 1.19.52 1.19 1.06 0 .46-.29.88-.82 1.06v.02ZM57.54 31.92h-.92c-.07.97-.38 1.87-1.47 2.48a3.38 3.38 0 0 0-.41-.31c1-.55 1.3-1.34 1.37-2.17h-.83v.52h-.48v-2.88l.62.04c0 .06-.05.1-.15.11v1.73h.85V28.9h-1.69v-.49h1c-.1-.39-.32-.96-.57-1.38l.44-.17c.26.43.5 1 .6 1.39l-.36.15h2.85v.49h-1.76v2.54h.9v-1.88l.62.04c0 .06-.05.1-.15.11v2.64h-.48v-.43Zm.53-4.85s-.08.07-.17.07c-.16.37-.44.92-.66 1.28-.1-.03-.32-.13-.41-.15.21-.38.47-.99.61-1.4l.63.2Zm3.53.27v6.36c0 .67-.32.71-1.59.71-.02-.15-.1-.39-.18-.54h.66c.51 0 .57 0 .57-.19v-2.1h-1.88c-.15 1-.49 2.05-1.26 2.83-.09-.1-.31-.25-.44-.31 1.15-1.13 1.26-2.75 1.26-4.01v-2.77h2.85Zm-2.33 2.78c0 .31 0 .64-.04.99h1.83v-1.39h-1.79v.41Zm1.79-2.27h-1.79v1.36h1.79v-1.36ZM.28 44.7c0-2.12.83-3.15 1.96-3.15s1.86 1.09 1.86 3.07c0 2.11-.74 3.19-1.95 3.19-1.1 0-1.87-1.09-1.87-3.11Zm3.14-.05c0-1.52-.37-2.56-1.22-2.56-.72 0-1.23.96-1.23 2.56s.45 2.61 1.21 2.61c.9 0 1.24-1.17 1.24-2.61ZM8.27 47.71h-.64v-1.7H4.98v-.43l2.59-3.94h.7v3.85h.83v.52h-.83v1.7Zm-2.61-2.22h1.97v-2.16c0-.33.02-.66.03-.97h-.03c-.19.37-.33.63-.49.91l-1.48 2.2v.02ZM10.17 47.3c0-.31.2-.53.49-.53s.48.22.48.53-.19.51-.49.51-.48-.24-.48-.51ZM15.85 47.71h-3.59v-.41l.59-.62c1.44-1.46 2.17-2.34 2.17-3.33 0-.65-.28-1.25-1.16-1.25-.49 0-.92.27-1.21.5l-.23-.47c.37-.33.92-.59 1.57-.59 1.22 0 1.71.89 1.71 1.73 0 1.14-.8 2.11-2.06 3.38l-.48.5v.02h2.68v.55ZM18.25 44.49c-.66-.32-.95-.85-.95-1.37 0-.94.74-1.58 1.72-1.58 1.1 0 1.63.75 1.63 1.47 0 .52-.28 1.09-1 1.43v.03c.75.32 1.21.86 1.21 1.59 0 1.03-.84 1.73-1.91 1.73-1.16 0-1.87-.74-1.87-1.61 0-.79.47-1.35 1.17-1.67v-.03Zm1.92 1.65c0-.76-.51-1.15-1.31-1.41-.71.24-1.09.75-1.09 1.35 0 .69.46 1.21 1.19 1.21.78 0 1.21-.53 1.21-1.16Zm-2.23-3.09c0 .65.45 1 1.13 1.21.53-.2.92-.62.92-1.19 0-.51-.28-1.04-1-1.04s-1.05.49-1.05 1.02ZM22.07 47.3c0-.31.2-.53.49-.53s.48.22.48.53-.19.51-.49.51-.48-.24-.48-.51ZM26.72 47.71h-2.66v-.31l.44-.46c1.07-1.08 1.61-1.73 1.61-2.46 0-.48-.21-.92-.86-.92-.36 0-.68.2-.9.37l-.17-.35c.28-.25.68-.44 1.16-.44.91 0 1.27.66 1.27 1.28 0 .85-.59 1.57-1.52 2.5l-.35.37 1.98.01v.41ZM27.61 45.48c0-1.57.61-2.33 1.45-2.33s1.37.8 1.37 2.27c0 1.56-.55 2.36-1.44 2.36-.82 0-1.38-.8-1.38-2.3Zm2.32-.04c0-1.12-.27-1.9-.9-1.9-.53 0-.91.71-.91 1.9s.33 1.93.89 1.93c.67 0 .92-.86.92-1.93ZM33.93 47.71h-2.66v-.31l.44-.46c1.07-1.08 1.61-1.73 1.61-2.46 0-.48-.21-.92-.86-.92-.36 0-.68.2-.9.37l-.17-.35c.28-.25.68-.44 1.16-.44.91 0 1.27.66 1.27 1.28 0 .85-.59 1.57-1.52 2.5l-.35.37 1.98.01v.41ZM36.47 45.28c.53.09.98.52.98 1.16 0 .71-.52 1.34-1.52 1.34-.45 0-.86-.14-1.06-.29l.15-.38c.16.11.52.27.92.27.75 0 1-.53 1-.94 0-.66-.56-.96-1.15-.96h-.29v-.37h.29c.43 0 .99-.27.99-.83 0-.39-.23-.73-.77-.73-.33 0-.64.16-.82.29l-.15-.37c.22-.17.64-.34 1.07-.34.82 0 1.19.52 1.19 1.06 0 .46-.29.88-.82 1.06v.02ZM58.22 47.46h3.68v.55h-7.37v-.55h3.12V41l.74.05c0 .06-.06.1-.17.11v2.4h3.11v.55h-3.11v3.35ZM65.03 44.79l.12-.02.3.04s0 .12-.02.18c-.11 2.14-.2 2.89-.44 3.16-.18.21-.36.24-.92.24-.19 0-.41 0-.64-.02-.02-.16-.08-.38-.17-.53.45.04.85.04 1.03.04.11 0 .19-.02.24-.09.16-.17.27-.83.36-2.52h-1.31l-.05.34-.51-.08c.11-.63.24-1.66.29-2.43h1.56v-1.41h-1.88v-.51h2.41v2.67h-.53v-.25h-1.09l-.13 1.18h1.38Zm4.12 1.15c.58.68 1.17 1.6 1.38 2.22l-.49.25c-.06-.2-.17-.42-.3-.67-1.38.11-2.82.2-3.75.26 0 .06-.06.11-.12.11l-.2-.64.77-.02c.39-.46.81-1.02 1.22-1.61-.44-.47-1.17-1.08-1.79-1.5l.32-.39c.14.09.28.19.42.29.32-.47.67-1.07.92-1.58h-1.86v-.52h2.01v-1.28l.69.05c0 .06-.06.1-.16.11v1.13h2.26v.52h-2.33l.13.06s-.1.07-.18.07c-.28.51-.73 1.21-1.12 1.73.37.29.73.59.99.85.43-.64.83-1.29 1.13-1.86l.62.32s-.1.08-.19.08c-.64 1.05-1.61 2.46-2.48 3.5.75-.03 1.6-.07 2.44-.11-.23-.4-.52-.8-.8-1.15l.45-.22ZM.28 58.7c0-2.12.83-3.15 1.96-3.15s1.86 1.09 1.86 3.07c0 2.11-.74 3.19-1.95 3.19-1.1 0-1.87-1.09-1.87-3.11Zm3.14-.05c0-1.52-.37-2.56-1.22-2.56-.72 0-1.23.96-1.23 2.56s.45 2.61 1.21 2.61c.9 0 1.24-1.17 1.24-2.61ZM8.59 55.64v.56H6.41l-.25 1.72c.13-.02.26-.03.47-.03 1.08 0 2.04.64 2.04 1.86s-.89 2.06-2.09 2.06c-.61 0-1.12-.18-1.39-.36l.19-.53c.23.15.67.34 1.2.34.76 0 1.42-.56 1.41-1.43 0-.83-.54-1.42-1.67-1.42-.32 0-.58.02-.78.06l.38-2.83h2.67ZM10.17 61.3c0-.31.2-.53.49-.53s.48.22.48.53-.19.51-.49.51-.48-.24-.48-.51ZM12.18 58.7c0-2.12.83-3.15 1.96-3.15S16 56.64 16 58.62c0 2.11-.74 3.19-1.95 3.19-1.1 0-1.87-1.09-1.87-3.11Zm3.14-.05c0-1.52-.37-2.56-1.22-2.56-.72 0-1.23.96-1.23 2.56s.45 2.61 1.21 2.61c.9 0 1.24-1.17 1.24-2.61ZM17.75 58.49a1.7 1.7 0 0 1 1.42-.75c1.03 0 1.72.77 1.72 1.94s-.68 2.12-1.86 2.12-1.98-.98-1.98-2.55.76-3.33 2.73-3.65c.23-.03.43-.06.57-.06v.56c-1.68 0-2.48 1.22-2.62 2.39h.02Zm2.46 1.24c0-.93-.5-1.47-1.23-1.47s-1.26.7-1.26 1.15c0 1.11.48 1.87 1.32 1.87.7 0 1.17-.63 1.17-1.55ZM22.07 61.3c0-.31.2-.53.49-.53s.48.22.48.53-.19.51-.49.51-.48-.24-.48-.51ZM26.72 61.71h-2.66v-.31l.44-.46c1.07-1.08 1.61-1.73 1.61-2.46 0-.48-.21-.92-.86-.92-.36 0-.68.2-.9.37l-.17-.35c.28-.25.68-.44 1.16-.44.91 0 1.27.66 1.27 1.28 0 .85-.59 1.57-1.52 2.5l-.35.37 1.98.01v.41ZM27.61 59.48c0-1.57.61-2.33 1.45-2.33s1.37.8 1.37 2.27c0 1.56-.55 2.36-1.44 2.36-.82 0-1.38-.8-1.38-2.3Zm2.32-.04c0-1.12-.27-1.9-.9-1.9-.53 0-.91.71-.91 1.9s.33 1.93.89 1.93c.67 0 .92-.86.92-1.93ZM33.93 61.71h-2.66v-.31l.44-.46c1.07-1.08 1.61-1.73 1.61-2.46 0-.48-.21-.92-.86-.92-.36 0-.68.2-.9.37l-.17-.35c.28-.25.68-.44 1.16-.44.91 0 1.27.66 1.27 1.28 0 .85-.59 1.57-1.52 2.5l-.35.37 1.98.01v.41ZM36.47 59.28c.53.09.98.52.98 1.16 0 .71-.52 1.34-1.52 1.34-.45 0-.86-.14-1.06-.29l.15-.38c.16.11.52.27.92.27.75 0 1-.53 1-.94 0-.66-.56-.96-1.15-.96h-.29v-.37h.29c.43 0 .99-.27.99-.83 0-.39-.23-.73-.77-.73-.33 0-.64.16-.82.29l-.15-.37c.22-.17.64-.34 1.07-.34.82 0 1.19.52 1.19 1.06 0 .46-.29.88-.82 1.06v.02ZM55.88 58.44c-.63 0-.8-.21-.8-.82v-1.4h-.59v-.48h1.72v-.88l.67.05c0 .06-.05.09-.15.11v.72h1.64v.48h-2.78v1.41c0 .25.06.33.28.33h1.45c.18 0 .47 0 .62-.04.02.14.04.37.06.48-.12.03-.4.04-.66.04h-1.46Zm2.6 3.28h3.45v.47H54.5v-.47h3.43v-.77h-2.38v-.46h2.38v-.76h-2.75v-.47h6.13v.47h-2.83v.76h2.43v.46h-2.43v.77Zm3.19-6.54v.17c-.09 2.25-.17 3.01-.37 3.27-.17.2-.39.23-.74.23-.18 0-.38 0-.6-.02 0-.13-.06-.32-.13-.45.36.03.68.03.83.03.19 0 .29-.08.37-.79h-1.98c-.19.61-.5 1.09-.96 1.4-.08-.09-.24-.25-.37-.32.9-.61 1.13-1.86 1.14-3.53h2.54l.28.02Zm-2.4 1.41c-.03.22-.07.43-.11.62h1.9l.05-.62h-1.83Zm1.87-1h-1.79c0 .21-.02.41-.04.61h1.81l.02-.61ZM.28 72.7c0-2.12.83-3.15 1.96-3.15s1.86 1.09 1.86 3.07c0 2.11-.74 3.19-1.95 3.19-1.1 0-1.87-1.09-1.87-3.11Zm3.14-.05c0-1.52-.37-2.56-1.22-2.56-.72 0-1.23.96-1.23 2.56s.45 2.61 1.21 2.61c.9 0 1.24-1.17 1.24-2.61ZM8.59 69.64v.56H6.41l-.25 1.72c.13-.02.26-.03.47-.03 1.08 0 2.04.64 2.04 1.86s-.89 2.06-2.09 2.06c-.61 0-1.12-.18-1.39-.36l.19-.53c.23.15.67.34 1.2.34.76 0 1.42-.56 1.41-1.43 0-.83-.54-1.42-1.67-1.42-.32 0-.58.02-.78.06l.38-2.83h2.67ZM10.17 75.3c0-.31.2-.53.49-.53s.48.22.48.53-.19.51-.49.51-.48-.24-.48-.51ZM13.97 75.71v-5.44h-.02l-1 .58-.16-.5 1.26-.7h.58v6.07h-.66ZM20.71 75.71h-3.59v-.41l.59-.62c1.44-1.46 2.17-2.34 2.17-3.33 0-.65-.28-1.25-1.16-1.25-.49 0-.92.27-1.21.5l-.23-.47c.37-.33.92-.59 1.57-.59 1.22 0 1.71.89 1.71 1.73 0 1.14-.8 2.11-2.06 3.38l-.48.5v.02h2.68v.55ZM22.07 75.3c0-.31.2-.53.49-.53s.48.22.48.53-.19.51-.49.51-.48-.24-.48-.51ZM26.72 75.71h-2.66v-.31l.44-.46c1.07-1.08 1.61-1.73 1.61-2.46 0-.48-.21-.92-.86-.92-.36 0-.68.2-.9.37l-.17-.35c.28-.25.68-.44 1.16-.44.91 0 1.27.66 1.27 1.28 0 .85-.59 1.57-1.52 2.5l-.35.37 1.98.01v.41ZM27.61 73.48c0-1.57.61-2.33 1.45-2.33s1.37.8 1.37 2.27c0 1.56-.55 2.36-1.44 2.36-.82 0-1.38-.8-1.38-2.3Zm2.32-.04c0-1.12-.27-1.9-.9-1.9-.53 0-.91.71-.91 1.9s.33 1.93.89 1.93c.67 0 .92-.86.92-1.93ZM33.93 75.71h-2.66v-.31l.44-.46c1.07-1.08 1.61-1.73 1.61-2.46 0-.48-.21-.92-.86-.92-.36 0-.68.2-.9.37l-.17-.35c.28-.25.68-.44 1.16-.44.91 0 1.27.66 1.27 1.28 0 .85-.59 1.57-1.52 2.5l-.35.37 1.98.01v.41ZM36.47 73.28c.53.09.98.52.98 1.16 0 .71-.52 1.34-1.52 1.34-.45 0-.86-.14-1.06-.29l.15-.38c.16.11.52.27.92.27.75 0 1-.53 1-.94 0-.66-.56-.96-1.15-.96h-.29v-.37h.29c.43 0 .99-.27.99-.83 0-.39-.23-.73-.77-.73-.33 0-.64.16-.82.29l-.15-.37c.22-.17.64-.34 1.07-.34.82 0 1.19.52 1.19 1.06 0 .46-.29.88-.82 1.06v.02ZM61.87 70.02h-3.44l-.09.02v1.41l.04-.05c1.03.5 2.36 1.26 3.03 1.77l-.38.49c-.58-.47-1.72-1.16-2.69-1.68v4.4h-.58v-6.37h-3.2v-.54h7.3v.54ZM65.03 72.79l.12-.02.3.04s0 .12-.02.18c-.11 2.14-.2 2.89-.44 3.16-.18.21-.36.24-.92.24-.19 0-.41 0-.64-.02-.02-.16-.08-.38-.17-.53.45.04.85.04 1.03.04.11 0 .19-.02.24-.09.16-.17.27-.83.36-2.52h-1.31l-.05.34-.51-.08c.11-.63.24-1.66.29-2.43h1.56v-1.41h-1.88v-.51h2.41v2.67h-.53v-.25h-1.09l-.13 1.18h1.38Zm4.12 1.15c.58.68 1.17 1.6 1.38 2.22l-.49.25c-.06-.2-.17-.42-.3-.67-1.38.11-2.82.2-3.75.26 0 .06-.06.11-.12.11l-.2-.64.77-.02c.39-.46.81-1.02 1.22-1.61-.44-.47-1.17-1.08-1.79-1.5l.32-.39c.14.09.28.19.42.29.32-.47.67-1.07.92-1.58h-1.86v-.52h2.01v-1.28l.69.05c0 .06-.06.1-.16.11v1.13h2.26v.52h-2.33l.13.06s-.1.07-.18.07c-.28.51-.73 1.21-1.12 1.73.37.29.73.59.99.85.43-.64.83-1.29 1.13-1.86l.62.32s-.1.08-.19.08c-.64 1.05-1.61 2.46-2.48 3.5.75-.03 1.6-.07 2.44-.11-.23-.4-.52-.8-.8-1.15l.45-.22Z" class="cls-1"/><path d="M51.83 31.22c0 1.5-1.21 2.71-2.71 2.71s-2.71-1.21-2.71-2.71 1.21-2.71 2.71-2.71 2.71 1.21 2.71 2.71Z" class="cls-3"/><path d="M51.83 59.14c0 1.5-1.21 2.71-2.71 2.71s-2.71-1.21-2.71-2.71 1.21-2.71 2.71-2.71 2.71 1.21 2.71 2.71ZM49.12 42.47c1.5 0 2.71 1.21 2.71 2.71s-1.21 2.71-2.71 2.71" class="cls-2"/><path d="M49.12 42.47c-1.5 0-2.71 1.21-2.71 2.71s1.21 2.71 2.71 2.71" class="cls-3"/><path d="M49.12 75.82c-1.5 0-2.71-1.21-2.71-2.71s1.21-2.71 2.71-2.71" class="cls-2"/><path d="M49.12 75.82c1.5 0 2.71-1.21 2.71-2.71s-1.21-2.71-2.71-2.71" class="cls-3"/><path d="M78.64 37.88v1.09h1.72v.26h-3.7v-.26h1.68v-1.09h-1.49v-.26h1.49v-.6h-.92v-.24c-.23.18-.48.34-.72.49-.04-.06-.12-.17-.18-.23.75-.4 1.48-1.08 1.81-1.65l.42.03s-.04.06-.08.06c.41.57 1.18 1.19 1.84 1.51a1.5 1.5 0 0 0-.19.25c-.66-.37-1.43-.99-1.83-1.55-.23.34-.6.73-1.04 1.08h2.14v.26h-.95v.6h1.52v.26h-1.52Zm-1 1.02c-.06-.22-.23-.55-.4-.8l.23-.09c.18.24.36.57.42.79l-.25.11Zm2.19-.77s-.05.04-.09.03c-.12.22-.33.54-.49.74l-.21-.11c.16-.21.37-.56.48-.81l.32.14ZM82.28 38.11l.03.25c-.47.12-.96.25-1.27.33 0 .03-.03.06-.06.07l-.11-.32c.17-.03.37-.08.6-.13v-1.08h-.49v-.26h.49v-.99h-.54v-.26h1.36v.26h-.55v.99h.47v.26h-.47v1.02l.55-.13Zm1.38 0c.07.16.17.31.28.44.2-.11.46-.28.6-.39l.25.19s-.03.02-.05.02h-.03c-.16.1-.43.24-.63.33.22.2.48.37.78.46-.06.06-.15.16-.19.23-.54-.19-.96-.61-1.2-1.13-.03.03-.06.05-.09.08v1.04h-.27v-.83c-.33.24-.7.43-1.03.56-.04-.06-.12-.15-.17-.21.47-.15 1.03-.46 1.39-.79h-.77v-.91h1.99v.91h-.86Zm-1.44-1.41h2.66v.24h-2.66v-.24Zm2.43-1.13v.88h-2.23v-.88h2.23Zm-1.56.66v-.45h-.43v.45h.43Zm-.29 1.2v.44h1.46v-.44H82.8Zm.95-1.2v-.45h-.44v.45h.44Zm.66 0v-.45h-.45v.45h.45ZM86.07 36.91c.35-.05.74-.1 1.13-.15v.23c-.63.11-1.3.21-1.72.27 0 .03-.03.06-.06.06l-.11-.32.48-.06v-1.53l.36.02s-.03.05-.08.06v.45h1.05v.25h-1.05v.71Zm.79.65c.07-.14.15-.31.19-.44l.35.1s-.04.04-.09.04c-.04.08-.09.2-.15.3h1.47v1.82h-.29v-.16h-2.12v.16h-.28v-1.82h.92Zm1.48.7v-.46h-2.12v.46h2.12Zm-2.12.71h2.12v-.48h-2.12v.48Zm1.48-2.17c0 .14.04.16.25.16h.76c.17 0 .2-.06.22-.44.06.04.17.09.26.1-.04.47-.12.59-.45.59h-.8c-.4 0-.51-.08-.51-.41v-1.39l.36.02s-.03.05-.08.06v.63c.4-.12.83-.27 1.08-.41l.23.23s-.02.01-.09.01c-.29.14-.78.29-1.23.41v.43ZM90.77 37.67c.26.32.53.75.64 1.04l-.26.12c-.03-.09-.08-.2-.14-.32-.49.16-.99.32-1.31.41 0 .04-.03.06-.06.07l-.13-.32c.08-.02.18-.05.29-.08v-3.01h1.4v1.8h-1.12v1.12c.25-.07.53-.15.8-.24-.11-.18-.23-.36-.35-.51l.24-.11Zm.15-1.81h-.84v.51h.84v-.51Zm-.84 1.28h.84v-.52h-.84v.52Zm2.6 1.8c0 .11.02.12.12.12h.32c.1 0 .12-.08.13-.63.06.05.17.09.25.11-.02.62-.09.78-.35.78h-.38c-.28 0-.35-.08-.35-.38v-.8c-.3.54-.73.95-1.34 1.24-.05-.05-.14-.15-.21-.2.83-.36 1.3-.96 1.58-1.81h-1.11v-.27h.38v-1.23h-.29v-.27h1.99v.27h-.38c-.05.45-.12.86-.21 1.23h.67v.27h-.75c-.03.09-.06.19-.09.28h.13s-.03.05-.08.06v1.23Zm-.7-1.84h.54c.1-.37.17-.77.22-1.23h-.75v1.23ZM94.29 35.69h2.76v3.58h-.3v-.26h-2.17v.28h-.29v-3.61Zm2.46.29h-2.17v1.22h2.17v-1.22Zm-2.17 2.75h2.17v-1.25h-2.17v1.25ZM100.03 35.42s-.04.05-.09.06c.42.49 1.19 1.01 1.84 1.27-.06.07-.13.17-.18.25-.66-.3-1.43-.83-1.85-1.32-.37.46-1.08 1-1.81 1.35-.04-.06-.11-.17-.17-.23.74-.33 1.48-.9 1.83-1.4l.42.02Zm-.17 2.7c.11.17.24.31.4.44.33-.18.75-.44 1-.64l.26.2s-.05.03-.09.02c-.25.17-.63.4-.95.56.34.21.77.34 1.26.42-.06.06-.14.17-.18.25-.92-.17-1.62-.57-1.99-1.25h-.68V39c.35-.03.74-.07 1.12-.1v.24c-.65.07-1.35.14-1.77.18 0 .03-.03.06-.06.06l-.11-.32.54-.05v-2.35h1.01v-.52l.37.02s-.03.05-.08.06v.44h1.05v1.46h-1.1Zm.81-1.22h-1.78v.38h1.78v-.38Zm-1.78.6v.39h1.78v-.39h-1.78Z" class="cls-1"/></g></svg>