<svg xmlns="http://www.w3.org/2000/svg" id="_レイヤー_2" viewBox="0 0 108.64 80.56"><defs><style>.cls-1,.cls-2{fill:#fff}.cls-3{fill:none}.cls-2,.cls-3{stroke:#fff;stroke-width:.5px}</style></defs><g id="text_solar"><path d="M1.88.26h.33l1.16 3.49h-.33l-.31-.96H1.34l-.32.96H.71L1.88.26ZM1.43 2.5h1.21L2.05.59 1.44 2.5ZM3.94 1.99c0-.27-.02-.53-.02-.79h.27c0 .15.01.3.02.41.19-.37.4-.44.68-.44v.31c-.46 0-.67.2-.67.67v1.61h-.29V2ZM5.28 2.48c0-.64.21-1.31.96-1.31s.96.67.96 1.31-.21 1.31-.96 1.31-.96-.67-.96-1.31Zm1.6 0c0-.21 0-1.04-.65-1.04s-.65.84-.65 1.04 0 1.04.65 1.04.65-.84.65-1.04ZM9.48 2.96c0 .27.02.53.02.79h-.27c0-.12-.01-.19-.02-.38H9.2c-.03.11-.22.41-.65.41-.56 0-.71-.4-.71-.81V1.19h.29v1.72c0 .18 0 .6.48.6.35 0 .58-.33.58-.73V1.19h.29v1.76ZM10.25 1.99c0-.27-.01-.53-.02-.79h.27c0 .12.01.19.02.38h.01c.06-.11.22-.41.65-.41.71 0 .71.71.71.88v1.71h-.29V2.04c0-.17 0-.6-.48-.6-.36 0-.58.34-.58.73v1.59h-.29V2ZM14.33 2.91c0 .4 0 .63.02.85h-.27v-.35h-.01c-.19.24-.35.39-.67.39-.83 0-.86-1.05-.86-1.41 0-.49.21-1.22.85-1.22.33 0 .52.13.65.37h.01V0h.29v2.91Zm-.9.61c.5 0 .63-.49.63-1.01 0-.34 0-1.07-.62-1.07-.44 0-.59.45-.59 1.04 0 .21 0 1.04.58 1.04ZM16.15 3.26c.24.21.53.24.62.24.56 0 .63-.5.63-.63 0-.41-.24-.57-.66-.85-.49-.33-.63-.55-.63-.95 0-.78.71-.85.91-.85.28 0 .47.08.55.11l-.02.35A.968.968 0 0 0 17 .51c-.2 0-.56.11-.56.51 0 .35.18.48.48.7.62.46.81.62.81 1.1 0 .58-.4.97-.94.97-.22 0-.48-.05-.66-.17l.02-.36ZM20.03 2.96c0 .27.02.53.02.79h-.27c0-.12-.01-.19-.02-.38h-.01c-.03.11-.22.41-.65.41-.56 0-.71-.4-.71-.81V1.19h.29v1.72c0 .18 0 .6.48.6.35 0 .58-.33.58-.73V1.19h.29v1.76ZM20.81 1.99c0-.27-.01-.53-.02-.79h.27c0 .12.01.19.02.38h.01c.08-.19.26-.41.59-.41.42 0 .53.27.59.41.08-.12.27-.41.64-.41.52 0 .66.43.66.83v1.76h-.29V2.04c0-.17 0-.6-.42-.6-.36 0-.53.32-.53.68v1.64h-.29V1.98c0-.33-.14-.54-.38-.54-.33 0-.56.34-.56.73v1.59h-.29V2ZM24.33 1.99c0-.27-.02-.53-.02-.79h.27c0 .12.01.19.02.38.08-.19.27-.41.59-.41.42 0 .53.27.59.41.08-.12.26-.41.64-.41.52 0 .66.43.66.83v1.76h-.29V2.04c0-.17 0-.6-.42-.6-.36 0-.53.32-.53.68v1.64h-.29V1.98c0-.33-.14-.54-.38-.54-.33 0-.56.34-.56.73v1.59h-.29V2ZM28.04 2.57c0 .95.61.95.72.95.17 0 .41-.08.55-.21v.33c-.11.07-.28.15-.58.15-1 0-1-1.06-1-1.31 0-.96.48-1.31.91-1.31.74 0 .82.79.82 1.41h-1.41Zm1.1-.27c0-.68-.29-.87-.52-.87-.39 0-.58.54-.58.87h1.1ZM30.09 1.99c0-.27-.02-.53-.02-.79h.27c0 .15.01.3.02.41.19-.37.4-.44.68-.44v.31c-.46 0-.67.2-.67.67v1.61h-.29V2ZM32.64 3.26c.24.21.53.24.62.24.56 0 .63-.5.63-.63 0-.41-.24-.57-.66-.85-.49-.33-.63-.55-.63-.95 0-.78.71-.85.91-.85.28 0 .47.08.55.11v.35c-.15-.08-.31-.17-.57-.17-.2 0-.56.11-.56.51 0 .35.18.48.48.7.62.46.81.62.81 1.1 0 .58-.4.97-.94.97-.21 0-.48-.05-.66-.17l.02-.36ZM34.81 2.48c0-.64.21-1.31.96-1.31s.96.67.96 1.31-.21 1.31-.96 1.31-.96-.67-.96-1.31Zm1.6 0c0-.21 0-1.04-.65-1.04s-.65.84-.65 1.04 0 1.04.65 1.04.65-.84.65-1.04ZM37.4 0h.29v3.75h-.29V0ZM39.52 1.54c-.15-.06-.27-.11-.44-.11-.3 0-.44.23-.44.41 0 .24.09.29.44.48s.62.32.62.73c0 .46-.33.74-.76.74-.32 0-.5-.07-.65-.12l.04-.33c.08.06.34.17.58.17.28 0 .47-.21.47-.44 0-.25-.16-.34-.46-.5-.43-.22-.6-.35-.6-.71 0-.48.41-.71.75-.71.17 0 .38.05.47.08l-.04.3ZM40.77.6v.6h.52v.27h-.52v1.66c0 .21.04.38.28.38.13 0 .19-.03.24-.05v.29c-.07.03-.2.04-.33.04-.38 0-.48-.29-.48-.58V1.47h-.38V1.2h.38V.69l.29-.09ZM41.83.19h.35v.45h-.35V.19Zm.03 1.02h.29v2.55h-.29V1.2ZM44.32 1.59c-.12-.1-.31-.13-.46-.13-.39 0-.75.27-.75.95 0 .94.52 1.1.79 1.1.12 0 .34-.04.43-.14l.03.33c-.12.05-.32.09-.5.09-.55 0-1.06-.42-1.06-1.3 0-.78.35-1.32 1.06-1.32.21 0 .35.04.47.09v.33ZM45.06 2.57c0 .95.61.95.72.95.17 0 .41-.08.55-.21v.33c-.11.07-.28.15-.58.15-1 0-1-1.06-1-1.31 0-.96.48-1.31.91-1.31.74 0 .82.79.82 1.41h-1.41Zm1.1-.27c0-.68-.29-.87-.52-.87-.4 0-.58.54-.58.87h1.1ZM3.57 7.24c-.29-.15-.66-.25-1.02-.25s-.82.14-.82.56c0 .78 1.67.73 1.67 2.09 0 1.2-.94 1.63-2.01 1.63-.47 0-.95-.11-1.39-.27l.25-.83c.38.17.78.34 1.2.34.47 0 .93-.24.93-.76 0-.88-1.67-.74-1.67-2.04 0-1.03.88-1.48 1.82-1.48.43 0 .87.06 1.27.22l-.23.8ZM6.39 10.63h-.01c-.32.41-.64.64-1.16.64-.65 0-1.11-.36-1.11-1.03 0-1.19 1.33-1.28 2.21-1.28h.33c.03-.1.03-.2.03-.31 0-.36-.39-.47-.72-.47-.41 0-.81.11-1.18.28l.13-.75c.4-.14.81-.22 1.23-.22.72 0 1.4.27 1.4 1.11 0 .48-.36 1.9-.44 2.58h-.79l.1-.55Zm-.92-.05c.7 0 .92-.48 1.06-1.06H6.2c-.46 0-1.21.08-1.21.69 0 .25.24.38.48.38ZM8.4 7.58h.68l.16-.74 1.01-.33-.23 1.07h.84l-.15.69h-.84l-.34 1.58c-.02.08-.04.21-.04.35 0 .22.15.35.36.35.17 0 .34-.03.46-.08l-.16.73c-.16.04-.34.08-.5.08-.64 0-1.09-.25-1.09-.95 0-.28.06-.55.12-.84l.27-1.22h-.68l.15-.69ZM13.68 8.35c-.25-.09-.5-.17-.77-.17-.28 0-.63.08-.63.36 0 .46 1.22.62 1.22 1.51 0 .94-.82 1.22-1.62 1.22-.38 0-.76-.06-1.1-.22l.2-.75c.27.15.53.28.9.28.31 0 .64-.11.64-.4 0-.58-1.22-.64-1.22-1.54 0-.85.82-1.15 1.56-1.15.34 0 .69.06 1.02.15l-.2.71ZM17.51 10.67c-.04.22-.08.41-.09.52h-.92l.06-.35h-.01c-.26.24-.62.43-1.02.43-.71 0-1.18-.44-1.18-1.16 0-.27.07-.56.12-.79l.38-1.75h.94l-.35 1.7c-.05.25-.11.49-.11.76 0 .3.21.5.51.5.65 0 .89-.61 1.01-1.15l.38-1.81h.94l-.67 3.09ZM19.65 5.93h.94l-.62 2.96h.01l1.31-1.31h1.22l-1.73 1.65 1.08 1.96H20.8l-.93-1.91h-.01l-.41 1.91h-.92l1.11-5.25ZM23.3 7.58h.94l-.77 3.61h-.94l.77-3.61Zm.34-1.55h.94l-.2.9h-.94l.2-.9ZM30.2 6.3h.67l1.36 4.24h.01L33.6 6.3h.67v4.89h-.41V6.71h-.01l-1.44 4.48h-.33l-1.45-4.48h-.01v4.48h-.41V6.3ZM35.39 6.19h.49v.63h-.49v-.63Zm.04 1.42h.41v3.57h-.41V7.61ZM39.24 10c0 .56.01.88.03 1.18h-.38v-.49h-.01c-.27.34-.49.54-.94.54-1.16 0-1.21-1.47-1.21-1.97 0-.68.29-1.7 1.18-1.7.46 0 .72.18.9.51h.01V5.93h.41V10Zm-1.26.85c.69 0 .88-.69.88-1.42 0-.48 0-1.5-.88-1.5-.61 0-.82.63-.82 1.46 0 .29 0 1.46.81 1.46ZM41.75 8.09c-.2-.08-.38-.15-.61-.15-.42 0-.61.32-.61.57 0 .33.13.4.61.66.49.27.87.45.87 1.02 0 .64-.46 1.04-1.06 1.04-.44 0-.69-.09-.9-.17l.06-.46c.12.08.48.25.81.25.38 0 .66-.29.66-.62 0-.34-.22-.48-.64-.69-.6-.3-.84-.49-.84-1 0-.67.57-.99 1.05-.99.24 0 .53.06.66.1l-.06.42ZM45.11 10.08c0 .37.02.74.03 1.11h-.38c-.01-.16-.02-.27-.03-.53h-.01c-.04.15-.31.57-.91.57-.78 0-.99-.56-.99-1.13V7.61h.41v2.41c0 .25 0 .83.67.83.5 0 .81-.47.81-1.02V7.61h.41v2.46ZM46.16 8.72c0-.37-.02-.73-.03-1.11h.38c.01.16.02.27.03.52h.01c.11-.26.37-.57.83-.57.59 0 .74.37.82.57.1-.17.37-.57.89-.57.72 0 .92.6.92 1.16v2.46h-.41V8.77c0-.25 0-.83-.58-.83-.5 0-.74.45-.74.95v2.29h-.41V8.69c0-.46-.2-.76-.54-.76-.46 0-.78.47-.78 1.02v2.22h-.41V8.7ZM51.06 8.72c0-.37-.02-.73-.03-1.11h.38c.01.16.02.27.03.52h.01c.11-.26.37-.57.83-.57.59 0 .74.37.82.57.1-.17.37-.57.89-.57.72 0 .92.6.92 1.16v2.46h-.41V8.77c0-.25 0-.83-.58-.83-.5 0-.74.45-.74.95v2.29h-.41V8.69c0-.46-.2-.76-.54-.76-.46 0-.78.47-.78 1.02v2.22h-.41V8.7ZM56.22 9.53c0 1.32.85 1.32 1.01 1.32.23 0 .57-.11.77-.29l.02.47c-.17.09-.41.2-.83.2-1.4 0-1.4-1.48-1.4-1.83 0-1.34.67-1.83 1.27-1.83 1.04 0 1.14 1.1 1.14 1.97h-1.97Zm1.54-.38c0-.95-.4-1.21-.73-1.21-.55 0-.81.75-.81 1.21h1.54ZM59.06 8.72c0-.37-.02-.73-.03-1.11h.38c0 .21.02.42.03.57h.01c.26-.51.56-.62.95-.62v.43c-.64 0-.94.28-.94.94v2.25h-.41V8.71ZM76.38 32.78h.56l2.05 4.34H79v-4.34h.41v4.89h-.56l-2.05-4.31h-.01v4.31h-.41v-4.89ZM80.83 36.01c0 1.32.85 1.32 1.01 1.32.23 0 .57-.11.77-.29l.02.47c-.17.09-.41.2-.83.2-1.4 0-1.4-1.48-1.4-1.83 0-1.34.67-1.83 1.27-1.83 1.04 0 1.14 1.1 1.14 1.97h-1.97Zm1.54-.38c0-.95-.4-1.21-.73-1.21-.55 0-.81.75-.81 1.21h1.54ZM83.29 34.09h.43l.75 3.14h.01l.72-3.14h.52l.78 3.14h.01l.74-3.14h.41l-.93 3.57h-.5l-.77-3.11h-.01l-.73 3.11h-.48l-.96-3.57ZM89.99 32.78h.67l1.36 4.24h.01l1.36-4.24h.67v4.89h-.41v-4.48h-.01l-1.44 4.48h-.33l-1.45-4.48h-.01v4.48H90v-4.89ZM95.04 35.88c0-.9.29-1.83 1.34-1.83s1.34.94 1.34 1.83-.29 1.83-1.34 1.83-1.34-.94-1.34-1.83Zm2.24 0c0-.29 0-1.46-.9-1.46s-.9 1.17-.9 1.46 0 1.46.9 1.46.9-1.17.9-1.46ZM98.44 35.88c0-.9.29-1.83 1.34-1.83s1.34.94 1.34 1.83-.29 1.83-1.34 1.83-1.34-.94-1.34-1.83Zm2.24 0c0-.29 0-1.46-.9-1.46s-.9 1.17-.9 1.46 0 1.46.9 1.46.9-1.17.9-1.46ZM102 35.2c0-.37-.02-.74-.03-1.11h.38c.01.16.02.27.03.53h.01c.08-.15.32-.57.91-.57.99 0 .99.99.99 1.23v2.4h-.41v-2.41c0-.25 0-.83-.67-.83-.5 0-.81.47-.81 1.02v2.22h-.41v-2.46ZM76.38 46.78h2v.41h-1.56v1.74h1.49v.41h-1.49v2.34h-.43v-4.89ZM79.24 46.67h.49v.63h-.49v-.63Zm.04 1.42h.41v3.57h-.41v-3.57ZM80.76 49.2c0-.37-.02-.74-.03-1.11h.38c0 .21.02.42.03.57h.01c.26-.51.56-.62.95-.62v.44c-.64 0-.94.28-.94.94v2.25h-.41v-2.46ZM84.36 48.57c-.2-.08-.38-.15-.61-.15-.42 0-.61.31-.61.57 0 .33.13.4.61.67.49.27.87.45.87 1.02 0 .64-.46 1.04-1.06 1.04-.44 0-.69-.09-.9-.17l.06-.46c.12.08.48.25.81.25.38 0 .66-.29.66-.62 0-.34-.22-.48-.64-.69-.6-.3-.84-.49-.84-.99 0-.67.57-.99 1.05-.99.24 0 .53.06.66.11l-.06.42ZM86.08 47.25v.84h.73v.38h-.73v2.33c0 .29.05.54.39.54.19 0 .26-.04.34-.08v.41c-.1.04-.28.05-.47.05-.52 0-.67-.41-.67-.8v-2.44h-.53v-.38h.53v-.71l.41-.13ZM91.77 52.56l-.79-.88s-.13.03-.26.03C89 51.71 89 49.64 89 49.22s0-2.49 1.72-2.49 1.72 2.07 1.72 2.49c0 .36 0 1.89-1.04 2.35l.91.99h-.55Zm-1.04-1.25c1.26 0 1.26-1.7 1.26-2.09s0-2.09-1.26-2.09-1.26 1.7-1.26 2.09 0 2.09 1.26 2.09ZM95.72 50.56c0 .37.02.73.03 1.11h-.38c-.01-.16-.02-.27-.03-.53h-.01c-.04.15-.31.57-.91.57-.78 0-.99-.56-.99-1.13v-2.49h.41v2.41c0 .24 0 .83.67.83.5 0 .81-.47.81-1.02v-2.22h.41v2.47ZM98.91 50.87c0 .27.02.53.04.8h-.36l-.03-.51h-.01c-.25.39-.54.56-1 .56-.55 0-.99-.46-.99-1.04 0-1.14 1.21-1.16 1.72-1.16h.26c0-.45 0-1.09-.74-1.09-.48 0-.85.34-.9.37l-.06-.43c.34-.18.59-.32.98-.32 1.1 0 1.1.93 1.1 1.18v1.64Zm-.38-1c-.84 0-1.55 0-1.55.81 0 .3.22.66.66.66.19 0 .89-.08.89-1.05v-.42ZM99.95 49.2c0-.37-.02-.74-.03-1.11h.38c0 .21.02.42.03.57h.01c.26-.51.56-.62.95-.62v.44c-.64 0-.94.28-.94.94v2.25h-.41v-2.46ZM102.78 47.25v.84h.73v.38h-.73v2.33c0 .29.05.54.39.54.19 0 .26-.04.34-.08v.41c-.1.04-.28.05-.47.05-.52 0-.67-.41-.67-.8v-2.44h-.53v-.38h.53v-.71l.41-.13ZM104.45 50.01c0 1.32.85 1.32 1.01 1.32.23 0 .57-.11.77-.29l.02.47c-.17.09-.41.2-.83.2-1.4 0-1.4-1.48-1.4-1.83 0-1.35.67-1.84 1.27-1.84 1.04 0 1.14 1.1 1.14 1.97h-1.97Zm1.54-.38c0-.95-.4-1.21-.73-1.21-.55 0-.81.75-.81 1.21h1.54ZM107.29 49.2c0-.37-.02-.74-.03-1.11h.38c0 .21.02.42.03.57h.01c.26-.51.56-.62.95-.62v.44c-.64 0-.94.28-.94.94v2.25h-.41v-2.46ZM76.38 60.78h2v.41h-1.56v1.74h1.49v.41h-1.49v2.34h-.43v-4.89ZM81.5 64.56c0 .37.02.73.03 1.11h-.38c-.01-.16-.02-.27-.03-.53h-.01c-.04.15-.31.57-.91.57-.78 0-.99-.56-.99-1.13v-2.49h.41v2.41c0 .24 0 .83.67.83.5 0 .81-.47.81-1.02v-2.22h.41v2.47ZM82.57 60.41h.41v5.25h-.41v-5.25ZM84.06 60.41h.41v5.25h-.41v-5.25ZM87.21 60.78h.67l1.36 4.24h.01l1.36-4.24h.67v4.89h-.41v-4.48h-.01l-1.44 4.48h-.33l-1.45-4.48h-.01v4.48h-.41v-4.89ZM92.26 63.88c0-.9.29-1.84 1.34-1.84s1.34.94 1.34 1.84-.29 1.83-1.34 1.83-1.34-.94-1.34-1.83Zm2.24 0c0-.29 0-1.46-.9-1.46s-.9 1.17-.9 1.46 0 1.46.9 1.46.9-1.17.9-1.46ZM95.66 63.88c0-.9.29-1.84 1.34-1.84s1.34.94 1.34 1.84-.29 1.83-1.34 1.83-1.34-.94-1.34-1.83Zm2.24 0c0-.29 0-1.46-.9-1.46s-.9 1.17-.9 1.46 0 1.46.9 1.46.9-1.17.9-1.46ZM99.22 63.2c0-.37-.02-.74-.03-1.11h.38c.01.16.02.27.03.53h.01c.08-.15.32-.57.91-.57.99 0 .99.99.99 1.23v2.39h-.41v-2.41c0-.25 0-.83-.67-.83-.5 0-.81.47-.81 1.02v2.22h-.41v-2.46ZM76.38 74.78h.43v4.48h1.59v.41h-2.02v-4.89ZM81.39 78.87c0 .27.02.53.04.8h-.36l-.03-.51h-.01c-.25.39-.54.56-1 .56-.55 0-.99-.46-.99-1.04 0-1.14 1.21-1.16 1.72-1.16h.26c0-.45 0-1.09-.74-1.09-.48 0-.85.34-.9.37l-.06-.43c.34-.18.59-.32.98-.32 1.1 0 1.1.93 1.1 1.18v1.64Zm-.38-1c-.84 0-1.55 0-1.55.81 0 .3.22.66.66.66.19 0 .89-.08.89-1.05v-.42ZM83.92 76.57c-.2-.08-.38-.15-.61-.15-.42 0-.61.31-.61.57 0 .33.13.4.61.67.49.27.87.45.87 1.02 0 .64-.46 1.04-1.06 1.04-.44 0-.69-.09-.9-.17l.06-.46c.12.08.48.25.81.25.38 0 .66-.29.66-.62 0-.34-.22-.48-.64-.69-.6-.3-.84-.49-.84-.99 0-.67.57-.99 1.05-.99.24 0 .53.06.66.11l-.06.42ZM85.64 75.25v.84h.73v.38h-.73v2.33c0 .29.05.54.39.54.19 0 .26-.04.34-.08v.41c-.1.04-.28.05-.47.05-.52 0-.67-.41-.67-.8v-2.44h-.53v-.38h.53v-.71l.41-.13ZM91.33 80.56l-.79-.88s-.13.03-.26.03c-1.72 0-1.72-2.07-1.72-2.49s0-2.49 1.72-2.49S92 76.8 92 77.22c0 .36 0 1.89-1.04 2.35l.91.99h-.55Zm-1.04-1.25c1.26 0 1.26-1.7 1.26-2.09s0-2.09-1.26-2.09-1.26 1.7-1.26 2.09 0 2.09 1.26 2.09ZM95.28 78.56c0 .37.02.73.03 1.11h-.38c-.01-.16-.02-.27-.03-.53h-.01c-.04.15-.31.57-.91.57-.78 0-.99-.56-.99-1.13v-2.49h.41v2.41c0 .24 0 .83.67.83.5 0 .81-.47.81-1.02v-2.22h.41v2.47ZM98.47 78.87c0 .27.02.53.04.8h-.36l-.03-.51h-.01c-.25.39-.54.56-1 .56-.55 0-.99-.46-.99-1.04 0-1.14 1.21-1.16 1.72-1.16h.26c0-.45 0-1.09-.74-1.09-.48 0-.85.34-.9.37l-.06-.43c.34-.18.59-.32.98-.32 1.1 0 1.1.93 1.1 1.18v1.64Zm-.38-1c-.84 0-1.55 0-1.55.81 0 .3.22.66.66.66.19 0 .89-.08.89-1.05v-.42ZM99.51 77.2c0-.37-.02-.74-.03-1.11h.38c0 .21.02.42.03.57h.01c.26-.51.56-.62.95-.62v.44c-.64 0-.94.28-.94.94v2.25h-.41v-2.46ZM102.34 75.25v.84h.73v.38h-.73v2.33c0 .29.05.54.39.54.19 0 .26-.04.34-.08v.41c-.1.04-.28.05-.47.05-.52 0-.67-.41-.67-.8v-2.44h-.53v-.38h.53v-.71l.41-.13ZM104.01 78.01c0 1.32.85 1.32 1.01 1.32.23 0 .57-.11.77-.29l.02.47c-.17.09-.41.2-.83.2-1.4 0-1.4-1.48-1.4-1.83 0-1.35.67-1.84 1.27-1.84 1.04 0 1.14 1.1 1.14 1.97h-1.97Zm1.54-.38c0-.95-.4-1.21-.73-1.21-.55 0-.81.75-.81 1.21h1.54ZM106.85 77.2c0-.37-.02-.74-.03-1.11h.38c0 .21.02.42.03.57h.01c.26-.51.56-.62.95-.62v.44c-.64 0-.94.28-.94.94v2.25h-.41v-2.46ZM6.2 22.41h1.28v.96H.18v-.96h1.74c.15-.66.32-1.42.48-2.2H.92v-.96h1.67c.09-.48.17-.96.23-1.42H.61v-.96h6.47v.96H3.92c-.08.46-.17.94-.26 1.42H6.2v3.17Zm-1.01-2.2H3.47c-.15.79-.32 1.56-.46 2.2h2.18v-2.2ZM14.84 16.51v6.04c0 1.09-.51 1.22-2.33 1.22-.06-.28-.25-.76-.41-1.02.38.02.81.02 1.11.02.53 0 .59 0 .59-.23v-1.26h-3.42c-.23.94-.67 1.86-1.52 2.51-.15-.2-.53-.58-.74-.72 1.37-1.04 1.48-2.61 1.48-3.86v-2.69h5.23Zm-4.23 2.85c0 .31-.02.63-.06.97h3.26v-.97h-3.2Zm3.2-1.9h-3.2v.98h3.2v-.98ZM18.98 23.39h-.81l2.13-6.69h.81l-2.13 6.69ZM31.28 21.85v.8h-3.27v1.12h-.98v-1.12h-3.18v-.8h3.18v-2.19l1.2.06c0 .08-.06.13-.22.15v1.97h3.27Zm-4.63-.98v.65h-2.33v-.65h2.33Zm0-.97v.65h-2.29v-.65h2.29Zm3.78-3.16v2.84h-5.74v-2.84h2.11c.08-.23.15-.47.19-.67l1.28.14c-.02.07-.08.11-.2.11l-.23.41h2.6Zm-.98 1.09v-.41h-3.83v.41h3.83Zm0 1.06v-.41h-3.83v.41h3.83Zm-1.08 1.65v-.65h2.35v.65h-2.35Zm0 .97v-.65h2.41v.65h-2.41ZM38.58 16.51v6.04c0 1.09-.51 1.22-2.33 1.22-.06-.28-.25-.76-.41-1.02.38.02.81.02 1.11.02.53 0 .59 0 .59-.23v-1.26h-3.42c-.23.94-.67 1.86-1.52 2.51-.15-.2-.53-.58-.74-.72 1.37-1.04 1.48-2.61 1.48-3.86v-2.69h5.23Zm-4.23 2.85c0 .31-.02.63-.06.97h3.26v-.97h-3.2Zm3.2-1.9h-3.2v.98h3.2v-.98ZM45.69 17.94c-.65.55-1.19 1.59-1.19 2.8s.55 2.27 1.19 2.8v.03h-.56c-.62-.55-1.12-1.61-1.12-2.83s.5-2.29 1.12-2.83h.56v.03ZM47.02 20.51c-.16.24-.32.47-.5.67-.07-.17-.23-.56-.33-.73.5-.56 1.01-1.55 1.31-2.51l.79.27c-.02.06-.08.08-.17.07-.14.38-.31.77-.5 1.15l.23.06c-.01.05-.06.1-.16.11v3.99H47v-3.07Zm3.29-1.32h1.5v2.76h-.72v-.31h-.78v1.93h-.72v-1.93h-.75v.35h-.68v-2.81h1.43v-1.2l.88.05c0 .06-.05.1-.16.11v1.04Zm-1.47 1.79h.75v-1.12h-.75v1.12Zm1.47 0h.78v-1.12h-.78v1.12ZM56.94 21.49l.5.26-.08.08c-.25.35-.59.63-.98.86.59.14 1.27.21 2.03.24-.14.16-.32.45-.4.64-.96-.07-1.79-.22-2.49-.5-.77.27-1.66.42-2.57.5-.05-.17-.16-.43-.26-.58.73-.04 1.46-.13 2.09-.3a3.75 3.75 0 0 1-.61-.51c-.29.15-.62.29-1.01.42-.08-.16-.28-.4-.41-.5.77-.2 1.34-.49 1.7-.81h-.79v-2.33h1.36l.05-.23h-2.12v-.58h5.17v.58h-2.29c-.02.08-.05.16-.08.23h1.78v2.33h-2.12s-.07.03-.11.03c-.06.07-.12.13-.19.19h1.73l.11-.02Zm-2.6-2.12v.23h2.44v-.23h-2.44Zm0 .64v.24h2.44v-.24h-2.44Zm0 .64v.24h2.44v-.24h-2.44Zm.47 1.36c.2.17.46.31.74.43.28-.12.53-.26.74-.43h-1.48ZM58.99 23.54c.65-.55 1.19-1.59 1.19-2.8s-.55-2.27-1.19-2.8v-.03h.56c.62.55 1.12 1.61 1.12 2.83s-.5 2.28-1.12 2.83h-.56v-.03ZM.08 34.01c0-2.12.83-3.15 1.96-3.15s1.86 1.09 1.86 3.07c0 2.11-.74 3.19-1.95 3.19-1.1 0-1.87-1.09-1.87-3.11Zm3.14-.05c0-1.52-.37-2.56-1.22-2.56-.72 0-1.23.96-1.23 2.56s.45 2.61 1.21 2.61c.9 0 1.24-1.17 1.24-2.61ZM5.65 33.8a1.7 1.7 0 0 1 1.42-.75c1.03 0 1.72.77 1.72 1.94s-.68 2.12-1.86 2.12-1.98-.98-1.98-2.55.76-3.33 2.73-3.65c.23-.03.43-.06.57-.06v.56c-1.68 0-2.48 1.22-2.62 2.39h.02Zm2.46 1.24c0-.93-.5-1.47-1.23-1.47s-1.26.7-1.26 1.15c0 1.11.48 1.87 1.32 1.87.7 0 1.17-.63 1.17-1.55ZM9.97 36.61c0-.31.2-.53.49-.53s.48.22.48.53-.19.51-.49.51-.48-.24-.48-.51ZM13.77 37.02v-5.44h-.02l-1 .58-.16-.5 1.26-.7h.58v6.07h-.66ZM18.06 33.8c-.66-.32-.95-.85-.95-1.37 0-.94.74-1.58 1.72-1.58 1.1 0 1.63.75 1.63 1.47 0 .52-.28 1.09-1 1.43v.03c.75.32 1.21.86 1.21 1.59 0 1.03-.84 1.73-1.91 1.73-1.16 0-1.87-.74-1.87-1.61 0-.79.47-1.35 1.17-1.67v-.03Zm1.92 1.65c0-.76-.51-1.15-1.31-1.41-.71.24-1.09.75-1.09 1.35 0 .69.46 1.21 1.19 1.21.78 0 1.21-.53 1.21-1.16Zm-2.23-3.09c0 .65.45 1 1.13 1.21.53-.2.92-.62.92-1.19 0-.51-.28-1.04-1-1.04s-1.05.49-1.05 1.02ZM21.88 36.61c0-.31.2-.53.49-.53s.48.22.48.53-.19.51-.49.51-.48-.24-.48-.51ZM26.52 37.02h-2.66v-.31l.44-.46c1.07-1.08 1.61-1.73 1.61-2.46 0-.48-.21-.92-.86-.92-.36 0-.68.2-.9.37l-.17-.35c.28-.25.68-.44 1.16-.44.91 0 1.27.66 1.27 1.28 0 .85-.59 1.57-1.52 2.5l-.35.37 1.98.01v.41ZM27.42 34.79c0-1.57.61-2.33 1.45-2.33s1.37.8 1.37 2.27c0 1.56-.55 2.36-1.44 2.36-.82 0-1.38-.8-1.38-2.3Zm2.32-.04c0-1.12-.27-1.9-.9-1.9-.53 0-.91.71-.91 1.9s.33 1.93.89 1.93c.67 0 .92-.86.92-1.93ZM33.73 37.02h-2.66v-.31l.44-.46c1.07-1.08 1.61-1.73 1.61-2.46 0-.48-.21-.92-.86-.92-.36 0-.68.2-.9.37l-.17-.35c.28-.25.68-.44 1.16-.44.91 0 1.27.66 1.27 1.28 0 .85-.59 1.57-1.52 2.5l-.35.37 1.98.01v.41ZM36.27 34.59c.53.09.98.52.98 1.16 0 .71-.52 1.34-1.52 1.34-.45 0-.86-.14-1.06-.29l.15-.38c.16.11.52.27.92.27.75 0 1-.53 1-.94 0-.66-.56-.96-1.15-.96h-.29v-.37h.29c.43 0 .99-.27.99-.83 0-.39-.23-.73-.77-.73-.33 0-.64.16-.82.29l-.15-.37c.22-.17.64-.34 1.07-.34.82 0 1.19.52 1.19 1.06 0 .46-.29.88-.82 1.06v.02ZM57.35 35.23h-.92c-.07.97-.38 1.87-1.47 2.48a3.38 3.38 0 0 0-.41-.31c1-.55 1.3-1.34 1.37-2.17h-.83v.52h-.48v-2.88l.62.04c0 .06-.05.1-.15.11v1.73h.85v-2.54h-1.69v-.49h1c-.1-.39-.32-.96-.57-1.38l.44-.17c.26.43.5 1 .6 1.39l-.36.15h2.85v.49h-1.76v2.54h.9v-1.88l.62.04c0 .06-.05.1-.15.11v2.64h-.48v-.43Zm.53-4.85s-.08.07-.17.07c-.16.37-.44.92-.66 1.28-.1-.03-.32-.13-.41-.15.21-.38.47-.99.61-1.4l.63.2Zm3.53.27v6.36c0 .67-.32.71-1.59.71-.02-.15-.1-.39-.18-.54h.66c.51 0 .57 0 .57-.19v-2.1h-1.88c-.15 1-.49 2.05-1.26 2.83-.09-.1-.31-.25-.44-.31 1.15-1.13 1.26-2.75 1.26-4.01v-2.77h2.85Zm-2.33 2.78c0 .31 0 .64-.04.99h1.83v-1.39h-1.79v.41Zm1.79-2.27h-1.79v1.36h1.79v-1.36ZM.08 48.01c0-2.12.83-3.15 1.96-3.15s1.86 1.09 1.86 3.07c0 2.11-.74 3.19-1.95 3.19-1.1 0-1.87-1.09-1.87-3.11Zm3.14-.05c0-1.52-.37-2.56-1.22-2.56-.72 0-1.23.96-1.23 2.56s.45 2.61 1.21 2.61c.9 0 1.24-1.17 1.24-2.61ZM5.65 47.8a1.7 1.7 0 0 1 1.42-.75c1.03 0 1.72.77 1.72 1.94s-.68 2.12-1.86 2.12-1.98-.98-1.98-2.55.76-3.33 2.73-3.65c.23-.03.43-.06.57-.06v.56c-1.68 0-2.48 1.22-2.62 2.39h.02Zm2.46 1.24c0-.93-.5-1.47-1.23-1.47s-1.26.7-1.26 1.15c0 1.11.48 1.87 1.32 1.87.7 0 1.17-.63 1.17-1.55ZM9.97 50.61c0-.31.2-.53.49-.53s.48.22.48.53-.19.51-.49.51-.48-.24-.48-.51ZM15.65 51.02h-3.59v-.41l.59-.62c1.44-1.46 2.17-2.34 2.17-3.33 0-.65-.28-1.25-1.16-1.25-.49 0-.92.27-1.21.5l-.23-.47c.37-.33.92-.59 1.57-.59 1.22 0 1.71.89 1.71 1.73 0 1.14-.8 2.11-2.06 3.38l-.48.5v.02h2.68v.55ZM17.55 47.8a1.7 1.7 0 0 1 1.42-.75c1.03 0 1.72.77 1.72 1.94s-.68 2.12-1.86 2.12-1.98-.98-1.98-2.55.76-3.33 2.73-3.65c.23-.03.43-.06.57-.06v.56c-1.68 0-2.48 1.22-2.62 2.39h.02Zm2.46 1.24c0-.93-.5-1.47-1.23-1.47s-1.26.7-1.26 1.15c0 1.11.48 1.87 1.32 1.87.7 0 1.17-.63 1.17-1.55ZM21.88 50.61c0-.31.2-.53.49-.53s.48.22.48.53-.19.51-.49.51-.48-.24-.48-.51ZM26.52 51.02h-2.66v-.31l.44-.46c1.07-1.08 1.61-1.73 1.61-2.46 0-.48-.21-.92-.86-.92-.36 0-.68.2-.9.37l-.17-.35c.28-.25.68-.44 1.16-.44.91 0 1.27.66 1.27 1.28 0 .85-.59 1.57-1.52 2.5l-.35.37 1.98.01v.41ZM27.42 48.79c0-1.57.61-2.33 1.45-2.33s1.37.8 1.37 2.27c0 1.56-.55 2.36-1.44 2.36-.82 0-1.38-.8-1.38-2.3Zm2.32-.04c0-1.12-.27-1.9-.9-1.9-.53 0-.91.71-.91 1.9s.33 1.93.89 1.93c.67 0 .92-.86.92-1.93ZM33.73 51.02h-2.66v-.31l.44-.46c1.07-1.08 1.61-1.73 1.61-2.46 0-.48-.21-.92-.86-.92-.36 0-.68.2-.9.37l-.17-.35c.28-.25.68-.44 1.16-.44.91 0 1.27.66 1.27 1.28 0 .85-.59 1.57-1.52 2.5l-.35.37 1.98.01v.41ZM36.27 48.59c.53.09.98.52.98 1.16 0 .71-.52 1.34-1.52 1.34-.45 0-.86-.14-1.06-.29l.15-.38c.16.11.52.27.92.27.75 0 1-.53 1-.94 0-.66-.56-.96-1.15-.96h-.29v-.37h.29c.43 0 .99-.27.99-.83 0-.39-.23-.73-.77-.73-.33 0-.64.16-.82.29l-.15-.37c.22-.17.64-.34 1.07-.34.82 0 1.19.52 1.19 1.06 0 .46-.29.88-.82 1.06v.02ZM58.03 50.77h3.68v.55h-7.37v-.55h3.12v-6.46l.74.05c0 .06-.06.1-.17.11v2.4h3.11v.55h-3.11v3.35ZM64.84 48.1l.12-.02.3.04s0 .12-.02.18c-.11 2.14-.2 2.89-.44 3.16-.18.21-.36.24-.92.24-.19 0-.41 0-.64-.02-.02-.16-.08-.38-.17-.53.45.04.85.04 1.03.04.11 0 .19-.02.24-.09.16-.17.27-.83.36-2.52h-1.31l-.05.34-.51-.08c.11-.63.24-1.66.29-2.43h1.56V45H62.8v-.51h2.41v2.67h-.53v-.25h-1.09l-.13 1.18h1.38Zm4.12 1.15c.58.68 1.17 1.6 1.38 2.22l-.49.25c-.06-.2-.17-.42-.3-.67-1.38.11-2.82.2-3.75.26 0 .06-.06.11-.12.11l-.2-.64.77-.02c.39-.46.81-1.02 1.22-1.61-.44-.47-1.17-1.08-1.79-1.5l.32-.39c.14.09.28.19.42.29.32-.47.67-1.07.92-1.58h-1.86v-.52h2.01v-1.28l.69.05c0 .06-.06.1-.16.11v1.13h2.26v.52h-2.33l.13.06s-.1.07-.18.07c-.28.51-.73 1.21-1.12 1.73.37.29.73.59.99.85.43-.64.83-1.29 1.13-1.86l.62.32s-.1.08-.19.08c-.64 1.05-1.61 2.46-2.48 3.5.75-.03 1.6-.07 2.44-.11-.23-.4-.52-.8-.8-1.15l.45-.22ZM.08 62.01c0-2.12.83-3.15 1.96-3.15s1.86 1.09 1.86 3.07c0 2.11-.74 3.19-1.95 3.19-1.1 0-1.87-1.09-1.87-3.11Zm3.14-.05c0-1.52-.37-2.56-1.22-2.56-.72 0-1.23.96-1.23 2.56s.45 2.61 1.21 2.61c.9 0 1.24-1.17 1.24-2.61ZM5.14 58.95H8.7v.43l-2.54 5.64h-.69l2.54-5.49v-.02H5.14v-.56ZM9.97 64.61c0-.31.2-.53.49-.53s.48.22.48.53-.19.51-.49.51-.48-.24-.48-.51ZM11.99 62.01c0-2.12.83-3.15 1.96-3.15s1.86 1.09 1.86 3.07c0 2.11-.74 3.19-1.95 3.19-1.1 0-1.87-1.09-1.87-3.11Zm3.14-.05c0-1.52-.37-2.56-1.22-2.56-.72 0-1.23.96-1.23 2.56s.45 2.61 1.21 2.61c.9 0 1.24-1.17 1.24-2.61ZM19.08 61.74c.71.12 1.32.7 1.32 1.57 0 .96-.7 1.81-2.06 1.81-.61 0-1.16-.2-1.43-.39l.2-.52c.22.15.71.37 1.24.37 1.02 0 1.35-.71 1.35-1.27 0-.89-.75-1.3-1.55-1.3h-.4v-.5h.4c.58 0 1.34-.36 1.34-1.13 0-.53-.32-.98-1.04-.98-.45 0-.87.22-1.11.4l-.2-.5c.29-.23.86-.45 1.44-.45 1.11 0 1.6.71 1.6 1.43 0 .62-.4 1.18-1.1 1.43v.02ZM21.88 64.61c0-.31.2-.53.49-.53s.48.22.48.53-.19.51-.49.51-.48-.24-.48-.51ZM26.52 65.02h-2.66v-.31l.44-.46c1.07-1.08 1.61-1.73 1.61-2.46 0-.48-.21-.92-.86-.92-.36 0-.68.2-.9.37l-.17-.35c.28-.25.68-.44 1.16-.44.91 0 1.27.66 1.27 1.28 0 .85-.59 1.57-1.52 2.5l-.35.37 1.98.01v.41ZM27.42 62.79c0-1.57.61-2.33 1.45-2.33s1.37.8 1.37 2.27c0 1.56-.55 2.36-1.44 2.36-.82 0-1.38-.8-1.38-2.3Zm2.32-.04c0-1.12-.27-1.9-.9-1.9-.53 0-.91.71-.91 1.9s.33 1.93.89 1.93c.67 0 .92-.86.92-1.93ZM33.73 65.02h-2.66v-.31l.44-.46c1.07-1.08 1.61-1.73 1.61-2.46 0-.48-.21-.92-.86-.92-.36 0-.68.2-.9.37l-.17-.35c.28-.25.68-.44 1.16-.44.91 0 1.27.66 1.27 1.28 0 .85-.59 1.57-1.52 2.5l-.35.37 1.98.01v.41ZM36.27 62.59c.53.09.98.52.98 1.16 0 .71-.52 1.34-1.52 1.34-.45 0-.86-.14-1.06-.29l.15-.38c.16.11.52.27.92.27.75 0 1-.53 1-.94 0-.66-.56-.96-1.15-.96h-.29v-.37h.29c.43 0 .99-.27.99-.83 0-.39-.23-.73-.77-.73-.33 0-.64.16-.82.29l-.15-.37c.22-.17.64-.34 1.07-.34.82 0 1.19.52 1.19 1.06 0 .46-.29.88-.82 1.06v.02ZM55.68 61.76c-.63 0-.8-.21-.8-.82v-1.4h-.59v-.48h1.72v-.88l.67.05c0 .06-.05.09-.15.11v.72h1.64v.48h-2.78v1.41c0 .25.06.33.28.33h1.45c.18 0 .47 0 .62-.04.02.14.04.37.06.48-.12.03-.4.04-.66.04h-1.46Zm2.6 3.28h3.45v.47H54.3v-.47h3.43v-.77h-2.38v-.46h2.38v-.76h-2.75v-.47h6.13v.47h-2.83v.76h2.43v.46h-2.43v.77Zm3.19-6.54v.17c-.09 2.25-.17 3.01-.37 3.27-.17.2-.39.23-.74.23-.18 0-.38 0-.6-.02 0-.13-.06-.32-.13-.45.36.03.68.03.83.03.19 0 .29-.08.37-.79h-1.98c-.19.61-.5 1.09-.96 1.4-.08-.09-.24-.25-.37-.32.9-.61 1.13-1.86 1.14-3.53h2.54l.28.02Zm-2.4 1.41c-.03.22-.07.43-.11.62h1.9l.05-.62h-1.83Zm1.87-1h-1.79c0 .21-.02.41-.04.61h1.81l.02-.61ZM.08 76.01c0-2.12.83-3.15 1.96-3.15s1.86 1.09 1.86 3.07c0 2.11-.74 3.19-1.95 3.19-1.1 0-1.87-1.09-1.87-3.11Zm3.14-.05c0-1.52-.37-2.56-1.22-2.56-.72 0-1.23.96-1.23 2.56s.45 2.61 1.21 2.61c.9 0 1.24-1.17 1.24-2.61ZM5.14 72.95H8.7v.43l-2.54 5.64h-.69l2.54-5.49v-.02H5.14v-.56ZM9.97 78.61c0-.31.2-.53.49-.53s.48.22.48.53-.19.51-.49.51-.48-.24-.48-.51ZM13.77 79.02v-5.44h-.02l-1 .58-.16-.5 1.26-.7h.58v6.07h-.66ZM16.86 76.01c0-2.12.83-3.15 1.96-3.15s1.86 1.09 1.86 3.07c0 2.11-.74 3.19-1.95 3.19-1.1 0-1.87-1.09-1.87-3.11Zm3.14-.05c0-1.52-.37-2.56-1.22-2.56-.72 0-1.23.96-1.23 2.56s.45 2.61 1.21 2.61c.9 0 1.24-1.17 1.24-2.61ZM21.88 78.61c0-.31.2-.53.49-.53s.48.22.48.53-.19.51-.49.51-.48-.24-.48-.51ZM26.52 79.02h-2.66v-.31l.44-.46c1.07-1.08 1.61-1.73 1.61-2.46 0-.48-.21-.92-.86-.92-.36 0-.68.2-.9.37l-.17-.35c.28-.25.68-.44 1.16-.44.91 0 1.27.66 1.27 1.28 0 .85-.59 1.57-1.52 2.5l-.35.37 1.98.01v.41ZM27.42 76.79c0-1.57.61-2.33 1.45-2.33s1.37.8 1.37 2.27c0 1.56-.55 2.36-1.44 2.36-.82 0-1.38-.8-1.38-2.3Zm2.32-.04c0-1.12-.27-1.9-.9-1.9-.53 0-.91.71-.91 1.9s.33 1.93.89 1.93c.67 0 .92-.86.92-1.93ZM33.73 79.02h-2.66v-.31l.44-.46c1.07-1.08 1.61-1.73 1.61-2.46 0-.48-.21-.92-.86-.92-.36 0-.68.2-.9.37l-.17-.35c.28-.25.68-.44 1.16-.44.91 0 1.27.66 1.27 1.28 0 .85-.59 1.57-1.52 2.5l-.35.37 1.98.01v.41ZM36.27 76.59c.53.09.98.52.98 1.16 0 .71-.52 1.34-1.52 1.34-.45 0-.86-.14-1.06-.29l.15-.38c.16.11.52.27.92.27.75 0 1-.53 1-.94 0-.66-.56-.96-1.15-.96h-.29v-.37h.29c.43 0 .99-.27.99-.83 0-.39-.23-.73-.77-.73-.33 0-.64.16-.82.29l-.15-.37c.22-.17.64-.34 1.07-.34.82 0 1.19.52 1.19 1.06 0 .46-.29.88-.82 1.06v.02ZM61.67 73.33h-3.44l-.09.02v1.41l.04-.05c1.03.5 2.36 1.26 3.03 1.77l-.38.49c-.58-.47-1.72-1.16-2.69-1.68v4.4h-.58v-6.37h-3.2v-.54h7.3v.54ZM64.84 76.1l.12-.02.3.04s0 .12-.02.18c-.11 2.14-.2 2.89-.44 3.16-.18.21-.36.24-.92.24-.19 0-.41 0-.64-.02-.02-.16-.08-.38-.17-.53.45.04.85.04 1.03.04.11 0 .19-.02.24-.09.16-.17.27-.83.36-2.52h-1.31l-.05.34-.51-.08c.11-.63.24-1.66.29-2.43h1.56V73H62.8v-.51h2.41v2.67h-.53v-.25h-1.09l-.13 1.18h1.38Zm4.12 1.15c.58.68 1.17 1.6 1.38 2.22l-.49.25c-.06-.2-.17-.42-.3-.67-1.38.11-2.82.2-3.75.26 0 .06-.06.11-.12.11l-.2-.64.77-.02c.39-.46.81-1.02 1.22-1.61-.44-.47-1.17-1.08-1.79-1.5l.32-.39c.14.09.28.19.42.29.32-.47.67-1.07.92-1.58h-1.86v-.52h2.01v-1.28l.69.05c0 .06-.06.1-.16.11v1.13h2.26v.52h-2.33l.13.06s-.1.07-.18.07c-.28.51-.73 1.21-1.12 1.73.37.29.73.59.99.85.43-.64.83-1.29 1.13-1.86l.62.32s-.1.08-.19.08c-.64 1.05-1.61 2.46-2.48 3.5.75-.03 1.6-.07 2.44-.11-.23-.4-.52-.8-.8-1.15l.45-.22Z" class="cls-1"/><path d="M51.86 33.99c0 1.5-1.21 2.71-2.71 2.71s-2.71-1.21-2.71-2.71 1.21-2.71 2.71-2.71 2.71 1.21 2.71 2.71Z" class="cls-3"/><path d="M51.86 61.91c0 1.5-1.21 2.71-2.71 2.71s-2.71-1.21-2.71-2.71 1.21-2.71 2.71-2.71 2.71 1.21 2.71 2.71ZM49.15 45.24c1.5 0 2.71 1.21 2.71 2.71s-1.21 2.71-2.71 2.71" class="cls-2"/><path d="M49.15 45.24c-1.5 0-2.71 1.21-2.71 2.71s1.21 2.71 2.71 2.71" class="cls-3"/><path d="M49.15 78.59c-1.5 0-2.71-1.21-2.71-2.71s1.21-2.71 2.71-2.71" class="cls-2"/><path d="M49.15 78.59c1.5 0 2.71-1.21 2.71-2.71s-1.21-2.71-2.71-2.71" class="cls-3"/></g></svg>