<svg xmlns="http://www.w3.org/2000/svg" id="_レイヤー_2" viewBox="0 0 108.87 75.49"><defs><style>.cls-1,.cls-2{fill:#fff}.cls-3{fill:none}.cls-2,.cls-3{stroke:#fff;stroke-width:.5px}</style></defs><g id="text_solar"><path d="M1.04.36h1.62l.33 3.52H3L4.92.36h1.63L5.51 5.25H4.47l.92-4.05h-.01L3.17 5.25h-.94L1.84 1.2h-.01l-.9 4.05H0L1.04.36ZM7.51 1.65h.94l-.77 3.61h-.94l.77-3.61ZM7.85.1h.94l-.2.9h-.94l.2-.9ZM9.47 2.16c.04-.22.08-.41.09-.52h.92l-.06.35h.01c.26-.24.62-.43 1.02-.43.71 0 1.18.44 1.18 1.16 0 .27-.07.56-.12.78l-.38 1.75h-.94l.35-1.7c.05-.25.1-.49.1-.76 0-.3-.21-.5-.51-.5-.65 0-.89.61-1.01 1.15l-.38 1.81H8.8l.67-3.09ZM15.46 4.7h-.01c-.32.41-.64.64-1.16.64-.65 0-1.11-.36-1.11-1.03 0-1.19 1.33-1.28 2.21-1.28h.33c.03-.1.03-.2.03-.31 0-.36-.39-.47-.72-.47-.41 0-.81.11-1.18.28l.13-.75c.4-.14.81-.22 1.23-.22.72 0 1.4.27 1.4 1.11 0 .48-.36 1.9-.44 2.58h-.79l.1-.55Zm-.92-.05c.7 0 .92-.48 1.06-1.06h-.33c-.46 0-1.21.08-1.21.69 0 .25.24.38.48.38ZM20.44 2.37l-2.21 2.15h1.81l-.13.73h-3.02l.15-.73 2.22-2.15H17.6l.16-.73h2.84l-.15.73ZM24.11 4.73c-.04.22-.08.41-.09.52h-.92l.06-.35h-.01c-.26.24-.62.43-1.02.43-.71 0-1.18-.44-1.18-1.16 0-.27.07-.56.12-.78l.38-1.75h.94l-.35 1.7c-.05.25-.11.49-.11.76 0 .3.21.5.51.5.65 0 .89-.61 1.01-1.15l.38-1.81h.94l-.67 3.09ZM26.25 0h.94l-.62 2.96h.01l1.31-1.31h1.22L27.38 3.3l1.08 1.96H27.4l-.93-1.91h-.01l-.41 1.91h-.92L26.24.01ZM29.91 1.65h.94l-.77 3.61h-.94l.77-3.61ZM30.25.1h.94l-.2.9h-.94l.2-.9ZM36.53.36h.43v4.48h1.59v.41h-2.02V.36ZM41.54 4.45c0 .27.02.53.04.8h-.36l-.03-.51h-.01c-.25.39-.54.56-1 .56-.55 0-.99-.46-.99-1.04 0-1.14 1.21-1.16 1.72-1.16h.26c0-.45 0-1.09-.74-1.09-.48 0-.85.34-.9.37l-.06-.43c.34-.18.59-.32.98-.32 1.1 0 1.1.92 1.1 1.18v1.64Zm-.38-1c-.84 0-1.55 0-1.55.81 0 .3.22.66.66.66.19 0 .89-.08.89-1.05v-.42ZM43.17.84v.84h.73v.38h-.73v2.33c0 .29.05.54.39.54.19 0 .26-.04.34-.08v.41c-.1.04-.28.05-.47.05-.52 0-.67-.41-.67-.81V2.06h-.53v-.38h.53V.97l.41-.13ZM44.84 3.6c0 1.32.85 1.32 1.01 1.32.23 0 .57-.11.77-.29l.02.47c-.17.09-.41.2-.83.2-1.4 0-1.4-1.48-1.4-1.83 0-1.34.67-1.83 1.27-1.83 1.04 0 1.14 1.1 1.14 1.97h-1.97Zm1.54-.38c0-.95-.4-1.21-.73-1.21-.55 0-.81.75-.81 1.21h1.54ZM49.2 4.57c.34.3.74.33.86.33.79 0 .88-.7.88-.88 0-.57-.34-.8-.92-1.19-.68-.46-.88-.77-.88-1.32 0-1.09.99-1.18 1.27-1.18.39 0 .66.11.77.15l-.02.49c-.19-.11-.41-.24-.78-.24-.28 0-.78.15-.78.71 0 .48.25.67.67.98.87.64 1.13.86 1.13 1.53 0 .82-.56 1.35-1.31 1.35-.3 0-.67-.07-.92-.23l.03-.5ZM54.6 4.15c0 .37.02.74.03 1.11h-.38c-.01-.16-.02-.27-.03-.53h-.01c-.04.15-.31.57-.91.57-.78 0-.99-.56-.99-1.13V1.68h.41v2.41c0 .25 0 .83.67.83.5 0 .81-.47.81-1.02V1.68h.41v2.47ZM55.66 2.79c0-.37-.02-.74-.03-1.11h.38c.01.16.02.27.03.53h.01c.11-.26.37-.57.83-.57.59 0 .74.37.82.57.1-.17.37-.57.89-.57.72 0 .92.6.92 1.16v2.46h-.41V2.85c0-.25 0-.83-.58-.83-.5 0-.74.45-.74.95v2.29h-.41V2.77c0-.46-.2-.76-.54-.76-.46 0-.78.47-.78 1.02v2.22h-.41V2.78ZM60.55 2.79c0-.37-.02-.74-.03-1.11h.38c.01.16.02.27.03.53h.01c.11-.26.37-.57.83-.57.59 0 .74.37.82.57.1-.17.37-.57.89-.57.72 0 .92.6.92 1.16v2.46h-.41V2.85c0-.25 0-.83-.58-.83-.5 0-.74.45-.74.95v2.29h-.41V2.77c0-.46-.2-.76-.54-.76-.46 0-.78.47-.78 1.02v2.22h-.41V2.78ZM65.71 3.6c0 1.32.85 1.32 1.01 1.32.23 0 .57-.11.77-.29l.02.47c-.17.09-.41.2-.83.2-1.4 0-1.4-1.48-1.4-1.83 0-1.34.67-1.83 1.27-1.83 1.04 0 1.14 1.1 1.14 1.97h-1.97Zm1.54-.38c0-.95-.4-1.21-.73-1.21-.55 0-.81.75-.81 1.21h1.54ZM68.55 2.79c0-.37-.02-.74-.03-1.11h.38c0 .21.02.42.03.57h.01c.26-.51.56-.62.95-.62v.43c-.64 0-.94.28-.94.94v2.25h-.41V2.78ZM69.73 55.54h-2.11v2.04h-.28v-.5c-.51.08-1.01.14-1.34.19 0 .03-.03.05-.06.06l-.1-.3.41-.04v-1.45h-.39v-.24h3.87v.24Zm-.56-1.73v1.21h-2.75v-1.21h2.75Zm-1.83 2.03v-.3h-.82v.3h.82Zm0 .53v-.31h-.82v.31h.82Zm-.82.22v.36c.26-.03.54-.06.82-.09v-.27h-.82Zm2.37-2.29v-.29H66.7v.29h2.19Zm0 .5v-.3H66.7v.3h2.19Zm.47 1.01.18.07s-.03.03-.04.05c-.13.39-.35.72-.61.99.25.19.54.33.88.42-.06.06-.14.16-.17.23-.34-.1-.64-.26-.9-.47-.25.21-.54.37-.83.48-.03-.07-.11-.17-.16-.23.28-.09.56-.24.8-.43-.22-.23-.4-.5-.52-.81l.17-.05h-.4v-.24h1.61Zm-1.13.25c.11.26.26.5.47.69.2-.2.36-.43.47-.69h-.94ZM66.75 60.01v1.39c.33.51.94.51 1.71.51.46 0 1-.01 1.33-.03-.03.07-.08.2-.09.29-.29.01-.76.02-1.18.02-.88 0-1.46 0-1.89-.53-.21.19-.43.38-.62.52 0 .04 0 .06-.04.07l-.17-.32c.2-.14.46-.33.67-.52v-1.13h-.63v-.27h.9Zm-.63-1.6c.29.18.61.46.76.67l-.23.19c-.14-.21-.46-.5-.75-.69l.21-.17Zm2.52 1.48h-.88c-.02.55-.14 1.23-.6 1.73a.948.948 0 0 0-.2-.2c.48-.51.54-1.21.54-1.75v-1l.23.06c.55-.11 1.16-.26 1.5-.41l.28.23s-.02.01-.08.01c-.41.15-1.06.3-1.65.41v.65h1.97v.27h-.81v1.8h-.29v-1.8ZM76.61 27.68h.56l2.05 4.34h.01v-4.34h.41v4.89h-.56l-2.05-4.31h-.01v4.31h-.41v-4.89ZM81.07 30.92c0 1.32.85 1.32 1.01 1.32.23 0 .57-.11.77-.29l.02.47c-.17.09-.41.2-.83.2-1.4 0-1.4-1.48-1.4-1.83 0-1.34.67-1.83 1.27-1.83 1.04 0 1.14 1.1 1.14 1.97h-1.97Zm1.54-.38c0-.95-.4-1.21-.73-1.21-.55 0-.81.75-.81 1.21h1.54ZM83.52 29h.43l.75 3.14h.01l.72-3.14h.52l.78 3.14h.01l.74-3.14h.41l-.93 3.57h-.5l-.77-3.11h-.01l-.73 3.11h-.48L83.51 29ZM90.22 27.68h.67l1.36 4.24h.01l1.36-4.24h.67v4.89h-.41v-4.48h-.01l-1.44 4.48h-.33l-1.45-4.48h-.01v4.48h-.41v-4.89ZM95.27 30.79c0-.9.29-1.83 1.34-1.83s1.34.94 1.34 1.83-.29 1.83-1.34 1.83-1.34-.94-1.34-1.83Zm2.24 0c0-.29 0-1.46-.9-1.46s-.9 1.17-.9 1.46 0 1.46.9 1.46.9-1.17.9-1.46ZM98.67 30.79c0-.9.29-1.83 1.34-1.83s1.34.94 1.34 1.83-.29 1.83-1.34 1.83-1.34-.94-1.34-1.83Zm2.24 0c0-.29 0-1.46-.9-1.46s-.9 1.17-.9 1.46 0 1.46.9 1.46.9-1.17.9-1.46ZM102.23 30.11c0-.37-.02-.74-.03-1.11h.38c.01.16.02.27.03.53h.01c.08-.15.32-.57.91-.57.99 0 .99.99.99 1.23v2.4h-.41v-2.41c0-.25 0-.83-.67-.83-.5 0-.81.47-.81 1.02v2.22h-.41v-2.47ZM76.61 41.68h2v.41h-1.56v1.74h1.49v.41h-1.49v2.34h-.43v-4.89ZM79.47 41.58h.49v.63h-.49v-.63Zm.04 1.42h.41v3.57h-.41V43ZM80.99 44.11c0-.37-.02-.74-.03-1.11h.38c0 .21.02.42.03.57h.01c.26-.51.56-.62.95-.62v.43c-.64 0-.94.28-.94.94v2.25h-.41v-2.46ZM84.59 43.48c-.2-.08-.38-.15-.61-.15-.42 0-.61.32-.61.57 0 .33.13.4.61.67.49.27.87.45.87 1.02 0 .64-.46 1.04-1.06 1.04-.44 0-.69-.09-.9-.17l.06-.46c.12.08.48.25.81.25.38 0 .66-.29.66-.62 0-.34-.22-.48-.64-.69-.6-.3-.84-.49-.84-1 0-.67.57-.99 1.05-.99.24 0 .53.06.66.11l-.06.42ZM86.31 42.16V43h.73v.38h-.73v2.33c0 .29.05.54.39.54.19 0 .26-.04.34-.08v.41c-.1.04-.28.05-.47.05-.52 0-.67-.41-.67-.81v-2.44h-.53V43h.53v-.71l.41-.13ZM92 47.47l-.79-.88s-.13.03-.26.03c-1.72 0-1.72-2.07-1.72-2.49s0-2.49 1.72-2.49 1.72 2.07 1.72 2.49c0 .36 0 1.89-1.04 2.35l.91.99h-.55Zm-1.04-1.25c1.26 0 1.26-1.7 1.26-2.09s0-2.09-1.26-2.09-1.26 1.7-1.26 2.09 0 2.09 1.26 2.09ZM95.95 45.47c0 .37.02.74.03 1.11h-.38c-.01-.16-.02-.27-.03-.53h-.01c-.04.15-.31.57-.91.57-.78 0-.99-.56-.99-1.13V43h.41v2.41c0 .25 0 .83.67.83.5 0 .81-.47.81-1.02V43h.41v2.47ZM99.14 45.77c0 .27.02.53.04.8h-.36l-.03-.51h-.01c-.25.39-.54.56-1 .56-.55 0-.99-.46-.99-1.04 0-1.14 1.21-1.16 1.72-1.16h.26c0-.45 0-1.09-.74-1.09-.48 0-.85.34-.9.37l-.06-.43c.34-.18.59-.32.98-.32 1.1 0 1.1.92 1.1 1.18v1.64Zm-.38-1c-.84 0-1.55 0-1.55.81 0 .3.22.66.66.66.19 0 .89-.08.89-1.05v-.42ZM100.18 44.11c0-.37-.02-.74-.03-1.11h.38c0 .21.02.42.03.57h.01c.26-.51.56-.62.95-.62v.43c-.64 0-.94.28-.94.94v2.25h-.41v-2.46ZM103.01 42.16V43h.73v.38h-.73v2.33c0 .29.05.54.39.54.19 0 .26-.04.34-.08v.41c-.1.04-.28.05-.47.05-.52 0-.67-.41-.67-.81v-2.44h-.53V43h.53v-.71l.41-.13ZM104.68 44.92c0 1.32.85 1.32 1.01 1.32.23 0 .57-.11.77-.29l.02.47c-.17.09-.41.2-.83.2-1.4 0-1.4-1.48-1.4-1.83 0-1.34.67-1.83 1.27-1.83 1.04 0 1.14 1.1 1.14 1.97h-1.97Zm1.54-.38c0-.95-.4-1.21-.73-1.21-.55 0-.81.75-.81 1.21h1.54ZM107.52 44.11c0-.37-.02-.74-.03-1.11h.38c0 .21.02.42.03.57h.01c.26-.51.56-.62.95-.62v.43c-.64 0-.94.28-.94.94v2.25h-.41v-2.46ZM76.61 55.68h2v.41h-1.56v1.74h1.49v.41h-1.49v2.34h-.43v-4.89ZM81.73 59.47c0 .37.02.74.03 1.11h-.38c-.01-.16-.02-.27-.03-.53h-.01c-.04.15-.31.57-.91.57-.78 0-.99-.56-.99-1.13V57h.41v2.41c0 .25 0 .83.67.83.5 0 .81-.47.81-1.02V57h.41v2.47ZM82.8 55.32h.41v5.25h-.41v-5.25ZM84.29 55.32h.41v5.25h-.41v-5.25ZM87.44 55.68h.67l1.36 4.24h.01l1.36-4.24h.67v4.89h-.41v-4.48h-.01l-1.44 4.48h-.33l-1.45-4.48h-.01v4.48h-.41v-4.89ZM92.49 58.79c0-.9.29-1.83 1.34-1.83s1.34.94 1.34 1.83-.29 1.83-1.34 1.83-1.34-.94-1.34-1.83Zm2.24 0c0-.29 0-1.46-.9-1.46s-.9 1.17-.9 1.46 0 1.46.9 1.46.9-1.17.9-1.46ZM95.89 58.79c0-.9.29-1.83 1.34-1.83s1.34.94 1.34 1.83-.29 1.83-1.34 1.83-1.34-.94-1.34-1.83Zm2.24 0c0-.29 0-1.46-.9-1.46s-.9 1.17-.9 1.46 0 1.46.9 1.46.9-1.17.9-1.46ZM99.45 58.11c0-.37-.02-.74-.03-1.11h.38c.01.16.02.27.03.53h.01c.08-.15.32-.57.91-.57.99 0 .99.99.99 1.23v2.4h-.41v-2.41c0-.25 0-.83-.67-.83-.5 0-.81.47-.81 1.02v2.22h-.41v-2.46ZM76.61 69.68h.43v4.48h1.59v.41h-2.02v-4.89ZM81.62 73.77c0 .27.02.53.04.8h-.36l-.03-.51h-.01c-.25.39-.54.56-1 .56-.55 0-.99-.46-.99-1.04 0-1.14 1.21-1.16 1.72-1.16h.26c0-.45 0-1.09-.74-1.09-.48 0-.85.34-.9.37l-.06-.43c.34-.18.59-.32.98-.32 1.1 0 1.1.92 1.1 1.18v1.64Zm-.38-1c-.84 0-1.55 0-1.55.81 0 .3.22.66.66.66.19 0 .89-.08.89-1.05v-.42ZM84.15 71.48c-.2-.08-.38-.15-.61-.15-.42 0-.61.32-.61.57 0 .33.13.4.61.67.49.27.87.45.87 1.02 0 .64-.46 1.04-1.06 1.04-.44 0-.69-.09-.9-.17l.06-.46c.12.08.48.25.81.25.38 0 .66-.29.66-.62 0-.34-.22-.48-.64-.69-.6-.3-.84-.49-.84-1 0-.67.57-.99 1.05-.99.24 0 .53.06.66.11l-.06.42ZM85.87 70.16V71h.73v.38h-.73v2.33c0 .29.05.54.39.54.19 0 .26-.04.34-.08v.41c-.1.04-.28.05-.47.05-.52 0-.67-.41-.67-.81v-2.44h-.53V71h.53v-.71l.41-.13ZM91.56 75.47l-.79-.88s-.13.03-.26.03c-1.72 0-1.72-2.07-1.72-2.49s0-2.49 1.72-2.49 1.72 2.07 1.72 2.49c0 .36 0 1.89-1.04 2.35l.91.99h-.55Zm-1.04-1.25c1.26 0 1.26-1.7 1.26-2.09s0-2.09-1.26-2.09-1.26 1.7-1.26 2.09 0 2.09 1.26 2.09ZM95.51 73.47c0 .37.02.74.03 1.11h-.38c-.01-.16-.02-.27-.03-.53h-.01c-.04.15-.31.57-.91.57-.78 0-.99-.56-.99-1.13V71h.41v2.41c0 .25 0 .83.67.83.5 0 .81-.47.81-1.02V71h.41v2.47ZM98.7 73.77c0 .27.02.53.04.8h-.36l-.03-.51h-.01c-.25.39-.54.56-1 .56-.55 0-.99-.46-.99-1.04 0-1.14 1.21-1.16 1.72-1.16h.26c0-.45 0-1.09-.74-1.09-.48 0-.85.34-.9.37l-.06-.43c.34-.18.59-.32.98-.32 1.1 0 1.1.92 1.1 1.18v1.64Zm-.38-1c-.84 0-1.55 0-1.55.81 0 .3.22.66.66.66.19 0 .89-.08.89-1.05v-.42ZM99.74 72.11c0-.37-.02-.74-.03-1.11h.38c0 .21.02.42.03.57h.01c.26-.51.56-.62.95-.62v.43c-.64 0-.94.28-.94.94v2.25h-.41v-2.46ZM102.57 70.16V71h.73v.38h-.73v2.33c0 .29.05.54.39.54.19 0 .26-.04.34-.08v.41c-.1.04-.28.05-.47.05-.52 0-.67-.41-.67-.81v-2.44h-.53V71h.53v-.71l.41-.13ZM104.24 72.92c0 1.32.85 1.32 1.01 1.32.23 0 .57-.11.77-.29l.02.47c-.17.09-.41.2-.83.2-1.4 0-1.4-1.48-1.4-1.83 0-1.34.67-1.83 1.27-1.83 1.04 0 1.14 1.1 1.14 1.97h-1.97Zm1.54-.38c0-.95-.4-1.21-.73-1.21-.55 0-.81.75-.81 1.21h1.54ZM107.08 72.11c0-.37-.02-.74-.03-1.11h.38c0 .21.02.42.03.57h.01c.26-.51.56-.62.95-.62v.43c-.64 0-.94.28-.94.94v2.25h-.41v-2.46ZM3.83 16.11c-.03.07-.12.11-.24.11-.49 1.17-1.25 2.41-2.04 3.21-.21-.19-.64-.51-.91-.67.77-.68 1.51-1.9 1.92-3.05l1.27.41Zm1.12-2.34h3.18v1.01H.77v-1.01h3.11v-1.86l1.3.07c0 .08-.07.13-.23.16v1.62Zm2.07 5.68c-.31-.88-1.12-2.29-1.84-3.34l.99-.41c.71 1 1.58 2.35 1.94 3.26l-1.09.49ZM15.47 12.28v6.04c0 1.09-.51 1.22-2.33 1.22-.06-.28-.25-.76-.41-1.02.38.02.81.02 1.11.02.53 0 .59 0 .59-.23v-1.26h-3.42c-.23.94-.67 1.86-1.52 2.51-.15-.2-.53-.58-.74-.72 1.37-1.04 1.48-2.61 1.48-3.86v-2.69h5.23Zm-4.23 2.85c0 .31-.02.63-.06.97h3.26v-.97h-3.2Zm3.2-1.9h-3.2v.98h3.2v-.98ZM19.61 19.16h-.81l2.13-6.69h.81l-2.13 6.69ZM26.91 13.87l.67.29c-.02.06-.06.12-.11.15-.37 2.04-1.24 3.69-2.4 4.54-.17-.23-.57-.62-.81-.77.96-.64 1.67-1.77 2.03-3.2h-1.77v-.98h2.2l.18-.04Zm1.82-.53c.15.58.34 1.13.58 1.64.58-.53 1.23-1.22 1.64-1.81l1.01.75c-.06.06-.16.07-.27.06-.49.56-1.32 1.3-1.97 1.81.58.97 1.35 1.77 2.36 2.24-.24.2-.58.62-.75.91-1.18-.67-2.01-1.75-2.6-3.09v2.41c0 1-.37 1.27-2.1 1.27-.04-.31-.23-.8-.38-1.09.32.02.63.02.88.02.53 0 .57 0 .57-.2v-6.38l1.26.06c0 .09-.07.15-.22.16v1.22ZM34.11 14.65v-.62c-.17.16-.34.32-.51.45-.18-.18-.52-.45-.74-.6.66-.45 1.3-1.23 1.66-1.99l1.08.37c-.02.06-.1.1-.21.09-.07.13-.15.27-.24.4h4.92v.86h-.77v1.04h1.07v.87H39.3v1.04h.95v.87h-7.11v-.87h.97v-1.04h-1.1v-.87h1.1Zm.68 3.18c-.19.62-.53 1.29-.93 1.72l-.93-.38c.36-.34.73-.97.92-1.56l.95.23Zm.18-4.22v1.04h.59v-1.04h-.59Zm0 1.91v1.04h.59v-1.04h-.59Zm.49 3.93c0-.4-.06-1.06-.15-1.56l.9-.11c.11.49.2 1.14.21 1.53l-.96.14Zm1.51-5.84h-.6v1.04h.6v-1.04Zm0 1.91h-.6v1.04h.6v-1.04Zm.38 3.94c-.05-.4-.24-1.05-.42-1.56l.92-.15c.2.48.41 1.12.48 1.52l-.97.19Zm1.05-4.8v-1.04h-.62v1.04h.62Zm0 1.9v-1.04h-.62v1.04h.62Zm1.12 2.98c-.18-.44-.61-1.16-.97-1.68l.93-.3c.37.5.83 1.19 1.04 1.64l-1 .33ZM47.71 12.28v6.04c0 1.09-.51 1.22-2.33 1.22-.06-.28-.25-.76-.41-1.02.38.02.81.02 1.11.02.53 0 .59 0 .59-.23v-1.26h-3.42c-.23.94-.67 1.86-1.52 2.51-.15-.2-.53-.58-.74-.72 1.37-1.04 1.48-2.61 1.48-3.86v-2.69h5.23Zm-4.23 2.85c0 .31-.02.63-.06.97h3.26v-.97h-3.2Zm3.2-1.9h-3.2v.98h3.2v-.98ZM54.82 13.71c-.65.55-1.19 1.59-1.19 2.8s.55 2.27 1.19 2.8v.03h-.56c-.62-.55-1.12-1.61-1.12-2.83s.5-2.29 1.12-2.83h.56v.03ZM59.96 18.45c0 .18.02.2.13.2h.32c.13 0 .15-.09.17-.72.13.11.42.22.6.27-.07.86-.23 1.09-.69 1.09h-.5c-.57 0-.7-.2-.7-.83v-1.29h-1.48v-1.21l-.03.03c-.07-.1-.19-.23-.31-.34v2.54h-1.16v.47h-.63v-4.53h1.79v1.21c.52-.5.85-1.12 1.02-1.66l.81.12c-.02.05-.06.1-.15.1-.04.1-.08.2-.13.3h.82l.1-.03.5.3s-.07.06-.12.07c-.1.18-.25.41-.4.63h.95v1.99h-.91v1.28Zm-3.14-3.68h-.52v1.07h.52v-1.07Zm-.52 2.8h.52v-1.11h-.52v1.11Zm2.74-.23c-.01.05-.06.09-.15.1-.14.83-.39 1.51-1.72 1.9-.06-.17-.24-.44-.37-.57 1.16-.28 1.34-.79 1.43-1.51l.81.08Zm-.61-1.57v.8H59v-.8h-.57Zm.79-.59c.08-.11.16-.25.22-.38h-.72c-.07.13-.16.25-.24.38h.74Zm.98 1.4v-.8h-.56v.8h.56ZM66.23 17.26l.5.26-.08.08c-.25.35-.59.63-.98.86.59.14 1.27.21 2.03.24-.14.16-.32.45-.4.64-.96-.07-1.79-.22-2.49-.5-.77.27-1.66.42-2.57.5-.05-.17-.16-.43-.26-.58.73-.04 1.46-.13 2.09-.3a3.75 3.75 0 0 1-.61-.51c-.29.15-.62.29-1.01.42-.08-.16-.28-.4-.41-.5.77-.2 1.34-.49 1.7-.81h-.79v-2.33h1.36l.05-.23h-2.12v-.58h5.17v.58h-2.29c-.02.08-.05.16-.08.23h1.78v2.33H64.7s-.07.03-.11.03c-.06.07-.12.13-.19.19h1.73l.11-.02Zm-2.6-2.12v.23h2.44v-.23h-2.44Zm0 .64v.24h2.44v-.24h-2.44Zm0 .64v.24h2.44v-.24h-2.44Zm.47 1.36c.2.17.46.31.74.43.28-.12.53-.26.74-.43H64.1ZM68.28 19.32c.65-.55 1.19-1.59 1.19-2.8s-.55-2.27-1.19-2.8v-.03h.56c.62.55 1.12 1.61 1.12 2.83s-.5 2.28-1.12 2.83h-.56v-.03ZM.71 29.78c0-2.12.83-3.15 1.96-3.15s1.86 1.09 1.86 3.07c0 2.11-.74 3.19-1.95 3.19-1.1 0-1.87-1.09-1.87-3.11Zm3.14-.05c0-1.52-.37-2.56-1.22-2.56-.72 0-1.23.96-1.23 2.56s.45 2.61 1.21 2.61c.9 0 1.24-1.17 1.24-2.61ZM5.76 26.73h3.56v.43L6.78 32.8h-.69l2.54-5.49v-.02H5.76v-.56ZM10.6 32.38c0-.31.2-.53.49-.53s.48.22.48.53-.19.51-.49.51-.48-.24-.48-.51ZM14.4 32.79v-5.44h-.02l-1 .58-.16-.5 1.26-.7h.58v6.07h-.66ZM18.68 29.58c-.66-.32-.95-.85-.95-1.37 0-.94.74-1.58 1.72-1.58 1.1 0 1.63.75 1.63 1.47 0 .52-.28 1.09-1 1.43v.03c.75.32 1.21.86 1.21 1.59 0 1.03-.84 1.73-1.91 1.73-1.16 0-1.87-.74-1.87-1.61 0-.79.47-1.35 1.17-1.67v-.03Zm1.92 1.65c0-.76-.51-1.15-1.31-1.41-.71.24-1.09.75-1.09 1.35 0 .69.46 1.21 1.19 1.21.78 0 1.21-.53 1.21-1.16Zm-2.23-3.09c0 .65.45 1 1.13 1.21.53-.2.92-.62.92-1.19 0-.51-.28-1.04-1-1.04s-1.05.49-1.05 1.02ZM22.51 32.38c0-.31.2-.53.49-.53s.48.22.48.53-.19.51-.49.51-.48-.24-.48-.51ZM27.15 32.79h-2.66v-.31l.44-.46c1.07-1.08 1.61-1.73 1.61-2.46 0-.48-.21-.92-.86-.92-.36 0-.68.2-.9.37l-.17-.35c.28-.25.68-.44 1.16-.44.91 0 1.27.66 1.27 1.28 0 .85-.59 1.57-1.52 2.5l-.35.37 1.98.01v.41ZM28.04 30.56c0-1.57.61-2.33 1.45-2.33s1.37.8 1.37 2.27c0 1.56-.55 2.36-1.44 2.36-.82 0-1.38-.8-1.38-2.3Zm2.32-.04c0-1.12-.27-1.9-.9-1.9-.53 0-.91.71-.91 1.9s.33 1.93.89 1.93c.67 0 .92-.86.92-1.93ZM34.36 32.79H31.7v-.31l.44-.46c1.07-1.08 1.61-1.73 1.61-2.46 0-.48-.21-.92-.86-.92-.36 0-.68.2-.9.37l-.17-.35c.28-.25.68-.44 1.16-.44.91 0 1.27.66 1.27 1.28 0 .85-.59 1.57-1.52 2.5l-.35.37 1.98.01v.41ZM36.9 30.37c.53.09.98.52.98 1.16 0 .71-.52 1.34-1.52 1.34-.45 0-.86-.14-1.06-.29l.15-.38c.16.11.52.27.92.27.75 0 1-.53 1-.94 0-.66-.56-.96-1.15-.96h-.29v-.37h.29c.43 0 .99-.27.99-.83 0-.39-.23-.73-.77-.73-.33 0-.64.16-.82.29l-.15-.37c.22-.17.64-.34 1.07-.34.82 0 1.19.52 1.19 1.06 0 .46-.29.88-.82 1.06v.02ZM57.97 31h-.92c-.07.97-.38 1.87-1.47 2.48a3.38 3.38 0 0 0-.41-.31c1-.55 1.3-1.34 1.37-2.17h-.83v.52h-.48v-2.88l.62.04c0 .06-.05.1-.15.11v1.73h.85v-2.54h-1.69v-.49h1c-.1-.39-.32-.96-.57-1.38l.44-.17c.26.43.5 1 .6 1.39l-.36.15h2.85v.49h-1.76v2.54h.9v-1.88l.62.04c0 .06-.05.1-.15.11v2.64h-.48v-.43Zm.53-4.85s-.08.07-.17.07c-.16.37-.44.92-.66 1.28-.1-.03-.32-.13-.41-.15.21-.38.47-.99.61-1.4l.63.2Zm3.53.27v6.36c0 .67-.32.71-1.59.71-.02-.15-.1-.39-.18-.54h.66c.51 0 .57 0 .57-.19v-2.1h-1.88c-.15 1-.49 2.05-1.26 2.83-.09-.1-.31-.25-.44-.31 1.15-1.13 1.26-2.75 1.26-4.01V26.4h2.85ZM59.7 29.2c0 .31 0 .64-.04.99h1.83V28.8H59.7v.41Zm1.79-2.27H59.7v1.36h1.79v-1.36ZM.71 43.78c0-2.12.83-3.15 1.96-3.15s1.86 1.09 1.86 3.07c0 2.11-.74 3.19-1.95 3.19-1.1 0-1.87-1.09-1.87-3.11Zm3.14-.05c0-1.52-.37-2.56-1.22-2.56-.72 0-1.23.96-1.23 2.56s.45 2.61 1.21 2.61c.9 0 1.24-1.17 1.24-2.61ZM5.76 40.73h3.56v.43L6.78 46.8h-.69l2.54-5.49v-.02H5.76v-.56ZM10.6 46.38c0-.31.2-.53.49-.53s.48.22.48.53-.19.51-.49.51-.48-.24-.48-.51ZM16.28 46.79h-3.59v-.41l.59-.62c1.44-1.46 2.17-2.34 2.17-3.33 0-.65-.28-1.25-1.16-1.25-.49 0-.92.27-1.21.5l-.23-.47c.37-.33.92-.59 1.57-.59 1.22 0 1.71.89 1.71 1.73 0 1.14-.8 2.11-2.06 3.38l-.48.5v.02h2.68v.55ZM18.18 43.58a1.7 1.7 0 0 1 1.42-.75c1.03 0 1.72.77 1.72 1.94s-.68 2.12-1.86 2.12-1.98-.98-1.98-2.55.76-3.33 2.73-3.65c.23-.03.43-.06.57-.06v.56c-1.68 0-2.48 1.22-2.62 2.39h.02Zm2.46 1.24c0-.93-.5-1.47-1.23-1.47s-1.26.7-1.26 1.15c0 1.11.48 1.87 1.32 1.87.7 0 1.17-.63 1.17-1.55ZM22.51 46.38c0-.31.2-.53.49-.53s.48.22.48.53-.19.51-.49.51-.48-.24-.48-.51ZM27.15 46.79h-2.66v-.31l.44-.46c1.07-1.08 1.61-1.73 1.61-2.46 0-.48-.21-.92-.86-.92-.36 0-.68.2-.9.37l-.17-.35c.28-.25.68-.44 1.16-.44.91 0 1.27.66 1.27 1.28 0 .85-.59 1.57-1.52 2.5l-.35.37 1.98.01v.41ZM28.04 44.56c0-1.57.61-2.33 1.45-2.33s1.37.8 1.37 2.27c0 1.56-.55 2.36-1.44 2.36-.82 0-1.38-.8-1.38-2.3Zm2.32-.04c0-1.12-.27-1.9-.9-1.9-.53 0-.91.71-.91 1.9s.33 1.93.89 1.93c.67 0 .92-.86.92-1.93ZM34.36 46.79H31.7v-.31l.44-.46c1.07-1.08 1.61-1.73 1.61-2.46 0-.48-.21-.92-.86-.92-.36 0-.68.2-.9.37l-.17-.35c.28-.25.68-.44 1.16-.44.91 0 1.27.66 1.27 1.28 0 .85-.59 1.57-1.52 2.5l-.35.37 1.98.01v.41ZM36.9 44.37c.53.09.98.52.98 1.16 0 .71-.52 1.34-1.52 1.34-.45 0-.86-.14-1.06-.29l.15-.38c.16.11.52.27.92.27.75 0 1-.53 1-.94 0-.66-.56-.96-1.15-.96h-.29v-.37h.29c.43 0 .99-.27.99-.83 0-.39-.23-.73-.77-.73-.33 0-.64.16-.82.29l-.15-.37c.22-.17.64-.34 1.07-.34.82 0 1.19.52 1.19 1.06 0 .46-.29.88-.82 1.06v.02ZM58.65 46.54h3.68v.55h-7.37v-.55h3.12v-6.46l.74.05c0 .06-.06.1-.17.11v2.4h3.11v.55h-3.11v3.35ZM65.46 43.87l.12-.02.3.04s0 .12-.02.18c-.11 2.14-.2 2.89-.44 3.16-.18.21-.36.24-.92.24-.19 0-.41 0-.64-.02-.02-.16-.08-.38-.17-.53.45.04.85.04 1.03.04.11 0 .19-.02.24-.09.16-.17.27-.83.36-2.52h-1.31l-.05.34-.51-.08c.11-.63.24-1.66.29-2.43h1.56v-1.41h-1.88v-.51h2.41v2.67h-.53v-.25h-1.09l-.13 1.18h1.38Zm4.12 1.15c.58.68 1.17 1.6 1.38 2.22l-.49.25c-.06-.2-.17-.42-.3-.67-1.38.11-2.82.2-3.75.26 0 .06-.06.11-.12.11l-.2-.64.77-.02c.39-.46.81-1.02 1.22-1.61-.44-.47-1.17-1.08-1.79-1.5l.32-.39c.14.09.28.19.42.29.32-.47.67-1.07.92-1.58H66.1v-.52h2.01v-1.28l.69.05c0 .06-.06.1-.16.11v1.13h2.26v.52h-2.33l.13.06s-.1.07-.18.07c-.28.51-.73 1.21-1.12 1.73.37.29.73.59.99.85.43-.64.83-1.29 1.13-1.86l.62.32s-.1.08-.19.08c-.64 1.05-1.61 2.46-2.48 3.5.75-.03 1.6-.07 2.44-.11-.23-.4-.52-.8-.8-1.15l.45-.22ZM.71 57.78c0-2.12.83-3.15 1.96-3.15s1.86 1.09 1.86 3.07c0 2.11-.74 3.19-1.95 3.19-1.1 0-1.87-1.09-1.87-3.11Zm3.14-.05c0-1.52-.37-2.56-1.22-2.56-.72 0-1.23.96-1.23 2.56s.45 2.61 1.21 2.61c.9 0 1.24-1.17 1.24-2.61ZM6.78 57.58c-.66-.32-.95-.85-.95-1.37 0-.94.74-1.58 1.72-1.58 1.1 0 1.63.75 1.63 1.47 0 .52-.28 1.09-1 1.43v.03c.75.32 1.21.86 1.21 1.59 0 1.03-.84 1.73-1.91 1.73-1.16 0-1.87-.74-1.87-1.61 0-.79.47-1.35 1.17-1.67v-.03Zm1.92 1.65c0-.76-.51-1.15-1.31-1.41-.71.24-1.09.75-1.09 1.35 0 .69.46 1.21 1.19 1.21.78 0 1.21-.53 1.21-1.16Zm-2.23-3.09c0 .65.45 1 1.13 1.21.53-.2.92-.62.92-1.19 0-.51-.28-1.04-1-1.04s-1.05.49-1.05 1.02ZM10.6 60.38c0-.31.2-.53.49-.53s.48.22.48.53-.19.51-.49.51-.48-.24-.48-.51ZM12.62 57.78c0-2.12.83-3.15 1.96-3.15s1.86 1.09 1.86 3.07c0 2.11-.74 3.19-1.95 3.19-1.1 0-1.87-1.09-1.87-3.11Zm3.14-.05c0-1.52-.37-2.56-1.22-2.56-.72 0-1.23.96-1.23 2.56s.45 2.61 1.21 2.61c.9 0 1.24-1.17 1.24-2.61ZM21.15 60.79h-3.59v-.41l.59-.62c1.44-1.46 2.17-2.34 2.17-3.33 0-.65-.28-1.25-1.16-1.25-.49 0-.92.27-1.21.5l-.23-.47c.37-.33.92-.59 1.57-.59 1.22 0 1.71.89 1.71 1.73 0 1.14-.8 2.11-2.06 3.38l-.48.5v.02h2.68v.55ZM22.51 60.38c0-.31.2-.53.49-.53s.48.22.48.53-.19.51-.49.51-.48-.24-.48-.51ZM27.15 60.79h-2.66v-.31l.44-.46c1.07-1.08 1.61-1.73 1.61-2.46 0-.48-.21-.92-.86-.92-.36 0-.68.2-.9.37l-.17-.35c.28-.25.68-.44 1.16-.44.91 0 1.27.66 1.27 1.28 0 .85-.59 1.57-1.52 2.5l-.35.37 1.98.01v.41ZM28.04 58.56c0-1.57.61-2.33 1.45-2.33s1.37.8 1.37 2.27c0 1.56-.55 2.36-1.44 2.36-.82 0-1.38-.8-1.38-2.3Zm2.32-.04c0-1.12-.27-1.9-.9-1.9-.53 0-.91.71-.91 1.9s.33 1.93.89 1.93c.67 0 .92-.86.92-1.93ZM34.36 60.79H31.7v-.31l.44-.46c1.07-1.08 1.61-1.73 1.61-2.46 0-.48-.21-.92-.86-.92-.36 0-.68.2-.9.37l-.17-.35c.28-.25.68-.44 1.16-.44.91 0 1.27.66 1.27 1.28 0 .85-.59 1.57-1.52 2.5l-.35.37 1.98.01v.41ZM36.9 58.37c.53.09.98.52.98 1.16 0 .71-.52 1.34-1.52 1.34-.45 0-.86-.14-1.06-.29l.15-.38c.16.11.52.27.92.27.75 0 1-.53 1-.94 0-.66-.56-.96-1.15-.96h-.29v-.37h.29c.43 0 .99-.27.99-.83 0-.39-.23-.73-.77-.73-.33 0-.64.16-.82.29l-.15-.37c.22-.17.64-.34 1.07-.34.82 0 1.19.52 1.19 1.06 0 .46-.29.88-.82 1.06v.02ZM56.31 57.53c-.63 0-.8-.21-.8-.82v-1.4h-.59v-.48h1.72v-.88l.67.05c0 .06-.05.09-.15.11v.72h1.64v.48h-2.78v1.41c0 .25.06.33.28.33h1.45c.18 0 .47 0 .62-.04.02.14.04.37.06.48-.12.03-.4.04-.66.04h-1.46Zm2.6 3.28h3.45v.47h-7.43v-.47h3.43v-.77h-2.38v-.46h2.38v-.76h-2.75v-.47h6.13v.47h-2.83v.76h2.43v.46h-2.43v.77Zm3.19-6.54v.17c-.09 2.25-.17 3.01-.37 3.27-.17.2-.39.23-.74.23-.18 0-.38 0-.6-.02 0-.13-.06-.32-.13-.45.36.03.68.03.83.03.19 0 .29-.08.37-.79h-1.98c-.19.61-.5 1.09-.96 1.4-.08-.09-.24-.25-.37-.32.9-.61 1.13-1.86 1.14-3.53h2.54l.28.02Zm-2.4 1.41c-.03.22-.07.43-.11.62h1.9l.05-.62h-1.83Zm1.87-1h-1.79c0 .21-.02.41-.04.61h1.81l.02-.61ZM.71 71.78c0-2.12.83-3.15 1.96-3.15s1.86 1.09 1.86 3.07c0 2.11-.74 3.19-1.95 3.19-1.1 0-1.87-1.09-1.87-3.11Zm3.14-.05c0-1.52-.37-2.56-1.22-2.56-.72 0-1.23.96-1.23 2.56s.45 2.61 1.21 2.61c.9 0 1.24-1.17 1.24-2.61ZM6.78 71.58c-.66-.32-.95-.85-.95-1.37 0-.94.74-1.58 1.72-1.58 1.1 0 1.63.75 1.63 1.47 0 .52-.28 1.09-1 1.43v.03c.75.32 1.21.86 1.21 1.59 0 1.03-.84 1.73-1.91 1.73-1.16 0-1.87-.74-1.87-1.61 0-.79.47-1.35 1.17-1.67v-.03Zm1.92 1.65c0-.76-.51-1.15-1.31-1.41-.71.24-1.09.75-1.09 1.35 0 .69.46 1.21 1.19 1.21.78 0 1.21-.53 1.21-1.16Zm-2.23-3.09c0 .65.45 1 1.13 1.21.53-.2.92-.62.92-1.19 0-.51-.28-1.04-1-1.04s-1.05.49-1.05 1.02ZM10.6 74.38c0-.31.2-.53.49-.53s.48.22.48.53-.19.51-.49.51-.48-.24-.48-.51ZM12.62 71.78c0-2.12.83-3.15 1.96-3.15s1.86 1.09 1.86 3.07c0 2.11-.74 3.19-1.95 3.19-1.1 0-1.87-1.09-1.87-3.11Zm3.14-.05c0-1.52-.37-2.56-1.22-2.56-.72 0-1.23.96-1.23 2.56s.45 2.61 1.21 2.61c.9 0 1.24-1.17 1.24-2.61ZM18.68 71.58c-.66-.32-.95-.85-.95-1.37 0-.94.74-1.58 1.72-1.58 1.1 0 1.63.75 1.63 1.47 0 .52-.28 1.09-1 1.43v.03c.75.32 1.21.86 1.21 1.59 0 1.03-.84 1.73-1.91 1.73-1.16 0-1.87-.74-1.87-1.61 0-.79.47-1.35 1.17-1.67v-.03Zm1.92 1.65c0-.76-.51-1.15-1.31-1.41-.71.24-1.09.75-1.09 1.35 0 .69.46 1.21 1.19 1.21.78 0 1.21-.53 1.21-1.16Zm-2.23-3.09c0 .65.45 1 1.13 1.21.53-.2.92-.62.92-1.19 0-.51-.28-1.04-1-1.04s-1.05.49-1.05 1.02ZM22.51 74.38c0-.31.2-.53.49-.53s.48.22.48.53-.19.51-.49.51-.48-.24-.48-.51ZM27.15 74.79h-2.66v-.31l.44-.46c1.07-1.08 1.61-1.73 1.61-2.46 0-.48-.21-.92-.86-.92-.36 0-.68.2-.9.37l-.17-.35c.28-.25.68-.44 1.16-.44.91 0 1.27.66 1.27 1.28 0 .85-.59 1.57-1.52 2.5l-.35.37 1.98.01v.41ZM28.04 72.56c0-1.57.61-2.33 1.45-2.33s1.37.8 1.37 2.27c0 1.56-.55 2.36-1.44 2.36-.82 0-1.38-.8-1.38-2.3Zm2.32-.04c0-1.12-.27-1.9-.9-1.9-.53 0-.91.71-.91 1.9s.33 1.93.89 1.93c.67 0 .92-.86.92-1.93ZM34.36 74.79H31.7v-.31l.44-.46c1.07-1.08 1.61-1.73 1.61-2.46 0-.48-.21-.92-.86-.92-.36 0-.68.2-.9.37l-.17-.35c.28-.25.68-.44 1.16-.44.91 0 1.27.66 1.27 1.28 0 .85-.59 1.57-1.52 2.5l-.35.37 1.98.01v.41ZM36.9 72.37c.53.09.98.52.98 1.16 0 .71-.52 1.34-1.52 1.34-.45 0-.86-.14-1.06-.29l.15-.38c.16.11.52.27.92.27.75 0 1-.53 1-.94 0-.66-.56-.96-1.15-.96h-.29v-.37h.29c.43 0 .99-.27.99-.83 0-.39-.23-.73-.77-.73-.33 0-.64.16-.82.29l-.15-.37c.22-.17.64-.34 1.07-.34.82 0 1.19.52 1.19 1.06 0 .46-.29.88-.82 1.06v.02ZM62.3 69.11h-3.44l-.09.02v1.41l.04-.05c1.03.5 2.36 1.26 3.03 1.77l-.38.49c-.58-.47-1.72-1.16-2.69-1.68v4.4h-.58V69.1h-3.2v-.54h7.3v.54ZM65.46 71.87l.12-.02.3.04s0 .12-.02.18c-.11 2.14-.2 2.89-.44 3.16-.18.21-.36.24-.92.24-.19 0-.41 0-.64-.02-.02-.16-.08-.38-.17-.53.45.04.85.04 1.03.04.11 0 .19-.02.24-.09.16-.17.27-.83.36-2.52h-1.31l-.05.34-.51-.08c.11-.63.24-1.66.29-2.43h1.56v-1.41h-1.88v-.51h2.41v2.67h-.53v-.25h-1.09l-.13 1.18h1.38Zm4.12 1.15c.58.68 1.17 1.6 1.38 2.22l-.49.25c-.06-.2-.17-.42-.3-.67-1.38.11-2.82.2-3.75.26 0 .06-.06.11-.12.11l-.2-.64.77-.02c.39-.46.81-1.02 1.22-1.61-.44-.47-1.17-1.08-1.79-1.5l.32-.39c.14.09.28.19.42.29.32-.47.67-1.07.92-1.58H66.1v-.52h2.01v-1.28l.69.05c0 .06-.06.1-.16.11v1.13h2.26v.52h-2.33l.13.06s-.1.07-.18.07c-.28.51-.73 1.21-1.12 1.73.37.29.73.59.99.85.43-.64.83-1.29 1.13-1.86l.62.32s-.1.08-.19.08c-.64 1.05-1.61 2.46-2.48 3.5.75-.03 1.6-.07 2.44-.11-.23-.4-.52-.8-.8-1.15l.45-.22Z" class="cls-1"/><path d="M52.43 30.28c0 1.5-1.21 2.71-2.71 2.71s-2.71-1.21-2.71-2.71 1.21-2.71 2.71-2.71 2.71 1.21 2.71 2.71Z" class="cls-3"/><path d="M52.43 58.21c0 1.5-1.21 2.71-2.71 2.71s-2.71-1.21-2.71-2.71 1.21-2.71 2.71-2.71 2.71 1.21 2.71 2.71ZM49.72 41.53c1.5 0 2.71 1.21 2.71 2.71s-1.21 2.71-2.71 2.71" class="cls-2"/><path d="M49.72 41.53c-1.5 0-2.71 1.21-2.71 2.71s1.21 2.71 2.71 2.71" class="cls-3"/><path d="M49.72 74.88c-1.5 0-2.71-1.21-2.71-2.71s1.21-2.71 2.71-2.71" class="cls-2"/><path d="M49.72 74.88c1.5 0 2.71-1.21 2.71-2.71s-1.21-2.71-2.71-2.71" class="cls-3"/></g></svg>