<svg xmlns="http://www.w3.org/2000/svg" id="_レイヤー_2" viewBox="0 0 108.25 76.41"><defs><style>.cls-1,.cls-2{fill:#fff}.cls-3{fill:none}.cls-2,.cls-3{stroke:#fff;stroke-width:.5px}</style></defs><g id="text_solar"><path d="M1.03.36h2.7l-.17.77H1.85l-.26 1.2h1.63l-.15.77H1.43L.98 5.24H0L1.03.36ZM6.9 4.73c-.04.22-.08.41-.09.52h-.92l.06-.35h-.01c-.26.24-.62.43-1.02.43-.71 0-1.18-.44-1.18-1.16 0-.27.07-.56.12-.78l.38-1.75h.94l-.35 1.7c-.05.25-.11.49-.11.76 0 .3.21.5.51.5.65 0 .89-.61 1.01-1.15l.38-1.81h.94l-.67 3.09ZM8.58 2.04c.03-.14.06-.29.08-.4h.88l-.08.48h.01c.25-.37.67-.57 1.11-.57s.87.25.92.69h.01c.24-.47.76-.69 1.27-.69a1 1 0 0 1 1 .99c0 .32-.08.69-.16.98l-.38 1.72h-.94l.38-1.76c.05-.22.12-.55.12-.77 0-.27-.2-.43-.44-.43-.65 0-.81.76-.93 1.25l-.37 1.72h-.94l.38-1.76c.05-.22.12-.55.12-.77 0-.27-.2-.43-.44-.43-.64 0-.81.76-.93 1.25l-.37 1.72h-.94l.66-3.21ZM15.06 1.65H16l-.77 3.61h-.94l.77-3.61ZM15.4.1h.94l-.2.9h-.94l.2-.9ZM19.58 2.37l-2.21 2.15h1.81l-.13.73h-3.02l.15-.73 2.22-2.15h-1.66l.16-.73h2.84l-.15.73ZM23.26 4.73c-.04.22-.08.41-.09.52h-.92l.06-.35h-.01c-.26.24-.62.43-1.02.43-.71 0-1.18-.44-1.18-1.16 0-.27.07-.56.12-.78l.38-1.75h.94l-.35 1.7c-.05.25-.11.49-.11.76 0 .3.21.5.51.5.65 0 .89-.61 1.01-1.15l.38-1.81h.94l-.67 3.09ZM25.4 0h.94l-.62 2.96h.01l1.31-1.31h1.22L26.53 3.3l1.08 1.96h-1.06l-.93-1.91h-.01l-.41 1.91h-.92L25.39.01ZM29.05 1.65h.94l-.77 3.61h-.94l.77-3.61ZM29.39.1h.94l-.2.9h-.94l.2-.9ZM35.94.36h2.07v.41h-1.64v1.74h1.56v.41h-1.56v1.93h1.72v.41h-2.15V.36ZM41.22 4.45c0 .27.02.53.04.8h-.36l-.03-.51h-.01c-.25.39-.54.56-1 .56-.55 0-.99-.46-.99-1.04 0-1.14 1.21-1.16 1.72-1.16h.26c0-.45 0-1.09-.74-1.09-.48 0-.85.34-.9.37l-.06-.43c.34-.18.59-.32.98-.32 1.1 0 1.1.92 1.1 1.18v1.64Zm-.38-1c-.84 0-1.55 0-1.55.81 0 .3.22.66.66.66.19 0 .89-.08.89-1.05v-.42ZM42.25 2.79c0-.37-.02-.74-.03-1.11h.38c0 .21.02.42.03.57h.01c.26-.51.56-.62.95-.62v.43c-.64 0-.94.28-.94.94v2.25h-.41V2.78ZM44.36 0h.41v5.25h-.41V0ZM46.72 4.65h.01l.8-2.97h.41l-1.17 4.24c-.13.48-.25.89-.81.89-.11 0-.17-.01-.27-.04l.02-.41c.07.05.2.08.29.08.2 0 .3-.19.36-.41l.18-.68-1.05-3.66h.43l.8 2.97ZM51.4.36h.46l1.62 4.89h-.46l-.43-1.34h-1.95l-.44 1.34h-.43L51.39.36Zm-.62 3.14h1.69L51.64.82h-.01l-.85 2.68ZM56.44 4.15c0 .37.02.74.03 1.11h-.38c-.01-.16-.02-.27-.03-.53h-.01c-.04.15-.31.57-.91.57-.78 0-.99-.56-.99-1.13V1.68h.41v2.41c0 .25 0 .83.67.83.5 0 .81-.47.81-1.02V1.68h.41v2.47ZM58.12.84v.84h.73v.38h-.73v2.33c0 .29.05.54.39.54.19 0 .26-.04.34-.08v.41c-.1.04-.28.05-.47.05-.52 0-.67-.41-.67-.81V2.06h-.53v-.38h.53V.97l.41-.13ZM61.89 4.15c0 .37.02.74.03 1.11h-.38c-.01-.16-.02-.27-.03-.53h-.01c-.04.15-.31.57-.91.57-.78 0-.99-.56-.99-1.13V1.68h.41v2.41c0 .25 0 .83.67.83.5 0 .81-.47.81-1.02V1.68h.41v2.47ZM62.95 2.79c0-.37-.02-.74-.03-1.11h.38c.01.16.02.27.03.53h.01c.11-.26.37-.57.83-.57.59 0 .74.37.82.57.1-.17.37-.57.89-.57.72 0 .92.6.92 1.16v2.46h-.41V2.85c0-.25 0-.83-.58-.83-.5 0-.74.45-.74.95v2.29h-.41V2.77c0-.46-.2-.76-.54-.76-.46 0-.78.47-.78 1.02v2.22h-.41V2.78ZM67.84 2.79c0-.37-.02-.74-.03-1.11h.38c.01.16.02.27.03.53h.01c.08-.15.32-.57.91-.57.99 0 .99.99.99 1.23v2.4h-.41V2.86c0-.25 0-.83-.67-.83-.5 0-.81.47-.81 1.02v2.22h-.41V2.8ZM69.11 56.11H67v2.04h-.28v-.5c-.51.08-1.01.14-1.34.19 0 .03-.03.05-.06.06l-.1-.3.41-.04v-1.45h-.39v-.24h3.87v.24Zm-.56-1.73v1.21H65.8v-1.21h2.75Zm-1.83 2.03v-.3h-.82v.3h.82Zm0 .53v-.31h-.82v.31h.82Zm-.82.22v.36c.26-.03.54-.06.82-.09v-.27h-.82Zm2.37-2.29v-.29h-2.19v.29h2.19Zm0 .5v-.3h-2.19v.3h2.19Zm.47 1.01.18.07s-.03.03-.04.05c-.13.39-.35.72-.61.99.25.19.54.33.88.42-.06.06-.14.16-.17.23-.34-.1-.64-.26-.9-.47-.25.21-.54.37-.83.48-.03-.07-.11-.17-.16-.23.28-.09.56-.24.8-.43-.22-.23-.4-.5-.52-.81l.17-.05h-.4v-.24h1.61Zm-1.13.25c.11.26.26.5.47.69.2-.2.36-.43.47-.69h-.94ZM66.13 60.58v1.39c.33.51.94.51 1.71.51.46 0 1-.01 1.33-.03-.03.07-.08.2-.09.29-.29.01-.76.02-1.18.02-.88 0-1.46 0-1.89-.53-.21.19-.43.38-.62.52 0 .04 0 .06-.04.07l-.17-.32c.2-.14.46-.33.67-.52v-1.13h-.63v-.27h.9Zm-.63-1.6c.29.18.61.46.76.67l-.23.19c-.14-.21-.46-.5-.75-.69l.21-.17Zm2.52 1.48h-.88c-.02.55-.14 1.23-.6 1.73a.948.948 0 0 0-.2-.2c.48-.51.54-1.21.54-1.75v-1l.23.06c.55-.11 1.16-.26 1.5-.41l.28.23s-.02.01-.08.01c-.41.15-1.06.3-1.65.41v.65h1.97v.27h-.81v1.8h-.29v-1.8ZM69.11 28.28H67v2.04h-.28v-.5c-.51.08-1.01.14-1.34.19 0 .03-.03.05-.06.06l-.1-.3.41-.04v-1.45h-.39v-.24h3.87v.24Zm-.56-1.73v1.21H65.8v-1.21h2.75Zm-1.83 2.03v-.3h-.82v.3h.82Zm0 .53v-.31h-.82v.31h.82Zm-.82.22v.36c.26-.03.54-.06.82-.09v-.27h-.82Zm2.37-2.29v-.29h-2.19v.29h2.19Zm0 .5v-.3h-2.19v.3h2.19Zm.47 1.01.18.07s-.03.03-.04.05c-.13.39-.34.72-.61.99.25.19.54.33.88.42-.06.06-.14.16-.17.23-.34-.1-.64-.26-.9-.47-.25.21-.54.37-.83.48-.03-.07-.11-.17-.16-.23.28-.09.56-.24.8-.43-.22-.23-.4-.5-.52-.81l.17-.05h-.4v-.24h1.61Zm-1.13.25c.11.26.26.5.47.69.2-.2.36-.43.47-.69h-.94ZM66.06 32.75v1.4c.33.51.95.51 1.75.51.47 0 1.01 0 1.34-.03-.03.06-.08.2-.09.28-.29 0-.76.02-1.18.02-.94 0-1.52 0-1.95-.53-.2.19-.4.38-.56.52 0 .03 0 .05-.03.07l-.17-.3c.18-.14.41-.32.6-.51v-1.16h-.56v-.27h.84Zm-.57-1.6c.27.2.57.5.7.71l-.23.18c-.12-.22-.42-.52-.69-.73l.22-.16Zm2.01 3.31v-.85c-.3.26-.7.48-1.08.62-.03-.05-.11-.16-.16-.21.42-.14.87-.39 1.16-.69h-.77v-.89h2.02v.89h-.85.01s-.03.03-.06.04c.1.14.22.27.37.39.21-.13.48-.32.63-.46l.26.17s-.06.03-.08.03c-.16.11-.41.27-.62.39.22.14.47.25.74.32-.06.05-.14.15-.17.22-.43-.13-.83-.38-1.12-.7v.75h-.27Zm1.56-2.5v.23h-2.78v-.23h1.23v-.33h-.99v-.23h.99v-.37l.36.02s-.03.05-.08.06v.29h1.01v.23h-1.01v.33h1.28Zm-2.14.67v.48h1.47v-.48h-1.47ZM76 27.93h.56l2.05 4.34h.01v-4.34h.41v4.89h-.56l-2.05-4.31h-.01v4.31H76v-4.89ZM80.45 31.16c0 1.32.85 1.32 1.01 1.32.23 0 .57-.11.77-.29l.02.47c-.17.09-.41.2-.83.2-1.4 0-1.4-1.48-1.4-1.83 0-1.34.67-1.83 1.27-1.83 1.04 0 1.14 1.1 1.14 1.97h-1.97Zm1.54-.38c0-.95-.4-1.21-.73-1.21-.55 0-.81.75-.81 1.21h1.54ZM82.9 29.25h.43l.75 3.14h.01l.72-3.14h.52l.78 3.14h.01l.74-3.14h.41l-.93 3.57h-.5l-.77-3.11h-.01l-.73 3.11h-.48l-.96-3.57ZM89.6 27.93h.67l1.36 4.24h.01L93 27.93h.67v4.89h-.41v-4.48h-.01l-1.44 4.48h-.33l-1.45-4.48h-.01v4.48h-.41v-4.89ZM94.65 31.03c0-.9.29-1.83 1.34-1.83s1.34.94 1.34 1.83-.29 1.83-1.34 1.83-1.34-.94-1.34-1.83Zm2.24 0c0-.29 0-1.46-.9-1.46s-.9 1.17-.9 1.46 0 1.46.9 1.46.9-1.17.9-1.46ZM98.05 31.03c0-.9.29-1.83 1.34-1.83s1.34.94 1.34 1.83-.29 1.83-1.34 1.83-1.34-.94-1.34-1.83Zm2.24 0c0-.29 0-1.46-.9-1.46s-.9 1.17-.9 1.46 0 1.46.9 1.46.9-1.17.9-1.46ZM101.61 30.35c0-.37-.02-.74-.03-1.11h.38c.01.16.02.27.03.53h.01c.08-.15.32-.57.91-.57.99 0 .99.99.99 1.23v2.4h-.41v-2.41c0-.25 0-.83-.67-.83-.5 0-.81.47-.81 1.02v2.22h-.41v-2.47ZM76 41.93h2v.41h-1.56v1.74h1.49v.41h-1.49v2.34h-.43v-4.89ZM78.86 41.82h.49v.63h-.49v-.63Zm.04 1.42h.41v3.57h-.41v-3.57ZM80.37 44.35c0-.37-.02-.74-.03-1.11h.38c0 .21.02.42.03.57h.01c.26-.51.56-.62.95-.62v.43c-.64 0-.94.28-.94.94v2.25h-.41v-2.46ZM83.97 43.72c-.2-.08-.38-.15-.61-.15-.42 0-.61.32-.61.57 0 .33.13.4.61.67.49.27.87.45.87 1.02 0 .64-.46 1.04-1.06 1.04-.44 0-.69-.09-.9-.17l.06-.46c.12.08.48.25.81.25.38 0 .66-.29.66-.62 0-.34-.22-.48-.64-.69-.6-.3-.84-.49-.84-1 0-.67.57-.99 1.05-.99.24 0 .53.06.66.11l-.06.42ZM85.69 42.41v.84h.73v.38h-.73v2.33c0 .29.05.54.39.54.19 0 .26-.04.34-.08v.41c-.1.04-.28.05-.47.05-.52 0-.67-.41-.67-.81v-2.44h-.53v-.38h.53v-.71l.41-.13ZM91.38 47.71l-.79-.88s-.13.03-.26.03c-1.72 0-1.72-2.07-1.72-2.49s0-2.49 1.72-2.49 1.72 2.07 1.72 2.49c0 .36 0 1.89-1.04 2.35l.91.99h-.55Zm-1.04-1.25c1.26 0 1.26-1.7 1.26-2.09s0-2.09-1.26-2.09-1.26 1.7-1.26 2.09 0 2.09 1.26 2.09ZM95.33 45.71c0 .37.02.74.03 1.11h-.38c-.01-.16-.02-.27-.03-.53h-.01c-.04.15-.31.57-.91.57-.78 0-.99-.56-.99-1.13v-2.49h.41v2.41c0 .25 0 .83.67.83.5 0 .81-.47.81-1.02v-2.22h.41v2.47ZM98.53 46.02c0 .27.02.53.04.8h-.36l-.03-.51h-.01c-.25.39-.54.56-1 .56-.55 0-.99-.46-.99-1.04 0-1.14 1.21-1.16 1.72-1.16h.26c0-.45 0-1.09-.74-1.09-.48 0-.85.34-.9.37l-.06-.43c.34-.18.59-.32.98-.32 1.1 0 1.1.92 1.1 1.18v1.64Zm-.38-1c-.84 0-1.55 0-1.55.81 0 .3.22.66.66.66.19 0 .89-.08.89-1.05v-.42ZM99.56 44.35c0-.37-.02-.74-.03-1.11h.38c0 .21.02.42.03.57h.01c.26-.51.56-.62.95-.62v.43c-.64 0-.94.28-.94.94v2.25h-.41v-2.46ZM102.39 42.41v.84h.73v.38h-.73v2.33c0 .29.05.54.39.54.19 0 .26-.04.34-.08v.41c-.1.04-.28.05-.47.05-.52 0-.67-.41-.67-.81v-2.44h-.53v-.38h.53v-.71l.41-.13ZM104.07 45.16c0 1.32.85 1.32 1.01 1.32.23 0 .57-.11.77-.29l.02.47c-.17.09-.41.2-.83.2-1.4 0-1.4-1.48-1.4-1.83 0-1.34.67-1.83 1.27-1.83 1.04 0 1.14 1.1 1.14 1.97h-1.97Zm1.54-.38c0-.95-.4-1.21-.73-1.21-.55 0-.81.75-.81 1.21h1.54ZM106.91 44.35c0-.37-.02-.74-.03-1.11h.38c0 .21.02.42.03.57h.01c.26-.51.56-.62.95-.62v.43c-.64 0-.94.28-.94.94v2.25h-.41v-2.46ZM76 55.93h2v.41h-1.56v1.74h1.49v.41h-1.49v2.34h-.43v-4.89ZM81.12 59.71c0 .37.02.74.03 1.11h-.38c-.01-.16-.02-.27-.03-.53h-.01c-.04.15-.31.57-.91.57-.78 0-.99-.56-.99-1.13v-2.49h.41v2.41c0 .25 0 .83.67.83.5 0 .81-.47.81-1.02v-2.22h.41v2.47ZM82.19 55.56h.41v5.25h-.41v-5.25ZM83.67 55.56h.41v5.25h-.41v-5.25ZM86.83 55.93h.67l1.36 4.24h.01l1.36-4.24h.67v4.89h-.41v-4.48h-.01l-1.44 4.48h-.33l-1.45-4.48h-.01v4.48h-.41v-4.89ZM91.88 59.03c0-.9.29-1.83 1.34-1.83s1.34.94 1.34 1.83-.29 1.83-1.34 1.83-1.34-.94-1.34-1.83Zm2.24 0c0-.29 0-1.46-.9-1.46s-.9 1.17-.9 1.46 0 1.46.9 1.46.9-1.17.9-1.46ZM95.28 59.03c0-.9.29-1.83 1.34-1.83s1.34.94 1.34 1.83-.29 1.83-1.34 1.83-1.34-.94-1.34-1.83Zm2.24 0c0-.29 0-1.46-.9-1.46s-.9 1.17-.9 1.46 0 1.46.9 1.46.9-1.17.9-1.46ZM98.84 58.35c0-.37-.02-.74-.03-1.11h.38c.01.16.02.27.03.53h.01c.08-.15.32-.57.91-.57.99 0 .99.99.99 1.23v2.4h-.41v-2.41c0-.25 0-.83-.67-.83-.5 0-.81.47-.81 1.02v2.22h-.41v-2.46ZM76 69.93h.43v4.48h1.59v.41H76v-4.89ZM81.01 74.02c0 .27.02.53.04.8h-.36l-.03-.51h-.01c-.25.39-.54.56-1 .56-.55 0-.99-.46-.99-1.04 0-1.14 1.21-1.16 1.72-1.16h.26c0-.45 0-1.09-.74-1.09-.48 0-.85.34-.9.37l-.06-.43c.34-.18.59-.32.98-.32 1.1 0 1.1.92 1.1 1.18v1.64Zm-.38-1c-.84 0-1.55 0-1.55.81 0 .3.22.66.66.66.19 0 .89-.08.89-1.05v-.42ZM83.53 71.72c-.2-.08-.38-.15-.61-.15-.42 0-.61.32-.61.57 0 .33.13.4.61.67.49.27.87.45.87 1.02 0 .64-.46 1.04-1.06 1.04-.44 0-.69-.09-.9-.17l.06-.46c.12.08.48.25.81.25.38 0 .66-.29.66-.62 0-.34-.22-.48-.64-.69-.6-.3-.84-.49-.84-1 0-.67.57-.99 1.05-.99.24 0 .53.06.66.11l-.06.42ZM85.25 70.41v.84h.73v.38h-.73v2.33c0 .29.05.54.39.54.19 0 .26-.04.34-.08v.41c-.1.04-.28.05-.47.05-.52 0-.67-.41-.67-.81v-2.44h-.53v-.38h.53v-.71l.41-.13ZM90.94 75.71l-.79-.88s-.13.03-.26.03c-1.72 0-1.72-2.07-1.72-2.49s0-2.49 1.72-2.49 1.72 2.07 1.72 2.49c0 .36 0 1.89-1.04 2.35l.91.99h-.55Zm-1.04-1.25c1.26 0 1.26-1.7 1.26-2.09s0-2.09-1.26-2.09-1.26 1.7-1.26 2.09 0 2.09 1.26 2.09ZM94.89 73.71c0 .37.02.74.03 1.11h-.38c-.01-.16-.02-.27-.03-.53h-.01c-.04.15-.31.57-.91.57-.78 0-.99-.56-.99-1.13v-2.49h.41v2.41c0 .25 0 .83.67.83.5 0 .81-.47.81-1.02v-2.22h.41v2.47ZM98.09 74.02c0 .27.02.53.04.8h-.36l-.03-.51h-.01c-.25.39-.54.56-1 .56-.55 0-.99-.46-.99-1.04 0-1.14 1.21-1.16 1.72-1.16h.26c0-.45 0-1.09-.74-1.09-.48 0-.85.34-.9.37l-.06-.43c.34-.18.59-.32.98-.32 1.1 0 1.1.92 1.1 1.18v1.64Zm-.38-1c-.84 0-1.55 0-1.55.81 0 .3.22.66.66.66.19 0 .89-.08.89-1.05v-.42ZM99.12 72.35c0-.37-.02-.74-.03-1.11h.38c0 .21.02.42.03.57h.01c.26-.51.56-.62.95-.62v.43c-.64 0-.94.28-.94.94v2.25h-.41v-2.46ZM101.95 70.41v.84h.73v.38h-.73v2.33c0 .29.05.54.39.54.19 0 .26-.04.34-.08v.41c-.1.04-.28.05-.47.05-.52 0-.67-.41-.67-.81v-2.44h-.53v-.38h.53v-.71l.41-.13ZM103.63 73.16c0 1.32.85 1.32 1.01 1.32.23 0 .57-.11.77-.29l.02.47c-.17.09-.41.2-.83.2-1.4 0-1.4-1.48-1.4-1.83 0-1.34.67-1.83 1.27-1.83 1.04 0 1.14 1.1 1.14 1.97h-1.97Zm1.54-.38c0-.95-.4-1.21-.73-1.21-.55 0-.81.75-.81 1.21h1.54ZM106.47 72.35c0-.37-.02-.74-.03-1.11h.38c0 .21.02.42.03.57h.01c.26-.51.56-.62.95-.62v.43c-.64 0-.94.28-.94.94v2.25h-.41v-2.46ZM3.42 18.62c0 .54.07.61.58.61h1.52c.5 0 .59-.25.66-1.39.25.18.69.37.98.43-.14 1.43-.45 1.94-1.56 1.94H3.9c-1.2 0-1.54-.35-1.54-1.59v-2.03l-2.12.32-.16-.98 2.28-.35V13l1.28.07c0 .09-.07.14-.23.16v2.19l4.01-.61.16 1-4.17.62v2.19ZM14.85 13.2v6.04c0 1.09-.51 1.22-2.33 1.22-.06-.28-.25-.76-.41-1.02.38.02.81.02 1.11.02.53 0 .59 0 .59-.23v-1.26h-3.42c-.23.94-.67 1.86-1.52 2.51-.15-.2-.53-.58-.74-.72 1.37-1.04 1.48-2.61 1.48-3.86v-2.69h5.23Zm-4.23 2.85c0 .31-.02.63-.06.97h3.26v-.97h-3.2Zm3.2-1.9h-3.2v.98h3.2v-.98ZM18.99 20.07h-.81l2.13-6.69h.81l-2.13 6.69ZM31.3 15.05h-1.57l.58.19c-.05.08-.14.11-.25.11-.44 1.11-1 2.03-1.71 2.78.84.62 1.87 1.09 3.11 1.34-.23.23-.54.7-.7.98-1.31-.33-2.38-.85-3.25-1.57-.88.69-1.95 1.21-3.22 1.58-.11-.25-.38-.68-.56-.91 1.18-.3 2.2-.75 3.03-1.38-.74-.81-1.3-1.81-1.75-2.97l.52-.16h-1.69v-.95h3.21v-1.3l1.22.07c0 .08-.07.13-.22.15v1.07h3.25v.95Zm-5.28 0c.36.92.87 1.73 1.54 2.42.63-.67 1.13-1.46 1.47-2.42h-3.01ZM38.59 13.2v6.04c0 1.09-.51 1.22-2.33 1.22-.06-.28-.25-.76-.41-1.02.38.02.81.02 1.11.02.53 0 .59 0 .59-.23v-1.26h-3.42c-.23.94-.67 1.86-1.52 2.51-.15-.2-.53-.58-.74-.72 1.37-1.04 1.48-2.61 1.48-3.86v-2.69h5.23Zm-4.23 2.85c0 .31-.02.63-.06.97h3.26v-.97h-3.2Zm3.2-1.9h-3.2v.98h3.2v-.98ZM45.7 14.63c-.65.55-1.19 1.59-1.19 2.8s.55 2.27 1.19 2.8v.03h-.56c-.62-.55-1.12-1.61-1.12-2.83s.5-2.29 1.12-2.83h.56v.03ZM49.08 17.26s-.1.04-.16.03c-.11.14-.3.35-.46.51.18.17.34.32.41.4l-.43.54c-.12-.17-.32-.43-.52-.66v2.18h-.71v-1.98c-.19.2-.39.39-.58.54-.07-.18-.26-.53-.37-.66.59-.41 1.18-1.12 1.55-1.84h-1.39v-.65h.79V14.6l.87.05c0 .06-.05.1-.16.11v.91h.27l.11-.03.48.28s-.06.07-.11.08c-.18.45-.43.91-.72 1.34.05.04.1.08.16.14.15-.2.34-.47.44-.67l.52.44Zm2.41-2.2.4.02c0 .05 0 .16-.01.25-.06 3.12-.11 4.18-.35 4.5-.25.38-.5.41-1.42.4-.01-.21-.1-.53-.23-.74.32.02.6.02.74.02.1 0 .16-.02.23-.12.17-.2.23-1.18.28-3.65h-.89c-.05 1.64-.17 3.47-1.56 4.52a2.17 2.17 0 0 0-.53-.56c1.25-.88 1.34-2.41 1.37-3.96h-.88v-.68h2.84ZM54.54 17.22c.19.17.73.73.84.86l-.4.59c-.09-.18-.27-.46-.44-.71v2.3h-.7v-2.2c-.22.49-.47.95-.73 1.27a3.9 3.9 0 0 0-.35-.71c.36-.39.72-1.03.95-1.62h-.85v-.67h.98v-.71c-.28.07-.55.13-.82.18-.03-.14-.13-.39-.21-.53.74-.16 1.55-.41 2.03-.67l.59.53s-.09.04-.16.04c-.2.09-.46.18-.73.26v.91h.75v.67h-.75v.22Zm3.94-.99s-.08.07-.17.07c-.16.43-.42 1.04-.64 1.42l-.53-.22c.14.68.53 1.54 1.37 2.08-.14.17-.34.48-.44.67-.83-.53-1.24-1.59-1.33-2.09-.1.53-.51 1.55-1.38 2.09-.08-.17-.29-.49-.42-.65 1.14-.71 1.45-2.03 1.45-2.7v-2.3l.88.06c-.01.07-.07.13-.18.15v2.09c0 .16.02.37.07.59.2-.42.42-1.07.53-1.55l.8.28Zm-2.35-.16c-.02.7-.14 1.35-.53 1.75l-.51-.38c.3-.3.43-.87.45-1.45l.59.09ZM59.09 20.23c.65-.55 1.19-1.59 1.19-2.8s-.55-2.27-1.19-2.8v-.03h.56c.62.55 1.12 1.61 1.12 2.83s-.5 2.28-1.12 2.83h-.56v-.03ZM.09 30.7c0-2.12.83-3.15 1.96-3.15s1.86 1.09 1.86 3.07c0 2.11-.74 3.19-1.95 3.19-1.1 0-1.87-1.09-1.87-3.11Zm3.14-.05c0-1.52-.37-2.56-1.22-2.56-.72 0-1.23.96-1.23 2.56s.45 2.61 1.21 2.61c.9 0 1.24-1.17 1.24-2.61ZM6.16 30.49c-.66-.32-.95-.85-.95-1.37 0-.94.74-1.58 1.72-1.58 1.1 0 1.63.75 1.63 1.47 0 .52-.28 1.09-1 1.43v.03c.75.32 1.21.86 1.21 1.59 0 1.03-.84 1.73-1.91 1.73-1.16 0-1.87-.74-1.87-1.61 0-.79.47-1.35 1.17-1.67v-.03Zm1.92 1.65c0-.76-.51-1.15-1.31-1.41-.71.24-1.09.75-1.09 1.35 0 .69.46 1.21 1.19 1.21.78 0 1.21-.53 1.21-1.16Zm-2.23-3.09c0 .65.45 1 1.13 1.21.53-.2.92-.62.92-1.19 0-.51-.28-1.04-1-1.04s-1.05.49-1.05 1.02ZM9.98 33.3c0-.31.2-.53.49-.53s.48.22.48.53-.19.51-.49.51-.48-.24-.48-.51ZM13.78 33.71v-5.44h-.02l-1 .58-.16-.5 1.26-.7h.58v6.07h-.66ZM17.56 30.49a1.7 1.7 0 0 1 1.42-.75c1.03 0 1.72.77 1.72 1.94s-.68 2.12-1.86 2.12-1.98-.98-1.98-2.55.76-3.33 2.73-3.65c.23-.03.43-.06.57-.06v.56c-1.68 0-2.48 1.22-2.62 2.39h.02Zm2.46 1.24c0-.93-.5-1.47-1.23-1.47s-1.26.7-1.26 1.15c0 1.11.48 1.87 1.32 1.87.7 0 1.17-.63 1.17-1.55ZM21.89 33.3c0-.31.2-.53.49-.53s.48.22.48.53-.19.51-.49.51-.48-.24-.48-.51ZM26.53 33.71h-2.66v-.31l.44-.46c1.07-1.08 1.61-1.73 1.61-2.46 0-.48-.21-.92-.86-.92-.36 0-.68.2-.9.37l-.17-.35c.28-.25.68-.44 1.16-.44.91 0 1.27.66 1.27 1.28 0 .85-.59 1.57-1.52 2.5l-.35.37 1.98.01v.41ZM27.43 31.48c0-1.57.61-2.33 1.45-2.33s1.37.8 1.37 2.27c0 1.56-.55 2.36-1.44 2.36-.82 0-1.38-.8-1.38-2.3Zm2.32-.04c0-1.12-.27-1.9-.9-1.9-.53 0-.91.71-.91 1.9s.33 1.93.89 1.93c.67 0 .92-.86.92-1.93ZM33.74 33.71h-2.66v-.31l.44-.46c1.07-1.08 1.61-1.73 1.61-2.46 0-.48-.21-.92-.86-.92-.36 0-.68.2-.9.37l-.17-.35c.28-.25.68-.44 1.16-.44.91 0 1.27.66 1.27 1.28 0 .85-.59 1.57-1.52 2.5l-.35.37 1.98.01v.41ZM36.28 31.28c.53.09.98.52.98 1.16 0 .71-.52 1.34-1.52 1.34-.45 0-.86-.14-1.06-.29l.15-.38c.16.11.52.27.92.27.75 0 1-.53 1-.94 0-.66-.56-.96-1.15-.96h-.29v-.37h.29c.43 0 .99-.27.99-.83 0-.39-.23-.73-.77-.73-.33 0-.64.16-.82.29l-.15-.37c.22-.17.64-.34 1.07-.34.82 0 1.19.52 1.19 1.06 0 .46-.29.88-.82 1.06v.02ZM57.36 31.92h-.92c-.07.97-.38 1.87-1.47 2.48a3.38 3.38 0 0 0-.41-.31c1-.55 1.3-1.34 1.37-2.17h-.83v.52h-.48v-2.88l.62.04c0 .06-.05.1-.15.11v1.73h.85V28.9h-1.69v-.49h1c-.1-.39-.32-.96-.57-1.38l.44-.17c.26.43.5 1 .6 1.39l-.36.15h2.85v.49h-1.76v2.54h.9v-1.88l.62.04c0 .06-.05.1-.15.11v2.64h-.48v-.43Zm.53-4.85s-.08.07-.17.07c-.16.37-.44.92-.66 1.28-.1-.03-.32-.13-.41-.15.21-.38.47-.99.61-1.4l.63.2Zm3.53.27v6.36c0 .67-.32.71-1.59.71-.02-.15-.1-.39-.18-.54h.66c.51 0 .57 0 .57-.19v-2.1H59c-.15 1-.49 2.05-1.26 2.83-.09-.1-.31-.25-.44-.31 1.15-1.13 1.26-2.75 1.26-4.01v-2.77h2.85Zm-2.33 2.78c0 .31 0 .64-.04.99h1.83v-1.39h-1.79v.41Zm1.79-2.27h-1.79v1.36h1.79v-1.36ZM.09 44.7c0-2.12.83-3.15 1.96-3.15s1.86 1.09 1.86 3.07c0 2.11-.74 3.19-1.95 3.19-1.1 0-1.87-1.09-1.87-3.11Zm3.14-.05c0-1.52-.37-2.56-1.22-2.56-.72 0-1.23.96-1.23 2.56s.45 2.61 1.21 2.61c.9 0 1.24-1.17 1.24-2.61ZM6.16 44.49c-.66-.32-.95-.85-.95-1.37 0-.94.74-1.58 1.72-1.58 1.1 0 1.63.75 1.63 1.47 0 .52-.28 1.09-1 1.43v.03c.75.32 1.21.86 1.21 1.59 0 1.03-.84 1.73-1.91 1.73-1.16 0-1.87-.74-1.87-1.61 0-.79.47-1.35 1.17-1.67v-.03Zm1.92 1.65c0-.76-.51-1.15-1.31-1.41-.71.24-1.09.75-1.09 1.35 0 .69.46 1.21 1.19 1.21.78 0 1.21-.53 1.21-1.16Zm-2.23-3.09c0 .65.45 1 1.13 1.21.53-.2.92-.62.92-1.19 0-.51-.28-1.04-1-1.04s-1.05.49-1.05 1.02ZM9.98 47.3c0-.31.2-.53.49-.53s.48.22.48.53-.19.51-.49.51-.48-.24-.48-.51ZM15.66 47.71h-3.59v-.41l.59-.62c1.44-1.46 2.17-2.34 2.17-3.33 0-.65-.28-1.25-1.16-1.25-.49 0-.92.27-1.21.5l-.23-.47c.37-.33.92-.59 1.57-.59 1.22 0 1.71.89 1.71 1.73 0 1.14-.8 2.11-2.06 3.38l-.48.5v.02h2.68v.55ZM19.99 47.71h-.64v-1.7H16.7v-.43l2.59-3.94h.7v3.85h.83v.52h-.83v1.7Zm-2.61-2.22h1.97v-2.16c0-.33.02-.66.03-.97h-.03c-.19.37-.33.63-.49.91l-1.48 2.2v.02ZM21.89 47.3c0-.31.2-.53.49-.53s.48.22.48.53-.19.51-.49.51-.48-.24-.48-.51ZM26.53 47.71h-2.66v-.31l.44-.46c1.07-1.08 1.61-1.73 1.61-2.46 0-.48-.21-.92-.86-.92-.36 0-.68.2-.9.37l-.17-.35c.28-.25.68-.44 1.16-.44.91 0 1.27.66 1.27 1.28 0 .85-.59 1.57-1.52 2.5l-.35.37 1.98.01v.41ZM27.43 45.48c0-1.57.61-2.33 1.45-2.33s1.37.8 1.37 2.27c0 1.56-.55 2.36-1.44 2.36-.82 0-1.38-.8-1.38-2.3Zm2.32-.04c0-1.12-.27-1.9-.9-1.9-.53 0-.91.71-.91 1.9s.33 1.93.89 1.93c.67 0 .92-.86.92-1.93ZM33.74 47.71h-2.66v-.31l.44-.46c1.07-1.08 1.61-1.73 1.61-2.46 0-.48-.21-.92-.86-.92-.36 0-.68.2-.9.37l-.17-.35c.28-.25.68-.44 1.16-.44.91 0 1.27.66 1.27 1.28 0 .85-.59 1.57-1.52 2.5l-.35.37 1.98.01v.41ZM36.28 45.28c.53.09.98.52.98 1.16 0 .71-.52 1.34-1.52 1.34-.45 0-.86-.14-1.06-.29l.15-.38c.16.11.52.27.92.27.75 0 1-.53 1-.94 0-.66-.56-.96-1.15-.96h-.29v-.37h.29c.43 0 .99-.27.99-.83 0-.39-.23-.73-.77-.73-.33 0-.64.16-.82.29l-.15-.37c.22-.17.64-.34 1.07-.34.82 0 1.19.52 1.19 1.06 0 .46-.29.88-.82 1.06v.02ZM58.04 47.46h3.68v.55h-7.37v-.55h3.12V41l.74.05c0 .06-.06.1-.17.11v2.4h3.11v.55h-3.11v3.35ZM64.85 44.79l.12-.02.3.04s0 .12-.02.18c-.11 2.14-.2 2.89-.44 3.16-.18.21-.36.24-.92.24-.19 0-.41 0-.64-.02-.02-.16-.08-.38-.17-.53.45.04.85.04 1.03.04.11 0 .19-.02.24-.09.16-.17.27-.83.36-2.52H63.4l-.05.34-.51-.08c.11-.63.24-1.66.29-2.43h1.56v-1.41h-1.88v-.51h2.41v2.67h-.53v-.25H63.6l-.13 1.18h1.38Zm4.12 1.15c.58.68 1.17 1.6 1.38 2.22l-.49.25c-.06-.2-.17-.42-.3-.67-1.38.11-2.82.2-3.75.26 0 .06-.06.11-.12.11l-.2-.64.77-.02c.39-.46.81-1.02 1.22-1.61-.44-.47-1.17-1.08-1.79-1.5l.32-.39c.14.09.28.19.42.29.32-.47.67-1.07.92-1.58h-1.86v-.52h2.01v-1.28l.69.05c0 .06-.06.1-.16.11v1.13h2.26v.52h-2.33l.13.06s-.1.07-.18.07c-.28.51-.73 1.21-1.12 1.73.37.29.73.59.99.85.43-.64.83-1.29 1.13-1.86l.62.32s-.1.08-.19.08c-.64 1.05-1.61 2.46-2.48 3.5.75-.03 1.6-.07 2.44-.11-.23-.4-.52-.8-.8-1.15l.45-.22ZM.09 58.7c0-2.12.83-3.15 1.96-3.15s1.86 1.09 1.86 3.07c0 2.11-.74 3.19-1.95 3.19-1.1 0-1.87-1.09-1.87-3.11Zm3.14-.05c0-1.52-.37-2.56-1.22-2.56-.72 0-1.23.96-1.23 2.56s.45 2.61 1.21 2.61c.9 0 1.24-1.17 1.24-2.61ZM6.16 58.49c-.66-.32-.95-.85-.95-1.37 0-.94.74-1.58 1.72-1.58 1.1 0 1.63.75 1.63 1.47 0 .52-.28 1.09-1 1.43v.03c.75.32 1.21.86 1.21 1.59 0 1.03-.84 1.73-1.91 1.73-1.16 0-1.87-.74-1.87-1.61 0-.79.47-1.35 1.17-1.67v-.03Zm1.92 1.65c0-.76-.51-1.15-1.31-1.41-.71.24-1.09.75-1.09 1.35 0 .69.46 1.21 1.19 1.21.78 0 1.21-.53 1.21-1.16Zm-2.23-3.09c0 .65.45 1 1.13 1.21.53-.2.92-.62.92-1.19 0-.51-.28-1.04-1-1.04s-1.05.49-1.05 1.02ZM9.98 61.3c0-.31.2-.53.49-.53s.48.22.48.53-.19.51-.49.51-.48-.24-.48-.51ZM14.22 58.43c.71.12 1.32.7 1.32 1.57 0 .96-.7 1.81-2.06 1.81-.61 0-1.16-.2-1.43-.39l.2-.52c.22.15.71.37 1.24.37 1.02 0 1.35-.71 1.35-1.27 0-.89-.75-1.3-1.55-1.3h-.4v-.5h.4c.58 0 1.34-.36 1.34-1.13 0-.53-.32-.98-1.04-.98-.45 0-.87.22-1.11.4l-.2-.5c.29-.23.86-.45 1.44-.45 1.11 0 1.6.71 1.6 1.43 0 .62-.4 1.18-1.1 1.43v.02ZM18.65 61.71v-5.44h-.02l-1 .58-.16-.5 1.26-.7h.58v6.07h-.66ZM21.89 61.3c0-.31.2-.53.49-.53s.48.22.48.53-.19.51-.49.51-.48-.24-.48-.51ZM26.53 61.71h-2.66v-.31l.44-.46c1.07-1.08 1.61-1.73 1.61-2.46 0-.48-.21-.92-.86-.92-.36 0-.68.2-.9.37l-.17-.35c.28-.25.68-.44 1.16-.44.91 0 1.27.66 1.27 1.28 0 .85-.59 1.57-1.52 2.5l-.35.37 1.98.01v.41ZM27.43 59.48c0-1.57.61-2.33 1.45-2.33s1.37.8 1.37 2.27c0 1.56-.55 2.36-1.44 2.36-.82 0-1.38-.8-1.38-2.3Zm2.32-.04c0-1.12-.27-1.9-.9-1.9-.53 0-.91.71-.91 1.9s.33 1.93.89 1.93c.67 0 .92-.86.92-1.93ZM33.74 61.71h-2.66v-.31l.44-.46c1.07-1.08 1.61-1.73 1.61-2.46 0-.48-.21-.92-.86-.92-.36 0-.68.2-.9.37l-.17-.35c.28-.25.68-.44 1.16-.44.91 0 1.27.66 1.27 1.28 0 .85-.59 1.57-1.52 2.5l-.35.37 1.98.01v.41ZM36.28 59.28c.53.09.98.52.98 1.16 0 .71-.52 1.34-1.52 1.34-.45 0-.86-.14-1.06-.29l.15-.38c.16.11.52.27.92.27.75 0 1-.53 1-.94 0-.66-.56-.96-1.15-.96h-.29v-.37h.29c.43 0 .99-.27.99-.83 0-.39-.23-.73-.77-.73-.33 0-.64.16-.82.29l-.15-.37c.22-.17.64-.34 1.07-.34.82 0 1.19.52 1.19 1.06 0 .46-.29.88-.82 1.06v.02ZM55.69 58.44c-.63 0-.8-.21-.8-.82v-1.4h-.59v-.48h1.72v-.88l.67.05c0 .06-.05.09-.15.11v.72h1.64v.48H55.4v1.41c0 .25.06.33.28.33h1.45c.18 0 .47 0 .62-.04.02.14.04.37.06.48-.12.03-.4.04-.66.04h-1.46Zm2.6 3.28h3.45v.47h-7.43v-.47h3.43v-.77h-2.38v-.46h2.38v-.76h-2.75v-.47h6.13v.47h-2.83v.76h2.43v.46h-2.43v.77Zm3.19-6.54v.17c-.09 2.25-.17 3.01-.37 3.27-.17.2-.39.23-.74.23-.18 0-.38 0-.6-.02 0-.13-.06-.32-.13-.45.36.03.68.03.83.03.19 0 .29-.08.37-.79h-1.98c-.19.61-.5 1.09-.96 1.4-.08-.09-.24-.25-.37-.32.9-.61 1.13-1.86 1.14-3.53h2.54l.28.02Zm-2.4 1.41c-.03.22-.07.43-.11.62h1.9l.05-.62h-1.83Zm1.87-1h-1.79c0 .21-.02.41-.04.61h1.81l.02-.61ZM.09 72.7c0-2.12.83-3.15 1.96-3.15s1.86 1.09 1.86 3.07c0 2.11-.74 3.19-1.95 3.19-1.1 0-1.87-1.09-1.87-3.11Zm3.14-.05c0-1.52-.37-2.56-1.22-2.56-.72 0-1.23.96-1.23 2.56s.45 2.61 1.21 2.61c.9 0 1.24-1.17 1.24-2.61ZM8.09 72.84c-.33.42-.8.67-1.39.67-1.04 0-1.68-.81-1.68-1.84 0-1.11.73-2.13 1.92-2.13s1.86.99 1.86 2.54c0 2.02-1.02 3.42-2.58 3.66-.28.05-.54.07-.72.06v-.56c.17.02.37 0 .62-.04 1.02-.15 1.79-.97 1.99-2.36h-.02ZM5.7 71.63c0 .82.46 1.37 1.16 1.37.66 0 1.26-.5 1.26-.99 0-1.17-.43-1.95-1.23-1.95-.71 0-1.18.66-1.18 1.57ZM9.99 75.3c0-.31.2-.53.49-.53s.48.22.48.53-.19.51-.49.51-.48-.24-.48-.51ZM12.01 72.7c0-2.12.83-3.15 1.96-3.15s1.86 1.09 1.86 3.07c0 2.11-.74 3.19-1.95 3.19-1.1 0-1.87-1.09-1.87-3.11Zm3.14-.05c0-1.52-.37-2.56-1.22-2.56-.72 0-1.23.96-1.23 2.56s.45 2.61 1.21 2.61c.9 0 1.24-1.17 1.24-2.61ZM17.06 69.64h3.56v.43l-2.54 5.64h-.69l2.54-5.49v-.02h-2.87v-.56ZM21.9 75.3c0-.31.2-.53.49-.53s.48.22.48.53-.19.51-.49.51-.48-.24-.48-.51ZM26.54 75.71h-2.66v-.31l.44-.46c1.07-1.08 1.61-1.73 1.61-2.46 0-.48-.21-.92-.86-.92-.36 0-.68.2-.9.37l-.17-.35c.28-.25.68-.44 1.16-.44.91 0 1.27.66 1.27 1.28 0 .85-.59 1.57-1.52 2.5l-.35.37 1.98.01v.41ZM27.43 73.48c0-1.57.61-2.33 1.45-2.33s1.37.8 1.37 2.27c0 1.56-.55 2.36-1.44 2.36-.82 0-1.38-.8-1.38-2.3Zm2.32-.04c0-1.12-.27-1.9-.9-1.9-.53 0-.91.71-.91 1.9s.33 1.93.89 1.93c.67 0 .92-.86.92-1.93ZM33.75 75.71h-2.66v-.31l.44-.46c1.07-1.08 1.61-1.73 1.61-2.46 0-.48-.21-.92-.86-.92-.36 0-.68.2-.9.37l-.17-.35c.28-.25.68-.44 1.16-.44.91 0 1.27.66 1.27 1.28 0 .85-.59 1.57-1.52 2.5l-.35.37 1.98.01v.41ZM36.29 73.28c.53.09.98.52.98 1.16 0 .71-.52 1.34-1.52 1.34-.45 0-.86-.14-1.06-.29l.15-.38c.16.11.52.27.92.27.75 0 1-.53 1-.94 0-.66-.56-.96-1.15-.96h-.29v-.37h.29c.43 0 .99-.27.99-.83 0-.39-.23-.73-.77-.73-.33 0-.64.16-.82.29l-.15-.37c.22-.17.64-.34 1.07-.34.82 0 1.19.52 1.19 1.06 0 .46-.29.88-.82 1.06v.02ZM61.68 70.02h-3.44l-.09.02v1.41l.04-.05c1.03.5 2.36 1.26 3.03 1.77l-.38.49c-.58-.47-1.72-1.16-2.69-1.68v4.4h-.58v-6.37h-3.2v-.54h7.3v.54ZM64.85 72.79l.12-.02.3.04s0 .12-.02.18c-.11 2.14-.2 2.89-.44 3.16-.18.21-.36.24-.92.24-.19 0-.41 0-.64-.02-.02-.16-.08-.38-.17-.53.45.04.85.04 1.03.04.11 0 .19-.02.24-.09.16-.17.27-.83.36-2.52H63.4l-.05.34-.51-.08c.11-.63.24-1.66.29-2.43h1.56v-1.41h-1.88v-.51h2.41v2.67h-.53v-.25H63.6l-.13 1.18h1.38Zm4.12 1.15c.58.68 1.17 1.6 1.38 2.22l-.49.25c-.06-.2-.17-.42-.3-.67-1.38.11-2.82.2-3.75.26 0 .06-.06.11-.12.11l-.2-.64.77-.02c.39-.46.81-1.02 1.22-1.61-.44-.47-1.17-1.08-1.79-1.5l.32-.39c.14.09.28.19.42.29.32-.47.67-1.07.92-1.58h-1.86v-.52h2.01v-1.28l.69.05c0 .06-.06.1-.16.11v1.13h2.26v.52h-2.33l.13.06s-.1.07-.18.07c-.28.51-.73 1.21-1.12 1.73.37.29.73.59.99.85.43-.64.83-1.29 1.13-1.86l.62.32s-.1.08-.19.08c-.64 1.05-1.61 2.46-2.48 3.5.75-.03 1.6-.07 2.44-.11-.23-.4-.52-.8-.8-1.15l.45-.22Z" class="cls-1"/><path d="M51.82 31.2c0 1.5-1.21 2.71-2.71 2.71S46.4 32.7 46.4 31.2s1.21-2.71 2.71-2.71 2.71 1.21 2.71 2.71Z" class="cls-3"/><path d="M51.82 59.13c0 1.5-1.21 2.71-2.71 2.71s-2.71-1.21-2.71-2.71 1.21-2.71 2.71-2.71 2.71 1.21 2.71 2.71ZM49.1 42.45c1.5 0 2.71 1.21 2.71 2.71s-1.21 2.71-2.71 2.71" class="cls-2"/><path d="M49.1 42.45c-1.5 0-2.71 1.21-2.71 2.71s1.21 2.71 2.71 2.71" class="cls-3"/><path d="M49.1 75.8c-1.5 0-2.71-1.21-2.71-2.71s1.21-2.71 2.71-2.71" class="cls-2"/><path d="M49.1 75.8c1.5 0 2.71-1.21 2.71-2.71s-1.21-2.71-2.71-2.71" class="cls-3"/></g></svg>