<svg xmlns="http://www.w3.org/2000/svg" id="_レイヤー_2" viewBox="0 0 108.89 80.01"><defs><style>.cls-1,.cls-2{fill:#fff}.cls-3{fill:none}.cls-2,.cls-3{stroke:#fff;stroke-width:.5px}</style></defs><g id="text_solar"><path d="M1.85.26h.33l1.16 3.49h-.33l-.31-.96H1.31l-.32.96H.68L1.85.26ZM1.4 2.5h1.21L2.02.59 1.41 2.5ZM3.9 1.99c0-.27-.02-.53-.02-.79h.27c0 .15.01.3.02.41.19-.37.4-.44.68-.44v.31c-.46 0-.67.2-.67.67v1.61h-.29V2ZM5.25 2.48c0-.64.21-1.31.96-1.31s.96.67.96 1.31-.21 1.31-.96 1.31-.96-.67-.96-1.31Zm1.6 0c0-.21 0-1.04-.65-1.04s-.65.84-.65 1.04 0 1.04.65 1.04.65-.84.65-1.04ZM9.45 2.96c0 .27.02.53.02.79H9.2c0-.12-.01-.19-.02-.38h-.01c-.03.11-.22.41-.65.41-.56 0-.71-.4-.71-.81V1.19h.29v1.72c0 .18 0 .6.48.6.35 0 .58-.33.58-.73V1.19h.29v1.76ZM10.22 1.99c0-.27-.01-.53-.02-.79h.27c0 .12.01.19.02.38h.01c.06-.11.22-.41.65-.41.71 0 .71.71.71.88v1.71h-.29V2.04c0-.17 0-.6-.48-.6-.36 0-.58.34-.58.73v1.59h-.29V2ZM14.3 2.91c0 .4 0 .63.02.85h-.27v-.35h-.01c-.19.24-.35.39-.67.39-.83 0-.86-1.05-.86-1.41 0-.49.21-1.22.85-1.22.33 0 .52.13.65.37h.01V0h.29v2.91Zm-.9.61c.5 0 .63-.49.63-1.01 0-.34 0-1.07-.62-1.07-.44 0-.59.45-.59 1.04 0 .21 0 1.04.58 1.04ZM17.05.26h.33l1.16 3.49h-.33l-.31-.96h-1.39l-.32.96h-.31L17.04.26ZM16.6 2.5h1.21L17.22.59l-.61 1.91ZM20.67 2.96c0 .27.02.53.02.79h-.27c0-.12-.01-.19-.02-.38h-.01c-.03.11-.22.41-.65.41-.56 0-.71-.4-.71-.81V1.19h.29v1.72c0 .18 0 .6.48.6.35 0 .58-.33.58-.73V1.19h.29v1.76ZM21.89.6v.6h.52v.27h-.52v1.66c0 .21.04.38.28.38.13 0 .19-.03.24-.05v.29c-.07.03-.2.04-.33.04-.38 0-.48-.29-.48-.58V1.47h-.38V1.2h.38V.69l.29-.09ZM24.61 2.96c0 .27.02.53.02.79h-.27c0-.12-.01-.19-.02-.38h-.01c-.03.11-.22.41-.65.41-.56 0-.71-.4-.71-.81V1.19h.29v1.72c0 .18 0 .6.48.6.35 0 .58-.33.58-.73V1.19h.29v1.76ZM25.38 1.99c0-.27-.01-.53-.02-.79h.27c0 .12.01.19.02.38h.01c.08-.19.26-.41.59-.41.42 0 .53.27.59.41.08-.12.27-.41.64-.41.52 0 .66.43.66.83v1.76h-.29V2.04c0-.17 0-.6-.42-.6-.36 0-.53.32-.53.68v1.64h-.29V1.98c0-.33-.14-.54-.38-.54-.33 0-.56.34-.56.73v1.59h-.29V2ZM28.91 1.99c0-.27-.02-.53-.02-.79h.27c0 .12.01.19.02.38.06-.11.23-.41.65-.41.71 0 .71.71.71.88v1.71h-.29V2.04c0-.17 0-.6-.48-.6-.36 0-.58.34-.58.73v1.59h-.29V2ZM32.48.26h1.48v.29h-1.17v1.24h1.12v.29h-1.12v1.38h1.23v.29h-1.54V.26ZM36.36 4.83h-.29V3.4h-.01c-.15.26-.34.39-.65.39-.64 0-.85-.73-.85-1.22 0-.36.03-1.41.86-1.41.32 0 .52.15.67.41h.01v-.38h.27c0 .22-.02.45-.02.85v2.79Zm-.9-1.32c.48 0 .63-.43.63-1.07 0-.52-.13-1.01-.63-1.01-.58 0-.58.83-.58 1.04 0 .59.15 1.04.58 1.04ZM38.75 2.96c0 .27.02.53.02.79h-.27c0-.12-.01-.19-.02-.38h-.01c-.03.11-.22.41-.65.41-.56 0-.71-.4-.71-.81V1.19h.29v1.72c0 .18 0 .6.48.6.35 0 .58-.33.58-.73V1.19h.29v1.76ZM39.51.19h.35v.45h-.35V.19Zm.03 1.02h.29v2.55h-.29V1.2ZM40.62 1.99c0-.27-.01-.53-.02-.79h.27c0 .12.01.19.02.38h.01c.06-.11.22-.41.65-.41.71 0 .71.71.71.88v1.71h-.29V2.04c0-.17 0-.6-.48-.6-.36 0-.58.34-.58.73v1.59h-.29V2ZM42.9 2.48c0-.64.21-1.31.96-1.31s.96.67.96 1.31-.21 1.31-.96 1.31-.96-.67-.96-1.31Zm1.6 0c0-.21 0-1.04-.65-1.04s-.65.84-.65 1.04 0 1.04.65 1.04.65-.84.65-1.04ZM45.2 1.2h.35l.5.95.53-.95h.33l-.69 1.2.76 1.36h-.35l-.59-1.12-.57 1.12h-.33l.72-1.38-.66-1.18ZM1.02 6.3H2l-.41 1.98h1.98l.41-1.98h.98l-1.02 4.89h-.98l.45-2.14H1.43l-.45 2.14H0L1.02 6.3ZM7.45 10.63h-.01c-.32.41-.64.64-1.16.64-.65 0-1.11-.36-1.11-1.03 0-1.19 1.33-1.28 2.21-1.28h.33c.03-.1.03-.2.03-.31 0-.36-.39-.47-.72-.47-.41 0-.81.1-1.18.28l.13-.75c.4-.14.81-.22 1.23-.22.72 0 1.4.27 1.4 1.11 0 .48-.36 1.9-.44 2.58h-.79l.1-.55Zm-.92-.05c.7 0 .92-.48 1.06-1.06h-.33c-.46 0-1.21.08-1.21.69 0 .25.24.38.48.38ZM12.42 8.31l-2.21 2.15h1.81l-.13.73H8.87l.15-.73 2.22-2.15H9.58l.16-.73h2.84l-.15.73ZM16.1 10.67c-.04.22-.08.41-.09.52h-.92l.06-.35h-.01c-.26.24-.62.43-1.02.43-.71 0-1.18-.44-1.18-1.16 0-.27.07-.56.12-.78l.38-1.75h.94l-.35 1.7c-.05.25-.11.49-.11.76 0 .3.21.5.51.5.65 0 .89-.61 1.01-1.15l.38-1.81h.94l-.67 3.09ZM18.24 5.93h.94l-.62 2.96h.01l1.31-1.31h1.22l-1.73 1.65 1.08 1.96h-1.06l-.93-1.91h-.01l-.41 1.91h-.92l1.11-5.25ZM21.89 7.58h.94l-.77 3.61h-.94l.77-3.61Zm.34-1.55h.94l-.2.9h-.94l.2-.9ZM28.79 6.3h.67l1.36 4.24h.01l1.36-4.24h.67v4.89h-.41V6.71h-.01L31 11.19h-.33l-1.45-4.48h-.01v4.48h-.41V6.3ZM33.98 6.19h.49v.63h-.49v-.63Zm.04 1.42h.41v3.57h-.41V7.61ZM37.83 10c0 .56.01.88.03 1.18h-.38v-.49h-.01c-.27.34-.49.54-.94.54-1.16 0-1.21-1.47-1.21-1.97 0-.68.29-1.7 1.18-1.7.46 0 .72.18.9.51h.01V5.93h.41V10Zm-1.26.85c.69 0 .88-.69.88-1.42 0-.48 0-1.5-.88-1.5-.61 0-.82.63-.82 1.46 0 .29 0 1.46.81 1.46ZM38.77 9.03h1.43v.41h-1.43v-.41ZM43.24 10.39c0 .27.02.53.04.8h-.36l-.03-.51h-.01c-.25.39-.54.56-1 .56-.55 0-.99-.46-.99-1.04 0-1.14 1.21-1.16 1.72-1.16h.26c0-.45 0-1.09-.74-1.09-.48 0-.85.34-.9.37l-.06-.43c.34-.18.59-.32.98-.32 1.1 0 1.1.92 1.1 1.18v1.64Zm-.38-1c-.84 0-1.55 0-1.55.81 0 .3.22.66.66.66.19 0 .89-.08.89-1.05v-.42ZM46.54 10.08c0 .37.02.74.03 1.11h-.38c-.01-.16-.02-.27-.03-.53h-.01c-.04.15-.31.57-.91.57-.78 0-.99-.56-.99-1.13V7.61h.41v2.41c0 .25 0 .83.67.83.5 0 .81-.47.81-1.02V7.61h.41v2.46ZM48.22 6.77v.84h.73v.38h-.73v2.33c0 .29.05.54.39.54.19 0 .26-.04.34-.08v.41c-.1.04-.28.05-.47.05-.52 0-.67-.41-.67-.8V8h-.53v-.38h.53v-.71l.41-.13ZM52 10.08c0 .37.02.74.03 1.11h-.38c-.01-.16-.02-.27-.03-.53h-.01c-.04.15-.31.57-.91.57-.78 0-.99-.56-.99-1.13V7.61h.41v2.41c0 .25 0 .83.67.83.5 0 .81-.47.81-1.02V7.61h.41v2.46ZM53.05 8.72c0-.37-.02-.74-.03-1.11h.38c.01.16.02.27.03.52h.01c.11-.26.37-.57.83-.57.59 0 .74.37.82.57.1-.17.37-.57.89-.57.72 0 .92.6.92 1.16v2.46h-.41V8.77c0-.25 0-.83-.58-.83-.5 0-.74.45-.74.95v2.29h-.41V8.69c0-.46-.2-.76-.54-.76-.46 0-.78.47-.78 1.02v2.22h-.41V8.71ZM57.94 8.72c0-.37-.02-.74-.03-1.11h.38c.01.16.02.27.03.52h.01c.08-.15.32-.57.91-.57.99 0 .99.99.99 1.23v2.4h-.41V8.78c0-.25 0-.83-.67-.83-.5 0-.81.47-.81 1.02v2.22h-.41V8.73ZM76.64 32.22h.56l2.05 4.34h.01v-4.34h.41v4.89h-.56l-2.05-4.31h-.01v4.31h-.41v-4.89ZM81.09 35.46c0 1.32.85 1.32 1.01 1.32.23 0 .57-.11.77-.29l.02.47c-.17.09-.41.2-.83.2-1.4 0-1.4-1.48-1.4-1.83 0-1.34.67-1.83 1.27-1.83 1.04 0 1.14 1.1 1.14 1.97H81.1Zm1.54-.38c0-.95-.4-1.21-.73-1.21-.55 0-.81.75-.81 1.21h1.54ZM83.54 33.54h.43l.75 3.14h.01l.72-3.14h.52l.78 3.14h.01l.74-3.14h.41l-.93 3.57h-.5L85.71 34h-.01l-.73 3.11h-.48l-.96-3.57ZM90.24 32.22h.67l1.36 4.24h.01l1.36-4.24h.67v4.89h-.41v-4.48h-.01l-1.44 4.48h-.33l-1.45-4.48h-.01v4.48h-.41v-4.89ZM95.29 35.32c0-.9.29-1.83 1.34-1.83s1.34.94 1.34 1.83-.29 1.83-1.34 1.83-1.34-.94-1.34-1.83Zm2.24 0c0-.29 0-1.46-.9-1.46s-.9 1.17-.9 1.46 0 1.46.9 1.46.9-1.17.9-1.46ZM98.69 35.32c0-.9.29-1.83 1.34-1.83s1.34.94 1.34 1.83-.29 1.83-1.34 1.83-1.34-.94-1.34-1.83Zm2.24 0c0-.29 0-1.46-.9-1.46s-.9 1.17-.9 1.46 0 1.46.9 1.46.9-1.17.9-1.46ZM102.25 34.64c0-.37-.02-.74-.03-1.11h.38c.01.16.02.27.03.52h.01c.08-.15.32-.57.91-.57.99 0 .99.99.99 1.23v2.4h-.41V34.7c0-.25 0-.83-.67-.83-.5 0-.81.47-.81 1.02v2.22h-.41v-2.46ZM76.64 46.22h2v.41h-1.56v1.74h1.49v.41h-1.49v2.34h-.43v-4.89ZM79.5 46.12h.49v.63h-.49v-.63Zm.04 1.42h.41v3.57h-.41v-3.57ZM81.01 48.65c0-.37-.02-.74-.03-1.11h.38c0 .21.02.42.03.57h.01c.26-.51.56-.62.95-.62v.43c-.64 0-.94.28-.94.94v2.25H81v-2.46ZM84.61 48.01c-.2-.08-.38-.15-.61-.15-.42 0-.61.32-.61.57 0 .33.13.4.61.67.49.27.87.45.87 1.02 0 .64-.46 1.04-1.06 1.04-.44 0-.69-.09-.9-.17l.06-.46c.12.08.48.25.81.25.38 0 .66-.29.66-.62 0-.34-.22-.48-.64-.69-.6-.3-.84-.49-.84-1 0-.67.57-.99 1.05-.99.24 0 .53.06.66.11l-.06.42ZM86.33 46.7v.84h.73v.38h-.73v2.33c0 .29.05.54.39.54.19 0 .26-.04.34-.08v.41c-.1.04-.28.05-.47.05-.52 0-.67-.41-.67-.81v-2.44h-.53v-.38h.53v-.71l.41-.13ZM92.02 52.01l-.79-.88s-.13.03-.26.03c-1.72 0-1.72-2.07-1.72-2.49s0-2.49 1.72-2.49 1.72 2.07 1.72 2.49c0 .36 0 1.89-1.04 2.35l.91.99h-.55Zm-1.04-1.25c1.26 0 1.26-1.7 1.26-2.09s0-2.09-1.26-2.09-1.26 1.7-1.26 2.09 0 2.09 1.26 2.09ZM95.97 50c0 .37.02.74.03 1.11h-.38c-.01-.16-.02-.27-.03-.53h-.01c-.04.15-.31.57-.91.57-.78 0-.99-.56-.99-1.13v-2.49h.41v2.41c0 .25 0 .83.67.83.5 0 .81-.47.81-1.02v-2.22h.41V50ZM99.17 50.31c0 .27.02.53.04.8h-.36l-.03-.51h-.01c-.25.39-.54.56-1 .56-.55 0-.99-.46-.99-1.04 0-1.14 1.21-1.16 1.72-1.16h.26c0-.45 0-1.09-.74-1.09-.48 0-.85.34-.9.37l-.06-.43c.34-.18.59-.32.98-.32 1.1 0 1.1.92 1.1 1.18v1.64Zm-.38-1c-.84 0-1.55 0-1.55.81 0 .3.22.66.66.66.19 0 .89-.08.89-1.05v-.42ZM100.2 48.65c0-.37-.02-.74-.03-1.11h.38c0 .21.02.42.03.57h.01c.26-.51.56-.62.95-.62v.43c-.64 0-.94.28-.94.94v2.25h-.41v-2.46ZM103.03 46.7v.84h.73v.38h-.73v2.33c0 .29.05.54.39.54.19 0 .26-.04.34-.08v.41c-.1.04-.28.05-.47.05-.52 0-.67-.41-.67-.81v-2.44h-.53v-.38h.53v-.71l.41-.13ZM104.71 49.46c0 1.32.85 1.32 1.01 1.32.23 0 .57-.11.77-.29l.02.47c-.17.09-.41.2-.83.2-1.4 0-1.4-1.48-1.4-1.83 0-1.34.67-1.83 1.27-1.83 1.04 0 1.14 1.1 1.14 1.97h-1.97Zm1.54-.38c0-.95-.4-1.21-.73-1.21-.55 0-.81.75-.81 1.21h1.54ZM107.55 48.65c0-.37-.02-.74-.03-1.11h.38c0 .21.02.42.03.57h.01c.26-.51.56-.62.95-.62v.43c-.64 0-.94.28-.94.94v2.25h-.41v-2.46ZM76.64 60.22h2v.41h-1.56v1.74h1.49v.41h-1.49v2.34h-.43v-4.89ZM81.76 64c0 .37.02.74.03 1.11h-.38c-.01-.16-.02-.27-.03-.53h-.01c-.04.15-.31.57-.91.57-.78 0-.99-.56-.99-1.13v-2.49h.41v2.41c0 .25 0 .83.67.83.5 0 .81-.47.81-1.02v-2.22h.41V64ZM82.83 59.86h.41v5.25h-.41v-5.25ZM84.31 59.86h.41v5.25h-.41v-5.25ZM87.47 60.22h.67l1.36 4.24h.01l1.36-4.24h.67v4.89h-.41v-4.48h-.01l-1.44 4.48h-.33l-1.45-4.48h-.01v4.48h-.41v-4.89ZM92.52 63.32c0-.9.29-1.83 1.34-1.83s1.34.94 1.34 1.83-.29 1.83-1.34 1.83-1.34-.94-1.34-1.83Zm2.24 0c0-.29 0-1.46-.9-1.46s-.9 1.17-.9 1.46 0 1.46.9 1.46.9-1.17.9-1.46ZM95.92 63.32c0-.9.29-1.83 1.34-1.83s1.34.94 1.34 1.83-.29 1.83-1.34 1.83-1.34-.94-1.34-1.83Zm2.24 0c0-.29 0-1.46-.9-1.46s-.9 1.17-.9 1.46 0 1.46.9 1.46.9-1.17.9-1.46ZM99.48 62.65c0-.37-.02-.74-.03-1.11h.38c.01.16.02.27.03.53h.01c.08-.15.32-.57.91-.57.99 0 .99.99.99 1.23v2.4h-.41v-2.41c0-.25 0-.83-.67-.83-.5 0-.81.47-.81 1.02v2.22h-.41v-2.46ZM76.64 74.22h.43v4.48h1.59v.41h-2.02v-4.89ZM81.65 78.31c0 .27.02.53.04.8h-.36l-.03-.51h-.01c-.25.39-.54.56-1 .56-.55 0-.99-.46-.99-1.04 0-1.14 1.21-1.16 1.72-1.16h.26c0-.45 0-1.09-.74-1.09-.48 0-.85.34-.9.37l-.06-.43c.34-.18.59-.32.98-.32 1.1 0 1.1.92 1.1 1.18v1.64Zm-.38-1c-.84 0-1.55 0-1.55.81 0 .3.22.66.66.66.19 0 .89-.08.89-1.05v-.42ZM84.17 76.01c-.2-.08-.38-.15-.61-.15-.42 0-.61.32-.61.57 0 .33.13.4.61.67.49.27.87.45.87 1.02 0 .64-.46 1.04-1.06 1.04-.44 0-.69-.09-.9-.17l.06-.46c.12.08.48.25.81.25.38 0 .66-.29.66-.62 0-.34-.22-.48-.64-.69-.6-.3-.84-.49-.84-1 0-.67.57-.99 1.05-.99.24 0 .53.06.66.11l-.06.42ZM85.89 74.7v.84h.73v.38h-.73v2.33c0 .29.05.54.39.54.19 0 .26-.04.34-.08v.41c-.1.04-.28.05-.47.05-.52 0-.67-.41-.67-.81v-2.44h-.53v-.38h.53v-.71l.41-.13ZM91.58 80.01l-.79-.88s-.13.03-.26.03c-1.72 0-1.72-2.07-1.72-2.49s0-2.49 1.72-2.49 1.72 2.07 1.72 2.49c0 .36 0 1.89-1.04 2.35l.91.99h-.55Zm-1.04-1.25c1.26 0 1.26-1.7 1.26-2.09s0-2.09-1.26-2.09-1.26 1.7-1.26 2.09 0 2.09 1.26 2.09ZM95.54 78c0 .37.02.74.03 1.11h-.38c-.01-.16-.02-.27-.03-.53h-.01c-.04.15-.31.57-.91.57-.78 0-.99-.56-.99-1.13v-2.49h.41v2.41c0 .25 0 .83.67.83.5 0 .81-.47.81-1.02v-2.22h.41V78ZM98.73 78.31c0 .27.02.53.04.8h-.36l-.03-.51h-.01c-.25.39-.54.56-1 .56-.55 0-.99-.46-.99-1.04 0-1.14 1.21-1.16 1.72-1.16h.26c0-.45 0-1.09-.74-1.09-.48 0-.85.34-.9.37l-.06-.43c.34-.18.59-.32.98-.32 1.1 0 1.1.92 1.1 1.18v1.64Zm-.38-1c-.84 0-1.55 0-1.55.81 0 .3.22.66.66.66.19 0 .89-.08.89-1.05v-.42ZM99.76 76.65c0-.37-.02-.74-.03-1.11h.38c0 .21.02.42.03.57h.01c.26-.51.56-.62.95-.62v.43c-.64 0-.94.28-.94.94v2.25h-.41v-2.46ZM102.59 74.7v.84h.73v.38h-.73v2.33c0 .29.05.54.39.54.19 0 .26-.04.34-.08v.41c-.1.04-.28.05-.47.05-.52 0-.67-.41-.67-.81v-2.44h-.53v-.38h.53v-.71l.41-.13ZM104.27 77.46c0 1.32.85 1.32 1.01 1.32.23 0 .57-.11.77-.29l.02.47c-.17.09-.41.2-.83.2-1.4 0-1.4-1.48-1.4-1.83 0-1.34.67-1.83 1.27-1.83 1.04 0 1.14 1.1 1.14 1.97h-1.97Zm1.54-.38c0-.95-.4-1.21-.73-1.21-.55 0-.81.75-.81 1.21h1.54ZM107.11 76.65c0-.37-.02-.74-.03-1.11h.38c0 .21.02.42.03.57h.01c.26-.51.56-.62.95-.62v.43c-.64 0-.94.28-.94.94v2.25h-.41v-2.46ZM3.35 18.65c-.02.08-.1.14-.23.14-.29 1.68-.88 3.79-2.2 4.98-.19-.21-.59-.55-.83-.71 1.21-1.04 1.74-3.01 1.95-4.63l1.3.22Zm-1.52-1.96h3.74c.19 2.54.66 5.02 2.2 6.25-.28.17-.71.55-.95.8-1.46-1.34-1.97-3.65-2.19-6.02h-2.8v-1.03ZM14.97 16.51v6.04c0 1.09-.51 1.22-2.33 1.22-.06-.28-.25-.76-.41-1.02.38.02.81.02 1.11.02.53 0 .59 0 .59-.23v-1.26h-3.42c-.23.94-.67 1.86-1.52 2.51-.15-.2-.53-.58-.74-.72 1.37-1.04 1.48-2.61 1.48-3.86v-2.69h5.23Zm-4.23 2.85c0 .31-.02.63-.06.97h3.26v-.97h-3.2Zm3.2-1.9h-3.2v.98h3.2v-.98ZM19.1 23.38h-.81l2.13-6.69h.81l-2.13 6.69ZM31.39 22.09h-2.44c.7.39 1.66.67 2.62.8-.22.19-.49.58-.62.84-1.04-.22-2.06-.68-2.8-1.3v1.33h-.96V22.5c-.78.54-1.83.97-2.79 1.2a5.67 5.67 0 0 0-.6-.79c.92-.15 1.94-.46 2.66-.83H24v-.75h3.2v-.41H25v-1.99h-.96v-.75H25v-.49l.8.04v-.31h-1.77v-.75h1.77v-.58l1.18.06c0 .08-.07.13-.22.16v.36h1.84v-.58l1.18.06c0 .09-.06.13-.21.16v.36h1.78v.75h-1.78v.29l.82.05c0 .08-.07.13-.21.15v.26h1.16v.75h-1.16v.94h-3.13v-.94h-1.09v1.26h5.15v.74h-2.77s-.09.06-.19.08v.32h3.25v.75Zm-5.23-4.26s-.09.09-.2.11v.27h1.09v-.53l1.13.06c0 .07-.07.13-.22.15v.32h1.26v-.34h-.62v-.41h-1.84v.38h-.6Zm3.06 1.5v-.38h-1.26v.38h1.26ZM38.71 16.51v6.04c0 1.09-.51 1.22-2.33 1.22-.06-.28-.25-.76-.41-1.02.38.02.81.02 1.11.02.53 0 .59 0 .59-.23v-1.26h-3.42c-.23.94-.67 1.86-1.52 2.51-.15-.2-.53-.58-.74-.72 1.37-1.04 1.48-2.61 1.48-3.86v-2.69h5.23Zm-4.23 2.85c0 .31-.02.63-.06.97h3.26v-.97h-3.2Zm3.2-1.9h-3.2v.98h3.2v-.98ZM45.81 17.94c-.65.55-1.19 1.59-1.19 2.8s.55 2.27 1.19 2.8v.03h-.56c-.62-.55-1.12-1.61-1.12-2.83s.5-2.29 1.12-2.83h.56v.03ZM47.15 20.51c-.16.24-.32.47-.5.67-.07-.17-.23-.56-.33-.73.5-.56 1.01-1.55 1.31-2.51l.79.27c-.02.06-.08.08-.17.07-.14.38-.31.77-.5 1.15l.23.06c-.01.05-.06.1-.16.11v3.99h-.69v-3.07Zm3.29-1.32h1.5v2.76h-.72v-.31h-.78v1.93h-.72v-1.93h-.75v.35h-.68v-2.81h1.43v-1.2l.88.05c0 .06-.05.1-.16.11v1.04Zm-1.47 1.79h.75v-1.12h-.75v1.12Zm1.47 0h.78v-1.12h-.78v1.12ZM54.64 20.53c.19.17.73.73.84.86l-.4.59c-.09-.18-.27-.46-.44-.71v2.3h-.7v-2.2c-.22.49-.47.95-.73 1.27a3.9 3.9 0 0 0-.35-.71c.36-.39.72-1.03.95-1.62h-.85v-.67h.98v-.71c-.28.07-.55.13-.82.18-.03-.14-.13-.39-.21-.53.74-.16 1.55-.41 2.03-.67l.59.53s-.09.04-.16.04c-.2.09-.46.18-.73.26v.91h.75v.67h-.75v.22Zm3.94-.99s-.08.07-.17.07c-.16.43-.42 1.04-.64 1.42l-.53-.22c.14.68.53 1.54 1.37 2.08-.14.17-.34.48-.44.67-.83-.53-1.24-1.59-1.33-2.09-.1.53-.51 1.55-1.38 2.09-.08-.17-.29-.49-.42-.65 1.14-.71 1.45-2.03 1.45-2.7v-2.3l.88.06c-.01.07-.07.13-.18.15v2.09c0 .16.02.37.07.59.2-.42.42-1.07.53-1.55l.8.28Zm-2.35-.16c-.02.7-.14 1.35-.53 1.75l-.51-.38c.3-.3.43-.87.45-1.45l.59.09ZM59.2 23.54c.65-.55 1.19-1.59 1.19-2.8s-.55-2.27-1.19-2.8v-.03h.56c.62.55 1.12 1.61 1.12 2.83s-.5 2.28-1.12 2.83h-.56v-.03ZM.21 34.01c0-2.12.83-3.15 1.96-3.15s1.86 1.09 1.86 3.07c0 2.11-.74 3.19-1.95 3.19-1.1 0-1.87-1.09-1.87-3.11Zm3.14-.05c0-1.52-.37-2.56-1.22-2.56-.72 0-1.23.96-1.23 2.56s.45 2.61 1.21 2.61c.9 0 1.24-1.17 1.24-2.61ZM8.2 34.15c-.33.42-.8.67-1.39.67-1.04 0-1.68-.81-1.68-1.84 0-1.11.73-2.13 1.92-2.13s1.86.99 1.86 2.54c0 2.02-1.02 3.42-2.58 3.66-.28.05-.54.07-.72.06v-.56c.17.02.37 0 .62-.04 1.02-.15 1.79-.97 1.99-2.36H8.2Zm-2.39-1.21c0 .82.46 1.37 1.16 1.37.66 0 1.26-.5 1.26-.99 0-1.17-.43-1.95-1.23-1.95-.71 0-1.18.66-1.18 1.57ZM10.11 36.61c0-.31.2-.53.49-.53s.48.22.48.53-.19.51-.49.51-.48-.24-.48-.51ZM13.9 37.02v-5.44h-.02l-1 .58-.16-.5 1.26-.7h.58v6.07h-.66ZM20.43 30.95v.56h-2.18L18 33.23c.13-.02.26-.03.47-.03 1.08 0 2.04.64 2.04 1.86s-.89 2.06-2.09 2.06c-.61 0-1.12-.18-1.39-.36l.19-.53c.23.15.67.34 1.2.34.76 0 1.42-.56 1.41-1.43 0-.83-.54-1.42-1.67-1.42-.32 0-.58.02-.78.06l.38-2.83h2.67ZM22.01 36.61c0-.31.2-.53.49-.53s.48.22.48.53-.19.51-.49.51-.48-.24-.48-.51ZM26.65 37.02h-2.66v-.31l.44-.46c1.07-1.08 1.61-1.73 1.61-2.46 0-.48-.21-.92-.86-.92-.36 0-.68.2-.9.37l-.17-.35c.28-.25.68-.44 1.16-.44.91 0 1.27.66 1.27 1.28 0 .85-.59 1.57-1.52 2.5l-.35.37 1.98.01v.41ZM27.55 34.79c0-1.57.61-2.33 1.45-2.33s1.37.8 1.37 2.27c0 1.56-.55 2.36-1.44 2.36-.82 0-1.38-.8-1.38-2.3Zm2.32-.04c0-1.12-.27-1.9-.9-1.9-.53 0-.91.71-.91 1.9s.33 1.93.89 1.93c.67 0 .92-.86.92-1.93ZM33.87 37.02h-2.66v-.31l.44-.46c1.07-1.08 1.61-1.73 1.61-2.46 0-.48-.21-.92-.86-.92-.36 0-.68.2-.9.37l-.17-.35c.28-.25.68-.44 1.16-.44.91 0 1.27.66 1.27 1.28 0 .85-.59 1.57-1.52 2.5l-.35.37 1.98.01v.41ZM36.4 34.59c.53.09.98.52.98 1.16 0 .71-.52 1.34-1.52 1.34-.45 0-.86-.14-1.06-.29l.15-.38c.16.11.52.27.92.27.75 0 1-.53 1-.94 0-.66-.56-.96-1.15-.96h-.29v-.37h.29c.43 0 .99-.27.99-.83 0-.39-.23-.73-.77-.73-.33 0-.64.16-.82.29l-.15-.37c.22-.17.64-.34 1.07-.34.82 0 1.19.52 1.19 1.06 0 .46-.29.88-.82 1.06v.02ZM57.47 35.23h-.92c-.07.97-.38 1.87-1.47 2.48a3.38 3.38 0 0 0-.41-.31c1-.55 1.3-1.34 1.37-2.17h-.83v.52h-.48v-2.88l.62.04c0 .06-.05.1-.15.11v1.73h.85v-2.54h-1.69v-.49h1c-.1-.39-.32-.96-.57-1.38l.44-.17c.26.43.5 1 .6 1.39l-.36.15h2.85v.49h-1.76v2.54h.9v-1.88l.62.04c0 .06-.05.1-.15.11v2.64h-.48v-.43Zm.53-4.85s-.08.07-.17.07c-.16.37-.44.92-.66 1.28-.1-.03-.32-.13-.41-.15.21-.38.47-.99.61-1.4l.63.2Zm3.53.27v6.36c0 .67-.32.71-1.59.71-.02-.15-.1-.39-.18-.54h.66c.51 0 .57 0 .57-.19v-2.1h-1.88c-.15 1-.49 2.05-1.26 2.83-.09-.1-.31-.25-.44-.31 1.15-1.13 1.26-2.75 1.26-4.01v-2.77h2.85Zm-2.33 2.78c0 .31 0 .64-.04.99h1.83v-1.39H59.2v.41Zm1.79-2.27H59.2v1.36h1.79v-1.36ZM.21 48.01c0-2.12.83-3.15 1.96-3.15s1.86 1.09 1.86 3.07c0 2.11-.74 3.19-1.95 3.19-1.1 0-1.87-1.09-1.87-3.11Zm3.14-.05c0-1.52-.37-2.56-1.22-2.56-.72 0-1.23.96-1.23 2.56s.45 2.61 1.21 2.61c.9 0 1.24-1.17 1.24-2.61ZM8.2 48.15c-.33.42-.8.67-1.39.67-1.04 0-1.68-.81-1.68-1.84 0-1.11.73-2.13 1.92-2.13s1.86.99 1.86 2.54c0 2.02-1.02 3.42-2.58 3.66-.28.05-.54.07-.72.06v-.56c.17.02.37 0 .62-.04 1.02-.15 1.79-.97 1.99-2.36H8.2Zm-2.39-1.21c0 .82.46 1.37 1.16 1.37.66 0 1.26-.5 1.26-.99 0-1.17-.43-1.95-1.23-1.95-.71 0-1.18.66-1.18 1.57ZM10.11 50.61c0-.31.2-.53.49-.53s.48.22.48.53-.19.51-.49.51-.48-.24-.48-.51ZM15.78 51.02h-3.59v-.41l.59-.62c1.44-1.46 2.17-2.34 2.17-3.33 0-.65-.28-1.25-1.16-1.25-.49 0-.92.27-1.21.5l-.23-.47c.37-.33.92-.59 1.57-.59 1.22 0 1.71.89 1.71 1.73 0 1.14-.8 2.11-2.06 3.38l-.48.5v.02h2.68v.55ZM19.21 47.74c.71.12 1.32.7 1.32 1.57 0 .96-.7 1.81-2.06 1.81-.61 0-1.16-.2-1.43-.39l.2-.52c.22.15.71.37 1.24.37 1.02 0 1.35-.71 1.35-1.27 0-.89-.75-1.3-1.55-1.3h-.4v-.5h.4c.58 0 1.34-.36 1.34-1.13 0-.53-.32-.98-1.04-.98-.45 0-.87.22-1.11.4l-.2-.5c.29-.23.86-.45 1.44-.45 1.11 0 1.6.71 1.6 1.43 0 .62-.4 1.18-1.1 1.43v.02ZM22.01 50.61c0-.31.2-.53.49-.53s.48.22.48.53-.19.51-.49.51-.48-.24-.48-.51ZM26.65 51.02h-2.66v-.31l.44-.46c1.07-1.08 1.61-1.73 1.61-2.46 0-.48-.21-.92-.86-.92-.36 0-.68.2-.9.37l-.17-.35c.28-.25.68-.44 1.16-.44.91 0 1.27.66 1.27 1.28 0 .85-.59 1.57-1.52 2.5l-.35.37 1.98.01v.41ZM27.55 48.79c0-1.57.61-2.33 1.45-2.33s1.37.8 1.37 2.27c0 1.56-.55 2.36-1.44 2.36-.82 0-1.38-.8-1.38-2.3Zm2.32-.04c0-1.12-.27-1.9-.9-1.9-.53 0-.91.71-.91 1.9s.33 1.93.89 1.93c.67 0 .92-.86.92-1.93ZM33.87 51.02h-2.66v-.31l.44-.46c1.07-1.08 1.61-1.73 1.61-2.46 0-.48-.21-.92-.86-.92-.36 0-.68.2-.9.37l-.17-.35c.28-.25.68-.44 1.16-.44.91 0 1.27.66 1.27 1.28 0 .85-.59 1.57-1.52 2.5l-.35.37 1.98.01v.41ZM36.4 48.59c.53.09.98.52.98 1.16 0 .71-.52 1.34-1.52 1.34-.45 0-.86-.14-1.06-.29l.15-.38c.16.11.52.27.92.27.75 0 1-.53 1-.94 0-.66-.56-.96-1.15-.96h-.29v-.37h.29c.43 0 .99-.27.99-.83 0-.39-.23-.73-.77-.73-.33 0-.64.16-.82.29l-.15-.37c.22-.17.64-.34 1.07-.34.82 0 1.19.52 1.19 1.06 0 .46-.29.88-.82 1.06v.02ZM58.15 50.77h3.68v.55h-7.37v-.55h3.12v-6.46l.74.05c0 .06-.06.1-.17.11v2.4h3.11v.55h-3.11v3.35ZM64.96 48.1l.12-.02.3.04s0 .12-.02.18c-.11 2.14-.2 2.89-.44 3.16-.18.21-.36.24-.92.24-.19 0-.41 0-.64-.02-.02-.16-.08-.38-.17-.53.45.04.85.04 1.03.04.11 0 .19-.02.24-.09.16-.17.27-.83.36-2.52h-1.31l-.05.34-.51-.08c.11-.63.24-1.66.29-2.43h1.56V45h-1.88v-.51h2.41v2.67h-.53v-.25h-1.09l-.13 1.18h1.38Zm4.12 1.15c.58.68 1.17 1.6 1.38 2.22l-.49.25c-.06-.2-.17-.42-.3-.67-1.38.11-2.82.2-3.75.26 0 .06-.06.11-.12.11l-.2-.64.77-.02c.39-.46.81-1.02 1.22-1.61-.44-.47-1.17-1.08-1.79-1.5l.32-.39c.14.09.28.19.42.29.32-.47.67-1.07.92-1.58H65.6v-.52h2.01v-1.28l.69.05c0 .06-.06.1-.16.11v1.13h2.26v.52h-2.33l.13.06s-.1.07-.18.07c-.28.51-.73 1.21-1.12 1.73.37.29.73.59.99.85.43-.64.83-1.29 1.13-1.86l.62.32s-.1.08-.19.08c-.64 1.05-1.61 2.46-2.48 3.5.75-.03 1.6-.07 2.44-.11-.23-.4-.52-.8-.8-1.15l.45-.22ZM.21 62.01c0-2.12.83-3.15 1.96-3.15s1.86 1.09 1.86 3.07c0 2.11-.74 3.19-1.95 3.19-1.1 0-1.87-1.09-1.87-3.11Zm3.14-.05c0-1.52-.37-2.56-1.22-2.56-.72 0-1.23.96-1.23 2.56s.45 2.61 1.21 2.61c.9 0 1.24-1.17 1.24-2.61ZM8.2 62.15c-.33.42-.8.67-1.39.67-1.04 0-1.68-.81-1.68-1.84 0-1.11.73-2.13 1.92-2.13s1.86.99 1.86 2.54c0 2.02-1.02 3.42-2.58 3.66-.28.05-.54.07-.72.06v-.56c.17.02.37 0 .62-.04 1.02-.15 1.79-.97 1.99-2.36H8.2Zm-2.39-1.21c0 .82.46 1.37 1.16 1.37.66 0 1.26-.5 1.26-.99 0-1.17-.43-1.95-1.23-1.95-.71 0-1.18.66-1.18 1.57ZM10.11 64.61c0-.31.2-.53.49-.53s.48.22.48.53-.19.51-.49.51-.48-.24-.48-.51ZM15.78 65.02h-3.59v-.41l.59-.62c1.44-1.46 2.17-2.34 2.17-3.33 0-.65-.28-1.25-1.16-1.25-.49 0-.92.27-1.21.5l-.23-.47c.37-.33.92-.59 1.57-.59 1.22 0 1.71.89 1.71 1.73 0 1.14-.8 2.11-2.06 3.38l-.48.5v.02h2.68v.55ZM20.12 62.15c-.33.42-.8.67-1.39.67-1.04 0-1.68-.81-1.68-1.84 0-1.11.73-2.13 1.92-2.13s1.86.99 1.86 2.54c0 2.02-1.02 3.42-2.58 3.66-.28.05-.54.07-.72.06v-.56c.17.02.37 0 .62-.04 1.02-.15 1.79-.97 1.99-2.36h-.02Zm-2.39-1.21c0 .82.46 1.37 1.16 1.37.66 0 1.26-.5 1.26-.99 0-1.17-.43-1.95-1.23-1.95-.71 0-1.18.66-1.18 1.57ZM22.02 64.61c0-.31.2-.53.49-.53s.48.22.48.53-.19.51-.49.51-.48-.24-.48-.51ZM26.66 65.02H24v-.31l.44-.46c1.07-1.08 1.61-1.73 1.61-2.46 0-.48-.21-.92-.86-.92-.36 0-.68.2-.9.37l-.17-.35c.28-.25.68-.44 1.16-.44.91 0 1.27.66 1.27 1.28 0 .85-.59 1.57-1.52 2.5l-.35.37 1.98.01v.41ZM27.56 62.79c0-1.57.61-2.33 1.45-2.33s1.37.8 1.37 2.27c0 1.56-.55 2.36-1.44 2.36-.82 0-1.38-.8-1.38-2.3Zm2.32-.04c0-1.12-.27-1.9-.9-1.9-.53 0-.91.71-.91 1.9s.33 1.93.89 1.93c.67 0 .92-.86.92-1.93ZM33.87 65.02h-2.66v-.31l.44-.46c1.07-1.08 1.61-1.73 1.61-2.46 0-.48-.21-.92-.86-.92-.36 0-.68.2-.9.37l-.17-.35c.28-.25.68-.44 1.16-.44.91 0 1.27.66 1.27 1.28 0 .85-.59 1.57-1.52 2.5l-.35.37 1.98.01v.41ZM36.41 62.59c.53.09.98.52.98 1.16 0 .71-.52 1.34-1.52 1.34-.45 0-.86-.14-1.06-.29l.15-.38c.16.11.52.27.92.27.75 0 1-.53 1-.94 0-.66-.56-.96-1.15-.96h-.29v-.37h.29c.43 0 .99-.27.99-.83 0-.39-.23-.73-.77-.73-.33 0-.64.16-.82.29l-.15-.37c.22-.17.64-.34 1.07-.34.82 0 1.19.52 1.19 1.06 0 .46-.29.88-.82 1.06v.02ZM55.81 61.75c-.63 0-.8-.21-.8-.82v-1.4h-.59v-.48h1.72v-.88l.67.05c0 .06-.05.09-.15.11v.72h1.64v.48h-2.78v1.41c0 .25.06.33.28.33h1.45c.18 0 .47 0 .62-.04.02.14.04.37.06.48-.12.03-.4.04-.66.04h-1.46Zm2.6 3.28h3.45v.47h-7.43v-.47h3.43v-.77h-2.38v-.46h2.38v-.76h-2.75v-.47h6.13v.47h-2.83v.76h2.43v.46h-2.43v.77Zm3.19-6.54v.17c-.09 2.25-.17 3.01-.37 3.27-.17.2-.39.23-.74.23-.18 0-.38 0-.6-.02 0-.13-.06-.32-.13-.45.36.03.68.03.83.03.19 0 .29-.08.37-.79h-1.98c-.19.61-.5 1.09-.96 1.4-.08-.09-.24-.25-.37-.32.9-.61 1.13-1.86 1.14-3.53h2.54l.28.02Zm-2.4 1.41c-.03.22-.07.43-.11.62h1.9l.05-.62h-1.83Zm1.87-1h-1.79c0 .21-.02.41-.04.61h1.81l.02-.61ZM1.99 79.02v-5.44h-.02l-1 .58-.16-.5 1.26-.7h.58v6.07h-.66ZM5.08 76.01c0-2.12.83-3.15 1.96-3.15s1.86 1.09 1.86 3.07c0 2.11-.74 3.19-1.95 3.19-1.1 0-1.87-1.09-1.87-3.11Zm3.14-.05c0-1.52-.37-2.56-1.22-2.56-.72 0-1.23.96-1.23 2.56s.45 2.61 1.21 2.61c.9 0 1.24-1.17 1.24-2.61ZM10.1 78.61c0-.31.2-.53.49-.53s.48.22.48.53-.19.51-.49.51-.48-.24-.48-.51ZM12.11 76.01c0-2.12.83-3.15 1.96-3.15s1.86 1.09 1.86 3.07c0 2.11-.74 3.19-1.95 3.19-1.1 0-1.87-1.09-1.87-3.11Zm3.14-.05c0-1.52-.37-2.56-1.22-2.56-.72 0-1.23.96-1.23 2.56s.45 2.61 1.21 2.61c.9 0 1.24-1.17 1.24-2.61ZM17.68 75.8a1.7 1.7 0 0 1 1.42-.75c1.03 0 1.72.77 1.72 1.94s-.68 2.12-1.86 2.12-1.98-.98-1.98-2.55.76-3.33 2.73-3.65c.23-.03.43-.06.57-.06v.56c-1.68 0-2.48 1.22-2.62 2.39h.02Zm2.46 1.24c0-.93-.5-1.47-1.23-1.47s-1.26.7-1.26 1.15c0 1.11.48 1.87 1.32 1.87.7 0 1.17-.63 1.17-1.55ZM22 78.61c0-.31.2-.53.49-.53s.48.22.48.53-.19.51-.49.51-.48-.24-.48-.51ZM26.65 79.02h-2.66v-.31l.44-.46c1.07-1.08 1.61-1.73 1.61-2.46 0-.48-.21-.92-.86-.92-.36 0-.68.2-.9.37l-.17-.35c.28-.25.68-.44 1.16-.44.91 0 1.27.66 1.27 1.28 0 .85-.59 1.57-1.52 2.5l-.35.37 1.98.01v.41ZM27.54 76.79c0-1.57.61-2.33 1.45-2.33s1.37.8 1.37 2.27c0 1.56-.55 2.36-1.44 2.36-.82 0-1.38-.8-1.38-2.3Zm2.32-.04c0-1.12-.27-1.9-.9-1.9-.53 0-.91.71-.91 1.9s.33 1.93.89 1.93c.67 0 .92-.86.92-1.93ZM33.86 79.02H31.2v-.31l.44-.46c1.07-1.08 1.61-1.73 1.61-2.46 0-.48-.21-.92-.86-.92-.36 0-.68.2-.9.37l-.17-.35c.28-.25.68-.44 1.16-.44.91 0 1.27.66 1.27 1.28 0 .85-.59 1.57-1.52 2.5l-.35.37 1.98.01v.41ZM36.4 76.59c.53.09.98.52.98 1.16 0 .71-.52 1.34-1.52 1.34-.45 0-.86-.14-1.06-.29l.15-.38c.16.11.52.27.92.27.75 0 1-.53 1-.94 0-.66-.56-.96-1.15-.96h-.29v-.37h.29c.43 0 .99-.27.99-.83 0-.39-.23-.73-.77-.73-.33 0-.64.16-.82.29l-.15-.37c.22-.17.64-.34 1.07-.34.82 0 1.19.52 1.19 1.06 0 .46-.29.88-.82 1.06v.02ZM61.8 73.33h-3.44l-.09.02v1.41l.04-.05c1.03.5 2.36 1.26 3.03 1.77l-.38.49c-.58-.47-1.72-1.16-2.69-1.68v4.4h-.58v-6.37h-3.2v-.54h7.3v.54ZM64.96 76.1l.12-.02.3.04s0 .12-.02.18c-.11 2.14-.2 2.89-.44 3.16-.18.21-.36.24-.92.24-.19 0-.41 0-.64-.02-.02-.16-.08-.38-.17-.53.45.04.85.04 1.03.04.11 0 .19-.02.24-.09.16-.17.27-.83.36-2.52h-1.31l-.05.34-.51-.08c.11-.63.24-1.66.29-2.43h1.56V73h-1.88v-.51h2.41v2.67h-.53v-.25h-1.09l-.13 1.18h1.38Zm4.12 1.15c.58.68 1.17 1.6 1.38 2.22l-.49.25c-.06-.2-.17-.42-.3-.67-1.38.11-2.82.2-3.75.26 0 .06-.06.11-.12.11l-.2-.64.77-.02c.39-.46.81-1.02 1.22-1.61-.44-.47-1.17-1.08-1.79-1.5l.32-.39c.14.09.28.19.42.29.32-.47.67-1.07.92-1.58H65.6v-.52h2.01v-1.28l.69.05c0 .06-.06.1-.16.11v1.13h2.26v.52h-2.33l.13.06s-.1.07-.18.07c-.28.51-.73 1.21-1.12 1.73.37.29.73.59.99.85.43-.64.83-1.29 1.13-1.86l.62.32s-.1.08-.19.08c-.64 1.05-1.61 2.46-2.48 3.5.75-.03 1.6-.07 2.44-.11-.23-.4-.52-.8-.8-1.15l.45-.22Z" class="cls-1"/><path d="M51.22 34.16c0 1.5-1.21 2.71-2.71 2.71s-2.71-1.21-2.71-2.71 1.21-2.71 2.71-2.71 2.71 1.21 2.71 2.71Z" class="cls-3"/><path d="M51.22 62.08c0 1.5-1.21 2.71-2.71 2.71s-2.71-1.21-2.71-2.71 1.21-2.71 2.71-2.71 2.71 1.21 2.71 2.71ZM48.5 45.4c1.5 0 2.71 1.21 2.71 2.71S50 50.82 48.5 50.82" class="cls-2"/><path d="M48.5 45.4c-1.5 0-2.71 1.21-2.71 2.71s1.21 2.71 2.71 2.71" class="cls-3"/><path d="M48.5 78.75c-1.5 0-2.71-1.21-2.71-2.71s1.21-2.71 2.71-2.71" class="cls-2"/><path d="M48.5 78.75c1.5 0 2.71-1.21 2.71-2.71S50 73.33 48.5 73.33" class="cls-3"/></g></svg>