<svg xmlns="http://www.w3.org/2000/svg" id="_レイヤー_2" viewBox="0 0 109.5 74.56"><defs><style>.cls-1,.cls-2{fill:#fff}.cls-3{fill:none}.cls-2,.cls-3{stroke:#fff;stroke-width:.5px}</style></defs><g id="text_solar"><path d="M1.05.36h1.24l1.04 3.71h.01l.8-3.71h.92L4 5.25H2.74L1.73 1.51h-.01L.94 5.26H0L1.05.36ZM7.5 4.7h-.01c-.32.41-.64.64-1.16.64-.65 0-1.11-.36-1.11-1.03 0-1.19 1.33-1.28 2.21-1.28h.33c.03-.1.03-.2.03-.31 0-.36-.39-.47-.72-.47-.41 0-.81.11-1.18.28l.13-.75c.4-.14.81-.22 1.23-.22.72 0 1.4.27 1.4 1.11 0 .48-.36 1.9-.44 2.58h-.79l.1-.55Zm-.92-.05c.7 0 .92-.48 1.06-1.06h-.33c-.46 0-1.21.08-1.21.69 0 .25.24.38.48.38ZM9.32 5.8c.37.15.73.28 1.13.28.99 0 1.14-.69 1.37-1.51h-.01c-.24.43-.69.69-1.21.69-.88 0-1.25-.74-1.25-1.53 0-1.08.66-2.16 1.83-2.16.48 0 .88.23 1.1.61l.11-.53h.9c-.03.1-.07.27-.12.5l-.57 2.71c-.23 1.18-.74 1.95-2.06 1.95-.49 0-.98-.07-1.44-.25l.24-.76Zm1.97-3.51c-.68 0-.97.89-.97 1.43 0 .43.18.81.6.81.75 0 1.06-.79 1.06-1.48 0-.42-.25-.76-.68-.76ZM15.89 4.7h-.01c-.32.41-.64.64-1.16.64-.65 0-1.11-.36-1.11-1.03 0-1.19 1.33-1.28 2.21-1.28h.33c.03-.1.03-.2.03-.31 0-.36-.39-.47-.72-.47-.41 0-.81.11-1.18.28l.13-.75c.4-.14.81-.22 1.23-.22.72 0 1.4.27 1.4 1.11 0 .48-.36 1.9-.44 2.58h-.79l.1-.55Zm-.92-.05c.7 0 .92-.48 1.06-1.06h-.33c-.46 0-1.21.08-1.21.69 0 .25.24.38.48.38ZM17.9 1.65h.68l.16-.74 1.01-.33-.23 1.07h.84l-.15.69h-.84l-.34 1.58c-.02.08-.04.21-.04.35 0 .22.15.35.36.35.17 0 .34-.04.46-.08l-.16.73c-.16.04-.34.08-.5.08-.64 0-1.09-.25-1.09-.95 0-.28.06-.55.12-.84l.27-1.22h-.68l.15-.69ZM23.18 2.42c-.25-.09-.5-.17-.77-.17-.28 0-.63.08-.63.36 0 .46 1.22.62 1.22 1.51 0 .94-.82 1.22-1.62 1.22-.38 0-.76-.06-1.1-.22l.2-.75c.27.15.53.28.9.28.31 0 .64-.11.64-.4 0-.58-1.22-.64-1.22-1.54 0-.85.82-1.15 1.56-1.15.34 0 .69.06 1.02.15l-.2.71ZM27.01 4.73c-.04.22-.08.41-.09.52H26l.06-.35h-.01c-.26.24-.62.43-1.02.43-.71 0-1.18-.44-1.18-1.16 0-.27.07-.56.12-.78l.38-1.75h.94l-.35 1.7c-.05.25-.11.49-.11.76 0 .3.21.5.51.5.65 0 .89-.61 1.01-1.15l.38-1.81h.94L27 4.73ZM29.15 0h.94l-.62 2.96h.01l1.31-1.31h1.22L30.28 3.3l1.08 1.96H30.3l-.93-1.91h-.01l-.41 1.91h-.92L29.14.01ZM32.8 1.65h.94l-.77 3.61h-.94l.77-3.61ZM33.14.1h.94l-.2.9h-.94l.2-.9ZM39.7.36h.43v4.48h1.59v.41H39.7V.36ZM44.71 4.45c0 .27.02.53.04.8h-.36l-.03-.51h-.01c-.25.39-.54.56-1 .56-.55 0-.99-.46-.99-1.04 0-1.14 1.21-1.16 1.72-1.16h.26c0-.45 0-1.09-.74-1.09-.48 0-.85.34-.9.37l-.06-.43c.34-.18.59-.32.98-.32 1.1 0 1.1.92 1.1 1.18v1.64Zm-.38-1c-.84 0-1.55 0-1.55.81 0 .3.22.66.66.66.19 0 .89-.08.89-1.05v-.42ZM46.33.84v.84h.73v.38h-.73v2.33c0 .29.05.54.39.54.19 0 .26-.04.34-.08v.41c-.1.04-.28.05-.47.05-.52 0-.67-.41-.67-.81V2.06h-.53v-.38h.53V.97l.41-.13ZM48.01 3.6c0 1.32.85 1.32 1.01 1.32.23 0 .57-.11.77-.29l.02.47c-.17.09-.41.2-.83.2-1.4 0-1.4-1.48-1.4-1.83 0-1.34.67-1.83 1.27-1.83 1.04 0 1.14 1.1 1.14 1.97h-1.97Zm1.54-.38c0-.95-.4-1.21-.73-1.21-.55 0-.81.75-.81 1.21h1.54ZM53.67.36h.46l1.62 4.89h-.46l-.43-1.34h-1.95l-.44 1.34h-.43L53.66.36Zm-.62 3.14h1.69L53.91.82h-.01l-.85 2.68ZM58.7 4.15c0 .37.02.74.03 1.11h-.38c-.01-.16-.02-.27-.03-.53h-.01c-.04.15-.31.57-.91.57-.78 0-.99-.56-.99-1.13V1.68h.41v2.41c0 .25 0 .83.67.83.5 0 .81-.47.81-1.02V1.68h.41v2.47ZM60.38.84v.84h.73v.38h-.73v2.33c0 .29.05.54.39.54.19 0 .26-.04.34-.08v.41c-.1.04-.28.05-.47.05-.52 0-.67-.41-.67-.81V2.06h-.53v-.38h.53V.97l.41-.13ZM64.16 4.15c0 .37.02.74.03 1.11h-.38c-.01-.16-.02-.27-.03-.53h-.01c-.04.15-.31.57-.91.57-.78 0-.99-.56-.99-1.13V1.68h.41v2.41c0 .25 0 .83.67.83.5 0 .81-.47.81-1.02V1.68h.41v2.47ZM65.21 2.79c0-.37-.02-.74-.03-1.11h.38c.01.16.02.27.03.53h.01c.11-.26.37-.57.83-.57.59 0 .74.37.82.57.1-.17.37-.57.89-.57.72 0 .92.6.92 1.16v2.46h-.41V2.85c0-.25 0-.83-.58-.83-.5 0-.74.45-.74.95v2.29h-.41V2.77c0-.46-.2-.76-.54-.76-.46 0-.78.47-.78 1.02v2.22h-.41V2.78ZM70.11 2.79c0-.37-.02-.74-.03-1.11h.38c.01.16.02.27.03.53h.01c.08-.15.32-.57.91-.57.99 0 .99.99.99 1.23v2.4h-.41V2.86c0-.25 0-.83-.67-.83-.5 0-.81.47-.81 1.02v2.22h-.41V2.8ZM77.25 26.44h.56l2.05 4.34h.01v-4.34h.41v4.89h-.56l-2.05-4.31h-.01v4.31h-.41v-4.89ZM81.7 29.67c0 1.32.85 1.32 1.01 1.32.23 0 .57-.11.77-.29l.02.47c-.17.09-.41.2-.83.2-1.4 0-1.4-1.48-1.4-1.83 0-1.34.67-1.83 1.27-1.83 1.04 0 1.14 1.1 1.14 1.97h-1.97Zm1.54-.38c0-.95-.4-1.21-.73-1.21-.55 0-.81.75-.81 1.21h1.54ZM84.16 27.75h.43l.75 3.14h.01l.72-3.14h.52l.78 3.14h.01l.74-3.14h.41l-.93 3.57h-.5l-.77-3.11h-.01l-.73 3.11h-.48l-.96-3.57ZM90.85 26.44h.67l1.36 4.24h.01l1.36-4.24h.67v4.89h-.41v-4.48h-.01l-1.44 4.48h-.33l-1.45-4.48h-.01v4.48h-.41v-4.89ZM95.9 29.54c0-.9.29-1.83 1.34-1.83s1.34.94 1.34 1.83-.29 1.83-1.34 1.83-1.34-.94-1.34-1.83Zm2.24 0c0-.29 0-1.46-.9-1.46s-.9 1.17-.9 1.46 0 1.46.9 1.46.9-1.17.9-1.46ZM99.3 29.54c0-.9.29-1.83 1.34-1.83s1.34.94 1.34 1.83-.29 1.83-1.34 1.83-1.34-.94-1.34-1.83Zm2.24 0c0-.29 0-1.46-.9-1.46s-.9 1.17-.9 1.46 0 1.46.9 1.46.9-1.17.9-1.46ZM102.87 28.86c0-.37-.02-.74-.03-1.11h.38c.01.16.02.27.03.53h.01c.08-.15.32-.57.91-.57.99 0 .99.99.99 1.23v2.4h-.41v-2.41c0-.25 0-.83-.67-.83-.5 0-.81.47-.81 1.02v2.22h-.41v-2.47ZM77.25 40.44h2v.41h-1.56v1.74h1.49V43h-1.49v2.34h-.43v-4.89ZM80.11 40.33h.49v.63h-.49v-.63Zm.04 1.42h.41v3.57h-.41v-3.57ZM81.62 42.86c0-.37-.02-.74-.03-1.11h.38c0 .21.02.42.03.57h.01c.26-.51.56-.62.95-.62v.43c-.64 0-.94.28-.94.94v2.25h-.41v-2.46ZM85.22 42.23c-.2-.08-.38-.15-.61-.15-.42 0-.61.32-.61.57 0 .33.13.4.61.67.49.27.87.45.87 1.02 0 .64-.46 1.04-1.06 1.04-.44 0-.69-.09-.9-.17l.06-.46c.12.08.48.25.81.25.38 0 .66-.29.66-.62 0-.34-.22-.48-.64-.69-.6-.3-.84-.49-.84-1 0-.67.57-.99 1.05-.99.24 0 .53.06.66.11l-.06.42ZM86.94 40.91v.84h.73v.38h-.73v2.33c0 .29.05.54.39.54.19 0 .26-.04.34-.08v.41c-.1.04-.28.05-.47.05-.52 0-.67-.41-.67-.81v-2.44H86v-.38h.53v-.71l.41-.13ZM92.63 46.22l-.79-.88s-.13.03-.26.03c-1.72 0-1.72-2.07-1.72-2.49s0-2.49 1.72-2.49 1.72 2.07 1.72 2.49c0 .36 0 1.89-1.04 2.35l.91.99h-.55Zm-1.04-1.25c1.26 0 1.26-1.7 1.26-2.09s0-2.09-1.26-2.09-1.26 1.7-1.26 2.09 0 2.09 1.26 2.09ZM96.58 44.22c0 .37.02.74.03 1.11h-.38c-.01-.16-.02-.27-.03-.53h-.01c-.04.15-.31.57-.91.57-.78 0-.99-.56-.99-1.13v-2.49h.41v2.41c0 .25 0 .83.67.83.5 0 .81-.47.81-1.02v-2.22h.41v2.47ZM99.78 44.53c0 .27.02.53.04.8h-.36l-.03-.51h-.01c-.25.39-.54.56-1 .56-.55 0-.99-.46-.99-1.04 0-1.14 1.21-1.16 1.72-1.16h.26c0-.45 0-1.09-.74-1.09-.48 0-.85.34-.9.37l-.06-.43c.34-.18.59-.32.98-.32 1.1 0 1.1.92 1.1 1.18v1.64Zm-.38-1c-.84 0-1.55 0-1.55.81 0 .3.22.66.66.66.19 0 .89-.08.89-1.05v-.42ZM100.81 42.86c0-.37-.02-.74-.03-1.11h.38c0 .21.02.42.03.57h.01c.26-.51.56-.62.95-.62v.43c-.64 0-.94.28-.94.94v2.25h-.41v-2.46ZM103.64 40.91v.84h.73v.38h-.73v2.33c0 .29.05.54.39.54.19 0 .26-.04.34-.08v.41c-.1.04-.28.05-.47.05-.52 0-.67-.41-.67-.81v-2.44h-.53v-.38h.53v-.71l.41-.13ZM105.32 43.67c0 1.32.85 1.32 1.01 1.32.23 0 .57-.11.77-.29l.02.47c-.17.09-.41.2-.83.2-1.4 0-1.4-1.48-1.4-1.83 0-1.34.67-1.83 1.27-1.83 1.04 0 1.14 1.1 1.14 1.97h-1.97Zm1.54-.38c0-.95-.4-1.21-.73-1.21-.55 0-.81.75-.81 1.21h1.54ZM108.16 42.86c0-.37-.02-.74-.03-1.11h.38c0 .21.02.42.03.57h.01c.26-.51.56-.62.95-.62v.43c-.64 0-.94.28-.94.94v2.25h-.41v-2.46ZM77.25 54.44h2v.41h-1.56v1.74h1.49V57h-1.49v2.34h-.43v-4.89ZM82.37 58.22c0 .37.02.74.03 1.11h-.38c-.01-.16-.02-.27-.03-.53h-.01c-.04.15-.31.57-.91.57-.78 0-.99-.56-.99-1.13v-2.49h.41v2.41c0 .25 0 .83.67.83.5 0 .81-.47.81-1.02v-2.22h.41v2.47ZM83.44 54.07h.41v5.25h-.41v-5.25ZM84.92 54.07h.41v5.25h-.41v-5.25ZM88.08 54.44h.67l1.36 4.24h.01l1.36-4.24h.67v4.89h-.41v-4.48h-.01l-1.44 4.48h-.33l-1.45-4.48h-.01v4.48h-.41v-4.89ZM93.13 57.54c0-.9.29-1.83 1.34-1.83s1.34.94 1.34 1.83-.29 1.83-1.34 1.83-1.34-.94-1.34-1.83Zm2.24 0c0-.29 0-1.46-.9-1.46s-.9 1.17-.9 1.46 0 1.46.9 1.46.9-1.17.9-1.46ZM96.53 57.54c0-.9.29-1.83 1.34-1.83s1.34.94 1.34 1.83-.29 1.83-1.34 1.83-1.34-.94-1.34-1.83Zm2.24 0c0-.29 0-1.46-.9-1.46s-.9 1.17-.9 1.46 0 1.46.9 1.46.9-1.17.9-1.46ZM100.09 56.86c0-.37-.02-.74-.03-1.11h.38c.01.16.02.27.03.53h.01c.08-.15.32-.57.91-.57.99 0 .99.99.99 1.23v2.4h-.41v-2.41c0-.25 0-.83-.67-.83-.5 0-.81.47-.81 1.02v2.22h-.41v-2.46ZM77.25 68.44h.43v4.48h1.59v.41h-2.02v-4.89ZM82.26 72.53c0 .27.02.53.04.8h-.36l-.03-.51h-.01c-.25.39-.54.56-1 .56-.55 0-.99-.46-.99-1.04 0-1.14 1.21-1.16 1.72-1.16h.26c0-.45 0-1.09-.74-1.09-.48 0-.85.34-.9.37l-.06-.43c.34-.18.59-.32.98-.32 1.1 0 1.1.92 1.1 1.18v1.64Zm-.38-1c-.84 0-1.55 0-1.55.81 0 .3.22.66.66.66.19 0 .89-.08.89-1.05v-.42ZM84.78 70.23c-.2-.08-.38-.15-.61-.15-.42 0-.61.32-.61.57 0 .33.13.4.61.67.49.27.87.45.87 1.02 0 .64-.46 1.04-1.06 1.04-.44 0-.69-.09-.9-.17l.06-.46c.12.08.48.25.81.25.38 0 .66-.29.66-.62 0-.34-.22-.48-.64-.69-.6-.3-.84-.49-.84-1 0-.67.57-.99 1.05-.99.24 0 .53.06.66.11l-.06.42ZM86.5 68.91v.84h.73v.38h-.73v2.33c0 .29.05.54.39.54.19 0 .26-.04.34-.08v.41c-.1.04-.28.05-.47.05-.52 0-.67-.41-.67-.81v-2.44h-.53v-.38h.53v-.71l.41-.13ZM92.19 74.22l-.79-.88s-.13.03-.26.03c-1.72 0-1.72-2.07-1.72-2.49s0-2.49 1.72-2.49 1.72 2.07 1.72 2.49c0 .36 0 1.89-1.04 2.35l.91.99h-.55Zm-1.04-1.25c1.26 0 1.26-1.7 1.26-2.09s0-2.09-1.26-2.09-1.26 1.7-1.26 2.09 0 2.09 1.26 2.09ZM96.15 72.22c0 .37.02.74.03 1.11h-.38c-.01-.16-.02-.27-.03-.53h-.01c-.04.15-.31.57-.91.57-.78 0-.99-.56-.99-1.13v-2.49h.41v2.41c0 .25 0 .83.67.83.5 0 .81-.47.81-1.02v-2.22h.41v2.47ZM99.34 72.53c0 .27.02.53.04.8h-.36l-.03-.51h-.01c-.25.39-.54.56-1 .56-.55 0-.99-.46-.99-1.04 0-1.14 1.21-1.16 1.72-1.16h.26c0-.45 0-1.09-.74-1.09-.48 0-.85.34-.9.37l-.06-.43c.34-.18.59-.32.98-.32 1.1 0 1.1.92 1.1 1.18v1.64Zm-.38-1c-.84 0-1.55 0-1.55.81 0 .3.22.66.66.66.19 0 .89-.08.89-1.05v-.42ZM100.37 70.86c0-.37-.02-.74-.03-1.11h.38c0 .21.02.42.03.57h.01c.26-.51.56-.62.95-.62v.43c-.64 0-.94.28-.94.94v2.25h-.41v-2.46ZM103.2 68.91v.84h.73v.38h-.73v2.33c0 .29.05.54.39.54.19 0 .26-.04.34-.08v.41c-.1.04-.28.05-.47.05-.52 0-.67-.41-.67-.81v-2.44h-.53v-.38h.53v-.71l.41-.13ZM104.88 71.67c0 1.32.85 1.32 1.01 1.32.23 0 .57-.11.77-.29l.02.47c-.17.09-.41.2-.83.2-1.4 0-1.4-1.48-1.4-1.83 0-1.34.67-1.83 1.27-1.83 1.04 0 1.14 1.1 1.14 1.97h-1.97Zm1.54-.38c0-.95-.4-1.21-.73-1.21-.55 0-.81.75-.81 1.21h1.54ZM107.72 70.86c0-.37-.02-.74-.03-1.11h.38c0 .21.02.42.03.57h.01c.26-.51.56-.62.95-.62v.43c-.64 0-.94.28-.94.94v2.25h-.41v-2.46ZM6.47 17.22c0 .34.03.4.21.4h.45c.19 0 .23-.26.25-1.46.24.19.65.38.92.44-.08 1.46-.32 1.94-1.07 1.94h-.75c-.79 0-1.04-.31-1.04-1.31v-3.35l-1.48.04c-.21 1.82-.79 3.57-2.57 4.71-.15-.25-.45-.57-.73-.75 1.55-.93 2.08-2.36 2.26-3.94L.96 14l-.02-.98 2.07-.05c.02-.65.02-1.31.02-1.97l1.3.07c0 .1-.09.15-.24.18 0 .55-.02 1.12-.05 1.69l1.68-.04.13-.09.69.16c0 .07-.03.17-.06.22v4.03ZM15.48 11.35v6.04c0 1.09-.51 1.22-2.33 1.22-.06-.28-.25-.76-.41-1.02.38.02.81.02 1.11.02.53 0 .59 0 .59-.23v-1.26h-3.42c-.23.94-.67 1.86-1.52 2.51-.15-.2-.53-.58-.74-.72 1.37-1.04 1.48-2.61 1.48-3.86v-2.69h5.23Zm-4.23 2.85c0 .31-.02.63-.06.97h3.26v-.97h-3.2Zm3.2-1.9h-3.2v.98h3.2v-.98ZM19.61 18.23h-.81l2.13-6.69h.81l-2.13 6.69ZM30.99 15.68l.72.54s-.14.06-.24.05c-.34.23-.86.53-1.33.78.52.32 1.15.56 1.9.7-.21.21-.49.62-.62.88-1.84-.42-2.93-1.4-3.61-2.94h-.95v1.73c.56-.07 1.15-.15 1.72-.23l.04.79c-1.2.21-2.46.41-3.28.54-.02.07-.07.13-.14.14l-.36-1 1.01-.11v-1.86H24.5v-.87h1.36v-3.57h5.18v.79h-4.18v.43h3.95v.75h-3.95v.41h3.95v.75h-3.95v.42h5.02v.87h-.89Zm-2.17 0c.18.32.39.59.65.84.43-.25.89-.57 1.24-.84h-1.89ZM39.22 11.35v6.04c0 1.09-.51 1.22-2.33 1.22-.06-.28-.25-.76-.41-1.02.38.02.81.02 1.11.02.53 0 .59 0 .59-.23v-1.26h-3.42c-.23.94-.67 1.86-1.52 2.51-.15-.2-.53-.58-.74-.72 1.37-1.04 1.48-2.61 1.48-3.86v-2.69h5.23Zm-4.23 2.85c0 .31-.02.63-.06.97h3.26v-.97h-3.2Zm3.2-1.9h-3.2v.98h3.2v-.98ZM46.32 12.79c-.65.55-1.19 1.59-1.19 2.8s.55 2.27 1.19 2.8v.03h-.56c-.62-.55-1.12-1.61-1.12-2.83s.5-2.29 1.12-2.83h.56v.03ZM51.46 17.53c0 .18.02.2.13.2h.32c.13 0 .15-.09.17-.72.13.11.42.22.6.27-.07.86-.23 1.09-.69 1.09h-.5c-.57 0-.7-.2-.7-.83v-1.29h-1.48v-1.21l-.03.03c-.07-.1-.19-.23-.31-.34v2.54h-1.16v.47h-.63v-4.53h1.79v1.21c.52-.5.85-1.12 1.02-1.66l.81.12c-.02.05-.06.1-.15.1-.04.1-.08.2-.13.3h.82l.1-.03.5.3s-.07.06-.12.07c-.1.18-.25.41-.4.63h.95v1.99h-.91v1.28Zm-3.14-3.68h-.52v1.07h.52v-1.07Zm-.52 2.8h.52v-1.11h-.52v1.11Zm2.74-.23c-.01.05-.06.09-.15.1-.14.83-.39 1.51-1.72 1.9-.06-.17-.24-.44-.37-.57 1.16-.28 1.34-.79 1.43-1.51l.81.08Zm-.61-1.57v.8h.57v-.8h-.57Zm.79-.59c.08-.11.16-.25.22-.38h-.72c-.07.13-.16.25-.24.38h.74Zm.98 1.4v-.8h-.56v.8h.56ZM55.16 15.38c.19.17.73.73.84.86l-.4.59c-.09-.18-.27-.46-.44-.71v2.3h-.7v-2.2c-.22.49-.47.95-.73 1.27a3.9 3.9 0 0 0-.35-.71c.36-.39.72-1.03.95-1.62h-.85v-.67h.98v-.71c-.28.07-.55.13-.82.18-.03-.14-.13-.39-.21-.53.74-.16 1.55-.41 2.03-.67l.59.53s-.09.04-.16.04c-.2.09-.46.18-.73.26v.91h.75v.67h-.75v.22Zm3.94-.99s-.08.07-.17.07c-.16.43-.42 1.04-.64 1.42l-.53-.22c.14.68.53 1.54 1.37 2.08-.14.17-.34.48-.44.67-.83-.53-1.24-1.59-1.33-2.09-.1.53-.51 1.55-1.38 2.09-.08-.17-.29-.49-.42-.65 1.14-.71 1.45-2.03 1.45-2.7v-2.3l.88.06c-.01.07-.07.13-.18.15v2.09c0 .16.02.37.07.59.2-.42.42-1.07.53-1.55l.8.28Zm-2.35-.16c-.02.7-.14 1.35-.53 1.75l-.51-.38c.3-.3.43-.87.45-1.45l.59.09ZM59.72 18.39c.65-.55 1.19-1.59 1.19-2.8s-.55-2.27-1.19-2.8v-.03h.56c.62.55 1.12 1.61 1.12 2.83s-.5 2.28-1.12 2.83h-.56v-.03ZM2.5 31.87v-5.44h-.02l-1 .58-.16-.5 1.26-.7h.58v6.07H2.5ZM5.58 28.85c0-2.12.83-3.15 1.96-3.15s1.86 1.09 1.86 3.07c0 2.11-.74 3.19-1.95 3.19-1.1 0-1.87-1.09-1.87-3.11Zm3.14-.05c0-1.52-.37-2.56-1.22-2.56-.72 0-1.23.96-1.23 2.56s.45 2.61 1.21 2.61c.9 0 1.24-1.17 1.24-2.61ZM10.61 31.45c0-.31.2-.53.49-.53s.48.22.48.53-.19.51-.49.51-.48-.24-.48-.51ZM14.41 31.87v-5.44h-.02l-1 .58-.16-.5 1.26-.7h.58v6.07h-.66ZM20.93 25.8v.56h-2.18l-.25 1.72c.13-.02.26-.03.47-.03 1.08 0 2.04.64 2.04 1.86s-.89 2.06-2.09 2.06c-.61 0-1.12-.18-1.39-.36l.19-.53c.23.15.67.34 1.2.34.76 0 1.42-.56 1.41-1.43 0-.83-.54-1.42-1.67-1.42-.32 0-.58.02-.78.06l.38-2.83h2.67ZM22.51 31.45c0-.31.2-.53.49-.53s.48.22.48.53-.19.51-.49.51-.48-.24-.48-.51ZM27.16 31.87H24.5v-.31l.44-.46c1.07-1.08 1.61-1.73 1.61-2.46 0-.48-.21-.92-.86-.92-.36 0-.68.2-.9.37l-.17-.35c.28-.25.68-.44 1.16-.44.91 0 1.27.66 1.27 1.28 0 .85-.59 1.57-1.52 2.5l-.35.37 1.98.01v.41ZM28.05 29.64c0-1.57.61-2.33 1.45-2.33s1.37.8 1.37 2.27c0 1.56-.55 2.36-1.44 2.36-.82 0-1.38-.8-1.38-2.3Zm2.32-.04c0-1.12-.27-1.9-.9-1.9-.53 0-.91.71-.91 1.9s.33 1.93.89 1.93c.67 0 .92-.86.92-1.93ZM34.37 31.87h-2.66v-.31l.44-.46c1.07-1.08 1.61-1.73 1.61-2.46 0-.48-.21-.92-.86-.92-.36 0-.68.2-.9.37l-.17-.35c.28-.25.68-.44 1.16-.44.91 0 1.27.66 1.27 1.28 0 .85-.59 1.57-1.52 2.5l-.35.37 1.98.01v.41ZM36.91 29.44c.53.09.98.52.98 1.16 0 .71-.52 1.34-1.52 1.34-.45 0-.86-.14-1.06-.29l.15-.38c.16.11.52.27.92.27.75 0 1-.53 1-.94 0-.66-.56-.96-1.15-.96h-.29v-.37h.29c.43 0 .99-.27.99-.83 0-.39-.23-.73-.77-.73-.33 0-.64.16-.82.29l-.15-.37c.22-.17.64-.34 1.07-.34.82 0 1.19.52 1.19 1.06 0 .46-.29.88-.82 1.06v.02ZM57.98 30.08h-.92c-.07.97-.38 1.87-1.47 2.48a3.38 3.38 0 0 0-.41-.31c1-.55 1.3-1.34 1.37-2.17h-.83v.52h-.48v-2.88l.62.04c0 .06-.05.1-.15.11v1.73h.85v-2.54h-1.69v-.49h1c-.1-.39-.32-.96-.57-1.38l.44-.17c.26.43.5 1 .6 1.39l-.36.15h2.85v.49h-1.76v2.54h.9v-1.88l.62.04c0 .06-.05.1-.15.11v2.64h-.48v-.43Zm.53-4.85s-.08.07-.17.07c-.16.37-.44.92-.66 1.28-.1-.03-.32-.13-.41-.15.21-.38.47-.99.61-1.4l.63.2Zm3.53.27v6.36c0 .67-.32.71-1.59.71-.02-.15-.1-.39-.18-.54h.66c.51 0 .57 0 .57-.19v-2.1h-1.88c-.15 1-.49 2.05-1.26 2.83-.09-.1-.31-.25-.44-.31 1.15-1.13 1.26-2.75 1.26-4.01v-2.77h2.85Zm-2.33 2.78c0 .31 0 .64-.04.99h1.83v-1.39h-1.79v.41Zm1.79-2.27h-1.79v1.36h1.79v-1.36ZM2.5 45.87v-5.44h-.02l-1 .58-.16-.5 1.26-.7h.58v6.07H2.5ZM5.58 42.85c0-2.12.83-3.15 1.96-3.15s1.86 1.09 1.86 3.07c0 2.11-.74 3.19-1.95 3.19-1.1 0-1.87-1.09-1.87-3.11Zm3.14-.05c0-1.52-.37-2.56-1.22-2.56-.72 0-1.23.96-1.23 2.56s.45 2.61 1.21 2.61c.9 0 1.24-1.17 1.24-2.61ZM10.61 45.45c0-.31.2-.53.49-.53s.48.22.48.53-.19.51-.49.51-.48-.24-.48-.51ZM16.29 45.87H12.7v-.41l.59-.62c1.44-1.46 2.17-2.34 2.17-3.33 0-.65-.28-1.25-1.16-1.25-.49 0-.92.27-1.21.5l-.23-.47c.37-.33.92-.59 1.57-.59 1.22 0 1.71.89 1.71 1.73 0 1.14-.8 2.11-2.06 3.38l-.48.5v.02h2.68v.55ZM21.15 45.87h-3.59v-.41l.59-.62c1.44-1.46 2.17-2.34 2.17-3.33 0-.65-.28-1.25-1.16-1.25-.49 0-.92.27-1.21.5l-.23-.47c.37-.33.92-.59 1.57-.59 1.22 0 1.71.89 1.71 1.73 0 1.14-.8 2.11-2.06 3.38l-.48.5v.02h2.68v.55ZM22.51 45.45c0-.31.2-.53.49-.53s.48.22.48.53-.19.51-.49.51-.48-.24-.48-.51ZM27.16 45.87H24.5v-.31l.44-.46c1.07-1.08 1.61-1.73 1.61-2.46 0-.48-.21-.92-.86-.92-.36 0-.68.2-.9.37l-.17-.35c.28-.25.68-.44 1.16-.44.91 0 1.27.66 1.27 1.28 0 .85-.59 1.57-1.52 2.5l-.35.37 1.98.01v.41ZM28.05 43.64c0-1.57.61-2.33 1.45-2.33s1.37.8 1.37 2.27c0 1.56-.55 2.36-1.44 2.36-.82 0-1.38-.8-1.38-2.3Zm2.32-.04c0-1.12-.27-1.9-.9-1.9-.53 0-.91.71-.91 1.9s.33 1.93.89 1.93c.67 0 .92-.86.92-1.93ZM34.37 45.87h-2.66v-.31l.44-.46c1.07-1.08 1.61-1.73 1.61-2.46 0-.48-.21-.92-.86-.92-.36 0-.68.2-.9.37l-.17-.35c.28-.25.68-.44 1.16-.44.91 0 1.27.66 1.27 1.28 0 .85-.59 1.57-1.52 2.5l-.35.37 1.98.01v.41ZM36.91 43.44c.53.09.98.52.98 1.16 0 .71-.52 1.34-1.52 1.34-.45 0-.86-.14-1.06-.29l.15-.38c.16.11.52.27.92.27.75 0 1-.53 1-.94 0-.66-.56-.96-1.15-.96h-.29v-.37h.29c.43 0 .99-.27.99-.83 0-.39-.23-.73-.77-.73-.33 0-.64.16-.82.29l-.15-.37c.22-.17.64-.34 1.07-.34.82 0 1.19.52 1.19 1.06 0 .46-.29.88-.82 1.06v.02ZM58.66 45.62h3.68v.55h-7.37v-.55h3.12v-6.46l.74.05c0 .06-.06.1-.17.11v2.4h3.11v.55h-3.11v3.35ZM65.47 42.94l.12-.02.3.04s0 .12-.02.18c-.11 2.14-.2 2.89-.44 3.16-.18.21-.36.24-.92.24-.19 0-.41 0-.64-.02-.02-.16-.08-.38-.17-.53.45.04.85.04 1.03.04.11 0 .19-.02.24-.09.16-.17.27-.83.36-2.52h-1.31l-.05.34-.51-.08c.11-.63.24-1.66.29-2.43h1.56v-1.41h-1.88v-.51h2.41V42h-.53v-.25h-1.09l-.13 1.18h1.38Zm4.12 1.15c.58.68 1.17 1.6 1.38 2.22l-.49.25c-.06-.2-.17-.42-.3-.67-1.38.11-2.82.2-3.75.26 0 .06-.06.11-.12.11l-.2-.64.77-.02c.39-.46.81-1.02 1.22-1.61-.44-.47-1.17-1.08-1.79-1.5l.32-.39c.14.09.28.19.42.29.32-.47.67-1.07.92-1.58h-1.86v-.52h2.01v-1.28l.69.05c0 .06-.06.1-.16.11v1.13h2.26v.52h-2.33l.13.06s-.1.07-.18.07c-.28.51-.73 1.21-1.12 1.73.37.29.73.59.99.85.43-.64.83-1.29 1.13-1.86l.62.32s-.1.08-.19.08c-.64 1.05-1.61 2.46-2.48 3.5.75-.03 1.6-.07 2.44-.11-.23-.4-.52-.8-.8-1.15l.45-.22ZM2.5 59.87v-5.44h-.02l-1 .58-.16-.5 1.26-.7h.58v6.07H2.5ZM5.58 56.85c0-2.12.83-3.15 1.96-3.15s1.86 1.09 1.86 3.07c0 2.11-.74 3.19-1.95 3.19-1.1 0-1.87-1.09-1.87-3.11Zm3.14-.05c0-1.52-.37-2.56-1.22-2.56-.72 0-1.23.96-1.23 2.56s.45 2.61 1.21 2.61c.9 0 1.24-1.17 1.24-2.61ZM10.61 59.45c0-.31.2-.53.49-.53s.48.22.48.53-.19.51-.49.51-.48-.24-.48-.51ZM16.29 59.87H12.7v-.41l.59-.62c1.44-1.46 2.17-2.34 2.17-3.33 0-.65-.28-1.25-1.16-1.25-.49 0-.92.27-1.21.5l-.23-.47c.37-.33.92-.59 1.57-.59 1.22 0 1.71.89 1.71 1.73 0 1.14-.8 2.11-2.06 3.38l-.48.5v.02h2.68v.55ZM20.62 57c-.33.42-.8.67-1.39.67-1.04 0-1.68-.81-1.68-1.84 0-1.11.73-2.13 1.92-2.13s1.86.99 1.86 2.54c0 2.02-1.02 3.42-2.58 3.66-.28.05-.54.07-.72.06v-.56c.17.02.37 0 .62-.04 1.02-.15 1.79-.97 1.99-2.36h-.02Zm-2.39-1.21c0 .82.46 1.37 1.16 1.37.66 0 1.26-.5 1.26-.99 0-1.17-.43-1.95-1.23-1.95-.71 0-1.18.66-1.18 1.57ZM22.52 59.45c0-.31.2-.53.49-.53s.48.22.48.53-.19.51-.49.51-.48-.24-.48-.51ZM27.16 59.87H24.5v-.31l.44-.46c1.07-1.08 1.61-1.73 1.61-2.46 0-.48-.21-.92-.86-.92-.36 0-.68.2-.9.37l-.17-.35c.28-.25.68-.44 1.16-.44.91 0 1.27.66 1.27 1.28 0 .85-.59 1.57-1.52 2.5l-.35.37 1.98.01v.41ZM28.06 57.64c0-1.57.61-2.33 1.45-2.33s1.37.8 1.37 2.27c0 1.56-.55 2.36-1.44 2.36-.82 0-1.38-.8-1.38-2.3Zm2.32-.04c0-1.12-.27-1.9-.9-1.9-.53 0-.91.71-.91 1.9s.33 1.93.89 1.93c.67 0 .92-.86.92-1.93ZM34.37 59.87h-2.66v-.31l.44-.46c1.07-1.08 1.61-1.73 1.61-2.46 0-.48-.21-.92-.86-.92-.36 0-.68.2-.9.37l-.17-.35c.28-.25.68-.44 1.16-.44.91 0 1.27.66 1.27 1.28 0 .85-.59 1.57-1.52 2.5l-.35.37 1.98.01v.41ZM36.91 57.44c.53.09.98.52.98 1.16 0 .71-.52 1.34-1.52 1.34-.45 0-.86-.14-1.06-.29l.15-.38c.16.11.52.27.92.27.75 0 1-.53 1-.94 0-.66-.56-.96-1.15-.96h-.29v-.37h.29c.43 0 .99-.27.99-.83 0-.39-.23-.73-.77-.73-.33 0-.64.16-.82.29l-.15-.37c.22-.17.64-.34 1.07-.34.82 0 1.19.52 1.19 1.06 0 .46-.29.88-.82 1.06v.02ZM56.32 56.6c-.63 0-.8-.21-.8-.82v-1.4h-.59v-.48h1.72v-.88l.67.05c0 .06-.05.09-.15.11v.72h1.64v.48h-2.78v1.41c0 .25.06.33.28.33h1.45c.18 0 .47 0 .62-.04.02.14.04.37.06.48-.12.03-.4.04-.66.04h-1.46Zm2.6 3.28h3.45v.47h-7.43v-.47h3.43v-.77h-2.38v-.46h2.38v-.76h-2.75v-.47h6.13v.47h-2.83v.76h2.43v.46h-2.43v.77Zm3.19-6.54v.17c-.09 2.25-.17 3.01-.37 3.27-.17.2-.39.23-.74.23-.18 0-.38 0-.6-.02 0-.13-.06-.32-.13-.45.36.03.68.03.83.03.19 0 .29-.08.37-.79h-1.98c-.19.61-.5 1.09-.96 1.4-.08-.09-.24-.25-.37-.32.9-.61 1.13-1.86 1.14-3.53h2.54l.28.02Zm-2.4 1.41c-.03.22-.07.43-.11.62h1.9l.05-.62h-1.83Zm1.87-1h-1.79c0 .21-.02.41-.04.61h1.81l.02-.61ZM2.5 73.87v-5.44h-.02l-1 .58-.16-.5 1.26-.7h.58v6.07H2.5ZM7.37 73.87v-5.44h-.02l-1 .58-.16-.5 1.26-.7h.58v6.07h-.66ZM10.61 73.45c0-.31.2-.53.49-.53s.48.22.48.53-.19.51-.49.51-.48-.24-.48-.51ZM12.62 70.85c0-2.12.83-3.15 1.96-3.15s1.86 1.09 1.86 3.07c0 2.11-.74 3.19-1.95 3.19-1.1 0-1.87-1.09-1.87-3.11Zm3.14-.05c0-1.52-.37-2.56-1.22-2.56-.72 0-1.23.96-1.23 2.56s.45 2.61 1.21 2.61c.9 0 1.24-1.17 1.24-2.61ZM20.93 67.8v.56h-2.18l-.25 1.72c.13-.02.26-.03.47-.03 1.08 0 2.04.64 2.04 1.86s-.89 2.06-2.09 2.06c-.61 0-1.12-.18-1.39-.36l.19-.53c.23.15.67.34 1.2.34.76 0 1.42-.56 1.41-1.43 0-.83-.54-1.42-1.67-1.42-.32 0-.58.02-.78.06l.38-2.83h2.67ZM22.51 73.45c0-.31.2-.53.49-.53s.48.22.48.53-.19.51-.49.51-.48-.24-.48-.51ZM27.16 73.87H24.5v-.31l.44-.46c1.07-1.08 1.61-1.73 1.61-2.46 0-.48-.21-.92-.86-.92-.36 0-.68.2-.9.37l-.17-.35c.28-.25.68-.44 1.16-.44.91 0 1.27.66 1.27 1.28 0 .85-.59 1.57-1.52 2.5l-.35.37 1.98.01v.41ZM28.05 71.64c0-1.57.61-2.33 1.45-2.33s1.37.8 1.37 2.27c0 1.56-.55 2.36-1.44 2.36-.82 0-1.38-.8-1.38-2.3Zm2.32-.04c0-1.12-.27-1.9-.9-1.9-.53 0-.91.71-.91 1.9s.33 1.93.89 1.93c.67 0 .92-.86.92-1.93ZM34.37 73.87h-2.66v-.31l.44-.46c1.07-1.08 1.61-1.73 1.61-2.46 0-.48-.21-.92-.86-.92-.36 0-.68.2-.9.37l-.17-.35c.28-.25.68-.44 1.16-.44.91 0 1.27.66 1.27 1.28 0 .85-.59 1.57-1.52 2.5l-.35.37 1.98.01v.41ZM36.91 71.44c.53.09.98.52.98 1.16 0 .71-.52 1.34-1.52 1.34-.45 0-.86-.14-1.06-.29l.15-.38c.16.11.52.27.92.27.75 0 1-.53 1-.94 0-.66-.56-.96-1.15-.96h-.29v-.37h.29c.43 0 .99-.27.99-.83 0-.39-.23-.73-.77-.73-.33 0-.64.16-.82.29l-.15-.37c.22-.17.64-.34 1.07-.34.82 0 1.19.52 1.19 1.06 0 .46-.29.88-.82 1.06v.02ZM62.31 68.18h-3.44l-.09.02v1.41l.04-.05c1.03.5 2.36 1.26 3.03 1.77l-.38.49c-.58-.47-1.72-1.16-2.69-1.68v4.4h-.58v-6.37H55v-.54h7.3v.54ZM65.47 70.94l.12-.02.3.04s0 .12-.02.18c-.11 2.14-.2 2.89-.44 3.16-.18.21-.36.24-.92.24-.19 0-.41 0-.64-.02-.02-.16-.08-.38-.17-.53.45.04.85.04 1.03.04.11 0 .19-.02.24-.09.16-.17.27-.83.36-2.52h-1.31l-.05.34-.51-.08c.11-.63.24-1.66.29-2.43h1.56v-1.41h-1.88v-.51h2.41V70h-.53v-.25h-1.09l-.13 1.18h1.38Zm4.12 1.15c.58.68 1.17 1.6 1.38 2.22l-.49.25c-.06-.2-.17-.42-.3-.67-1.38.11-2.82.2-3.75.26 0 .06-.06.11-.12.11l-.2-.64.77-.02c.39-.46.81-1.02 1.22-1.61-.44-.47-1.17-1.08-1.79-1.5l.32-.39c.14.09.28.19.42.29.32-.47.67-1.07.92-1.58h-1.86v-.52h2.01v-1.28l.69.05c0 .06-.06.1-.16.11v1.13h2.26v.52h-2.33l.13.06s-.1.07-.18.07c-.28.51-.73 1.21-1.12 1.73.37.29.73.59.99.85.43-.64.83-1.29 1.13-1.86l.62.32s-.1.08-.19.08c-.64 1.05-1.61 2.46-2.48 3.5.75-.03 1.6-.07 2.44-.11-.23-.4-.52-.8-.8-1.15l.45-.22Z" class="cls-1"/><path d="M51.83 29.23c0 1.5-1.21 2.71-2.71 2.71s-2.71-1.21-2.71-2.71 1.21-2.71 2.71-2.71 2.71 1.21 2.71 2.71Z" class="cls-3"/><path d="M51.83 57.16c0 1.5-1.21 2.71-2.71 2.71s-2.71-1.21-2.71-2.71 1.21-2.71 2.71-2.71 2.71 1.21 2.71 2.71ZM49.12 40.48c1.5 0 2.71 1.21 2.71 2.71s-1.21 2.71-2.71 2.71" class="cls-2"/><path d="M49.11 40.48c-1.5 0-2.71 1.21-2.71 2.71s1.21 2.71 2.71 2.71" class="cls-3"/><path d="M49.11 73.83c-1.5 0-2.71-1.21-2.71-2.71s1.21-2.71 2.71-2.71" class="cls-2"/><path d="M49.11 73.83c1.5 0 2.71-1.21 2.71-2.71s-1.21-2.71-2.71-2.71" class="cls-3"/><path d="M79.11 36.02v1.09h1.72v.25h-3.7v-.25h1.68v-1.09h-1.49v-.26h1.49v-.6h-.92v-.24c-.23.18-.48.34-.72.49-.04-.06-.12-.17-.18-.23.75-.4 1.48-1.08 1.81-1.65l.42.03s-.04.05-.08.06c.41.57 1.18 1.19 1.84 1.51a1.5 1.5 0 0 0-.19.25c-.66-.37-1.43-.99-1.83-1.55-.23.34-.6.73-1.04 1.08h2.14v.26h-.95v.6h1.52v.26h-1.52Zm-1 1.02c-.06-.22-.23-.55-.4-.8l.23-.09c.18.24.36.57.42.79l-.25.11Zm2.19-.77s-.05.04-.09.03c-.12.22-.33.54-.49.74l-.21-.11c.16-.21.37-.56.48-.81l.32.14ZM82.74 36.26l.03.25c-.47.12-.96.25-1.27.33 0 .03-.03.06-.06.07l-.11-.32c.17-.03.37-.08.6-.13v-1.08h-.49v-.26h.49v-.99h-.54v-.26h1.36v.26h-.55v.99h.47v.26h-.47v1.02l.55-.13Zm1.38 0c.07.16.17.31.28.44.2-.11.46-.28.6-.39l.25.19s-.03.02-.05.02h-.03c-.16.1-.43.24-.63.33.22.2.48.37.78.46-.06.05-.15.16-.19.23-.54-.19-.96-.61-1.2-1.13-.03.03-.06.06-.09.08v1.04h-.27v-.83c-.33.24-.7.43-1.03.56-.04-.06-.12-.15-.17-.21.47-.15 1.03-.46 1.39-.79h-.77v-.91h1.99v.91h-.86Zm-1.44-1.41h2.66v.24h-2.66v-.24Zm2.43-1.13v.88h-2.23v-.88h2.23Zm-1.56.66v-.45h-.43v.45h.43Zm-.29 1.2v.44h1.46v-.44h-1.46Zm.95-1.2v-.45h-.44v.45h.44Zm.66 0v-.45h-.45v.45h.45ZM86.12 33.83h2.76v3.58h-.3v-.25h-2.17v.28h-.29v-3.61Zm2.46.29h-2.17v1.22h2.17v-1.22Zm-2.17 2.75h2.17v-1.25h-2.17v1.25ZM91.87 33.56s-.04.05-.08.06c.42.49 1.19 1.01 1.84 1.27-.06.07-.13.17-.18.25-.66-.3-1.43-.83-1.85-1.32-.37.46-1.08 1-1.81 1.35-.04-.06-.11-.17-.17-.23.74-.33 1.48-.9 1.83-1.4l.42.02Zm-.17 2.7c.11.17.24.31.41.44.33-.18.75-.44 1-.64l.26.2s-.06.03-.09.02c-.25.17-.63.4-.95.56.34.21.77.34 1.26.42-.06.06-.14.17-.18.25-.92-.17-1.62-.57-1.99-1.25h-.68v.88c.35-.03.74-.07 1.12-.1v.24c-.65.07-1.35.14-1.77.18 0 .03-.03.06-.06.06l-.11-.32.54-.05V34.8h1.01v-.52l.38.02s-.03.05-.08.06v.44h1.05v1.46h-1.1Zm.81-1.22h-1.78v.38h1.78v-.38Zm-1.78.6v.39h1.78v-.39h-1.78ZM78.07 63.6c.1-.22.21-.58.27-.82l.33.09s-.04.04-.09.04c-.06.21-.17.51-.27.73h.63v.26H76.7v-.26h1.5l-.13-.04Zm.8-1.14v.26h-2.06v-.26h.89v-.5l.36.02s-.03.05-.08.06v.42h.9Zm-1.88 3.46V64.3h1.69v1.59h-.28v-.22h-1.14v.24h-.27Zm.33-3.1c.1.22.18.51.2.69l-.25.06c-.02-.19-.1-.48-.19-.7l.23-.05Zm1.08 1.74h-1.14v.87h1.14v-.87Zm2.07-2.35.19.09s-.02.03-.04.04c-.16.36-.39.82-.62 1.27.46.43.65.75.65 1.06 0 .67-.46.67-.74.67h-.2c0-.08-.04-.2-.1-.28.09 0 .18.01.26.01.29 0 .49-.01.49-.41 0-.28-.21-.57-.67-1 .21-.42.39-.82.54-1.17h-.85v3.43h-.28v-3.7h1.36ZM82.5 62.18s-.05.04-.1.04c-.3.67-.79 1.3-1.33 1.69a1.14 1.14 0 0 0-.23-.2c.53-.36 1.02-.97 1.29-1.64l.37.12Zm1.49 1.42h.07l.16.01v.1c-.07 1.38-.13 1.87-.28 2.03-.12.14-.25.15-.51.15-.14 0-.33 0-.51-.02 0-.09-.04-.21-.09-.29.29.03.57.03.67.03.09 0 .14 0 .18-.05.11-.11.18-.55.23-1.69h-1.17c-.12.82-.35 1.64-1.5 2.05-.04-.07-.11-.18-.18-.24 1.03-.34 1.27-1.06 1.38-1.81h-.92v-.28h2.47Zm-.37-1.55c.28.59.84 1.25 1.31 1.57-.08.06-.18.17-.24.25-.48-.38-1.03-1.08-1.34-1.71l.27-.11ZM88.33 62.19v3.3c0 .22-.06.32-.22.37-.16.05-.44.06-.91.05-.02-.08-.08-.22-.12-.3.2 0 .4.01.55.01.37 0 .4 0 .4-.13v-.95h-2.11c-.11.5-.33 1-.78 1.38-.04-.06-.15-.17-.21-.21.73-.62.8-1.5.8-2.21v-1.31h2.6Zm-2.31 1.31c0 .22 0 .48-.05.77h2.06v-.77h-2.01Zm2.01-1.03h-2.01v.76h2.01v-.76ZM91.33 61.96s-.04.05-.08.06c.42.49 1.19 1.01 1.84 1.27-.06.07-.13.17-.18.25-.66-.3-1.43-.83-1.85-1.32-.37.46-1.08 1-1.81 1.35-.04-.06-.11-.17-.17-.23.74-.33 1.48-.9 1.83-1.4l.42.02Zm-.17 2.7c.11.17.24.31.41.44.33-.18.75-.44 1-.64l.26.2s-.06.03-.09.02c-.25.17-.63.4-.95.56.34.21.77.35 1.26.42-.06.06-.14.17-.18.25-.92-.17-1.62-.57-1.99-1.25h-.68v.88c.35-.03.74-.07 1.12-.1v.24c-.65.07-1.35.14-1.77.18 0 .04-.03.06-.06.06l-.11-.32.54-.05V63.2h1.01v-.52l.38.02s-.03.05-.08.06v.44h1.05v1.46h-1.1Zm.81-1.22h-1.78v.38h1.78v-.38Zm-1.78.6v.39h1.78v-.39h-1.78Z" class="cls-1"/></g></svg>